<?xml version="1.0" encoding="utf-8"?>
<svg version="1.1" xmlns="http://www.w3.org/2000/svg" xmlns:xlink="http://www.w3.org/1999/xlink" x="0px" y="0px" viewBox="0 0 620 600" xml:space="preserve" date-w="620" data-h="600">

    <path name="彰化市" class="town" data-zip="500" d="M535.9019247377291,228.71521399512494L523.7739430086222,233.47156282024298L511.93820180307375,232.67884660570053L492.94256776946713,241.39853602363291L491.9197259368957,236.24604251624987L485.49043441785034,231.22552462232488L482.42190892013605,221.9768413954189L465.91031933709746,215.50248478608773L460.21162912703585,216.29527546474128L447.9375271361205,224.8836208130706L440.1931532608869,223.0338574391426L437.5629885485396,218.27723712084116L416.8139113734069,218.01297680808057L415.49882901721867,221.31620326512348L394.89587210389436,220.91981924122229L386.27477665786864,217.08806270549394L381.3066877568199,218.541497051614L377.36144068828435,210.34926156917572L380.8683269713947,208.36721395611312L380.8683269713947,199.64594909578955L371.9549910018104,186.56327129261263L375.3157570231124,182.9951056495629L384.2290929927258,184.31665660742874L390.0739034646249,179.42687030029265L404.10144859712454,172.55451689473557L405.70877147687133,166.7392466030651L415.0604682318517,166.21057648292845L426.896209437371,159.86641562311343L425.87336760479957,153.12550310399456L430.1108551968937,147.44179516225995L436.8323872395558,132.90127134899376L447.7914068743121,134.88413829589263L466.6409206460812,140.96479587232898L480.96070630213944,139.1141824131373L487.9744788684184,144.13723241622574L502.2942645244766,145.45906469634065L506.3856318547914,148.63142310077455L518.3674933221191,149.16014413961238L521.7282593434502,167.00358108906585L522.0204998670088,175.1977603496307L527.8653103389079,191.18856746930032L535.3174436905538,197.00305938896054L535.7558044759207,214.04902627927004L532.9795195017941,219.33427455227502Z"/>

    <path name="芬園鄉" class="town" data-zip="502"     d="M540.870013638807,357.7534344634514L538.9704502354434,347.98299184796997L534.4407221197325,345.7383572198196L531.8105574074143,335.70318421434786L528.1575508625247,331.7417805792247L528.0114306006872,325.5354095094117L522.89722143783,318.00825208502647L512.3765625884698,314.5747092226302L513.6916449446289,309.2922100044998L514.4222462536127,296.21736965193486L506.23951159301214,283.0095129228321L509.01579656713875,281.5565905397889L496.3033337907982,260.289770932548L495.57273248181446,247.6077584655577L492.94256776946713,241.39853602363291L511.93820180307375,232.67884660570053L523.7739430086222,233.47156282024298L535.9019247377291,228.71521399512494L538.824329973635,240.60585416060349L534.1484815961448,247.0793222059874L539.5549312826188,253.02414214172313L549.3449888230243,251.04255695514803L550.513950917375,254.08097880112837L560.7423692431767,258.30826441184036L562.9341731700988,246.94721290262532L569.8018254745402,254.47729097496995L574.7699143756472,251.57098176962973L581.9298072037054,258.572466520709L604.5784477821726,275.2164307021776L596.6879536451597,286.8398894152342L588.3590987227508,284.1982590271291L562.6419326465111,282.2170112336207L556.3587613892742,283.6699283777234L552.12127379718,289.34940299804293L549.3449888230243,297.53810295464064L551.0984319645795,304.1416266789456L561.326850290352,309.95253073230924L567.4639012858097,316.68766628682715L563.2264136936865,330.28924447450845L563.2264136936865,347.32280804316906L550.0755901320081,362.5064346924846Z"/>

    <path name="花壇鄉" class="town" data-zip="503"    d="M492.94256776946713,241.39853602363291L495.57273248181446,247.6077584655577L496.3033337907982,260.289770932548L509.01579656713875,281.5565905397889L498.64125797955785,281.68867486905947L493.96540960206767,279.4432283158676L483.2986304909282,281.68867486905947L474.82365530668176,287.1040503587319L442.9694382350135,291.7268052072359L440.0470329991076,284.1982590271291L431.86429833847797,283.5378454772399L426.7500891755626,278.3865380585594L417.54451268239063,276.9335789990546L413.4531453520758,269.53651776537663L406.73161330944276,268.7439577656987L405.56265121506294,258.176163214408L399.1333596960176,243.90867259842707L398.9872394342092,232.01824713575843L394.89587210389436,220.91981924122229L415.49882901721867,221.31620326512348L416.8139113734069,218.01297680808057L437.5629885485396,218.27723712084116L440.1931532608869,223.0338574391426L447.9375271361205,224.8836208130706L460.21162912703585,216.29527546474128L465.91031933709746,215.50248478608773L482.42190892013605,221.9768413954189L485.49043441785034,231.22552462232488L491.9197259368957,236.24604251624987Z"/>

    <path name="秀水鄉" class="town" data-zip="504"    d="M371.9549910018104,186.56327129261263L380.8683269713947,199.64594909578955L380.8683269713947,208.36721395611312L377.36144068828435,210.34926156917572L381.3066877568199,218.541497051614L386.27477665786864,217.08806270549394L394.89587210389436,220.91981924122229L398.9872394342092,232.01824713575843L399.1333596960176,243.90867259842707L405.56265121506294,258.176163214408L406.73161330944276,268.7439577656987L413.4531453520758,269.53651776537663L417.54451268239063,276.9335789990546L409.94625906893634,279.57531416934944L406.5854930476344,285.78324183165387L406.87773357125116,293.70795014768737L400.0100812668097,300.575753423509L389.34330215564114,305.85850387062965L384.0829727309465,304.93403353523536L379.699364877044,308.36775698899874L376.19247859393363,306.1226373956306L367.13302236251184,295.02870153956246L365.23345895917737,286.8398894152342L366.2563007917488,272.70672345643834L358.804167440132,265.9699707473301L349.16023016153486,260.0255713025181L351.3520340885152,255.53411924290413L361.28821189064183,253.6846657690403L353.2515974918497,245.0976726400986L350.0369517322979,237.96355647722885L351.0597935648693,228.71521399512494L345.9455844020122,218.27723712084116L348.5757491143595,213.5204930480395L348.4296288525511,197.79593031467084L345.6533438784245,194.22798405487993L359.0964079637197,188.94200966702192L362.8955347704177,185.2417365888723Z"/>

    <path name="鹿港鎮" class="town" data-zip="505"    d="M342.8770589042688,149.29232415995284L347.2606667581713,154.5794464701321L354.2744393244211,156.5620778489356L358.804167440132,170.30772987402815L357.3429648221645,179.82334433721917L362.8955347704177,185.2417365888723L359.0964079637197,188.94200966702192L345.6533438784245,194.22798405487993L348.4296288525511,197.79593031467084L348.5757491143595,213.5204930480395L345.9455844020122,218.27723712084116L345.6533438784245,227.52610746082792L335.71716607623966,226.4691173838146L329.580115080782,221.44833108212697L310,220.52343435799412L304.4474300517468,218.80575660046088L292.3194483226398,218.80575660046088L294.21901172597427,232.01824713575843L287.05911889794515,227.39398403530504L279.46086528449086,215.50248478608773L270.69364957671496,218.93788623163346L255.93550313523156,209.82071764049397L249.5062116161862,212.9919582886905L248.92173056898173,213.12409212178318L248.33724952180637,213.25622585937526L244.09976192971226,213.12409212178318L219.25931742426474,213.25622585937526L200.7020441760833,214.31329232185817L167.38662448641844,218.541497051614L165.77930160667165,213.38835950145221L171.0396310313663,200.17452245025925L177.46892255041166,193.56724562007003L189.15854349415167,189.470613988291L194.5649931806256,180.0876598836985L204.20893045922276,178.89823691218044L212.68390564341098,175.85856523524126L221.59724161302438,170.30772987402815L224.373526587151,156.9586015403329L218.528716115281,157.22295018934165L238.10883119603386,127.87791193960948L240.15451486120583,119.02059907100556L289.3970430866757,118.49179066308352L299.04098036527284,115.05449862650858L310.73060130901285,115.31890800697875L318.767215707805,126.02716570071789L324.612026179675,130.52180255908388L329.580115080782,143.608496822897Z"/>

    <path name="福興鄉" class="town" data-zip="506"   d="M345.9455844020122,218.27723712084116L351.0597935648693,228.71521399512494L350.0369517322979,237.96355647722885L353.2515974918497,245.0976726400986L361.28821189064183,253.6846657690403L351.3520340885152,255.53411924290413L349.16023016153486,260.0255713025181L358.804167440132,265.9699707473301L366.2563007917488,272.70672345643834L365.23345895917737,286.8398894152342L361.7265726760379,281.8207591030914L332.64864057849627,277.1977542309396L323.735304608912,277.32984170399504L309.8538797381916,268.0834884784308L303.13234769555856,261.34656563927274L288.2280809922959,262.79964839890454L287.7897202069289,267.6872057624132L279.46086528449086,274.4238952880587L277.2690613575396,279.4432283158676L281.06818816429586,282.7453460741053L276.53846004858497,288.02861066102923L274.6388966451923,304.27369472626015L266.45616198459174,300.0474700027662L258.5656678475789,300.3116119035112L253.5975789464719,297.0098107759659L248.92173056898173,292.2551126194667L241.17735669377726,291.19849627146687L228.9032547028619,284.3303414513466L226.12696972870617,272.57463264851685L216.7752729737258,256.19463381137757L212.97614616699866,252.75993202326208L208.44641805128776,241.53064933356654L187.84346113799256,234.92486695720436L166.5099029156263,226.99761318598394L167.38662448641844,218.541497051614L200.7020441760833,214.31329232185817L219.25931742426474,213.25622585937526L244.09976192971226,213.12409212178318L248.33724952180637,213.25622585937526L248.92173056898173,213.12409212178318L249.5062116161862,212.9919582886905L255.93550313523156,209.82071764049397L270.69364957671496,218.93788623163346L279.46086528449086,215.50248478608773L287.05911889794515,227.39398403530504L294.21901172597427,232.01824713575843L292.3194483226398,218.80575660046088L304.4474300517468,218.80575660046088L310,220.52343435799412L329.580115080782,221.44833108212697L335.71716607623966,226.4691173838146L345.6533438784245,227.52610746082792Z"/>

    <path name="線西鄉" class="town" data-zip="507"    d="M348.8679896379181,95.4871400704942L350.47531251769396,114.1290627749986L354.7128001098172,119.68160742419423L344.77662230763235,137.7923041630529L345.2149830929993,145.98779492716858L342.8770589042688,149.29232415995284L329.580115080782,143.608496822897L324.612026179675,130.52180255908388L318.767215707805,126.02716570071789L310.73060130901285,115.31890800697875L299.04098036527284,115.05449862650858L289.3970430866757,118.49179066308352L240.15451486120583,119.02059907100556L243.80752140609547,110.16285591468841L242.2001985263487,102.49461127133327L244.68424297688762,98.26371749518512L251.40577501954976,96.41267057958248L258.85790837116656,78.29786180513474L255.78938287342316,71.95064129879393L261.63419334529317,70.76051282461776L263.0953959632898,53.70114974844546L266.0178011991957,47.749832986315596L274.3466561216046,42.195095072453114L281.9449097350589,54.7591412440961L293.19616989340284,69.96708952045083L293.7806509405782,73.14076199481497L308.2465568584448,84.90931462496883L314.3836078539316,87.81827784663983L327.53443141561,84.11595295702864L331.18743796052877,91.9171926402887Z"/>

    <path name="和美鎮" class="town" data-zip="508"    d="M436.8323872395558,132.90127134899376L430.1108551968937,147.44179516225995L425.87336760479957,153.12550310399456L426.896209437371,159.86641562311343L415.0604682318517,166.21057648292845L405.70877147687133,166.7392466030651L404.10144859712454,172.55451689473557L390.0739034646249,179.42687030029265L384.2290929927258,184.31665660742874L375.3157570231124,182.9951056495629L371.9549910018104,186.56327129261263L362.8955347704177,185.2417365888723L357.3429648221645,179.82334433721917L358.804167440132,170.30772987402815L354.2744393244211,156.5620778489356L347.2606667581713,154.5794464701321L342.8770589042688,149.29232415995284L345.2149830929993,145.98779492716858L344.77662230763235,137.7923041630529L354.7128001098172,119.68160742419423L350.47531251769396,114.1290627749986L348.8679896379181,95.4871400704942L374.731275975937,106.46098498565334L377.06920016472577,101.83354059343401L380.42996618602774,84.24818014165794L384.3752132545342,74.19864052840421L397.96439760163776,65.20647709002151L405.8548917386506,83.58704325877989L403.0786067644949,96.54488883997692L414.18374666105956,114.39347349762102L424.70440551041975,118.6239929088515L431.1336970294942,129.06766746129142Z"/>

    <path name="伸港鄉" class="town" data-zip="509"    d="M397.96439760163776,65.20647709002151L384.3752132545342,74.19864052840421L380.42996618602774,84.24818014165794L377.06920016472577,101.83354059343401L374.731275975937,106.46098498565334L348.8679896379181,95.4871400704942L331.18743796052877,91.9171926402887L327.53443141561,84.11595295702864L314.3836078539316,87.81827784663983L308.2465568584448,84.90931462496883L293.7806509405782,73.14076199481497L293.19616989340284,69.96708952045083L281.9449097350589,54.7591412440961L274.3466561216046,42.195095072453114L274.3466561216046,33.99493391275246L284.7211947091855,29.233380383593612L293.19616989340284,30.55604664461862L299.3332208888605,26.058942113184457L315.6986902101198,3.637978807091713e-12L377.9459217354888,22.884448434138903L382.7678903747874,28.572043646221573L395.04199236570275,59.65227192049133Z"/>

    <path name="員林市" class="town" data-zip="510" d="M513.6916449446289,309.2922100044998L512.3765625884698,314.5747092226302L522.89722143783,318.00825208502647L528.0114306006872,325.5354095094117L528.1575508625247,331.7417805792247L531.8105574074143,335.70318421434786L534.4407221197325,345.7383572198196L538.9704502354434,347.98299184796997L540.870013638807,357.7534344634514L539.9932920680149,366.59919738242024L547.2993051578815,375.1805003546724L548.1760267286445,382.4412896441063L544.0846593983297,390.757841042825L539.4088110208395,392.86992112537337L533.2717600253818,393.66194489611007L522.4588606524048,389.17376504483764L511.3537207558984,389.43777865979064L505.5089102840284,386.92963399680593L493.0886880313046,390.2298172279334L492.3580867222918,397.62201253399326L488.8512004391814,401.9779883570918L477.74606054264586,404.4859275961826L470.29392719102907,390.0978110370597L459.91938860344817,388.51372934732717L452.321134990023,383.4973805359914L451.44441341925994,372.93619830809257L457.8737049383053,365.54300929487727L454.6590591787535,356.03704302002734L433.76386174181243,347.7189186111027L429.5263741497183,340.19267157668946L433.61774148000404,330.1571951672413L444.7228813765687,324.74309170030756L452.321134990023,323.81871659596436L453.6362173461821,334.3827258425699L471.0245284999837,329.89309626748945L471.1706487617921,325.6674621447564L486.95163703584694,322.8943368315995L504.77830897504464,313.7823440446373L508.5774357817427,309.2922100044998Z"/>

    <path name="社頭鄉" class="town" data-zip="511" d="M479.20726316061337,470.4720372975062L478.9150226369966,470.07619119935043L477.5999402808375,470.86788254453495L474.82365530668176,471.65957048534983L473.8008134741103,471.2637269404768L473.65469321233104,471.2637269404768L470.29392719102907,468.22889815412054L470.1478069292207,467.83304723281617L469.7094461438246,465.32597163070386L470.58616771458765,464.27035063575386L468.83272457303246,444.4763358209311L460.7961101742112,453.58184707070177L458.3120657237014,446.32386729689824L456.120261796721,432.7308803562919L462.1111925303703,430.6192582585172L458.3120657237014,420.4567377591411L464.1568761955423,417.15709732115283L472.4857311179512,416.7611364887307L470.0016866674123,405.9378767752496L464.88747750452603,399.0740159489724L470.29392719102907,390.0978110370597L477.74606054264586,404.4859275961826L488.8512004391814,401.9779883570918L492.3580867222918,397.62201253399326L493.0886880313046,390.2298172279334L505.5089102840284,386.92963399680593L511.3537207558984,389.43777865979064L522.4588606524048,389.17376504483764L533.2717600253818,393.66194489611007L539.4088110208395,392.86992112537337L550.8061914409918,402.6379756858405L543.6462986129336,422.7004594308273L544.2307796601381,429.9593713806353L547.4454254196899,436.4261606903201L546.5687038488977,449.09512972542507L540.7238933770277,452.5261587139139L534.58684238157,470.2081399932831L518.6597338457068,465.1940193373848L509.16191682891804,465.8537798580801L492.94256776946713,462.15909048440153L493.0886880313046,470.2081399932831Z"/>

    <path name="永靖鄉" class="town" data-zip="512" d="M470.29392719102907,390.0978110370597L464.88747750452603,399.0740159489724L470.0016866674123,405.9378767752496L472.4857311179512,416.7611364887307L464.1568761955423,417.15709732115283L458.3120657237014,420.4567377591411L462.1111925303703,430.6192582585172L456.120261796721,432.7308803562919L446.0379637327569,434.7105040540009L441.3621153552667,426.9238612432164L433.90998200364993,427.97969653949986L433.61774148000404,434.9744522704823L421.63588001267635,434.9744522704823L422.6587218452769,426.9238612432164L412.86866430490045,419.7968144092847L403.66308781169937,417.0251104717645L392.41182765338453,418.4769606030495L387.0053779668524,412.8014812546753L379.8454851388233,410.5576387591718L374.8773962377745,404.35393164741254L365.23345895917737,401.84599060687833L366.98690210073255,395.6419893846032L382.9140106365667,387.72168337971016L381.74504854221595,392.07789394004067L387.2976184904983,395.3779846857615L393.2885492241476,392.73791683162926L393.43466948595596,387.3256591151876L408.923417236394,384.0254237046829L414.32986692286795,385.47753459084197L416.5216708498192,392.4739079595565L420.6130381801049,395.6419893846032L429.9647349351144,390.0978110370597L439.75479247551993,390.62583523139256L447.4991663507244,383.8934130548405L452.321134990023,383.4973805359914L459.91938860344817,388.51372934732717Z"/>

    <path name="埔心鄉" class="town" data-zip="513" d="M433.61774148000404,330.1571951672413L429.5263741497183,340.19267157668946L433.76386174181243,347.7189186111027L454.6590591787535,356.03704302002734L457.8737049383053,365.54300929487727L451.44441341925994,372.93619830809257L452.321134990023,383.4973805359914L447.4991663507244,383.8934130548405L439.75479247551993,390.62583523139256L429.9647349351144,390.0978110370597L420.6130381801049,395.6419893846032L416.5216708498192,392.4739079595565L414.32986692286795,385.47753459084197L408.923417236394,384.0254237046829L393.43466948595596,387.3256591151876L393.2885492241476,392.73791683162926L387.2976184904983,395.3779846857615L381.74504854221595,392.07789394004067L382.9140106365667,387.72168337971016L385.6902956106933,378.61290925144203L389.34330215564114,373.46427184579807L388.02821979948203,366.20312756169733L392.5579479151347,355.24485693973475L392.11958712973865,344.41797108122773L386.12865639608935,339.6645022958437L388.1743400612613,327.12003485726746L383.6446119455504,319.98911294668505L391.2428655589756,326.7238798040453L415.3527087554394,327.6482402635993L417.10615189702366,332.40202046020204L426.16560812838725,336.099319872199L430.40309572051046,328.96874712326826Z"/>

    <path name="溪湖鎮" class="town" data-zip="514" d="M388.1743400612613,327.12003485726746L386.12865639608935,339.6645022958437L392.11958712973865,344.41797108122773L392.5579479151347,355.24485693973475L388.02821979948203,366.20312756169733L389.34330215564114,373.46427184579807L385.6902956106933,378.61290925144203L382.9140106365667,387.72168337971016L366.98690210073255,395.6419893846032L365.23345895917737,401.84599060687833L359.68088901089504,408.31376887052465L352.22875565927825,408.84174072065434L339.662413144717,406.2018663026247L328.9956340336066,392.73791683162926L314.5297281157109,380.59311597031046L310,368.84357689259923L301.96338560120785,353.7925069110861L308.97715816742857,344.8140879205712L314.2374875921232,350.35963387760785L326.6577098448179,341.5130881258592L327.8266719392268,323.1584458112302L331.77191900773323,318.5364837407942L336.8861281705904,318.5364837407942L343.60766021325253,326.59182792947104L350.3291922558856,327.12003485726746L352.8132367064536,333.3263523005371L368.44810471870005,334.51477210752273L378.0920419972681,333.06225796436775L383.06013089837506,328.0443933198985Z"/>

    <path name="大村鄉" class="town" data-zip="515" d="M509.01579656713875,281.5565905397889L506.23951159301214,283.0095129228321L514.4222462536127,296.21736965193486L513.6916449446289,309.2922100044998L508.5774357817427,309.2922100044998L504.77830897504464,313.7823440446373L486.95163703584694,322.8943368315995L471.1706487617921,325.6674621447564L471.0245284999837,329.89309626748945L453.6362173461821,334.3827258425699L452.321134990023,323.81871659596436L444.7228813765687,324.74309170030756L433.61774148000404,330.1571951672413L430.40309572051046,328.96874712326826L426.16560812838725,336.099319872199L417.10615189702366,332.40202046020204L415.3527087554394,327.6482402635993L391.2428655589756,326.7238798040453L383.6446119455504,319.98911294668505L379.11488382986863,313.2540986898348L379.699364877044,308.36775698899874L384.0829727309465,304.93403353523536L389.34330215564114,305.85850387062965L400.0100812668097,300.575753423509L406.87773357125116,293.70795014768737L406.5854930476344,285.78324183165387L409.94625906893634,279.57531416934944L417.54451268239063,276.9335789990546L426.7500891755626,278.3865380585594L431.86429833847797,283.5378454772399L440.0470329991076,284.1982590271291L442.9694382350135,291.7268052072359L474.82365530668176,287.1040503587319L483.2986304909282,281.68867486905947L493.96540960206767,279.4432283158676L498.64125797955785,281.68867486905947Z"/>

    <path name="埔鹽鄉" class="town" data-zip="516" d="M365.23345895917737,286.8398894152342L367.13302236251184,295.02870153956246L376.19247859393363,306.1226373956306L379.699364877044,308.36775698899874L379.11488382986863,313.2540986898348L383.6446119455504,319.98911294668505L388.1743400612613,327.12003485726746L383.06013089837506,328.0443933198985L378.0920419972681,333.06225796436775L368.44810471870005,334.51477210752273L352.8132367064536,333.3263523005371L350.3291922558856,327.12003485726746L343.60766021325253,326.59182792947104L336.8861281705904,318.5364837407942L331.77191900773323,318.5364837407942L327.8266719392268,323.1584458112302L326.6577098448179,341.5130881258592L314.2374875921232,350.35963387760785L308.97715816742857,344.8140879205712L301.96338560120785,353.7925069110861L297.1414169619093,344.55001012269713L291.8810875372146,339.7965447586139L280.6298273788416,336.49545467451026L272.7393332418578,327.12003485726746L273.61605481262086,325.00719801706873L258.5656678475789,300.3116119035112L266.45616198459174,300.0474700027662L274.6388966451923,304.27369472626015L276.53846004858497,288.02861066102923L281.06818816429586,282.7453460741053L277.2690613575396,279.4432283158676L279.46086528449086,274.4238952880587L287.7897202069289,267.6872057624132L288.2280809922959,262.79964839890454L303.13234769555856,261.34656563927274L309.8538797381916,268.0834884784308L323.735304608912,277.32984170399504L332.64864057849627,277.1977542309396L361.7265726760379,281.8207591030914Z"/>

    <path name="田中鎮" class="town" data-zip="520" d="M534.58684238157,470.2081399932831L535.9019247377291,475.2221240927829L528.4497913861123,486.3051834557846L531.9566776692227,493.6935192031269L537.6553678792843,499.2345765640166L535.6096842141415,505.8308561618687L526.8424685063073,520.4737531035862L522.6049809142423,522.0566993214343L508.72355604352197,529.5755082739561L506.09339133120375,525.750187645579L499.51797955035,525.6182786222889L499.81022007393767,535.5111935370442L506.23951159301214,548.437136087723L505.94727106939536,551.4706444544936L491.627485413308,551.074972278413L480.3762252549641,539.8639079913846L477.3076997572498,542.6337637123906L466.20255986068514,532.8731347830108L453.9284578697698,518.2312226955692L449.1064892304712,512.4268996641295L461.2344709596073,513.6141624258235L465.91031933709746,506.8862389862952L454.22069839338656,497.387575960096L452.61337551361066,493.82545107703845L443.4077990204096,487.36067813496265L443.84615980580566,480.2359716621868L445.0151219001564,473.37488267873414L450.7138121102471,457.4086665975192L458.3120657237014,457.2767086281565L460.7961101742112,453.58184707070177L468.83272457303246,444.4763358209311L470.58616771458765,464.27035063575386L469.7094461438246,465.32597163070386L470.1478069292207,467.83304723281617L470.29392719102907,468.22889815412054L473.65469321233104,471.2637269404768L473.8008134741103,471.2637269404768L474.82365530668176,471.65957048534983L477.5999402808375,470.86788254453495L478.9150226369966,470.07619119935043L479.20726316061337,470.4720372975062L493.0886880313046,470.2081399932831L492.94256776946713,462.15909048440153L509.16191682891804,465.8537798580801L518.6597338457068,465.1940193373848Z"/>

    <path name="北斗鎮" class="town" data-zip="521" d="M443.84615980580566,480.2359716621868L443.4077990204096,487.36067813496265L452.61337551361066,493.82545107703845L454.22069839338656,497.387575960096L465.91031933709746,506.8862389862952L461.2344709596073,513.6141624258235L449.1064892304712,512.4268996641295L453.9284578697698,518.2312226955692L450.1293310630426,521.5290520922608L428.79577284073457,510.7119510625889L422.3664813216892,505.5670095113928L412.72254404309206,505.1712388273845L414.18374666105956,518.495051218244L400.5945623139851,502.2688945059417L402.64024597912794,497.12371721948875L396.35707472186186,488.548102419365L388.466580584849,489.0758440887075L385.98253613431007,486.04130884090046L390.51226424999186,480.3679131757999L381.74504854221595,478.6526661252901L375.4618772849499,472.7151491109398L371.8088707400311,462.42299932763854L372.2472315254272,444.74027002484945L383.49849168374203,447.11566082148056L398.11051786341704,454.5055694148796L399.86396100500133,459.9158500389094L405.56265121506294,462.42299932763854L413.3070250902965,459.65193760079273L425.5811270812119,459.2560682340809L430.9875767676858,462.42299932763854L434.93282383622136,479.18043615014176Z"/>

    <path name="田尾鄉" class="town" data-zip="522" d="M456.120261796721,432.7308803562919L458.3120657237014,446.32386729689824L460.7961101742112,453.58184707070177L458.3120657237014,457.2767086281565L450.7138121102471,457.4086665975192L445.0151219001564,473.37488267873414L443.84615980580566,480.2359716621868L434.93282383622136,479.18043615014176L430.9875767676858,462.42299932763854L425.5811270812119,459.2560682340809L413.3070250902965,459.65193760079273L405.56265121506294,462.42299932763854L399.86396100500133,459.9158500389094L398.11051786341704,454.5055694148796L383.49849168374203,447.11566082148056L372.2472315254272,444.74027002484945L369.0325857659045,441.8369729555561L349.30635042331414,432.2029771048474L338.3473307885579,418.7409321223531L339.662413144717,406.2018663026247L352.22875565927825,408.84174072065434L359.68088901089504,408.31376887052465L365.23345895917737,401.84599060687833L374.8773962377745,404.35393164741254L379.8454851388233,410.5576387591718L387.0053779668524,412.8014812546753L392.41182765338453,418.4769606030495L403.66308781169937,417.0251104717645L412.86866430490045,419.7968144092847L422.6587218452769,426.9238612432164L421.63588001267635,434.9744522704823L433.61774148000404,434.9744522704823L433.90998200364993,427.97969653949986L441.3621153552667,426.9238612432164L446.0379637327569,434.7105040540009Z"/>

    <path name="埤頭鄉" class="town" data-zip="523" d="M339.662413144717,406.2018663026247L338.3473307885579,418.7409321223531L349.30635042331414,432.2029771048474L369.0325857659045,441.8369729555561L372.2472315254272,444.74027002484945L371.8088707400311,462.42299932763854L375.4618772849499,472.7151491109398L381.74504854221595,478.6526661252901L372.97783283438184,484.062237178965L361.7265726760379,485.3816206497577L354.4205595862004,483.2706025596817L354.2744393244211,499.2345765640166L356.61236351315165,502.9285222293656L346.9684262345836,507.0181614143912L346.8223059728043,496.72792840004695L340.10077393014217,497.9152923076799L340.24689419195056,512.2949811074395L334.69432424366823,520.0780144255041L330.31071638976573,538.5449144582017L325.78098827405483,543.6889359046654L318.767215707805,529.8393205646535L300.35606272143195,508.60122318580034L299.04098036527284,501.0815586533208L303.8629490045423,500.28999716777616L300.35606272143195,487.7564870803144L296.9952967001009,481.6873231127465L296.9952967001009,473.6387754439784L304.0090692663798,471.65957048534983L301.96338560120785,452.65812008972716L303.13234769555856,449.35905730358354L295.68021434394177,445.13617062074263L299.3332208888605,436.1622145571382L299.04098036527284,426.1319807925065L301.67114507759106,424.41622811681736L304.0090692663798,415.0452963594216L301.3789045540034,410.68963025245466L301.81726533939946,394.3219620967211L312.48404445056804,394.58596831304385L319.93617780218483,398.6780161555944L328.9956340336066,392.73791683162926Z"/>

    <path name="溪州鄉" class="town" data-zip="524" d="M453.9284578697698,518.2312226955692L466.20255986068514,532.8731347830108L477.3076997572498,542.6337637123906L480.3762252549641,539.8639079913846L491.627485413308,551.074972278413L505.94727106939536,551.4706444544936L499.81022007393767,558.8563693515316L489.1434409627691,563.0766508760462L480.3762252549641,572.308180332886L478.7689023752173,576.2644087965164L481.10682656397694,589.319361400474L467.51764221687336,584.9678130674765L450.7138121102471,582.3304611491403L438.29358985752333,578.1106197374902L417.690632944199,577.9787481395615L410.09237933074473,580.8799015400873L386.56701718151453,579.561201099139L370.20154786025523,574.5500535367792L350.3291922558856,570.4619113716144L340.10077393014217,566.9011976611037L317.7443738752627,556.8780791665013L314.2374875921232,556.0867571546987L313.50688628313947,535.5111935370442L318.767215707805,529.8393205646535L325.78098827405483,543.6889359046654L330.31071638976573,538.5449144582017L334.69432424366823,520.0780144255041L340.24689419195056,512.2949811074395L340.10077393014217,497.9152923076799L346.8223059728043,496.72792840004695L346.9684262345836,507.0181614143912L356.61236351315165,502.9285222293656L354.2744393244211,499.2345765640166L354.4205595862004,483.2706025596817L361.7265726760379,485.3816206497577L372.97783283438184,484.062237178965L381.74504854221595,478.6526661252901L390.51226424999186,480.3679131757999L385.98253613431007,486.04130884090046L388.466580584849,489.0758440887075L396.35707472186186,488.548102419365L402.64024597912794,497.12371721948875L400.5945623139851,502.2688945059417L414.18374666105956,518.495051218244L412.72254404309206,505.1712388273845L422.3664813216892,505.5670095113928L428.79577284073457,510.7119510625889L450.1293310630426,521.5290520922608Z"/>

    <path name="竹塘鄉" class="town" data-zip="525" d="M296.9952967001009,473.6387754439784L296.9952967001009,481.6873231127465L300.35606272143195,487.7564870803144L303.8629490045423,500.28999716777616L299.04098036527284,501.0815586533208L300.35606272143195,508.60122318580034L318.767215707805,529.8393205646535L313.50688628313947,535.5111935370442L314.2374875921232,556.0867571546987L309.8538797381916,555.1635438523263L299.4793411506689,548.3052432882505L293.6345306787989,541.5785854846326L285.30567575636087,536.830208764306L274.6388966451923,536.830208764306L266.16392146100407,541.3147899846044L255.64326261161477,542.2380725842631L219.8437984714401,539.2044124037602L209.90762066928437,539.0725130032806L204.06281019741436,522.8481673338392L213.12226642877795,519.6822748979284L213.26838669058634,516.2524967401077L203.18608862662222,516.3844124645948L197.4873984165315,512.6907364942745L197.34127815475222,504.11584618125926L202.89384810300544,498.1791499146675L204.64729124458972,490.13132289147325L241.907958002761,488.6800379784654L241.76183774095261,480.6317959194239L245.85320507126744,480.1040300540626L247.02216716564726,473.50682910863907L243.80752140609547,458.86019801589646L252.13637632853352,456.22104146714264L269.23244695874746,457.6725822523731L275.51561821601354,468.09694794160896L280.6298273788416,465.7218279431145L288.2280809922959,471.5276227316317Z"/>

    <path name="二林鎮" class="town" data-zip="526" d="M258.5656678475789,300.3116119035112L273.61605481262086,325.00719801706873L272.7393332418578,327.12003485726746L280.6298273788416,336.49545467451026L291.8810875372146,339.7965447586139L297.1414169619093,344.55001012269713L301.96338560120785,353.7925069110861L310,368.84357689259923L314.5297281157109,380.59311597031046L328.9956340336066,392.73791683162926L319.93617780218483,398.6780161555944L312.48404445056804,394.58596831304385L301.81726533939946,394.3219620967211L301.3789045540034,410.68963025245466L304.0090692663798,415.0452963594216L301.67114507759106,424.41622811681736L299.04098036527284,426.1319807925065L299.3332208888605,436.1622145571382L295.68021434394177,445.13617062074263L303.13234769555856,449.35905730358354L301.96338560120785,452.65812008972716L304.0090692663798,471.65957048534983L296.9952967001009,473.6387754439784L288.2280809922959,471.5276227316317L280.6298273788416,465.7218279431145L275.51561821601354,468.09694794160896L269.23244695874746,457.6725822523731L252.13637632853352,456.22104146714264L243.80752140609547,458.86019801589646L247.02216716564726,473.50682910863907L245.85320507126744,480.1040300540626L241.76183774095261,480.6317959194239L241.907958002761,488.6800379784654L204.64729124458972,490.13132289147325L202.89384810300544,498.1791499146675L197.34127815475222,504.11584618125926L191.35034742107382,499.2345765640166L187.69734087618417,501.873116738494L183.45985328406096,495.27669545439494L175.2771186234604,493.42965517185803L177.61504281219095,485.6454962097632L166.07154213025933,480.3679131757999L168.84782710441505,469.28449644968714L177.17668202682398,448.5672734332875L176.59220097961952,441.70500381827515L181.99865066609345,441.8369729555561L181.99865066609345,435.89826804517725L192.66542977729114,436.9540518203903L190.91198663567775,428.63959052119753L198.21799972554436,408.31376887052465L200.5559239142749,405.67388686868435L211.22270302544348,404.4859275961826L218.09035532988491,401.0540021144734L219.55155794785242,392.86992112537337L218.528716115281,369.50368329153935L225.10412789613474,373.0682168349158L231.09505862978403,361.9783296338792L237.96271093422547,365.1469371953681L245.70708480948815,336.49545467451026L244.68424297688762,318.9326564838557L251.99025606672512,310.480785601776L249.65233187796548,307.44329931070024L253.5975789464719,297.0098107759659Z"/>

    <path name="大城鄉" class="town" data-zip="527" d="M168.84782710441505,469.28449644968714L166.07154213025933,480.3679131757999L177.61504281219095,485.6454962097632L175.2771186234604,493.42965517185803L183.45985328406096,495.27669545439494L187.69734087618417,501.873116738494L191.35034742107382,499.2345765640166L197.34127815475222,504.11584618125926L197.4873984165315,512.6907364942745L203.18608862662222,516.3844124645948L213.26838669058634,516.2524967401077L213.12226642877795,519.6822748979284L204.06281019741436,522.8481673338392L209.90762066928437,539.0725130032806L203.6244494119892,539.0725130032806L190.3275055885024,546.7225223403148L180.24520752456738,548.0414574064416L155.25864275728236,548.0414574064416L133.48672374960734,551.2068630980539L122.67382437663036,550.8111903563295L53.558940546790836,531.0264712025637L38.94691436714493,521.0014033529878L28.864616303151706,511.2396292548874L17.759476406587055,498.31107857645475L8.553899913385976,485.5135584770178L13.66810907627223,479.84014655418287L17.028875097603304,469.1525469937551L27.987894732388668,458.4643269462322L35.00166729860939,454.7694892330146L43.33052222101833,453.97772864312356L53.851181070378516,445.7960030540744L57.21194709170959,438.53771612053606L54.435662117553875,432.7308803562919L55.166263426537625,426.2639611044506L61.303314422024414,416.10119987279177L61.01107389840763,411.48157722174074L80.59118897918961,427.1878206356341L96.51829751502373,437.61391360246125L108.20791845876374,443.9484662771647L120.04365966428304,447.37959123912515L125.45010935075697,453.18596464664734L127.93415380132501,445.26813729674177L136.8474897709093,446.85173002523516L141.08497736303252,453.58184707070177L139.03929369788966,459.51998123983867L143.13066102817538,468.6247482242761L152.19011725956807,466.77744061454723Z"/>

    <path name="芳苑鄉" class="town" data-zip="528" d="M253.5975789464719,297.0098107759659L249.65233187796548,307.44329931070024L251.99025606672512,310.480785601776L244.68424297688762,318.9326564838557L245.70708480948815,336.49545467451026L237.96271093422547,365.1469371953681L231.09505862978403,361.9783296338792L225.10412789613474,373.0682168349158L218.528716115281,369.50368329153935L219.55155794785242,392.86992112537337L218.09035532988491,401.0540021144734L211.22270302544348,404.4859275961826L200.5559239142749,405.67388686868435L198.21799972554436,408.31376887052465L190.91198663567775,428.63959052119753L192.66542977729114,436.9540518203903L181.99865066609345,435.89826804517725L181.99865066609345,441.8369729555561L176.59220097961952,441.70500381827515L177.17668202682398,448.5672734332875L168.84782710441505,469.28449644968714L152.19011725956807,466.77744061454723L143.13066102817538,468.6247482242761L139.03929369788966,459.51998123983867L141.08497736303252,453.58184707070177L136.8474897709093,446.85173002523516L127.93415380132501,445.26813729674177L125.45010935075697,453.18596464664734L120.04365966428304,447.37959123912515L108.20791845876374,443.9484662771647L96.51829751502373,437.61391360246125L80.59118897918961,427.1878206356341L61.01107389840763,411.48157722174074L71.97009353316389,394.05795550101175L80.29894845560193,391.94588907717116L85.55927788026747,387.85369127815284L88.1894425926148,375.70856743793047L86.582119712868,368.71155532801276L91.40408835210837,358.14952251702925L99.44070275098784,354.7167309864599L105.13939296104945,347.58688185015853L121.06650149685447,334.7788643522472L122.96606490024715,330.4212936866825L123.5505459474225,313.51822155751506L127.64191327773733,309.82046677704784L133.48672374960734,296.34944341061055L141.2310976248409,287.6323711028963L156.57372511349968,275.3485196043839L159.0577695640095,269.8007036695017L161.24957349096076,250.646237342924L164.61033951229183,245.22978327888268L166.5099029156263,226.99761318598394L187.84346113799256,234.92486695720436L208.44641805128776,241.53064933356654L212.97614616699866,252.75993202326208L216.7752729737258,256.19463381137757L226.12696972870617,272.57463264851685L228.9032547028619,284.3303414513466L241.17735669377726,291.19849627146687L248.92173056898173,292.2551126194667Z"/>

    <path name="二水鄉" class="town" data-zip="530" d="M481.10682656397694,589.319361400474L478.7689023752173,576.2644087965164L480.3762252549641,572.308180332886L489.1434409627691,563.0766508760462L499.81022007393767,558.8563693515316L505.94727106939536,551.4706444544936L506.23951159301214,548.437136087723L499.81022007393767,535.5111935370442L499.51797955035,525.6182786222889L506.09339133120375,525.750187645579L508.72355604352197,529.5755082739561L522.6049809142423,522.0566993214343L529.7648737422714,520.3418403052783L541.3083744242031,526.6735481664L551.9751535353425,538.6768142359579L554.4591979859106,550.9430813645158L565.7104581442545,556.8780791665013L568.3406228566018,561.6259399862975L590.2586621260853,556.0867571546987L599.318118357507,551.2068630980539L604.8706883057603,556.6143055395842L605.0168085675978,571.2531717586608L610.8616190394096,572.0444287545179L611.4461000866431,577.8468764474783L600.0487196664908,579.9568122201927L588.9435797699261,588.9237703337567L557.6738437454624,600L547.8837862050568,598.549579138551L545.3997417545179,595.5168441796523L521.8743796052295,591.9566135283239L492.65032724587945,592.4840594357993Z"/>
</svg>
