<?xml version="1.0" encoding="utf-8"?>
<svg version="1.1" xmlns="http://www.w3.org/2000/svg" xmlns:xlink="http://www.w3.org/1999/xlink" x="0px" y="0px" viewBox="0 0 700 400" xml:space="preserve" data-w="700" data-h="400">

   <path name="番路鄉" class="town" data-zip="602" d="M467.7620165323169,177.85321206836306L471.8338605980389,182.57212758442984L474.83416675170884,187.87260798263014L467.9048882539064,190.32884953586472L466.69047862027946,194.59483495405584L461.4756607817253,202.35078740392055L458.76109807124885,203.96654837305687L457.68956015919684,211.1402670621028L454.9749974487204,215.47014415462036L449.40300030616345,213.59603722108295L451.7603837126371,219.92910977401698L450.54597407899564,224.06481545590213L444.25961832840403,222.12622096881023L445.54546382284025,228.78193268377436L440.83069700990745,234.66191801891546L441.6164914787223,237.44027354977152L440.61638942749414,244.93505514835851L443.83100316359196,249.7805729487518L444.33105418919877,253.78605508227338L440.33064598430065,256.5639732124728L438.04469843860716,262.95940381119L434.8300847025239,266.4476786793275L436.3302377793734,272.77799597330886L432.4727012960502,277.49322226157165L429.4009592815564,276.8473116575515L422.1145014797512,278.7204429599442L420.7572201245057,276.2013976235248L412.3277885498537,275.038743718138L409.04173895296117,271.4215271532339L403.8983569752163,272.1320603270069L397.6834370854194,265.73711228696266L397.1119501990179,261.86122248790343L394.5402592101309,258.5666189847034L396.9690784773993,253.59224447072847L403.6126135319937,250.3620220968951L403.684049392803,240.99389145382884L407.75589345852495,233.82193755099433L409.47035411777324,227.42497254005139L406.9700989897101,226.00337897393547L406.2557403816754,221.35077450181052L408.89886723135714,213.98378585887986L406.39861210327945,210.30012375012666L407.97020104093826,208.29668159535504L406.3271762424847,200.9935315480434L401.04092254312127,196.663137466865L400.6123073783092,190.65203550712977L399.04071844066493,187.80796937459672L389.9683641188021,183.0246166726938L385.039289723456,182.63676898623817L377.10990917441086,177.40070365931388L370.1806306766084,178.30571878661067L364.82294111645024,176.10781317346846L357.03643228902365,174.68561769539883L341.03479946934385,176.36639237492273L336.9629554036219,178.1764313253625L327.6048576385365,175.20278162006798L317.1752219614282,175.13813625028706L321.8899887743901,167.31579173284263L321.24706602715014,163.5014073567654L324.46167976324796,161.94975897674522L329.0335748545767,154.96709504242972L325.4617818144907,151.34629582252091L322.3900397999969,141.25921212520188L328.1049086641433,147.7900482324294L331.6052658434637,146.23819833211746L334.3912644147349,149.01858194865054L346.53536075110605,151.21697956023127L348.8927441575652,150.5057376464647L349.32135932237725,141.51786580786575L354.39330543934193,141.71185570674425L357.4650474538357,145.85023274561536L358.4651495050639,155.6136549281946L361.2511480763351,158.39382306586776L365.2515562812623,158.13520546880682L371.6807837534434,162.72558565348663L374.6096540463477,158.13520546880682L381.68180426576873,162.07906376826577L383.82488008981454,165.376289275031L391.3256454740331,167.38044127956528L396.3261557301885,166.4753444833732L399.82651290949434,163.30745239719545L404.0412286968058,164.01861906270278L408.68455964894383,161.1739273263338L413.3993264618912,163.24280067492873L415.8995815899543,152.1221904930935L417.6854781100119,151.6695858734056L421.9716297581472,146.04421569444457L421.0429635676992,143.26376369363425L423.1146035309939,139.5779497003241L428.3294213695335,139.12529812979847L430.1153178895911,133.62867952419765L434.40146953772637,136.6033512109534L439.0448004898499,136.66801717377894L441.1878763139248,139.64261407205413L437.1160322481883,143.39308846013955L437.54464741300035,148.88926319775055L440.90213287071674,156.51883296343658L440.18777426268207,159.23432643890555L445.9740789876523,163.04884530091658L444.4024900500226,165.82884262824155L445.4025921012508,169.83709847075443L450.9031533829984,175.13813625028706Z"/>

    <path name="梅山鄉" class="town" data-zip="603" d="M519.9101949178439,67.26151630952882L523.339116236355,71.72595033439939L525.4107561996061,78.0017591624819L528.6968057965132,82.14232014990557L525.6964996428287,83.5009107470105L525.1250127564126,87.18843665460736L519.6958873354451,88.935120106682L516.1240942953445,91.58744291507537L516.6955811817606,96.50378952218671L512.1236860904173,105.43032795488398L508.9805082151288,120.50044943204193L504.5514848453895,125.54496273932091L503.0513317685545,133.30534123411417L496.90784773956693,128.84318449189232L497.0507194611855,123.34609821943013L482.6206755791354,121.14719367881116L479.8346770078788,124.25151786824426L474.6912950301048,123.66946315865061L470.7623226859869,119.4009762658061L465.26176140422467,117.13732352876468L462.761506276147,114.09749454311532L456.5465863863792,110.21675060137932L455.1178691703244,104.1366676368998L448.5457699765393,97.34472348534837L440.18777426268207,102.4548884966025L434.18716195531306,103.81325039118747L432.82988060006755,101.22588122936213L427.1864475966868,96.95660084590418L422.68598836618185,95.08065715717385L419.11419532605214,88.5469704141251L410.75619961220946,83.17743818349118L409.18461067457974,85.8945807537275L401.04092254312127,87.90005148443015L395.39748953975504,93.72219696936008L390.897030309221,92.36372148685768L384.32493111542135,93.46344091382707L380.75313807532075,95.40409780484333L373.39524441270623,91.39337249168602L369.394836207779,93.78688589654848L361.67976324114716,89.19388587455614L354.6076130217407,89.51734230382499L352.0359220328537,86.60620321670285L344.8209000918432,87.70597512899622L333.53403408511076,92.36372148685768L336.3914685172058,88.61166211629097L335.03418716194574,84.6007109735474L337.67731401162746,78.71342820055725L341.892029798968,76.31961564712401L347.6783345239528,76.44901213536286L347.2497193591262,71.59654877659705L351.3929992856429,68.74967935825771L348.1783855495596,65.25570225549382L343.6064904582163,57.555654333023995L342.4635166853841,52.57300811761888L349.53566690479056,47.71958310795526L349.32135932237725,43.06011105400103L352.3216654760763,45.00157965656399L368.8233493213629,46.68416045610138L369.89488723340037,50.049251523276325L376.53842228799476,49.855114210018655L380.8960097969102,51.214068830769975L385.7536483314616,55.22613110786915L393.8259006021108,55.937934650643L395.96897642617114,53.47895912397871L401.04092254312127,53.54366964939254L405.18420246963797,55.484969246455876L410.82763547301874,54.64374326245161L413.61363404428994,56.13206215959872L418.399836718032,53.60838014004912L421.3287070109218,54.70845316210762L426.61496071028523,48.75499685666L431.11541994081927,49.402125928681926L443.75956730278267,46.10173130167823L446.61700173489226,47.007730991230346L445.04541279723344,51.27878057308044L446.61700173489226,56.00264385504488L441.97367078273965,60.14396064100583L445.6168996836641,61.89103596513087L448.11715481172723,65.44981475205714L454.189202979891,65.0615894462644L456.4037146647606,61.89103596513087L464.9045821002219,59.88513251250333L469.47647719155066,67.00270346878096L473.4054495356686,66.29096529080562L477.4058577405958,63.50867571575509L484.4780079600023,61.69691773566592L493.121747117053,63.05573877460483L497.12215532198024,62.53809447139429L497.4793346259976,65.77333488484874L504.5514848453895,68.55557217657406L509.9091744055622,65.9674465476237L513.1952240024402,67.39092252149567Z"/>

    <path name="竹崎鄉" class="town" data-zip="604" d="M503.0513317685545,133.30534123411417L498.5508725380205,137.31467489956412L494.4790284722985,147.66072816795713L494.5504643331078,153.15670897913515L492.76456781305023,156.64814355850467L486.26390448005986,158.19985991988142L480.9776507806964,162.40232514259696L480.6919073374884,166.60464444004538L477.2629860189918,171.71188226135928L469.61934891316923,173.90986766680726L467.7620165323169,177.85321206836306L450.9031533829984,175.13813625028706L445.4025921012508,169.83709847075443L444.4024900500226,165.82884262824155L445.9740789876523,163.04884530091658L440.18777426268207,159.23432643890555L440.90213287071674,156.51883296343658L437.54464741300035,148.88926319775055L437.1160322481883,143.39308846013955L441.1878763139248,139.64261407205413L439.0448004898499,136.66801717377894L434.40146953772637,136.6033512109534L430.1153178895911,133.62867952419765L428.3294213695335,139.12529812979847L423.1146035309939,139.5779497003241L421.0429635676992,143.26376369363425L421.9716297581472,146.04421569444457L417.6854781100119,151.6695858734056L415.8995815899543,152.1221904930935L413.3993264618912,163.24280067492873L408.68455964894383,161.1739273263338L404.0412286968058,164.01861906270278L399.82651290949434,163.30745239719545L396.3261557301885,166.4753444833732L391.3256454740331,167.38044127956528L383.82488008981454,165.376289275031L381.68180426576873,162.07906376826577L374.6096540463477,158.13520546880682L371.6807837534434,162.72558565348663L365.2515562812623,158.13520546880682L361.2511480763351,158.39382306586776L358.4651495050639,155.6136549281946L357.4650474538357,145.85023274561536L354.39330543934193,141.71185570674425L349.32135932237725,141.51786580786575L348.8927441575652,150.5057376464647L346.53536075110605,151.21697956023127L334.3912644147349,149.01858194865054L331.6052658434637,146.23819833211746L328.1049086641433,147.7900482324294L322.3900397999969,141.25921212520188L316.38942749259877,140.93589424377933L311.0317379324406,139.3192918675486L308.1028676395654,136.34468701370133L308.388611082788,130.6539346269019L307.1027655883372,126.96773610524178L313.24624961731024,121.08251940994523L313.0319420349115,119.4009762658061L317.9610164302576,112.54521193223263L319.9612205327139,99.73811884620955L324.17593632002536,97.4094104705473L327.1048066129297,88.5469704141251L333.53403408511076,92.36372148685768L344.8209000918432,87.70597512899622L352.0359220328537,86.60620321670285L354.6076130217407,89.51734230382499L361.67976324114716,89.19388587455614L369.394836207779,93.78688589654848L373.39524441270623,91.39337249168602L380.75313807532075,95.40409780484333L384.32493111542135,93.46344091382707L390.897030309221,92.36372148685768L395.39748953975504,93.72219696936008L401.04092254312127,87.90005148443015L409.18461067457974,85.8945807537275L410.75619961220946,83.17743818349118L419.11419532605214,88.5469704141251L422.68598836618185,95.08065715717385L427.1864475966868,96.95660084590418L432.82988060006755,101.22588122936213L434.18716195531306,103.81325039118747L440.18777426268207,102.4548884966025L448.5457699765393,97.34472348534837L455.1178691703244,104.1366676368998L456.5465863863792,110.21675060137932L462.761506276147,114.09749454311532L465.26176140422467,117.13732352876468L470.7623226859869,119.4009762658061L474.6912950301048,123.66946315865061L479.8346770078788,124.25151786824426L482.6206755791354,121.14719367881116L497.0507194611855,123.34609821943013L496.90784773956693,128.84318449189232Z"/>

    <path name="阿里山鄉" class="town" data-zip="605" d="M449.1172568629554,323.2795497515399L450.9745892438077,315.33759860007194L451.97469129502133,306.8139531366651L454.4749464231136,303.32683533936506L454.5463822839083,293.57529065971903L452.546178181452,290.5398822375937L452.83192162466,282.91873593612763L458.26104704561294,275.9430310494645L456.61802224717394,269.3544979498438L453.1176650678681,262.89480518445635L447.0456168997043,261.34442784384737L444.33105418919877,253.78605508227338L443.83100316359196,249.7805729487518L440.61638942749414,244.93505514835851L441.6164914787223,237.44027354977152L440.83069700990745,234.66191801891546L445.54546382284025,228.78193268377436L444.25961832840403,222.12622096881023L450.54597407899564,224.06481545590213L451.7603837126371,219.92910977401698L449.40300030616345,213.59603722108295L454.9749974487204,215.47014415462036L457.68956015919684,211.1402670621028L458.76109807124885,203.96654837305687L461.4756607817253,202.35078740392055L466.69047862027946,194.59483495405584L467.9048882539064,190.32884953586472L474.83416675170884,187.87260798263014L471.8338605980389,182.57212758442984L467.7620165323169,177.85321206836306L469.61934891316923,173.90986766680726L477.2629860189918,171.71188226135928L480.6919073374884,166.60464444004538L480.9776507806964,162.40232514259696L486.26390448005986,158.19985991988142L492.76456781305023,156.64814355850467L494.5504643331078,153.15670897913515L494.4790284722985,147.66072816795713L498.5508725380205,137.31467489956412L503.0513317685545,133.30534123411417L504.5514848453895,125.54496273932091L508.9805082151288,120.50044943204193L512.1236860904173,105.43032795488398L516.6955811817606,96.50378952218671L516.1240942953445,91.58744291507537L519.6958873354451,88.935120106682L525.1250127564126,87.18843665460736L525.6964996428287,83.5009107470105L528.6968057965132,82.14232014990557L525.4107561996061,78.0017591624819L523.339116236355,71.72595033439939L519.9101949178439,67.26151630952882L516.6241453209514,61.243973984026525L517.9814266761969,54.190772991485574L514.6953770793043,46.16644579129206L516.8384529033501,42.60709720851446L513.4809674456628,40.924459429134004L510.1949178487703,36.78248161168449L515.4097356873099,30.245632875896263L519.6244514746504,31.41064182142145L524.6249617307913,28.756993919214437L528.4824982140999,28.69227006850997L533.9830594958767,26.491638427203725L538.3406470048212,28.69227006850997L543.5554648433608,28.886441516166087L556.4139197877521,38.659332969557L565.914889274427,39.3065163073843L569.3438105929235,42.671813576522254L576.558832533934,43.18954326818857L585.2740075518086,39.3065163073843L589.2744157567067,41.765781258622155L587.7742626798718,44.160280439271446L593.560567404842,51.925896083808766L590.0602102255361,63.18514950295503L591.9889784672123,66.87329683997086L590.988876415955,74.44335096131181L585.3454434126033,80.52493043535651L580.9878559036733,89.84079786584698L580.8449841820693,98.70314289338057L582.7737524237164,100.25560349433363L588.8458005918947,110.41079076058304L590.2745178079495,118.56019591561562L593.0605163792206,121.85860835111816L593.8463108480355,128.131810944069L592.7747729360126,132.91733414424743L594.9892846208822,136.66801717377894L596.3465659761277,147.14344652723594L601.0613327890751,155.0964072960196L606.3475864884385,158.32916871841735L608.4906623124843,156.7127988042157L614.5627104806772,157.424004226712L627.063986121022,156.26021135867995L635.0648025308765,160.78600963591816L641.5654658638523,161.5618437732628L646.9231554240396,154.25587517710665L667.2823757526348,153.86793530642535L672.4257577303797,154.19121861837993L683.5697520155227,158.7817484250445L689.6418001836864,156.7127988042157L700,164.21257288260676L691.5705684253335,165.6995418428305L688.4988264108688,165.11768659919835L687.2129809164326,169.57850532464727L681.4981120522716,171.51794045690986L675.354628023284,169.38456010255322L668.3539136646577,169.96639483667605L664.7106847637478,171.58258775957802L662.4961730788928,174.81490888363624L659.710174507607,173.97451369235205L654.9954076946597,176.9481935594049L653.6381263394142,181.47321847554122L649.8520257169148,184.7052756309131L646.8517195632157,191.29840486369358L633.9218287580443,196.46923560567666L632.3502398203855,199.11920085989186L627.706908868262,201.70447698670978L619.4917848760233,202.4800490738926L614.9198897846654,205.71154603454852L615.205633227888,211.78652718797457L611.2052250229608,216.05175766044704L610.56230227575,219.99373125939746L607.3476885396667,224.19405398720846L602.9186651699274,234.8557588400472L599.6326155730349,235.88957132586802L598.2753342177748,239.05556730725584L597.5609756097692,246.55024922483426L591.4174915807816,250.62044304727533L586.9170323502331,249.84517854707155L584.5596489437739,251.7187259541388L577.5589345851622,253.65684804224657L571.4154505561892,260.50463186082925L566.5578120216378,263.34699485066085L563.9146851719561,266.83525859745714L563.1288907031558,272.97177599817223L559.4856618022313,276.5243550692976L547.0558220226667,275.038743718138L544.0555158689822,277.0410851989145L538.3406470048212,274.65118994648947L537.483416675168,279.8830616745472L538.6263904480147,282.7249717570339L533.9116236350819,286.47102453442494L534.2688029390847,289.37736534682335L529.7683437085361,295.12525725462547L524.9821410348086,295.512745819673L523.1962445147365,298.93550791302187L516.6241453209514,302.487329104777L514.8382488008938,305.3287114671184L515.2668639657059,310.04267689257904L506.837432391083,307.58885464372725L499.69384631086723,307.26597961492735L493.1931829778623,313.40045881748665L491.40728645780473,320.6322902100219L492.47882436985674,324.8291384133081L489.12133891214035,329.47778620865574L484.0493927951902,329.34865949681625L472.76252678845776,325.6684907130657L465.4046331258287,324.3771770886415L461.97571180734667,320.69685820006634L458.1181753240089,321.14883317249405L453.68915195428417,319.5346291452224Z"/>

    <path name="中埔鄉" class="town" data-zip="606" d="M317.1752219614282,175.13813625028706L327.6048576385365,175.20278162006798L336.9629554036219,178.1764313253625L341.03479946934385,176.36639237492273L357.03643228902365,174.68561769539883L364.82294111645024,176.10781317346846L370.1806306766084,178.30571878661067L377.10990917441086,177.40070365931388L385.039289723456,182.63676898623817L389.9683641188021,183.0246166726938L399.04071844066493,187.80796937459672L400.6123073783092,190.65203550712977L401.04092254312127,196.663137466865L406.3271762424847,200.9935315480434L407.97020104093826,208.29668159535504L406.39861210327945,210.30012375012666L408.89886723135714,213.98378585887986L406.2557403816754,221.35077450181052L406.9700989897101,226.00337897393547L409.47035411777324,227.42497254005139L407.75589345852495,233.82193755099433L403.684049392803,240.99389145382884L403.6126135319937,250.3620220968951L396.9690784773993,253.59224447072847L394.5402592101309,258.5666189847034L386.396571078687,258.6312199117965L384.1106235330226,257.27459323169387L378.3957546688471,263.863780980897L371.3236044494406,267.3520298996482L367.89468313094403,273.35933512158954L349.60710276559985,281.8207348409087L334.31982855394017,275.10333589334914L327.74772936015506,275.7492557587502L325.0331666496495,272.5842156396611L324.2473721808492,268.4501616239031L331.67670170425845,264.18677119667336L331.67670170425845,260.37543196381375L325.3189100928721,252.10635284502132L322.4614756607916,253.14001850823843L316.4608633534226,251.52491204493708L314.03204408613965,248.81148485093217L306.95989386674773,249.58675594760643L308.9600979691895,241.70460255584476L316.67517093582137,237.95716989005086L320.6041432799393,234.7265316603516L317.1752219614282,229.81579689646242L319.1039902030898,228.78193268377436L319.1754260638845,221.93235981665566L308.31717522196413,215.92251045568992L302.88804980099667,208.1027983399763L303.74528013063536,203.90191834773577L310.317379324435,199.76552506057487L315.31788958057587,199.31309848194724L315.5321971629746,193.7545769756034L309.3887131340016,187.87260798263014L302.0308194713725,185.1577567511158L298.1732829880784,185.1577567511158L291.5297479334695,191.75086136182654L289.10092866620107,197.05094025863582L285.17195632208313,198.73140468532438L276.3853454434138,196.2106993082234L273.81365445455594,192.3325886627681L269.4560669456114,190.4581240278021L270.3847331360448,187.3554981526795L276.8139606082259,183.80030832013654L281.60016328198253,182.44284467730904L285.3862639044819,175.13813625028706L294.88723339115677,167.12184288552453L301.8879477497685,166.79859411606594L312.3175834268768,175.59065311407176Z"/>

    <path name="大埔鄉" class="town" data-zip="607" d="M449.1172568629554,323.2795497515399L445.1882845188229,317.7266952495338L442.18797836515296,318.75980361728216L440.83069700990745,326.12044724975567L442.4022859475517,331.47923275391804L441.68792733951705,337.2251386787575L437.75895499541366,343.74544558921116L439.616287376266,345.87576735906623L440.7592611491127,354.78398270662L446.11695070925634,361.6906297268688L445.6883355444588,365.8860656568286L448.11715481172723,371.9530565280147L446.9741810388805,380.5366884121977L442.5451576691412,383.5698577389776L438.116134299431,381.1820498933812L429.11521583836293,379.826786846068L421.0429635676992,383.1826488254228L419.3999387692602,385.1832150069313L413.5421981834952,385.9576189306681L402.75538320236956,379.50410295254187L402.3982038983522,374.6637422787426L400.1836922135117,370.66223264638757L397.04051433819404,375.7609075060791L394.0402081845241,384.7314771187448L388.25390345955384,389.37784423806806L387.3252372691204,392.7979738518552L376.1812429839774,387.5709446795445L372.8951933870994,390.7975322971506L367.3946321053081,390.668470427634L362.25125012756325,384.98961325931305L356.1792019593995,381.3111217806181L343.82079804061505,378.47150876655724L337.2486988468154,370.7913156484392L341.6777222165547,368.20962968608364L346.46392489029677,362.8524571865819L348.39269313195837,356.2686220476389L345.8924380038952,353.62207845142257L343.1778752934042,345.87576735906623L338.46310848045687,341.0340731682372L339.96326155729184,339.03278343619604L339.6060822533036,326.24957738102967L343.1064394326095,322.31104683341255L343.32074701500824,319.01807934065437L341.3205429125519,313.01302716484497L340.24900500051444,304.29548918779983L347.749770384733,298.8063488264015L348.10694968876487,295.8356520150264L354.8933564649633,289.70028781925066L349.60710276559985,281.8207348409087L367.89468313094403,273.35933512158954L371.3236044494406,267.3520298996482L378.3957546688471,263.863780980897L384.1106235330226,257.27459323169387L386.396571078687,258.6312199117965L394.5402592101309,258.5666189847034L397.1119501990179,261.86122248790343L397.6834370854194,265.73711228696266L403.8983569752163,272.1320603270069L409.04173895296117,271.4215271532339L412.3277885498537,275.038743718138L420.7572201245057,276.2013976235248L422.1145014797512,278.7204429599442L429.4009592815564,276.8473116575515L432.4727012960502,277.49322226157165L436.3302377793734,272.77799597330886L434.8300847025239,266.4476786793275L438.04469843860716,262.95940381119L440.33064598430065,256.5639732124728L444.33105418919877,253.78605508227338L447.0456168997043,261.34442784384737L453.1176650678681,262.89480518445635L456.61802224717394,269.3544979498438L458.26104704561294,275.9430310494645L452.83192162466,282.91873593612763L452.546178181452,290.5398822375937L454.5463822839083,293.57529065971903L454.4749464231136,303.32683533936506L451.97469129502133,306.8139531366651L450.9745892438077,315.33759860007194Z"/>

    <path name="水上鄉" class="town" data-zip="608" d="M270.3847331360448,187.3554981526795L269.4560669456114,190.4581240278021L273.81365445455594,192.3325886627681L276.3853454434138,196.2106993082234L285.17195632208313,198.73140468532438L289.10092866620107,197.05094025863582L291.5297479334695,191.75086136182654L298.1732829880784,185.1577567511158L302.0308194713725,185.1577567511158L309.3887131340016,187.87260798263014L315.5321971629746,193.7545769756034L315.31788958057587,199.31309848194724L310.317379324435,199.76552506057487L303.74528013063536,203.90191834773577L302.88804980099667,208.1027983399763L308.31717522196413,215.92251045568992L319.1754260638845,221.93235981665566L319.1039902030898,228.78193268377436L317.1752219614282,229.81579689646242L313.6034289213276,227.68344230851653L303.9595877130487,234.98498588218717L299.45912848251464,226.00337897393547L295.03010511277535,223.09552208370224L291.74405551586824,222.90166248016976L283.81467496683763,217.47346782426757L269.38463108481665,211.3341454614565L264.16981324627704,213.78991169492656L263.74119808143587,216.50412179263003L256.811919583648,217.66733610113442L254.240228594761,220.05835271035903L250.88274313705915,214.04841051133553L245.09643841210345,212.1742816105725L234.09531584857905,216.8272379971313L221.1654250433785,220.44608069332025L203.1635881212569,221.15691211072044L200.02041024595383,221.99698023512246L201.3062557403755,216.6333683777084L197.6630268394947,212.62666020349934L200.16328196755785,202.35078740392055L200.16328196755785,191.9447707724321L198.1630778651015,191.29840486369358L199.16317991632968,185.028476603522L196.52005306664796,183.2831811070937L198.37738544750027,178.3703624654845L196.02000204104115,175.52600795136095L201.73487090521667,173.39269821994458L199.73466680274578,169.70780196673877L211.59301969590888,165.376289275031L215.52199204001226,166.73394425858714L219.52240024492494,164.3418752565267L220.45106643535837,169.83709847075443L224.02285947545897,167.44509079175623L232.23798346769763,166.28139428941358L246.59659148893843,164.21257288260676L249.88264108584553,168.3501803370491L261.8124298397888,167.6390391211571L262.5267884478235,175.39671752236973L266.7415042351349,178.75822381408943L267.38442698234576,183.08925783304585Z"/>

    <path name="鹿草鄉" class="town" data-zip="611" d="M145.65772017552808,181.7317862216405L144.80048984590394,186.12735346059708L146.94356566997885,191.9447707724321L162.6594550464215,188.5836303951255L168.1600163282128,189.35928644996238L173.51770588835643,191.9447707724321L180.5184202469827,193.7545769756034L181.51852229821088,196.14606514768093L188.80498010003066,197.05094025863582L195.66282273702382,194.78873981408833L200.16328196755785,191.9447707724321L200.16328196755785,202.35078740392055L197.6630268394947,212.62666020349934L201.3062557403755,216.6333683777084L200.02041024595383,221.99698023512246L194.66272068579565,222.3847020232024L189.16215940403345,226.5849419909282L180.94703541178023,236.6003123036062L177.16093478926632,236.3418615203591L171.30319420350133,238.60328722111444L168.01714460660878,234.20962156604946L162.30227574243327,236.79415003001486L162.23083988162398,246.0979970483968L147.08643739158288,246.16260460526973L141.01438922340458,253.91526198490465L140.0857230329566,257.0161864327565L131.44198387590586,251.97714401880876L130.65618940710556,247.7131756611925L126.65578120217833,246.03338945717041L127.44157567100774,234.7265316603516L123.44116746608051,230.2681097204295L117.79773446269974,228.5234652546169L119.36932340035855,219.99373125939746L121.79814266762696,216.2456282093699L125.7271150117449,215.14702433528873L125.58424329012632,206.2285775558048L133.79936728236498,206.55172113705703L138.29982651292812,200.60574136958894L137.87121134811605,193.7545769756034L127.51301153180248,195.1119138913491L127.58444739259721,179.7278717512345L138.01408306970552,177.85321206836306L136.94254515768262,181.40857645276992L143.80038779469032,183.9295897784432Z"/>

    <path name="太保市" class="town" data-zip="612" d="M227.7375242371636,117.13732352876468L226.9517297683633,123.54011728681871L231.23788141646946,125.8036500519629L240.59597918155487,121.7939344631086L244.52495152568736,125.86832179359044L238.02428819268243,130.20124963671333L236.5241351158329,133.04666997926324L232.9523420757323,131.23595569416648L228.16613940197567,133.17600567589398L228.52331870600756,139.83660697973028L232.6665986325388,140.41858383514045L231.5950607204868,148.04868794657523L236.09551995102083,152.1221904930935L236.5241351158329,158.4584773787501L232.30941932852147,162.91954154555788L232.23798346769763,166.28139428941358L224.02285947545897,167.44509079175623L220.45106643535837,169.83709847075443L219.52240024492494,164.3418752565267L215.52199204001226,166.73394425858714L211.59301969590888,165.376289275031L199.73466680274578,169.70780196673877L201.73487090521667,173.39269821994458L196.02000204104115,175.52600795136095L198.37738544750027,178.3703624654845L196.52005306664796,183.2831811070937L199.16317991632968,185.028476603522L198.1630778651015,191.29840486369358L200.16328196755785,191.9447707724321L195.66282273702382,194.78873981408833L188.80498010003066,197.05094025863582L181.51852229821088,196.14606514768093L180.5184202469827,193.7545769756034L173.51770588835643,191.9447707724321L168.1600163282128,189.35928644996238L162.6594550464215,188.5836303951255L146.94356566997885,191.9447707724321L144.80048984590394,186.12735346059708L145.65772017552808,181.7317862216405L146.51495050516678,178.9521540225869L144.2290029595024,175.4613627541221L148.51515460763767,162.33767293681012L144.1575670986931,161.49719111846935L144.65761812431447,151.99287506026303L156.01591999184166,151.28163770866013L159.73058475354628,154.25587517710665L165.51688947853108,147.3374274017806L165.37401775692706,142.22916058218107L170.51739973467193,137.96132916623174L164.58822328809765,133.88734953347011L170.01734870906512,132.01197942383078L174.87498724360194,126.57970866689357L181.87570160219911,124.25151786824426L188.23349321361457,126.51503730603508L196.37718134504394,127.1617493571357L197.6630268394947,122.69936574447274L200.37758954997116,120.56512401252257L206.87825288296153,119.01292452369671L210.23573834064882,123.21675200140089L210.80722522707947,129.03719473270394L212.87886519033054,130.07191075663286L218.52229819369677,127.09707830777916L220.37963057454908,118.56019591561562Z"/>

    <path name="朴子市" class="town" data-zip="613" d="M144.65761812431447,151.99287506026303L144.1575670986931,161.49719111846935L148.51515460763767,162.33767293681012L144.2290029595024,175.4613627541221L146.51495050516678,178.9521540225869L145.65772017552808,181.7317862216405L143.80038779469032,183.9295897784432L136.94254515768262,181.40857645276992L138.01408306970552,177.85321206836306L127.58444739259721,179.7278717512345L127.51301153180248,195.1119138913491L137.87121134811605,193.7545769756034L138.29982651292812,200.60574136958894L133.79936728236498,206.55172113705703L125.58424329012632,206.2285775558048L125.7271150117449,215.14702433528873L121.79814266762696,216.2456282093699L119.36932340035855,219.99373125939746L117.79773446269974,228.5234652546169L107.43953464640072,224.96948228470137L104.93927951833757,220.89842844077066L99.01010307174874,216.6333683777084L97.36707827330974,215.14702433528873L100.58169200940756,208.55519212031868L100.29594856618496,202.02763262600638L93.00949076437973,205.97006207076265L88.36615981224168,205.129882937832L84.43718746812374,202.09226365050563L84.0800081641064,199.11920085989186L86.79457087458286,189.74711261532138L84.0800081641064,186.38591127250766L76.93642208389065,181.21465017746596L75.29339728545165,176.62497102421548L74.721910399021,175.4613627541221L74.36473109503277,175.26742695535359L74.22185937341419,175.13813625028706L74.1504235126049,175.07349084597809L77.57934483111603,174.16845156189447L78.15083171753213,172.4229995530659L81.57975303604326,172.48764637248314L87.1517501786002,168.67342496320998L87.29462190021877,165.89349296913133L89.93774874988594,165.76419225280551L91.08072252271813,165.24698800616898L91.15215838351287,165.18233731995497L91.15215838351287,165.11768659919835L91.0092866619234,164.21257288260676L90.93785080112866,164.14792164383834L90.86641494030482,164.08327037053823L90.50923563628749,163.82466493199172L90.36636391469801,163.43675573810833L90.36636391469801,162.72558565348663L90.36636391469801,162.59628155273822L90.36636391469801,162.53162945057193L90.93785080112866,161.1739273263338L90.93785080112866,161.10927446428104L90.93785080112866,161.04462156770023L90.93785080112866,160.9153156708926L90.86641494030482,160.6567034627842L90.79497907951009,160.39809070200135L90.79497907951009,160.26878411434882L90.86641494030482,160.26878411434882L90.93785080112866,160.20413076871773L91.0092866619234,160.20413076871773L94.93825900602678,161.7558015304312L101.08174303501437,159.88086352237224L101.1531788958091,156.26021135867995L105.15358710073633,153.7386217397434L113.72589039697777,158.58778590091242L115.79753036025795,152.5101359621258L120.72660475560406,152.05753279395503L120.7980406163988,145.59158832981848L125.22706398613809,142.03517151324922L130.7276252679003,140.03059957613004L136.4424941320467,139.83660697973028L139.44280028574576,144.10437220362655L145.0147974283318,148.3719868114531Z"/>

    <path name="東石鄉" class="town" data-zip="614" d="M72.93601387899253,126.06233681076628L78.8651903255377,130.20124963671333L81.57975303604326,131.10661792145402L77.5079089703213,136.47401918152173L80.57965098481509,139.2546273228836L83.15134197368752,138.15532477174565L85.65159710176522,137.96132916623174L87.00887845699617,142.48781218994554L86.79457087458286,142.6171377863575L86.36595570977079,142.8757885642226L86.29451984897605,142.94045117222777L85.08011021534912,143.65173757821685L81.50831717521942,144.36301980030112L81.43688131442468,144.42768161304048L81.29400959282066,144.42768161304048L81.29400959282066,144.4923433911972L81.22257373202592,144.4923433911972L81.15113787123119,144.55700513476404L81.15113787123119,144.6216668437737L81.93693234003149,145.20362066890812L85.93734054495872,147.7900482324294L85.93734054495872,147.85470821281342L86.15164812737203,147.98402806988815L86.5802632921841,148.30732710761004L88.36615981224168,149.79449155052498L90.00918461068068,151.92821729202478L90.22349219309399,152.7041082300966L90.36636391469801,153.60930803485098L90.36636391469801,153.9325920379233L90.43779977549275,154.44984464594017L90.43779977549275,154.5791574523937L90.50923563628749,154.9024388638063L90.50923563628749,155.0964072960196L90.50923563628749,155.16106337097517L90.50923563628749,155.2257194113772L90.50923563628749,156.45417761407225L90.50923563628749,156.51883296343658L90.58067149711133,156.58348827823647L90.65210735790606,158.07055098317142L90.79497907951009,159.42828792666478L90.93785080112866,159.88086352237224L90.93785080112866,160.07482397380954L91.0092866619234,160.13947738852949L91.0092866619234,160.20413076871773L90.93785080112866,160.20413076871773L90.86641494030482,160.26878411434882L90.79497907951009,160.26878411434882L90.79497907951009,160.39809070200135L90.86641494030482,160.6567034627842L90.93785080112866,160.9153156708926L90.93785080112866,161.04462156770023L90.93785080112866,161.10927446428104L90.93785080112866,161.1739273263338L90.36636391469801,162.53162945057193L90.36636391469801,162.59628155273822L90.36636391469801,162.72558565348663L90.36636391469801,163.43675573810833L90.50923563628749,163.82466493199172L90.86641494030482,164.08327037053823L90.93785080112866,164.14792164383834L91.0092866619234,164.21257288260676L91.15215838351287,165.11768659919835L91.15215838351287,165.18233731995497L91.08072252271813,165.24698800616898L91.08072252271813,165.31163865786584L90.86641494030482,165.31163865786584L90.7235432187008,165.31163865786584L90.22349219309399,165.376289275031L89.93774874988594,165.76419225280551L87.29462190021877,165.89349296913133L87.1517501786002,168.67342496320998L81.57975303604326,172.48764637248314L78.15083171753213,172.4229995530659L76.15062761507579,174.23309744937796L75.5077048678504,174.49168065418417L74.79334625984484,174.81490888363624L74.721910399021,174.81490888363624L73.8646800694114,175.20278162006798L73.6503724869981,175.26742695535359L73.50750076539407,175.33207225612205L73.3646290438046,175.39671752236973L73.15032146137673,175.4613627541221L71.65016838454176,176.10781317346846L70.93580977652164,176.36639237492273L65.72099193798203,178.4996497197062L65.22094091234612,179.79251467102222L74.22185937341419,185.1577567511158L73.078885600582,189.35928644996238L75.29339728545165,193.88384781301647L75.29339728545165,194.4655648750304L75.22196142465691,194.78873981408833L75.22196142465691,194.91800954840073L75.15052556383307,195.49972164655628L74.22185937341419,198.79603746724752L74.93621798143431,201.381320485998L69.29278497808264,206.48709248970408L66.4353505459876,205.38840021418582L65.29237677314086,204.74210598980062L64.506582304326,204.095808320355L64.72088988672476,203.8372882879521L64.07796713951393,203.70802806502616L63.79222369630588,203.64339790188387L63.720787835496594,203.64339790188387L63.64935197470186,203.64339790188387L63.57791611390712,203.64339790188387L63.506480253112386,203.64339790188387L63.435044392288546,203.64339790188387L63.006429227476474,203.77265819371678L62.86355750587245,203.8372882879521L62.86355750587245,203.90191834773577L62.792121645077714,203.90191834773577L62.792121645077714,204.03117836393358L63.077865088300314,205.64691693936766L61.43484028983221,208.4259369267238L57.3629962241248,202.15689464054958L49.29074395347561,207.58577481014072L46.93336054701649,213.8545364506681L42.932952342089266,217.53809061764696L40.36126135321683,219.1536492648156L36.14654556589085,219.1536492648156L30.360240840920596,219.67062348832405L26.35983263599337,217.9258266550387L25.359730584765202,209.71848266319284L27.931421573652187,206.81023538202862L26.43126849680266,202.6739413204523L31.574650474562077,198.6667718689605L23.073783039100817,197.37410830394583L23.288090621499578,193.10822072007068L26.717011940010707,185.2223967731843L30.78885600573267,179.79251467102222L27.645678130429587,178.69358034224933L26.57414021839213,173.84522160675624L18.35901622615347,177.14212666641106L13.715685274015414,174.03915968338697L17.573221757324063,170.41893102993345L22.28798857027141,168.86737132459893L24.288192672727746,163.82466493199172L22.78803959589277,157.48865905782804L26.288396775198635,152.18684815766755L31.71752219615155,146.49684136500946L31.288907031339477,140.09526370576714L33.431982855385286,136.47401918152173L13.001326665995293,142.74646324444257L5.57199714257149,142.22916058218107L1.1429737728467444,136.0213559888034L0.7143586080346722,118.10746561066844L2.928870292889769,114.03281649935525L7.715072966646403,113.38603415661419L20.502092050213832,115.90846570517533L25.859781610386563,114.35620637172542L33.717726298607886,117.26667625656773L40.789876518028905,116.10249671907513L52.9339728543855,122.89338585047517L60.43473823861859,122.69936574447274L64.7923257475486,120.30642548281321L70.0071435860882,120.50044943204193L70.22145116848696,121.7939344631086L70.07857944689749,122.18197727178267L70.0071435860882,122.63469230655755L69.93570772529347,122.89338585047517L69.93570772529347,122.95805914990342L69.93570772529347,123.08740564489199L69.86427186446963,123.2814251277232L69.86427186446963,124.96291426085736Z"/>

    <path name="六腳鄉" class="town" data-zip="615" d="M157.80181651189923,74.1198540986843L156.87315032148035,80.07205742791484L162.15940402082924,79.48978963348418L158.87335442392214,87.64128294114198L161.8736605776212,88.87042857799679L160.08776405756362,92.81654834718574L160.37350750078622,97.0859751977514L163.08807021126268,100.77308592370173L160.5163792223757,102.90767749325823L159.94489233597415,114.35620637172542L157.51607306867663,119.6596767346382L166.87417083376204,122.31132459768196L170.58883559546666,126.06233681076628L174.87498724360194,126.57970866689357L170.01734870906512,132.01197942383078L164.58822328809765,133.88734953347011L170.51739973467193,137.96132916623174L165.37401775692706,142.22916058218107L165.51688947853108,147.3374274017806L159.73058475354628,154.25587517710665L156.01591999184166,151.28163770866013L144.65761812431447,151.99287506026303L145.0147974283318,148.3719868114531L139.44280028574576,144.10437220362655L136.4424941320467,139.83660697973028L130.7276252679003,140.03059957613004L125.22706398613809,142.03517151324922L120.7980406163988,145.59158832981848L120.72660475560406,152.05753279395503L115.79753036025795,152.5101359621258L113.72589039697777,158.58778590091242L105.15358710073633,153.7386217397434L101.1531788958091,156.26021135867995L101.08174303501437,159.88086352237224L94.93825900602678,161.7558015304312L91.0092866619234,160.20413076871773L90.93785080112866,160.07482397380954L90.93785080112866,159.88086352237224L90.79497907951009,159.42828792666478L90.65210735790606,158.07055098317142L90.58067149711133,156.58348827823647L90.50923563628749,156.51883296343658L90.50923563628749,156.45417761407225L90.50923563628749,155.2257194113772L90.50923563628749,155.16106337097517L90.50923563628749,155.0964072960196L90.50923563628749,154.9024388638063L90.43779977549275,154.5791574523937L90.43779977549275,154.44984464594017L90.36636391469801,153.9325920379233L90.36636391469801,153.60930803485098L90.22349219309399,152.7041082300966L90.00918461068068,151.92821729202478L88.36615981224168,149.79449155052498L86.5802632921841,148.30732710761004L86.15164812737203,147.98402806988815L85.93734054495872,147.85470821281342L85.93734054495872,147.7900482324294L81.93693234003149,145.20362066890812L81.15113787123119,144.6216668437737L81.15113787123119,144.55700513476404L81.22257373202592,144.4923433911972L81.29400959282066,144.4923433911972L81.29400959282066,144.42768161304048L81.43688131442468,144.42768161304048L81.50831717521942,144.36301980030112L85.08011021534912,143.65173757821685L86.29451984897605,142.94045117222777L86.36595570977079,142.8757885642226L86.79457087458286,142.6171377863575L87.00887845699617,142.48781218994554L85.65159710176522,137.96132916623174L83.15134197368752,138.15532477174565L80.57965098481509,139.2546273228836L77.5079089703213,136.47401918152173L81.57975303604326,131.10661792145402L78.8651903255377,130.20124963671333L72.93601387899253,126.06233681076628L69.86427186446963,124.96291426085736L69.86427186446963,123.2814251277232L69.93570772529347,123.08740564489199L69.93570772529347,122.95805914990342L69.93570772529347,122.89338585047517L70.0071435860882,122.63469230655755L70.07857944689749,122.18197727178267L70.22145116848696,121.7939344631086L71.50729666292318,120.82382198824052L88.29472395144694,127.93779924968112L101.79610164304904,124.83356977376025L108.15389325440628,119.20695055057877L108.51107255842362,117.0079706624274L105.93938156953664,102.00209780143996L104.29635677111219,96.43910205152133L106.22512501275924,91.26399203600158L116.08327380345145,89.646724632712L122.29819369324832,101.16119628969318L126.87008878457709,104.20135098205719L129.3703439126548,103.68388325027263L133.1564445351687,92.04027268893333L141.87161955302872,88.02943554792364L145.37197673232004,84.9888733649932L144.01469537710364,75.80202830545022L146.87212980918412,73.21405826510454L151.08684559649555,72.6964575901693Z"/>

    <path name="新港鄉" class="town" data-zip="616" d="M226.6659863251407,71.7906510612047L223.52280844985216,79.23100304456966L219.2366568017169,80.84841011366734L215.45055617920298,96.11566417805443L217.02214511684724,100.44965966535892L223.80855189304566,100.1909180346629L223.8799877538695,102.90767749325823L232.3808551893162,102.84299345485852L237.095622002249,104.71881649559873L237.6671088886651,115.77911152273009L235.2382896213967,119.07759990062914L227.7375242371636,117.13732352876468L220.37963057454908,118.56019591561562L218.52229819369677,127.09707830777916L212.87886519033054,130.07191075663286L210.80722522707947,129.03719473270394L210.23573834064882,123.21675200140089L206.87825288296153,119.01292452369671L200.37758954997116,120.56512401252257L197.6630268394947,122.69936574447274L196.37718134504394,127.1617493571357L188.23349321361457,126.51503730603508L181.87570160219911,124.25151786824426L174.87498724360194,126.57970866689357L170.58883559546666,126.06233681076628L166.87417083376204,122.31132459768196L157.51607306867663,119.6596767346382L159.94489233597415,114.35620637172542L160.5163792223757,102.90767749325823L163.08807021126268,100.77308592370173L160.37350750078622,97.0859751977514L160.08776405756362,92.81654834718574L161.8736605776212,88.87042857799679L158.87335442392214,87.64128294114198L162.15940402082924,79.48978963348418L156.87315032148035,80.07205742791484L157.80181651189923,74.1198540986843L161.8736605776212,72.76115779608153L158.65904684152338,66.29096529080562L163.01663435046794,63.1204441561531L170.1602204306546,65.51451884808557L175.73221757322608,63.832201059944055L180.8755995509855,59.23805975853611L181.30421471579757,47.71958310795526L189.44790284722694,47.590155763384246L200.7347688539885,45.64872890047991L203.73507500765845,43.70727073345188L209.592815593438,45.584014132615266L213.950403102368,45.45458449253783L212.45025002551847,53.93193207182412L213.59322379836522,58.00861195116522L217.52219614248315,58.073320043298736L216.16491478723765,65.25570225549382L228.5947545668023,67.19681315144044Z"/>

    <path name="民雄鄉" class="town" data-zip="621" d="M284.314725992459,56.196771259736124L287.9579548933543,59.69101105122172L291.45831207267474,56.196771259736124L295.8873354423995,57.68507096913527L295.5301561383967,61.69691773566592L300.24492295134405,61.438092943226366L307.1027655883372,71.14364223035591L312.96050617411674,69.33199902770502L316.60373507502663,70.30252555825791L317.7467088478443,73.14935830228205L323.31870599041576,74.63744866222987L320.8898867231328,79.2956997438705L327.3905500561377,81.43067134800003L330.03367690581945,85.1829540922663L335.03418716194574,84.6007109735474L336.3914685172058,88.61166211629097L333.53403408511076,92.36372148685768L327.1048066129297,88.5469704141251L324.17593632002536,97.4094104705473L319.9612205327139,99.73811884620955L317.9610164302576,112.54521193223263L313.0319420349115,119.4009762658061L313.24624961731024,121.08251940994523L307.1027655883372,126.96773610524178L302.88804980099667,127.42043320842276L298.95907745687873,125.609634619399L296.10164302482735,131.68863680869254L292.24410654147505,133.04666997926324L289.8152872742212,131.23595569416648L287.6722114501463,125.4156188753077L281.9573425859853,117.3313525685262L277.52831921626057,115.19701598722895L271.3133993264637,115.3910481441344L272.5278089601052,119.4009762658061L264.5269925502653,119.59500166937141L265.02704357588664,123.7341360426326L260.59802020614734,123.41077127651806L258.16920093887893,125.99766517298849L251.09705071947246,127.03240722381088L247.2395142361638,132.787998170832L244.23920808246476,133.30534123411417L244.52495152568736,125.86832179359044L240.59597918155487,121.7939344631086L231.23788141646946,125.8036500519629L226.9517297683633,123.54011728681871L227.7375242371636,117.13732352876468L235.2382896213967,119.07759990062914L237.6671088886651,115.77911152273009L237.095622002249,104.71881649559873L232.3808551893162,102.84299345485852L223.8799877538695,102.90767749325823L223.80855189304566,100.1909180346629L217.02214511684724,100.44965966535892L215.45055617920298,96.11566417805443L219.2366568017169,80.84841011366734L223.52280844985216,79.23100304456966L226.6659863251407,71.7906510612047L231.73793244209082,71.59654877659705L236.88131441985024,74.83154605066011L243.02479844882328,67.39092252149567L250.025512807435,65.19099802049095L252.38289621390868,61.308680338512204L259.1693029901071,58.785106762901705L270.5990407184581,59.108644790700055L272.31350137769186,54.514323358860565L275.52811511380423,53.99664235388991Z"/>

    <path name="大林鎮" class="town" data-zip="622" d="M349.32135932237725,43.06011105400103L349.53566690479056,47.71958310795526L342.4635166853841,52.57300811761888L343.6064904582163,57.555654333023995L348.1783855495596,65.25570225549382L351.3929992856429,68.74967935825771L347.2497193591262,71.59654877659705L347.6783345239528,76.44901213536286L341.892029798968,76.31961564712401L337.67731401162746,78.71342820055725L335.03418716194574,84.6007109735474L330.03367690581945,85.1829540922663L327.3905500561377,81.43067134800003L320.8898867231328,79.2956997438705L323.31870599041576,74.63744866222987L317.7467088478443,73.14935830228205L316.60373507502663,70.30252555825791L312.96050617411674,69.33199902770502L307.1027655883372,71.14364223035591L300.24492295134405,61.438092943226366L295.5301561383967,61.69691773566592L295.8873354423995,57.68507096913527L291.45831207267474,56.196771259736124L287.9579548933543,59.69101105122172L284.314725992459,56.196771259736124L282.2430860291788,51.73176179567599L278.5998571282835,49.91982668254059L278.0998061026621,46.29587466617886L271.8848862128798,45.84287299540665L267.88447800795257,47.91372386400326L262.66966016941296,48.10786430702501L258.8835595469136,45.90758762414407L260.5265843453526,37.9474272789048L257.6691499132721,34.84088044262535L251.09705071947246,35.5528045082101L249.45402592103346,38.85348833626267L242.52474742321647,37.041359401027876L241.5246453719883,33.48174098642994L243.2391060312366,29.468953978979698L249.09684661701613,23.125888640355697L248.7396673129988,19.56585849494877L254.02592101236223,17.04140962792735L255.66894581080123,22.478618269396975L262.3124808653956,23.320069072455226L263.88406980305444,20.472057983824925L271.74201449127577,16.329376007237443L274.31370548016275,12.251284044337808L279.74283090111567,12.963341814174782L283.81467496683763,15.811530725895864L288.1722624757822,13.15753865590159L299.3876926216908,11.603955139544269L303.38810082661803,10.050351547484752L309.3887131340016,12.057085738859314L312.0318399836833,7.202026148141158L315.24645371978113,9.661947512428014L320.81845086233807,7.97884885932217L326.17614042249625,9.01460466537901L327.6762934993312,12.380749407060648L326.6047555873083,16.19991489597669L329.8908051842009,22.413891040741873L336.03428921318846,29.986740467302297L344.89233595266705,37.62383239121118Z"/>

    <path name="溪口鄉" class="town" data-zip="623" d="M248.7396673129988,19.56585849494877L249.09684661701613,23.125888640355697L243.2391060312366,29.468953978979698L241.5246453719883,33.48174098642994L242.52474742321647,37.041359401027876L249.45402592103346,38.85348833626267L251.09705071947246,35.5528045082101L257.6691499132721,34.84088044262535L260.5265843453526,37.9474272789048L258.8835595469136,45.90758762414407L262.66966016941296,48.10786430702501L267.88447800795257,47.91372386400326L271.8848862128798,45.84287299540665L278.0998061026621,46.29587466617886L278.5998571282835,49.91982668254059L282.2430860291788,51.73176179567599L284.314725992459,56.196771259736124L275.52811511380423,53.99664235388991L272.31350137769186,54.514323358860565L270.5990407184581,59.108644790700055L259.1693029901071,58.785106762901705L252.38289621390868,61.308680338512204L250.025512807435,65.19099802049095L243.02479844882328,67.39092252149567L236.88131441985024,74.83154605066011L231.73793244209082,71.59654877659705L226.6659863251407,71.7906510612047L228.5947545668023,67.19681315144044L216.16491478723765,65.25570225549382L217.52219614248315,58.073320043298736L213.59322379836522,58.00861195116522L212.45025002551847,53.93193207182412L213.950403102368,45.45458449253783L209.592815593438,45.584014132615266L203.73507500765845,43.70727073345188L208.44984182062035,37.364955854682194L208.94989284622716,32.96396953690055L212.87886519033054,31.41064182142145L220.16532299216487,31.02230675951796L225.8801918563404,20.860427103209076L239.3815695479425,15.423145301403565L237.8814164710784,10.63295524725254L242.52474742321647,10.244553094453295L242.66761914480594,16.9119492832142Z"/>

    <path name="義竹鄉" class="town" data-zip="624" d="M117.79773446269974,228.5234652546169L123.44116746608051,230.2681097204295L127.44157567100774,234.7265316603516L126.65578120217833,246.03338945717041L130.65618940710556,247.7131756611925L131.44198387590586,251.97714401880876L140.0857230329566,257.0161864327565L139.44280028574576,261.47362671085284L141.3715685274219,269.2253074579421L133.08500867435941,271.03396185402744L131.08480457191763,267.1582409187322L128.22737013980804,265.9955005465308L124.15552607410064,267.3520298996482L120.01224614756939,274.4574125975523L125.7271150117449,274.2636349398781L125.36993570774212,277.9453576435808L115.29747933462204,287.1814698096132L106.79661189918988,290.6690500955701L100.93887131341035,290.4107142425455L95.22400244923483,300.22709124333414L90.7235432187008,312.23816016324054L86.43739157056552,318.8889415473932L81.00826614961261,322.11734532625997L72.50739871415135,322.63388199458495L61.93489131545357,314.95017310753246L59.148892744167824,314.04617550059993L57.00581692009291,317.98497316262L59.72037963058392,324.1834788650631L51.0052046127239,322.763015819608L48.43351362385147,320.3094497466918L44.50454127974808,311.0112773308174L37.5038269211218,306.0390466993231L41.28992754363571,306.10362242408155L44.71884886214684,304.03718224825207L46.00469435658306,299.45214288929856L52.576793550368166,294.09194838425174L50.79089703031059,287.82732555143957L52.29105010717467,283.82296469173525L48.86212878866354,276.8473116575515L53.576895601610886,271.61530933963513L60.077558934586705,258.5666189847034L66.07817124197027,255.46573410011115L68.86416981324146,249.71596731605678L75.00765384222905,242.15687109160353L78.65088274313894,240.9292811473897L85.29441779774788,243.90131966728586L86.79457087458286,241.31694247035193L91.86651699154754,240.3477868426271L94.86682314523205,235.69573215532364L91.43790182673547,233.3050236050767L91.86651699154754,229.04039956253473L94.29533625881595,224.58176875532445L94.86682314523205,220.05835271035903L99.01010307174874,216.6333683777084L104.93927951833757,220.89842844077066L107.43953464640072,224.96948228470137Z"/>

    <path name="布袋鎮" class="town" data-zip="625" d="M99.01010307174874,216.6333683777084L94.86682314523205,220.05835271035903L94.29533625881595,224.58176875532445L91.86651699154754,229.04039956253473L91.43790182673547,233.3050236050767L94.86682314523205,235.69573215532364L91.86651699154754,240.3477868426271L86.79457087458286,241.31694247035193L85.29441779774788,243.90131966728586L78.65088274313894,240.9292811473897L75.00765384222905,242.15687109160353L68.86416981324146,249.71596731605678L66.07817124197027,255.46573410011115L60.077558934586705,258.5666189847034L53.576895601610886,271.61530933963513L48.86212878866354,276.8473116575515L52.29105010717467,283.82296469173525L50.79089703031059,287.82732555143957L52.576793550368166,294.09194838425174L46.00469435658306,299.45214288929856L44.71884886214684,304.03718224825207L41.28992754363571,306.10362242408155L37.5038269211218,306.0390466993231L32.57475252577569,306.0390466993231L30.50311256251007,303.2622581421783L25.6454740279587,301.97070700676704L25.6454740279587,297.1272682313611L15.573017654867726,289.44194990986216L11.929788753972389,287.9564962884506L0,278.3974913450038L1.5715889376588166,270.9693675174094L8.357995713857235,256.9515846471768L11.644045310749789,245.3227036855351L11.429737728351029,237.5048857126494L25.359730584765202,236.79415003001486L28.57434432086302,234.0157797132706L33.431982855385286,236.6003123036062L38.361057250760496,229.6219480273612L36.646596591497655,228.45884831132935L36.14654556589085,219.1536492648156L40.36126135321683,219.1536492648156L42.932952342089266,217.53809061764696L46.93336054701649,213.8545364506681L49.29074395347561,207.58577481014072L57.3629962241248,202.15689464054958L61.43484028983221,208.4259369267238L63.077865088300314,205.64691693936766L62.792121645077714,204.03117836393358L62.792121645077714,203.90191834773577L62.86355750587245,203.90191834773577L62.86355750587245,203.8372882879521L63.006429227476474,203.77265819371678L63.435044392288546,203.64339790188387L63.506480253112386,203.64339790188387L63.57791611390712,203.64339790188387L63.64935197470186,203.64339790188387L63.720787835496594,203.64339790188387L63.79222369630588,203.64339790188387L64.07796713951393,203.70802806502616L64.72088988672476,203.8372882879521L64.506582304326,204.095808320355L65.29237677314086,204.74210598980062L66.4353505459876,205.38840021418582L69.29278497808264,206.48709248970408L74.93621798143431,201.381320485998L74.22185937341419,198.79603746724752L75.15052556383307,195.49972164655628L75.22196142465691,194.91800954840073L75.22196142465691,194.78873981408833L75.29339728545165,194.4655648750304L75.29339728545165,193.88384781301647L73.078885600582,189.35928644996238L74.22185937341419,185.1577567511158L65.22094091234612,179.79251467102222L64.506582304326,178.88751065425822L65.72099193798203,178.4996497197062L70.93580977652164,176.36639237492273L71.65016838454176,176.10781317346846L73.15032146137673,175.4613627541221L73.3646290438046,175.39671752236973L73.50750076539407,175.33207225612205L73.6503724869981,175.26742695535359L74.1504235126049,175.07349084597809L74.22185937341419,175.13813625028706L74.36473109503277,175.26742695535359L74.721910399021,175.4613627541221L75.29339728545165,176.62497102421548L76.93642208389065,181.21465017746596L84.0800081641064,186.38591127250766L86.79457087458286,189.74711261532138L84.0800081641064,199.11920085989186L84.43718746812374,202.09226365050563L88.36615981224168,205.129882937832L93.00949076437973,205.97006207076265L100.29594856618496,202.02763262600638L100.58169200940756,208.55519212031868L97.36707827330974,215.14702433528873Z"/>
</svg>