<?xml version="1.0" encoding="utf-8"?>
<svg version="1.1" xmlns="http://www.w3.org/2000/svg" xmlns:xlink="http://www.w3.org/1999/xlink" x="0px" y="0px" viewBox="0 0 550 420" xml:space="preserve" data-w="550" data-h="420">

    <path name="東區" class="town" data-zip="600" d="M276.63447251112666,387.4376304306061L284.8068350668764,346.8276043739752L264.78454680531286,329.42254305390816L265.601783060818,295.50366942374967L286.44130757811945,291.48684529738966L275.81723625562154,252.65628507887595L279.4947994056856,235.24874052699306L272.13967310555745,184.3625151082233L271.3224368499359,182.13057325086265L279.08618127787486,144.63282053911826L265.1931649331236,79.45307972811861L242.31054977711756,114.27593490139407L213.29866270441562,62.48743239555915L203.9004457652336,55.34387125153444L198.17979197623208,37.03814227131079L241.9019316494232,36.14516687038122L235.36404160468373,14.266891398030566L269.2793462109985,13.373885126333334L293.38781575032044,24.982872221822618L324.4427934620762,69.18445062973478L336.29271916789,100.88274680110044L349.3684992569033,110.70444468366622L370.61664190201554,103.11496371674002L386.144130757777,70.07738125156902L407.39227340265643,79.89953823298856L430.2748885586625,77.66724268368853L437.2213967309799,97.75763041811297L435.58692421985324,128.56170227148687L451.5230312035419,144.63282053911826L481.3521545319818,153.5610503092903L508.3209509657463,150.88259407228907L530.3863298662473,210.25248872392694L550,230.33883723564213L525.0742942049401,268.27804949044366L507.5037147102412,276.7582810362801L511.1812778603053,297.28891674545594L484.21248142642435,340.5796864246804L458.8781575036701,342.8110924780922L402.0802377414657,294.61104395237635L363.6701337294653,296.3962936880707L311.7756315007573,340.13340430926473L291.344725111383,380.29758696728095Z"/>

    <path name="西區" class="town" data-zip="600" d="M276.63447251112666,387.4376304306061L230.46062407130376,406.6261148736812L213.70728083210997,383.421365478338L210.02971768192947,359.7695320958446L187.1471025259234,341.4722497508483L183.4695393758593,299.0741592392442L118.49925705802161,303.09093719861994L100.52005943539552,280.32887224860315L22.065378900500946,291.9331602962484L22.4739970281953,273.6339978803153L45.35661218431778,249.0855441470194L43.313521545380354,214.71617457798857L18.796433878247626,192.3974432565883L24.517087667132728,150.43618364163558L2.0430906389374286,147.75771471064945L0,111.59731905232184L25.742942050565034,100.88274680110044L45.35661218431778,110.70444468366622L66.60475482919719,85.70347127229616L103.78900445764884,109.36513086302148L125.03714710252825,78.11370239850658L163.44725111452863,72.30970251225517L169.5765230312245,60.7015493705112L203.9004457652336,55.34387125153444L213.29866270441562,62.48743239555915L242.31054977711756,114.27593490139407L265.1931649331236,79.45307972811861L279.08618127787486,144.63282053911826L271.3224368499359,182.13057325086265L272.13967310555745,184.3625151082233L279.4947994056856,235.24874052699306L275.81723625562154,252.65628507887595L286.44130757811945,291.48684529738966L265.601783060818,295.50366942374967L264.78454680531286,329.42254305390816L284.8068350668764,346.8276043739752Z"/>
</svg>
