<?xml version="1.0" encoding="utf-8"?>
<svg version="1.1" xmlns="http://www.w3.org/2000/svg" xmlns:xlink="http://www.w3.org/1999/xlink" x="0px" y="0px" viewBox="0 0 530 600" style="enable-background:new 0 0 530 600;" xml:space="preserve" data-w="530" data-h="600">

    <path name="竹北市" class="town" data-zip="302" d="M79.02636370490654,94.17722186974788L80.65485439052281,97.7090418322623L89.01443990989355,102.78588048423626L99.65391238912707,107.09001582323981L101.06527098330844,110.4008011895312L109.42485650270828,112.05616519049727L112.68183787391172,120.5533994439138L115.61312110797735,121.43620009306323L115.61312110797735,132.4707496114097L121.47568757612316,137.10500722727375L125.1669331301382,137.3256824265336L129.835273095523,143.61478290032392L143.62316090022796,146.7040646115347L148.40006691131566,151.99982137593543L141.777538123235,152.3307996846197L151.9827464196278,166.12088415681865L148.07436877417786,172.96027463597056L151.4399161910842,184.76297277617778L137.1091981578502,175.82830918422042L121.58425362182606,168.87874209504662L108.99059231986757,166.78277489317406L105.84217699439614,160.60500934452648L102.6937616688956,159.2811678520411L95.41983660656842,150.34491838173926L87.16881713287148,143.61478290032392L73.81519351100724,139.53241574706408L71.42674050545611,135.11891515572643L67.30123076860036,133.02245479876728L60.13587175197608,134.45687835362696L52.42768250682275,131.36733286947128L39.72545515919046,129.38116133910808L28.760284542833688,121.54654979196494L24.20051062318089,111.28366436947908L14.538132555302582,108.19361944427874L9.978358635635232,104.99314552672513L10.846887001287541,100.24748364664629L16.926585560824606,97.7090418322623L26.806095720108715,85.56804583410849L30.82303941126156,76.29604659616598L38.09696447358874,74.75065500666096L49.170701135648414,77.06873613477L53.73047505530121,81.59440539939897L60.02730570627318,84.35388962296565L65.23847590020159,93.18388181487535L68.60402331707883,96.16388131357598L76.31221256224671,97.48830563572483Z"/>

    <path name="湖口鄉" class="town" data-zip="303" d="M215.0596189750504,76.18566203592127L213.97395851800684,81.92554631423991L207.13429763849126,80.82174028634108L205.8315050900128,85.89917755950592L199.20897630191757,85.56804583410849L192.58644751382235,89.54157600482358L181.18701271463942,89.76232444833295L179.232823891929,93.84610928354596L174.23878578942094,93.40462464463053L164.79353981297754,96.7157262692781L160.01663380188984,95.39129480396514L153.50267105951207,99.47491916027502L138.7376888434519,103.66879058160703L133.7436507409584,108.41433914858135L127.55538613568933,109.73865023536564L122.23564989605802,106.20712680674842L115.2874229708541,108.08325946462719L103.67085608026537,106.64857199495964L101.06527098330844,110.4008011895312L99.65391238912707,107.09001582323981L89.01443990989355,102.78588048423626L80.65485439052281,97.7090418322623L79.02636370490654,94.17722186974788L87.60308131571219,83.91237572094906L95.85410078940913,75.74412294368813L106.81927140575135,66.36109522631887L108.23062999993272,56.20465422939378L110.94478114259255,50.02211972105579L116.15595133652096,33.46044255801826L119.7386308448331,31.583331443092902L124.4069708101888,22.418258461155347L131.57232982681307,12.148261465757969L135.37214142654557,4.196788966120948L137.32633024924144,7.068205097399186L145.03451949440932,11.264786379211728L147.42297249996045,15.019517764219927L150.78851991683769,29.706195678256336L147.96580272847496,37.214590846775536L148.94289713984472,44.943409307470574L151.3313501453813,48.91806758107123L158.27957707059977,49.58049988773928L167.83338909274607,54.879847900607274L174.45591788085585,54.65904565301389L182.7069373545237,61.06217247869063L193.2378437880543,58.96462801187954L201.38029721604835,55.98385402658096L203.44305208447622,63.711658380496374L201.05459907891054,69.56243263969736L206.04863718143315,73.53640705339058Z"/>

    <path name="新豐鄉" class="town" data-zip="304" d="M135.37214142654557,4.196788966120948L131.57232982681307,12.148261465757969L124.4069708101888,22.418258461155347L119.7386308448331,31.583331443092902L116.15595133652096,33.46044255801826L110.94478114259255,50.02211972105579L108.23062999993272,56.20465422939378L106.81927140575135,66.36109522631887L95.85410078940913,75.74412294368813L87.60308131571219,83.91237572094906L79.02636370490654,94.17722186974788L76.31221256224671,97.48830563572483L68.60402331707883,96.16388131357598L65.23847590020159,93.18388181487535L60.02730570627318,84.35388962296565L53.73047505530121,81.59440539939897L49.170701135648414,77.06873613477L38.09696447358874,74.75065500666096L30.82303941126156,76.29604659616598L31.474435685493518,72.1013734650005L36.03420960516087,64.15323459463252L36.90273797082773,58.6334339692221L43.5252667589084,50.02211972105579L54.92470155807678,20.320147030488442L67.84406099714397,6.957767082873033L73.48949537386943,8.062143385712261L76.20364651654381,11.596090176972211L85.75745853871922,5.853382240882638L90.10010036696622,6.626452526903449L93.68277987527836,0.11044339504223899L107.1449695428746,6.516014170807466L114.09319646806398,6.29513720239629L118.54440434205753,1.9879680420890509L127.44682008998643,-7.275957614183426e-12Z"/>

    <path name="新埔鎮" class="town" data-zip="305" d="M244.37245131580858,117.79461237579017L244.80671549860563,125.40873574607758L221.68214776316017,126.07081432074847L211.47693946673826,132.91211393109188L199.20897630191757,130.7052787491848L201.27173117034545,139.4220798872957L198.99184421052632,144.0561129316884L205.9400711357157,162.37011234308375L201.27173117034545,177.92414436503532L194.64920238226478,177.48291844749474L188.4609377769957,174.8355344762167L182.27267317172664,179.1375086493099L176.41010670358082,179.358119236138L171.52463464676111,174.06337162522686L171.3075025553553,168.76842879459946L165.33637004152115,166.67245998236467L163.27361517309328,158.28827872012334L153.71980315094697,152.5514514663373L148.40006691131566,151.99982137593543L143.62316090022796,146.7040646115347L129.835273095523,143.61478290032392L125.1669331301382,137.3256824265336L121.47568757612316,137.10500722727375L115.61312110797735,132.4707496114097L115.61312110797735,121.43620009306323L112.68183787391172,120.5533994439138L109.42485650270828,112.05616519049727L101.06527098330844,110.4008011895312L103.67085608026537,106.64857199495964L115.2874229708541,108.08325946462719L122.23564989605802,106.20712680674842L127.55538613568933,109.73865023536564L133.7436507409584,108.41433914858135L138.7376888434519,103.66879058160703L153.50267105951207,99.47491916027502L160.01663380188984,95.39129480396514L164.79353981297754,96.7157262692781L174.23878578942094,93.40462464463053L179.232823891929,93.84610928354596L181.18701271463942,89.76232444833295L192.58644751382235,89.54157600482358L199.20897630191757,85.56804583410849L205.8315050900128,85.89917755950592L207.13429763849126,80.82174028634108L213.97395851800684,81.92554631423991L215.0596189750504,76.18566203592127L221.46501567175437,75.41296773075737L228.08754445980594,78.39333706945763L232.7558844252053,73.75718017465988L239.81267739611212,75.52335288686663L250.45214987534564,75.63373795782172L252.73203683520842,82.91896446376995L256.4232823892089,100.24748364664629L251.5378103323892,104.11024359007934L250.23501778393984,111.39402188454187Z"/>

    <path name="關西鎮" class="town" data-zip="306" d="M394.84499066488934,209.24772164327442L387.78819769396796,216.08505970753322L365.96642250700097,217.739205560174L352.6127988850785,232.29486884057042L347.8358928740199,233.72830147466448L343.8189491828671,230.6408903636111L334.48226925212657,235.6027687575952L323.1914004986611,237.47721162348898L313.96328661360894,242.32859743765948L308.64355037397763,250.70787871956782L300.9353611288243,255.5588186629102L293.11860583796806,248.39259976264657L293.6614360664971,234.72066954850743L287.69030355266295,233.83856493194253L281.2849068559881,239.68240726673685L275.9651706163568,237.03616843983764L272.92532133658824,231.19221863520215L269.0169436911383,230.31009238653132L266.08566045707266,224.46586936966924L259.5716977146949,221.37825946772864L247.6294326869829,217.84948127387906L241.00690389890224,214.3206164924777L236.8813941620465,209.1374393326987L226.45905377421877,209.24772164327442L211.25980737533246,207.04205935880964L210.4998450553976,197.66761707694604L204.42014649581688,187.18957556764508L201.27173117034545,177.92414436503532L205.9400711357157,162.37011234308375L198.99184421052632,144.0561129316884L201.27173117034545,139.4220798872957L199.20897630191757,130.7052787491848L211.47693946673826,132.91211393109188L221.68214776316017,126.07081432074847L244.80671549860563,125.40873574607758L244.37245131580858,117.79461237579017L254.4690935664985,124.52595955746801L272.05679297093593,132.13972548024321L269.451207873979,137.10500722727375L279.2221519875602,140.19442912342856L293.3357379293884,148.57966748477338L305.0608708656946,161.04628712890553L307.12362573409337,158.1779572815285L314.94038102496415,154.7579506247057L319.71728703605186,169.87155798552703L326.44838186983543,166.01056873741254L337.1964203947864,163.80424254887112L342.6247226800915,159.06052641626593L346.8587984626647,165.12804233079078L347.2930626454763,173.0705847161771L351.8528365651582,176.15923256186215L357.715403033304,177.48291844749474L361.29808254161617,180.3508626836192L358.47536535325344,186.41747912533538L360.1038560388406,190.05732602733042L364.9893280956312,190.71910646656033L371.8289889751468,194.8000184943703L378.34295171752456,202.8512077854357L385.6168767798372,203.5129293143982L394.41072648207773,206.82149126920558Z"/>

    <path name="芎林鄉" class="town" data-zip="307" d="M148.40006691131566,151.99982137593543L153.71980315094697,152.5514514663373L163.27361517309328,158.28827872012334L165.33637004152115,166.67245998236467L171.3075025553553,168.76842879459946L171.52463464676111,174.06337162522686L176.41010670358082,179.358119236138L182.27267317172664,179.1375086493099L188.4609377769957,174.8355344762167L194.64920238226478,177.48291844749474L201.27173117034545,177.92414436503532L204.42014649581688,187.18957556764508L210.4998450553976,197.66761707694604L211.25980737533246,207.04205935880964L226.45905377421877,209.24772164327442L236.8813941620465,209.1374393326987L241.00690389890224,214.3206164924777L247.6294326869829,217.84948127387906L245.34954572714923,231.3024840360158L240.78977180749644,237.80799312413365L242.2011304016778,240.34395937071895L237.0985262534814,247.51057893686448L228.52180864264665,247.40032595364391L222.98494031160953,249.82587207887627L216.14527943212306,248.72335617908902L219.18512871190615,254.56659424294776L217.33950593488407,258.3149617341078L209.41418459831038,255.3383249382423L198.99184421052632,247.62083183564027L196.27769306785194,233.1769829207442L184.22686199443706,228.21502086896362L173.5873895152181,218.95223376017384L171.74176673819602,210.01969544868552L165.33637004152115,200.31458037034463L152.1998785110336,191.60147564434374L151.4399161910842,184.76297277617778L148.07436877417786,172.96027463597056L151.9827464196278,166.12088415681865L141.777538123235,152.3307996846197Z"/>

    <path name="寶山鄉" class="town" data-zip="308" d="M114.41889460520179,218.18030790762714L124.189838718783,229.53822748222956L127.98965031850094,223.91451531946586L135.26357538085722,224.02478629859615L140.25761348332162,222.15016815685158L143.08033067171345,227.33287636546447L152.85127478529466,231.96407466624078L153.28553896810627,236.48486255947137L158.06244497919397,240.89525046780545L159.90806775618694,249.27461518440032L157.19391661354166,250.81812916974013L148.72576504842436,249.9361232044903L136.8920660664444,265.70116506657723L130.26953727834916,265.3704476446801L125.70976335866726,272.5358217977373L116.48164947362966,276.17349074713275L113.22466810242622,272.86652277012763L105.73361094869324,272.3153540610474L98.89395006917766,277.9371759679234L89.34013804703136,268.016165759258L82.71760925892158,267.57521611475386L79.13492975060944,265.03972946347494L71.75243864257936,272.4255879715711L64.26138148883183,268.12640295946403L59.267343386338325,271.21301031710027L51.45058809548209,273.6381554205036L47.32507835862634,272.0948859870223L44.06809698745201,277.16556634005974L39.291190976364305,279.9212960389559L32.23439800544293,271.9846518235099L25.720435263065156,276.3939525802962L18.88077438354958,270.44136467763747L22.246321800455917,265.70116506657723L22.897718074702425,255.44857184277134L21.70349157191231,253.02312044342034L30.171643137015053,232.5153978676135L38.31409656497999,234.61040676717312L41.78821002758923,229.09715996337763L46.347983947285684,225.45830133453637L48.519304861401906,220.6063466359301L52.53624855255475,219.61388119334515L55.03326760377968,209.46828601063316L65.23847590020159,211.67391107475487L68.06119308854977,206.82149126920558L74.46658978525375,205.7186457450225L71.86100468828226,195.9029477976219L76.85504279077577,195.5720698954501L82.50047716751578,192.37354423011857L101.06527098330844,202.8512077854357L106.05930908580194,211.12250798069363L108.01349790852692,219.06250854377504Z"/>

    <path name="竹東鎮" class="town" data-zip="310" d="M151.4399161910842,184.76297277617778L152.1998785110336,191.60147564434374L165.33637004152115,200.31458037034463L171.74176673819602,210.01969544868552L173.5873895152181,218.95223376017384L184.22686199443706,228.21502086896362L196.27769306785194,233.1769829207442L198.99184421052632,247.62083183564027L191.93505123960495,273.6381554205036L190.08942846258287,283.33832768202774L195.95199493071414,287.3063917957552L197.47191957061295,291.8254428830187L195.30059865648218,297.446503865729L195.7348628393229,303.94902653385725L191.50078705676424,313.647159708813L195.8434288850258,318.05518653967374L197.14622143350425,323.4548358911925L203.55161813017912,320.6999379986446L210.1741469182889,321.3611182893437L217.01380779777537,327.2014126313916L217.44807198061608,336.0165037216211L220.3793552146817,338.44055940946055L222.00784590026888,341.1951187467894L217.33950593488407,348.1363752420839L208.00282600412902,344.16998381214216L203.00878790163551,343.28854870033683L201.38029721604835,347.3651409952945L190.19799450828577,354.3061009725061L188.4609377769957,352.76369424512814L187.48384336562594,348.68725432557403L183.3583336287993,345.2717701364345L177.06150297782733,325.21794294326537L177.8214652977622,317.61438991683826L176.08440856644302,312.1043184989612L180.86131457753072,303.7286068376343L185.42108849719807,299.32014216361495L181.51271085177723,286.09393935107437L178.6899936634145,281.35425465646404L174.89018206366745,280.1417521383082L175.6501443836314,273.6381554205036L171.1989365096524,269.89018669036886L161.2108603046654,265.9216429259832L159.36523752764333,259.19691637591313L162.18795471603516,257.3227563055334L164.79353981297754,250.04637424563407L159.90806775618694,249.27461518440032L158.06244497919397,240.89525046780545L153.28553896810627,236.48486255947137L152.85127478529466,231.96407466624078L143.08033067171345,227.33287636546447L140.25761348332162,222.15016815685158L135.26357538085722,224.02478629859615L127.98965031850094,223.91451531946586L124.189838718783,229.53822748222956L114.41889460520179,218.18030790762714L120.82429130187666,213.54866577793655L118.21870620491973,208.03461157434867L118.00157411351393,196.45440927506206L113.00753601102042,192.37354423011857L112.57327182817971,181.564206468498L108.44776209136762,175.93861706150346L111.05334718832455,174.06337162522686L108.99059231986757,166.78277489317406L121.58425362182606,168.87874209504662L137.1091981578502,175.82830918422042Z"/>

    <path name="五峰鄉" class="town" data-zip="311" d="M246.4352061841928,317.39399110042723L250.66928196675144,323.01405576255274L264.3486037257826,321.0305285226568L265.75996231996396,328.7440924329785L271.4053966966894,330.7275136652279L278.2450575761759,331.0580812209664L284.2161900900537,340.0933013176873L286.1703789127787,348.7974298901245L281.82773708448804,356.6196801860824L281.93630313019094,361.1365613985945L291.70724724377214,369.1784638316276L296.1584551177657,374.57620216043506L303.4323801800783,378.5417590295219L310.05490896817355,385.5913693570619L309.83777687676775,391.09863830897666L318.52306053326174,401.0111940343959L315.9174754363048,406.1874809768815L309.72921083106485,407.8394484705277L305.0608708656946,415.6585054228126L298.5469081232877,416.4293754871578L295.0727946606785,422.48606887824644L292.90147374656226,434.8189158680616L294.52996443217853,439.2232495828248L289.7530584210908,450.78398857931825L297.24411557480926,461.02273014659295L292.79290770085936,470.82041862954793L299.19830439753423,476.9849170362868L297.13554952910636,486.01103133985816L301.2610592659621,491.73461775727264L298.8726062604255,497.1277906876603L300.2839648545778,501.7503508458103L292.03294538090995,508.0235899172185L283.13052963298105,509.8945034821227L279.0050198961544,506.9230412647157L273.793849702226,507.2532067364009L264.5657358171884,513.0860062821412L256.9661126177234,512.0955474023067L249.14935732686718,508.2436986466819L245.02384759004053,509.1241302278613L239.26984716758307,502.4107045661294L230.80169560248032,508.46380704248804L223.41920449445024,508.46380704248804L216.79667570634047,504.501804863743L205.9400711357157,508.6839151046115L201.48886326175125,514.736756070215L197.47191957061295,515.3970507316408L189.54659823403927,520.3491650089636L181.83840898888593,518.5884326098894L176.73580484068953,514.626706668103L169.67901186976815,517.1578218190843L162.51365285314387,517.9281524574144L162.51365285314387,512.2055987225576L159.58236961907824,505.38225913608403L157.19391661354166,489.5332650836499L168.15908722988388,483.5894460399977L168.5933514127246,476.54460441060655L171.0903704639495,468.28849515577167L166.74772863570252,465.2060938629911L164.03357749302813,459.0410946729462L160.34233193902764,457.71998930746486L152.0913124653307,451.2243794466558L160.9937282132596,442.96682795959714L166.096332361456,422.48606887824644L169.78757791547105,418.7419610502293L170.22184209831175,414.66738073640954L174.0216536980297,412.3547300755308L172.17603092103673,399.90983249475903L167.07342677281122,397.0462532523925L166.096332361456,387.5740103396929L161.9708226246148,384.37974204156853L163.81644540163688,377.10976493036287L167.61625700134027,374.1355780155427L173.9130876523268,365.5431387053177L180.64418248613947,360.8060626832812L184.55256013154576,355.0772981605551L188.4609377769957,352.76369424512814L190.19799450828577,354.3061009725061L201.38029721604835,347.3651409952945L203.00878790163551,343.28854870033683L208.00282600412902,344.16998381214216L217.33950593488407,348.1363752420839L222.00784590026888,341.1951187467894L220.3793552146817,338.44055940946055L226.89331795705948,329.51542615072685L232.86445047092275,324.55678032288415L237.2070922991843,325.21794294326537Z"/>

    <path name="橫山鄉" class="town" data-zip="312" d="M300.9353611288243,255.5588186629102L296.4841532548744,262.0632316602532L294.9642286149756,267.57521611475386L290.8387188781344,269.6697149049978L291.70724724377214,276.6144140761462L285.4104165928002,286.9757239586361L273.2510194736824,288.18816898619843L259.78882980611525,296.3443523175556L259.2459995775571,302.18565953122743L252.4063386980706,306.37362095923527L246.4352061841928,317.39399110042723L237.2070922991843,325.21794294326537L232.86445047092275,324.55678032288415L226.89331795705948,329.51542615072685L220.3793552146817,338.44055940946055L217.44807198061608,336.0165037216211L217.01380779777537,327.2014126313916L210.1741469182889,321.3611182893437L203.55161813017912,320.6999379986446L197.14622143350425,323.4548358911925L195.8434288850258,318.05518653967374L191.50078705676424,313.647159708813L195.7348628393229,303.94902653385725L195.30059865648218,297.446503865729L197.47191957061295,291.8254428830187L195.95199493071414,287.3063917957552L190.08942846258287,283.33832768202774L191.93505123960495,273.6381554205036L198.99184421052632,247.62083183564027L209.41418459831038,255.3383249382423L217.33950593488407,258.3149617341078L219.18512871190615,254.56659424294776L216.14527943212306,248.72335617908902L222.98494031160953,249.82587207887627L228.52180864264665,247.40032595364391L237.0985262534814,247.51057893686448L242.2011304016778,240.34395937071895L240.78977180749644,237.80799312413365L245.34954572714923,231.3024840360158L247.6294326869829,217.84948127387906L259.5716977146949,221.37825946772864L266.08566045707266,224.46586936966924L269.0169436911383,230.31009238653132L272.92532133658824,231.19221863520215L275.9651706163568,237.03616843983764L281.2849068559881,239.68240726673685L287.69030355266295,233.83856493194253L293.6614360664971,234.72066954850743L293.11860583796806,248.39259976264657Z"/>

    <path name="尖石鄉" class="town" data-zip="313" d="M300.2839648545778,501.7503508458103L298.8726062604255,497.1277906876603L301.2610592659621,491.73461775727264L297.13554952910636,486.01103133985816L299.19830439753423,476.9849170362868L292.79290770085936,470.82041862954793L297.24411557480926,461.02273014659295L289.7530584210908,450.78398857931825L294.52996443217853,439.2232495828248L292.90147374656226,434.8189158680616L295.0727946606785,422.48606887824644L298.5469081232877,416.4293754871578L305.0608708656946,415.6585054228126L309.72921083106485,407.8394484705277L315.9174754363048,406.1874809768815L318.52306053326174,401.0111940343959L309.83777687676775,391.09863830897666L310.05490896817355,385.5913693570619L303.4323801800783,378.5417590295219L296.1584551177657,374.57620216043506L291.70724724377214,369.1784638316276L281.93630313019094,361.1365613985945L281.82773708448804,356.6196801860824L286.1703789127787,348.7974298901245L284.2161900900537,340.0933013176873L278.2450575761759,331.0580812209664L271.4053966966894,330.7275136652279L265.75996231996396,328.7440924329785L264.3486037257826,321.0305285226568L250.66928196675144,323.01405576255274L246.4352061841928,317.39399110042723L252.4063386980706,306.37362095923527L259.2459995775571,302.18565953122743L259.78882980611525,296.3443523175556L273.2510194736824,288.18816898619843L285.4104165928002,286.9757239586361L291.70724724377214,276.6144140761462L290.8387188781344,269.6697149049978L294.9642286149756,267.57521611475386L296.4841532548744,262.0632316602532L300.9353611288243,255.5588186629102L308.64355037397763,250.70787871956782L313.96328661360894,242.32859743765948L323.1914004986611,237.47721162348898L334.48226925212657,235.6027687575952L343.8189491828671,230.6408903636111L347.8358928740199,233.72830147466448L352.6127988850785,232.29486884057042L365.96642250700097,217.739205560174L387.78819769396796,216.08505970753322L394.84499066488934,209.24772164327442L402.4446138643398,211.34306947208825L406.1358594183548,217.84948127387906L410.26136915521056,221.26798645969393L407.4386519668333,226.78153330384157L407.6557840582391,231.3024840360158L403.7474064128037,235.6027687575952L400.16472690452065,246.4080453048955L408.0900482410798,257.1022652818756L410.15280310950766,261.84274789446863L408.8500105610292,269.7799508398457L405.59302918982576,275.1814083236022L404.50736873276765,282.67697304175454L401.576085498702,290.0619276064208L406.2444254640577,293.1480651835045L416.0153695776389,287.63705887427204L421.2265397715382,287.19616926765957L433.0602387535473,294.91154270965853L443.1568810042372,309.1287924242024L444.02540936991863,319.1571722053559L458.03042926604394,323.8956146735545L458.68182554026134,332.27015578201826L457.0533348546742,339.54238945030374L457.1619009003771,350.2297045816922L460.961712500095,353.0942113588426L462.91590132280544,361.5772251764174L471.05835475081403,363.8906879625101L468.66990174527746,373.91526543945656L464.00156177989265,380.524496674665L466.4985808311176,388.8957558943148L469.755562202321,393.74205291991166L468.66990174527746,396.9361144572431L472.90397752782155,402.0024122519244L477.7894495845976,404.20509509055046L478.65797795023536,407.8394484705277L489.4060164752009,412.7952378121772L494.1829224862595,416.2091273162405L498.0913001316949,416.2091273162405L510.35926329651556,410.9230706721173L516.8732260388933,422.26582992157273L520.0216413643939,431.6256901792185L511.3363577078999,436.4705567043711L508.4050744738197,444.61837590423966L501.673979640007,451.88496323841537L505.90805542256567,460.47227856555764L503.8453005541378,470.1599211157809L506.34231960537727,478.9663073113661L508.9479047023342,482.3786382325234L504.93096101121046,487.3318790136L498.7426964059414,488.32250687814303L490.16597879513574,504.1716331349962L479.20080817877897,504.72191893241325L478.33227981312666,513.5262080603316L476.3780909904308,518.5884326098894L470.5155245222704,520.8993895066596L462.80733527710254,531.573332404143L454.6648818491376,534.3242215261489L450.1051079294557,534.2141869610969L446.73956051257846,537.2951232904488L444.24254146132444,545.2172311222857L439.8998996330629,548.0778861853869L440.0084656787658,553.799027463836L433.494502936388,557.4296349893302L427.08910623971315,566.1207212084846L422.6378983657196,579.6513790014797L419.27235094884236,585.5912704221628L408.0900482410798,593.9507070325053L399.62189667597704,593.4007588468558L394.95355671059224,595.7105272689514L377.80012148898095,597.8002861771529L370.52619642665377,599.9999999999964L359.8867239474348,597.6902996138342L358.9096295360796,584.6013053514216L361.73234672442777,580.751377182678L361.08095045018126,570.9611010616936L358.14966721611563,565.4606569324351L358.04110117041273,558.6398173565212L348.5958551939548,555.3392962719008L343.7103831371642,550.718440901659L341.43049617734505,541.0361724601426L333.3966087950539,534.7643589531872L333.3966087950539,530.2528871275135L329.16253301249526,529.3725836099366L327.0997781440674,524.7509026356529L321.67147585877683,522.6600938936281L316.6774377562688,518.1482461750966L320.2601172645809,507.4733166337355L315.2660791620874,504.72191893241325L315.4832112534932,499.8793323247992L311.68339965377527,499.1089059240767L307.4493238712312,502.7408802998252Z"/>

    <path name="北埔鄉" class="town" data-zip="314" d="M188.4609377769957,352.76369424512814L184.55256013154576,355.0772981605551L180.64418248613947,360.8060626832812L173.9130876523268,365.5431387053177L167.61625700134027,374.1355780155427L163.81644540163688,377.10976493036287L161.9708226246148,384.37974204156853L158.38814311630267,383.3884030503541L151.4399161910842,375.3472911821955L142.64606648887275,382.72750661375903L138.62912279773445,379.0925222139849L132.11516005534213,369.0683038076313L137.97772652351705,360.2552298111732L138.30342466062575,353.4247277163304L130.37810332405206,348.57707867695717L127.66395218139223,343.9496255385675L132.11516005534213,330.396945352506L135.58927351795137,323.01405576255274L127.55538613568933,322.68346978253976L125.384065221544,315.5205875677311L127.01255590714572,304.3898649156836L122.88704617030453,301.524391346371L127.12112195284863,296.23413669940055L129.5095749583852,279.9212960389559L125.70976335866726,272.5358217977373L130.26953727834916,265.3704476446801L136.8920660664444,265.70116506657723L148.72576504842436,249.9361232044903L157.19391661354166,250.81812916974013L159.90806775618694,249.27461518440032L164.79353981297754,250.04637424563407L162.18795471603516,257.3227563055334L159.36523752764333,259.19691637591313L161.2108603046654,265.9216429259832L171.1989365096524,269.89018669036886L175.6501443836314,273.6381554205036L174.89018206366745,280.1417521383082L178.6899936634145,281.35425465646404L181.51271085177723,286.09393935107437L185.42108849719807,299.32014216361495L180.86131457753072,303.7286068376343L176.08440856644302,312.1043184989612L177.8214652977622,317.61438991683826L177.06150297782733,325.21794294326537L183.3583336287993,345.2717701364345L187.48384336562594,348.68725432557403Z"/>

    <path name="峨眉鄉" class="town" data-zip="315" d="M59.267343386338325,271.21301031710027L64.26138148883183,268.12640295946403L71.75243864257936,272.4255879715711L79.13492975060944,265.03972946347494L82.71760925892158,267.57521611475386L89.34013804703136,268.016165759258L98.89395006917766,277.9371759679234L105.73361094869324,272.3153540610474L113.22466810242622,272.86652277012763L116.48164947362966,276.17349074713275L125.70976335866726,272.5358217977373L129.5095749583852,279.9212960389559L127.12112195284863,296.23413669940055L122.88704617030453,301.524391346371L127.01255590714572,304.3898649156836L125.384065221544,315.5205875677311L127.55538613568933,322.68346978253976L135.58927351795137,323.01405576255274L132.11516005534213,330.396945352506L127.66395218139223,343.9496255385675L130.37810332405206,348.57707867695717L138.30342466062575,353.4247277163304L137.97772652351705,360.2552298111732L132.11516005534213,369.0683038076313L122.01851780465222,363.56019554641534L117.67587597640522,362.5687137629793L113.87606437665818,358.7128865974046L113.44180019386113,352.87386670040723L101.93379934896075,353.31455568118326L97.4825914749963,349.7890061893195L95.31127056086552,342.296927768577L97.5911575206992,335.5757619511169L91.29432686972723,335.35539056127527L83.69470367026224,337.3387209602879L81.19768461903732,331.7192140613697L77.94070324786298,331.6090254648989L72.83809909966658,326.8708362429643L69.14685354562243,319.81835956508075L62.090060574701056,313.31655226715156L61.981494528998155,304.3898649156836L59.050211294932524,301.30396794426997L52.101984369714046,302.9571352478779L50.14779554701818,298.65886083840087L59.48447547774413,285.65304502436993L58.83307920352672,279.70083960235206L62.19862662040396,277.38602665534927Z"/>
</svg>