<?xml version="1.0" encoding="utf-8"?>
<svg version="1.1" xmlns="http://www.w3.org/2000/svg" xmlns:xlink="http://www.w3.org/1999/xlink" x="0px" y="0px" viewBox="0 0 600 600" style="enable-background:new 0 0 600 600;" xml:space="preserve" data-w="600" data-h="600">

    <path name="東區" class="town" data-zip="300" d="M327.63684913230827,438.4074224350479L318.02403204282746,411.1849335881125L327.63684913230827,390.5475810644275L327.63684913230827,346.6355942545779L317.22296395199373,337.8527516713075L293.99198931921273,335.6570178314869L308.41121495334664,297.44976354108076L323.2309746329556,290.86202189199685L328.437917223142,273.7335025654902L320.82777036051266,254.40834099933272L347.26301735657034,226.2977310814167L364.88651535392273,215.75585993027198L344.45927903888514,187.20388367159467L403.33778371172957,159.08963364877854L442.9906542057288,132.29182096499426L478.23765020037536,140.1995162296662L508.27770360489376,164.80046397505794L534.3124165555346,196.86780533201818L545.9279038719833,201.69969868085172L564.352469960053,250.4553784422169L555.140186915989,257.4828466277104L569.959946595598,277.68628793217067L571.5620827772073,316.3341599370906L589.5861148199183,331.2655223169713L590.3871829106356,372.9832314945379L600.0000000001164,393.18218231742503L584.3791722297319,406.7940761181526L556.3417890521814,414.69759286880435L546.7289719627588,384.40012621910137L528.3044058745727,354.54002567178395L461.4152202937985,316.3341599370906L440.9879839787609,328.19145337365626L422.96395193604985,329.5089137192408L432.57676902553067,364.63995754084317L408.9452603472746,368.5920513703604L398.9319092123769,386.1565493067319L362.0827770361793,378.6917101995932L352.87049399211537,414.69759286880435L338.45126835786505,418.64930619746156Z"/>

    <path name="北區" class="town" data-zip="300" d="M442.9906542057288,132.29182096499426L403.33778371172957,159.08963364877854L344.45927903888514,187.20388367159467L364.88651535392273,215.75585993027198L347.26301735657034,226.2977310814167L320.82777036051266,254.40834099933272L328.437917223142,273.7335025654902L323.2309746329556,290.86202189199685L308.41121495334664,297.44976354108076L297.1962616823148,256.16520358739945L302.8037383178598,226.73697106692998L272.36315086786635,213.99886059077107L274.7663551403093,193.3536728223262L241.52202937257243,163.48258563291165L249.13217623508535,152.93943837931147L211.48197596799582,130.973860033424L185.84779706277186,126.14130796505196L138.985313751793,131.85250102652935L112.14953271037666,123.50535149483767L156.6088117491454,60.2383760404191L160.61415220308118,28.601992580108345L147.39652870502323,14.980177120451117L192.65687583456747,3.1157234771671938L232.30974632850848,14.10133801952179L250.33377837121952,23.329074236389715L267.1562082777964,60.67775665913359L306.8090787717956,88.79734166820708L352.87049399211537,95.82699962220795L380.507343124249,107.24999053975625L406.54205607483163,101.977872154137L421.3618157544406,109.446690714336Z"/>

    <path name="香山區" class="town" data-zip="300" d="M308.41121495334664,297.44976354108076L293.99198931921273,335.6570178314869L317.22296395199373,337.8527516713075L327.63684913230827,346.6355942545779L327.63684913230827,390.5475810644275L318.02403204282746,411.1849335881125L327.63684913230827,438.4074224350479L316.4218958612182,458.1647881365352L301.60213618172565,469.5798129649338L272.36315086786635,461.67713014554465L241.9225634179893,535.8698150293494L245.92790387192508,544.6493146065914L243.52469959954033,581.5215963090304L230.3070761015406,596.8842765228037L213.48464619496372,587.666722772381L182.6435246996116,589.4224598730652L153.4045393859269,580.6437151808059L158.61148197611328,560.8909985374921L142.59012016025372,516.1153995818458L118.95861148205586,480.99458734481595L86.11481975973584,511.7254276666499L62.48331108147977,518.3103716545156L49.6662216289551,509.53042782339617L24.833110814506654,511.7254276666499L5.820766091346741e-11,490.65304699995613L30.841121495410334,456.8476537693059L70.89452603482641,394.49947793739557L88.5180240321788,380.448152574274L69.29238985321717,361.12696002087614L64.08544726308901,332.58297486825904L69.69292389863404,321.16494177990535L66.88918558089063,266.26704812071694L82.10947930580005,229.37240317530814L85.31375166896032,194.23220818047412L100.53404539398616,148.10709094649064L112.14953271037666,123.50535149483767L138.985313751793,131.85250102652935L185.84779706277186,126.14130796505196L211.48197596799582,130.973860033424L249.13217623508535,152.93943837931147L241.52202937257243,163.48258563291165L274.7663551403093,193.3536728223262L272.36315086786635,213.99886059077107L302.8037383178598,226.73697106692998L297.1962616823148,256.16520358739945Z"/>
</svg>