<?xml version="1.0" encoding="utf-8"?>
<svg version="1.1" xmlns="http://www.w3.org/2000/svg" xmlns:xlink="http://www.w3.org/1999/xlink" x="0px" y="0px" viewBox="0 0 335 600" style="enable-background:new 0 0 335 600;" xml:space="preserve" data-w="335" data-h="600">

    <path name="花蓮市" class="town" data-zip="970" d="M265.14097028194374,194.26473523503046L260.9290068580158,193.4423334805615L255.99377698754688,189.12453938227554L257.95085090170323,187.83942162150197L260.0355600711191,183.007132469922L255.1428752857537,180.69366474534945L253.86652273304207,181.77329412369727L250.93091186182573,180.48801885027933L243.2302514605035,177.8659718573872L243.01752603504428,175.19239409052898L248.33566167132085,172.2101858709848L249.73964947929198,173.3413857696778L252.41998983997473,168.19939594236894L254.88760477520555,170.46192583794436L259.01447802895564,170.92470551719452L264.37515875031386,170.71902610107463L264.71551943103987,173.85556048261606L266.03441706883314,175.80938416005847L267.6936753873524,175.80938416005847L268.54457708916016,172.26160451148098L272.3736347472659,166.96525270528946L275.2241554483044,164.4454646264985L279.60629921259533,167.99370716878366L281.43573787147034,172.87862475587644L279.3935737871434,177.24900295699626L278.6703073406097,177.50607410385965L275.8623317246602,184.18953706581124L275.9048768097491,186.45146352101256L273.05435610870336,191.28347526229118L272.3310896621697,189.27875166393278L270.459105918213,187.3767724891386L267.7787655575303,189.53577125262927Z"/>

    <path name="新城鄉" class="town" data-zip="971" d="M285.0520701041387,119.22550885744022L282.66954533908574,122.26182249492194L275.3943357886674,126.89318978900337L273.09690119379957,129.20873868036506L269.1827533655014,135.28019600818334L267.90640081280435,140.42501576197537L267.6936753873524,144.02612605007744L268.0340360680784,148.39861120215392L269.8634747269534,154.51955336609535L271.90563881128037,159.1998513317758L275.2241554483044,164.4454646264985L272.3736347472659,166.96525270528946L268.54457708916016,172.26160451148098L267.6936753873524,175.80938416005847L266.03441706883314,175.80938416005847L264.71551943103987,173.85556048261606L264.37515875031386,170.71902610107463L259.01447802895564,170.92470551719452L254.88760477520555,170.46192583794436L252.41998983997473,168.19939594236894L254.6748793497536,165.93678058101978L256.0363220726431,163.31409671236725L256.41922783845075,159.4055703168906L254.03670307341235,157.24548570539264L257.05740411480656,154.36525159533994L258.6741173482369,155.34248942272097L261.3544577089124,151.4334423311684L264.07734315468406,146.75253667628203L265.2260604521216,138.83016901859992L266.84277368554467,133.58230825016653L266.67259334518894,130.80384233993937L267.3533147066264,128.43689902940605L278.0321310642539,120.10039473690449L275.6070612141193,113.56417238755603L283.6906273812492,117.21836923539377Z"/>

    <path name="秀林鄉" class="town" data-zip="972" d="M285.0520701041387,119.22550885744022L283.6906273812492,117.21836923539377L275.6070612141193,113.56417238755603L278.0321310642539,120.10039473690449L267.3533147066264,128.43689902940605L266.67259334518894,130.80384233993937L266.84277368554467,133.58230825016653L265.2260604521216,138.83016901859992L264.07734315468406,146.75253667628203L261.3544577089124,151.4334423311684L258.6741173482369,155.34248942272097L257.05740411480656,154.36525159533994L254.03670307341235,157.24548570539264L256.41922783845075,159.4055703168906L256.0363220726431,163.31409671236725L254.6748793497536,165.93678058101978L252.41998983997473,168.19939594236894L249.73964947929198,173.3413857696778L248.33566167132085,172.2101858709848L243.01752603504428,175.19239409052898L243.2302514605035,177.8659718573872L239.869189738376,180.23096048958905L236.72085344170773,181.46483057052137L236.04013208025572,180.59084188598354L232.12598425196484,181.72188364169415L230.33909067817876,180.74507610892033L227.61620523240708,183.31558809014132L226.93548387096962,186.91411978904216L230.97726695453457,188.8161136299641L231.7856235712461,190.46103265694364L230.6794513588975,193.13392991771434L226.72275844551768,197.81121375419934L226.2973075946138,200.32960029881906L224.4678689357388,201.20330156899945L222.38315976631566,201.5116636888688L221.44716789433005,202.9506659847175L222.1278892557675,204.59519783054202L220.89408178815938,205.72578736355354L221.1068072136186,209.47713661078524L219.02209804419545,214.1017655090509L220.170815341633,217.9553512362745L220.51117602234444,221.44905557622224L219.95808991617378,224.3260715363649L217.66065532130597,228.9495590791248L214.46977393954876,233.00766109907272L210.8534417068804,234.13771678041485L209.36436372871685,235.73003198319202L207.91783083566406,238.70908933112696L203.96113792227698,240.71216576801453L201.2382524765053,245.28303962826067L198.1750063500076,246.20744389281754L196.26047752095474,248.00485606020084L196.09029718058446,250.57249479876918L198.6430022860077,255.86148614993L198.00482600965188,259.250304879899L196.89865379731054,260.22583863759246L193.83540767080558,260.2771820828675L193.3248666497384,261.6120963327721L189.6659893319811,258.53148044338013L188.0918211836397,256.6316889344289L185.3689357378753,250.57249479876918L182.05041910083673,249.185983456935L180.39116078231746,250.0076236552577L178.09372618745692,249.185983456935L176.17919735839678,252.72922687188293L170.43561087122362,251.8049225684008L166.35128270256973,249.3400418467536L165.96837693674752,247.08047935164905L158.7782575565143,239.58223339993492L158.35280670561042,237.99002000941255L159.45897891795903,236.0895812038234L159.0760731521441,234.24044806373422L157.2891795783653,231.67211341066468L154.73647447294206,229.72010581404538L152.94958089916327,225.14805083389183L148.90779781559104,223.96645206343055L149.24815849631705,222.27107417257866L146.22745745491557,220.26738416805892L146.69545339090837,217.44155407200378L146.05727711455984,216.2598039372533L140.5264160528386,215.5918479373031L139.5478790957568,214.15314827642396L137.37807975615578,214.30729631509712L131.50685801371583,211.68672590998358L126.69926339852827,212.7657981449829L122.52984505968925,211.275645678219L122.65748031495605,208.91187978967173L121.50876301752578,205.8285671753165L122.44475488950411,202.33395493610078L121.38112776225898,201.1519077284447L122.61493522987439,199.66146722223493L122.82766065532633,195.49831674204324L123.97637795274932,192.97972754207694L121.97675895351858,188.50768629225604L118.44551689103537,188.50768629225604L117.04152908306423,185.7831759456276L116.40335280670843,180.64225333770628L120.36004572009551,174.11264618470886L121.38112776225898,170.92470551719452L123.29565659131185,167.68517268399228L123.42329184658593,165.57681116476851L127.29489458978787,158.53125974683098L126.2312674625282,151.7420605993775L131.46431292861962,147.3183799057715L132.91084582168696,148.3471720591151L135.84645669291058,144.79776431451137L136.86753873507405,142.89437191036814L141.20713741427608,139.75621424549172L143.2067564135068,137.49252279646498L141.50495300990588,132.6047146146484L144.10020320041076,129.62038241414302L145.5041910083819,123.75419120467632L144.1427482854997,123.03374200470898L140.1435102870164,122.77643661098955L138.3140716281414,121.02673050714111L134.86791973584332,118.96818703919052L131.6344932689899,115.31409740975687L125.46545593091287,113.71857960238049L126.65671831343207,109.08618918751381L126.869443738884,106.20363121955234L125.29527559054259,105.01968308657888L125.72072644146101,103.32093380121478L128.18834137667727,103.78423386457507L128.31597663195134,94.20863341334916L129.84759969519655,94.51754778744908L132.8683007366053,93.12742047938082L135.76136652273271,93.12742047938082L140.2286004572088,90.55302491450857L142.10058420116547,87.82404401830718L144.35547371094435,85.60987320119966L148.60998221996124,84.21953777557064L150.77978155956225,84.52850401197611L154.52374904749013,83.70459048164776L153.92811785623053,80.40882221235734L154.3535687071344,78.8638679516971L151.75831851664407,72.68364934674537L155.50228600457194,67.89353779317025L155.7575565151201,63.36060339297728L159.20370840741816,63.30909078639888L161.88404876809363,59.44551790448713L164.47929895859852,58.56973975779874L166.7341884683774,59.1879374380369L169.58470916941587,58.10608727199178L169.83997967996402,53.933051878289916L168.81889763780055,52.07827526710935L168.35090170180047,48.26549675454953L167.6276352552668,46.719705901516136L171.49923799846874,43.1127038433533L174.73266446532944,41.566778629045075L177.1151892303751,39.04168072310313L178.22136144271644,33.26962423860823L180.77406654812512,33.73347098809427L183.028956057904,32.8573129671895L185.79438658877916,33.321162945714605L187.02819405638002,30.641090701741632L189.2830835661589,27.703179839352742L190.81470662941138,26.62075487526272L189.75107950215897,23.321813845657744L190.51689103378158,19.249429887344377L191.96342392684892,17.34201442540143L191.06997713995952,15.07365651022883L193.6226822453682,9.763296563489348L196.13284226568067,9.19614255239685L196.6433832867624,7.8040141801211576L199.02590805181535,7.443086657001913L203.57823215646204,11.20693676575138L207.96037592074572,13.217662589924657L209.49199898400548,12.908324606165479L212.29997459994775,14.55810848661713L215.19304038608243,17.496672024433792L217.66065532130597,18.837020944745746L220.34099568198872,17.08425086171883L222.76606553212332,17.960642395315517L226.33985267971002,17.909090311606633L227.91402082804416,17.03269801418537L230.29654559308983,18.837020944745746L235.74231648462592,20.38353965591341L237.52921005841927,19.455633280527763L242.33680467360682,22.60014598252019L244.03860807721503,26.56921033566141L245.44259588518617,26.775388224767084L248.0803911607727,28.785585012679803L250.76073152145545,27.960897151804602L255.69596139191708,29.66180327847178L258.37630175259983,29.455635441345294L264.0347980696024,31.259579677307556L263.0137160274244,28.630956913792033L259.5675641351263,23.991926124330348L259.2272034544076,22.342405327079177L260.80137160273443,21.569176624881948L262.3329946659869,23.476455814216024L263.77952755905426,23.115623925648833L264.2475234950398,20.692838547058273L265.8216916433812,20.33198968351644L267.73622047243407,21.620725519383996L268.0765811531601,18.166850280907965L269.6507493015015,15.950077836088894L270.7569215138428,18.73391825986255L272.3736347472659,20.486639465951157L275.05397510794137,20.79593781812582L275.05397510794137,18.527712351016817L275.989966979927,14.55810848661713L272.7139954279919,14.042555968424494L272.45872491745104,11.877186305149735L270.28892557785,10.433562470270772L270.28892557785,6.050916991203849L274.2030734061482,4.19463975023973L278.159766319528,9.350821458727296L278.3299466598837,10.536679627553895L281.8611887223742,14.09411142251156L282.6270002540041,13.372330974940269L281.5208280416482,9.866414889969747L289.3065786131556,14.970547265065761L290.2425704851412,16.826486174717502L292.49745999492006,16.878039201981665L293.3483616967278,19.66183595498842L296.7945135890259,18.11529837690614L297.9857759715451,18.837020944745746L299.1344932689826,21.466078701148945L302.4530099060139,21.156783852122317L306.3246126492304,23.579550235421266L309.6856743713506,24.662030815508842L315.38671577342757,25.022853275908346L318.5350520701031,26.36303172843327L322.619380238757,26.466121121817196L328.7458724917451,30.486467448476105L335,31.36266054521002L333.170561341125,35.89804112599995L326.36334772669215,42.648930512665174L324.06591313182435,46.513597409719296L322.3641097282234,55.22105707659648L315.64198628396844,62.48488300296776L310.79184658369195,63.875727000822735L309.21767843535054,65.6786244381019L306.19697739395633,71.85957163883177L301.9850139700284,74.12575783665488L297.6454152908191,77.78237608102609L291.7316484632902,81.12978712949734L290.58293116585264,83.55010542407581L287.9876809753623,86.53674543182206L286.4560579121171,91.22237847407087L285.90297180593916,96.9373215955784L286.7538735077396,101.36473825285793L288.37058674117,104.6078695257529L288.75349250697764,111.55684220457988L288.15786131571804,114.33620446319765Z"/>

    <path name="吉安鄉" class="town" data-zip="973" d="M243.2302514605035,177.8659718573872L250.93091186182573,180.48801885027933L253.86652273304207,181.77329412369727L255.1428752857537,180.69366474534945L260.0355600711191,183.007132469922L257.95085090170323,187.83942162150197L255.99377698754688,189.12453938227554L260.9290068580158,193.4423334805615L265.14097028194374,194.26473523503046L263.9922529845062,199.0447224003201L265.14097028194374,203.05345054395548L262.2904495808907,210.04238811614414L259.6951993903931,215.4890848172854L257.95085090170323,218.3150066399212L256.6319532639027,219.29120332451384L253.9516129032345,217.9553512362745L248.03784607569105,216.20842296987394L244.97459994920064,214.71835581966116L240.25209550419822,211.78949552871927L234.46596393192885,210.7104057696124L232.59398018795764,208.1924543287405L229.99872999746003,205.98273656333367L226.76530353059934,202.33395493610078L224.4678689357388,201.20330156899945L226.2973075946138,200.32960029881906L226.72275844551768,197.81121375419934L230.6794513588975,193.13392991771434L231.7856235712461,190.46103265694364L230.97726695453457,188.8161136299641L226.93548387096962,186.91411978904216L227.61620523240708,183.31558809014132L230.33909067817876,180.74507610892033L232.12598425196484,181.72188364169415L236.04013208025572,180.59084188598354L236.72085344170773,181.46483057052137L239.869189738376,180.23096048958905Z"/>

    <path name="壽豐鄉" class="town" data-zip="974" d="M265.14097028194374,203.05345054395548L266.0769621539148,208.0896785598925L264.07734315468406,214.35867890683403L263.2264414528763,218.57190204022663L263.43916687832825,223.86370324788913L261.779908559809,235.57593880312743L260.97155194309744,238.70908933112696L260.29083058166,243.58826166257677L258.4613919227777,249.39139455591067L255.01524003047962,256.52899579779296L253.9516129032345,260.8933000199977L251.0585471170998,265.05193164993216L249.27165354330646,271.1096727411441L248.590932181869,278.34736365374556L248.80365760730638,285.89211900411647L249.61201422403246,287.6370304643333L249.3141986283881,290.3056212541487L247.22948945897951,295.1293137255616L243.48552197104436,294.10302836829214L242.12407924815489,296.2068946283798L239.69900939802028,297.2331443263138L238.0822961645972,297.0792079803887L235.99758699517406,300.6196449478193L229.82854965709703,302.10759292396324L227.40347980695515,299.6447626626523L226.80784861569555,294.46223022224876L225.53149606299849,294.1543430493439L225.53149606299849,289.792439856863L223.5318770637532,287.17514703398774L218.72428244856565,285.99476224780847L217.53302006603917,285.01964440123083L216.85229870459443,282.6074432435598L218.59664719329157,280.1951458745789L226.85039370079176,276.3968655967128L226.33985267971002,271.87968106124754L229.27546355092636,266.23272546309636L229.7860045720081,262.638933363105L226.80784861569555,262.79295741142596L221.95770891541179,265.30862792104017L217.06502413004637,266.4894167154871L212.64033528067375,266.90012045019284L201.53606807212782,266.3354020949646L197.66446532892587,264.33317628596524L193.3248666497384,261.6120963327721L193.83540767080558,260.2771820828675L196.89865379731054,260.22583863759246L198.00482600965188,259.250304879899L198.6430022860077,255.86148614993L196.09029718058446,250.57249479876918L196.26047752095474,248.00485606020084L198.1750063500076,246.20744389281754L201.2382524765053,245.28303962826067L203.96113792227698,240.71216576801453L207.91783083566406,238.70908933112696L209.36436372871685,235.73003198319202L210.8534417068804,234.13771678041485L214.46977393954876,233.00766109907272L217.66065532130597,228.9495590791248L219.95808991617378,224.3260715363649L220.51117602234444,221.44905557622224L220.170815341633,217.9553512362745L219.02209804419545,214.1017655090509L221.1068072136186,209.47713661078524L220.89408178815938,205.72578736355354L222.1278892557675,204.59519783054202L221.44716789433005,202.9506659847175L222.38315976631566,201.5116636888688L224.4678689357388,201.20330156899945L226.76530353059934,202.33395493610078L229.99872999746003,205.98273656333367L232.59398018795764,208.1924543287405L234.46596393192885,210.7104057696124L240.25209550419822,211.78949552871927L244.97459994920064,214.71835581966116L248.03784607569105,216.20842296987394L253.9516129032345,217.9553512362745L256.6319532639027,219.29120332451384L257.95085090170323,218.3150066399212L259.6951993903931,215.4890848172854L262.2904495808907,210.04238811614414Z"/>

    <path name="鳳林鎮" class="town" data-zip="975" d="M229.82854965709703,302.10759292396324L229.10528321057063,306.93034553515827L226.76530353059934,308.62334852019194L225.87185674370994,310.9832131824551L222.8937007873974,310.93191275353456L220.85153670307045,312.317009098997L220.55372110744065,314.3689455286367L217.9159258318541,313.49688102991786L216.25666751332756,314.9845129188434L212.5552451104959,316.1643329536164L210.47053594107274,318.31872771665985L209.3218186436352,320.78079948109007L206.08839217678178,325.24304995558305L203.15278130556544,327.5509818303399L198.98336296671914,328.01255767702787L190.34671069342585,324.73016428939627L184.34785369571182,322.67857828451633L177.49809499619005,321.75534195564796L178.43408686816838,318.72907994921115L183.36931673863,311.8553138329371L180.9442468884954,311.39361505117995L181.36969773939927,309.2902761068526L184.94348488697142,309.59808636436355L188.55981711962522,304.92946285047583L191.3252476504931,304.5703230676427L188.64490728981764,302.15890082302394L181.02933705867326,298.72117549711584L180.39116078231746,297.6949510162631L184.85839471679355,294.8727440171915L185.58166116332723,293.384618266522L186.00711201421655,289.07397858969125L185.4965709931348,287.8936308465709L188.90017780035123,284.6090637634152L194.1757683515316,285.3789001733603L198.4728219456374,288.25286955358206L198.1750063500076,283.47995263952726L198.55791211581527,280.5544303047973L195.66484632969514,279.9385128317208L195.749936499873,277.5261089841915L198.72809245618555,277.7827522668322L196.47320294640667,274.44630460115695L195.23939547879127,273.624996928158L194.7713995427912,271.00700422371483L195.57975615951727,265.82201719003933L197.66446532892587,264.33317628596524L201.53606807212782,266.3354020949646L212.64033528067375,266.90012045019284L217.06502413004637,266.4894167154871L221.95770891541179,265.30862792104017L226.80784861569555,262.79295741142596L229.7860045720081,262.638933363105L229.27546355092636,266.23272546309636L226.33985267971002,271.87968106124754L226.85039370079176,276.3968655967128L218.59664719329157,280.1951458745789L216.85229870459443,282.6074432435598L217.53302006603917,285.01964440123083L218.72428244856565,285.99476224780847L223.5318770637532,287.17514703398774L225.53149606299849,289.792439856863L225.53149606299849,294.1543430493439L226.80784861569555,294.46223022224876L227.40347980695515,299.6447626626523Z"/>

    <path name="光復鄉" class="town" data-zip="976" d="M225.87185674370994,310.9832131824551L227.488569977133,312.72740193975187L226.85039370079176,314.1637550100877L227.57366014732543,316.4721083188051L225.61658623317635,319.13942940619927L227.7863855727628,321.03725954447873L229.10528321057063,324.6275866361211L227.44602489205135,327.08940247447754L227.10566421132535,330.0639634330091L226.12712725425808,330.62808786670394L224.1275082550128,337.5510065043054L222.08534417068586,341.2941820969354L220.04318008635892,342.6785859062329L216.68211836423143,340.98653252417716L214.85267970535642,340.83270715387334L212.12979425959202,342.8836800855315L209.10909321818326,346.985418393293L207.57747015493806,351.5482772065898L204.13131826263998,353.95773872636346L203.70586741172883,356.93098526930225L201.0680721361423,357.2898155466337L198.77063754128176,358.9814155059885L196.17538735077687,359.23771442954603L196.0477520955028,361.44184063409557L194.60121920243546,363.9021663468611L189.0278130556253,364.92727272609045L186.68783337566856,368.72001633556465L182.64605029209633,369.07877715587347L178.4766319532646,370.2062974109249L176.60464820929337,368.9250227772627L172.47777495555056,369.69379079049395L166.3938277876514,368.66876461735956L161.62877825755277,365.9011078062358L159.7142494284999,363.7996547599723L158.09753619507683,360.57045143916L159.79933959867776,359.49401227409L162.3094996189975,353.2913014686037L162.9476758953533,350.11280796444953L162.73495046990138,346.6777976174362L164.35166370332445,343.9091406037587L167.15963931928127,343.03750026593843L166.90436880873312,339.3969849241712L164.30911861823552,336.16648588755925L166.81927863855526,334.73065340475114L163.41567183133884,327.6535545439747L164.52184404368018,321.9092156525239L167.329819659637,321.39630181225584L169.4145288290456,323.65309028373304L171.66941833883902,322.0117979003462L177.49809499619005,321.75534195564796L184.34785369571182,322.67857828451633L190.34671069342585,324.73016428939627L198.98336296671914,328.01255767702787L203.15278130556544,327.5509818303399L206.08839217678178,325.24304995558305L209.3218186436352,320.78079948109007L210.47053594107274,318.31872771665985L212.5552451104959,316.1643329536164L216.25666751332756,314.9845129188434L217.9159258318541,313.49688102991786L220.55372110744065,314.3689455286367L220.85153670307045,312.317009098997L222.8937007873974,310.93191275353456Z"/>

    <path name="豐濱鄉" class="town" data-zip="977" d="M247.22948945897951,295.1293137255616L247.3571247142463,295.79638987909493L243.01752603504428,304.41640536624254L240.72009144018375,306.05817402552384L239.44373888747214,311.13711420877917L239.69900939802028,315.24099748743174L241.18808737616928,317.3954250445113L240.03937007873174,320.1139982433433L238.12484124967887,328.11512961086737L237.78448056895286,333.08966044082626L235.9124968249962,334.98705455118215L237.1037592075154,337.08950313731657L233.74269748539518,341.9094765712507L231.7856235712461,350.77928003921625L231.1474472948903,358.87889563443787L231.23253746507544,364.8760178168959L229.53073406146723,371.7437914108141L229.65836931673402,374.04995968802905L227.82893065785902,378.35457372613746L226.38239776479168,380.0455889578152L223.31915163830126,385.5794928645428L220.7664465328926,395.8773670361443L220.0006350012627,401.4098359819436L220.34099568198872,405.6100797020281L221.0642621285224,407.24912090342514L221.44716789433005,411.85868871013736L223.95732791464252,413.548776515574L224.4253238506426,415.4436679169776L222.5958851917676,419.02843704862244L221.91516383033013,422.6129961948791L220.25590551181085,424.149171569994L218.42646685292857,429.8326853627859L216.93738887477957,439.25284413307236L216.29921259842376,441.14694035098364L211.23634747268807,441.86361014709655L209.9174498348948,441.45408557506016L207.10947421895253,437.0515236447882L202.34442468884663,437.56346569704874L196.0477520955028,435.5668675103607L194.72885445770953,434.03097848559446L195.409575819147,431.88066916975004L198.13246126492595,430.90788539877394L200.64262128523842,431.3174804483133L202.38696977393556,430.6518871020362L204.25895351790678,425.3780841172138L203.4080518161063,420.7183268031258L204.3014986029957,419.02843704862244L207.57747015493806,415.08517945115636L209.44945389890927,415.3412428553984L211.1938023876064,417.3385006259432L212.81051562102948,416.41669744924L212.04470408941415,412.88298992500313L213.95923291846702,407.14668211586286L213.06578613156307,405.25153358056195L213.57632715265936,402.99776693771855L212.0872491744958,401.8196285662525L213.06578613156307,397.5166693339452L213.87414274828916,396.7994799926528L215.19304038608243,389.6783573748198L213.32105664211122,388.3974917871419L211.27889255778427,388.4999620233484L208.7687325374718,390.3956303634768L206.21602743204858,389.319717719718L202.81242062483943,389.6783573748198L201.28079756159423,388.4487269267538L198.51536703073361,389.6783573748198L195.66484632969514,388.807371699746L194.43103886207973,387.3215439194064L189.6659893319811,387.270307833498L188.0918211836397,386.1943400921282L187.7940055880099,381.8390387274703L185.11366522732715,381.2241476042909L185.79438658877916,378.2008427434903L187.83655067309155,377.02222566678756L188.3896367792695,375.5361107911813L185.9645669291349,373.69122813128706L186.68783337566856,368.72001633556465L189.0278130556253,364.92727272609045L194.60121920243546,363.9021663468611L196.0477520955028,361.44184063409557L196.17538735077687,359.23771442954603L198.77063754128176,358.9814155059885L201.0680721361423,357.2898155466337L203.70586741172883,356.93098526930225L204.13131826263998,353.95773872636346L207.57747015493806,351.5482772065898L209.10909321818326,346.985418393293L212.12979425959202,342.8836800855315L214.85267970535642,340.83270715387334L216.68211836423143,340.98653252417716L220.04318008635892,342.6785859062329L222.08534417068586,341.2941820969354L224.1275082550128,337.5510065043054L226.12712725425808,330.62808786670394L227.10566421132535,330.0639634330091L227.44602489205135,327.08940247447754L229.10528321057063,324.6275866361211L227.7863855727628,321.03725954447873L225.61658623317635,319.13942940619927L227.57366014732543,316.4721083188051L226.85039370079176,314.1637550100877L227.488569977133,312.72740193975187L225.87185674370994,310.9832131824551L226.76530353059934,308.62334852019194L229.10528321057063,306.93034553515827L229.82854965709703,302.10759292396324L235.99758699517406,300.6196449478193L238.0822961645972,297.0792079803887L239.69900939802028,297.2331443263138L242.12407924815489,296.2068946283798L243.48552197104436,294.10302836829214Z"/>

    <path name="瑞穗鄉" class="town" data-zip="978" d="M158.09753619507683,360.57045143916L159.7142494284999,363.7996547599723L161.62877825755277,365.9011078062358L166.3938277876514,368.66876461735956L172.47777495555056,369.69379079049395L176.60464820929337,368.9250227772627L178.4766319532646,370.2062974109249L182.64605029209633,369.07877715587347L186.68783337566856,368.72001633556465L185.9645669291349,373.69122813128706L188.3896367792695,375.5361107911813L187.83655067309155,377.02222566678756L185.79438658877916,378.2008427434903L185.11366522732715,381.2241476042909L187.7940055880099,381.8390387274703L188.0918211836397,386.1943400921282L189.6659893319811,387.270307833498L194.43103886207973,387.3215439194064L195.66484632969514,388.807371699746L198.51536703073361,389.6783573748198L201.28079756159423,388.4487269267538L202.81242062483943,389.6783573748198L206.21602743204858,389.319717719718L208.7687325374718,390.3956303634768L211.27889255778427,388.4999620233484L213.32105664211122,388.3974917871419L215.19304038608243,389.6783573748198L213.87414274828916,396.7994799926528L213.06578613156307,397.5166693339452L212.0872491744958,401.8196285662525L213.57632715265936,402.99776693771855L213.06578613156307,405.25153358056195L213.95923291846702,407.14668211586286L212.04470408941415,412.88298992500313L212.81051562102948,416.41669744924L211.1938023876064,417.3385006259432L209.44945389890927,415.3412428553984L207.57747015493806,415.08517945115636L204.3014986029957,419.02843704862244L203.4080518161063,420.7183268031258L204.25895351790678,425.3780841172138L202.38696977393556,430.6518871020362L200.64262128523842,431.3174804483133L198.13246126492595,430.90788539877394L195.409575819147,431.88066916975004L194.38849377698352,431.3686796369366L195.4521209042432,428.399055954309L193.40995681991626,427.27260930448756L192.72923545846425,425.27567568040104L190.60198120395944,423.89314501774606L192.6866903733826,422.30575649381353L192.2186944373825,420.6671187082611L189.07035814071423,417.54334389030555L187.7514605029137,420.1038268368793L186.39001778003876,419.3356932021743L183.75222250443767,419.8477833632405L182.1355092710146,418.51634003101935L183.49695199390408,414.26576935455523L183.11404622808186,411.7562576450837L180.6464312928656,411.44896342053653L177.7108204216347,416.21185041274657L170.60579121157934,421.5888578606555L168.73380746762268,423.58591174168214L167.20218440436292,426.8629872036163L164.01130302260572,430.3958877354253L159.9695199390335,439.61119114922076L156.8211836423652,437.7682413206676L154.82156464313448,435.9252360772134L152.31140462280746,430.8566858250124L151.97104394208145,429.37187956965136L146.95072390144924,427.8358352193536L144.86601473203336,426.40215906485537L144.10020320041076,424.71242621612146L145.2063754127521,420.6671187082611L147.0358140716271,417.90181795277385L147.5038100076199,415.1363922177534L149.20561341122811,413.9584877384041L151.24777749554778,414.72668888450426L152.73685547371133,413.70241854574306L153.4175768351488,408.171062267189L152.94958089916327,404.2271045007001L153.24739649479307,400.84636669081374L154.0982981966008,397.67035166861024L155.9277368554758,397.0556200098563L160.09715519430756,397.2605312502128L161.37350774701918,399.71941251840144L162.6498602997235,398.8485700555084L162.82004064007924,394.596631498458L163.8411226822427,392.3937035358231L165.330200660399,391.77891875565547L164.77711455422832,389.2172488597771L165.840741681488,386.91165402764454L165.07493014985812,383.01756272187777L163.45821691643505,380.0968311116703L160.6076962153893,376.9709809292508L158.99098298196623,377.79089156162445L154.60883921768254,378.2520864474336L154.18338836677867,376.45853118506056L155.20447040894214,373.94746517295425L158.09753619507683,374.04995968802905L158.65062230124022,371.43629571399106L156.8211836423652,368.9250227772627L155.62992125984601,363.6458870561146L156.09791719583154,361.236809004271Z"/>

    <path name="萬榮鄉" class="town" data-zip="979" d="M193.3248666497384,261.6120963327721L197.66446532892587,264.33317628596524L195.57975615951727,265.82201719003933L194.7713995427912,271.00700422371483L195.23939547879127,273.624996928158L196.47320294640667,274.44630460115695L198.72809245618555,277.7827522668322L195.749936499873,277.5261089841915L195.66484632969514,279.9385128317208L198.55791211581527,280.5544303047973L198.1750063500076,283.47995263952726L198.4728219456374,288.25286955358206L194.1757683515316,285.3789001733603L188.90017780035123,284.6090637634152L185.4965709931348,287.8936308465709L186.00711201421655,289.07397858969125L185.58166116332723,293.384618266522L184.85839471679355,294.8727440171915L180.39116078231746,297.6949510162631L181.02933705867326,298.72117549711584L188.64490728981764,302.15890082302394L191.3252476504931,304.5703230676427L188.55981711962522,304.92946285047583L184.94348488697142,309.59808636436355L181.36969773939927,309.2902761068526L180.9442468884954,311.39361505117995L183.36931673863,311.8553138329371L178.43408686816838,318.72907994921115L177.49809499619005,321.75534195564796L171.66941833883902,322.0117979003462L169.4145288290456,323.65309028373304L167.329819659637,321.39630181225584L164.52184404368018,321.9092156525239L163.41567183133884,327.6535545439747L166.81927863855526,334.73065340475114L164.30911861823552,336.16648588755925L166.90436880873312,339.3969849241712L167.15963931928127,343.03750026593843L164.35166370332445,343.9091406037587L162.73495046990138,346.6777976174362L162.9476758953533,350.11280796444953L162.3094996189975,353.2913014686037L159.79933959867776,359.49401227409L158.09753619507683,360.57045143916L156.09791719583154,361.236809004271L155.62992125984601,363.6458870561146L156.8211836423652,368.9250227772627L158.65062230124022,371.43629571399106L158.09753619507683,374.04995968802905L155.20447040894214,373.94746517295425L154.18338836677867,376.45853118506056L154.60883921768254,378.2520864474336L158.99098298196623,377.79089156162445L160.6076962153893,376.9709809292508L163.45821691643505,380.0968311116703L165.07493014985812,383.01756272187777L165.840741681488,386.91165402764454L164.77711455422832,389.2172488597771L165.330200660399,391.77891875565547L163.8411226822427,392.3937035358231L162.82004064007924,394.596631498458L162.6498602997235,398.8485700555084L161.37350774701918,399.71941251840144L160.09715519430756,397.2605312502128L155.9277368554758,397.0556200098563L154.0982981966008,397.67035166861024L153.24739649479307,400.84636669081374L152.94958089916327,404.2271045007001L153.4175768351488,408.171062267189L152.73685547371133,413.70241854574306L151.24777749554778,414.72668888450426L149.20561341122811,413.9584877384041L147.5038100076199,415.1363922177534L147.0358140716271,417.90181795277385L145.2063754127521,420.6671187082611L144.10020320041076,424.71242621612146L142.48348996697314,425.22447139776887L141.54749809498753,421.43523563254894L143.46202692405495,415.08517945115636L139.76060452120873,414.88032795603067L140.05842011683853,411.70504204822646L141.7176784353578,409.2466429535016L145.12128524257423,408.2222808241877L142.69621539243963,401.87085244604896L143.50457200915116,399.61696110825505L143.46202692405495,392.3937035358231L142.10058420116547,390.3956303634768L142.99403098805487,386.91165402764454L142.908940817877,381.01918251906864L139.63296926593466,380.6604919625406L133.20866141731676,384.65721040619064L132.31521463042736,386.040628866047L128.95415290830715,387.2190717045705L127.16725933452835,387.11659931766735L126.48653797307634,389.47342068707985L123.76365252729738,390.6517972454276L121.33858267716278,389.9345272668961L117.7222504445017,391.42029144151456L114.02082804165548,388.807371699746L112.19138938278047,386.5529981138825L112.74447548895841,383.5811965838657L113.72301244602568,382.55640387044696L112.23393446786213,376.7147565955329L112.999745999492,373.94746517295425L110.829946659891,372.2562807911854L111.04267208534293,369.3350335913583L109.6386842773718,366.6699139775119L109.46850393700151,363.543375037847L110.06413512826839,362.36447442505596L110.2343154686314,356.008269127944L107.46888493777078,356.3158427293565L107.08597917195584,358.0587304464898L103.34201168402797,359.904086581113L99.68313436627795,363.28709423727196L96.49225298451347,362.92829930459084L98.1940563881144,356.26458057039054L99.30022860045574,355.2393283239162L101.34239268478268,350.62547943927166L101.1296672593453,344.8833120759937L103.6823723647467,340.78143194393124L104.40563881128037,336.21776499151383L105.89471678943664,334.5768121974688L106.14998729997023,330.32038427977204L104.70345440690289,327.6535545439747L105.42672085343656,325.4482030086656L107.55397510794865,322.78115923184123L107.55397510794865,316.7285865968388L108.36233172466018,312.41960756958724L107.51143002285971,311.54751503574516L107.55397510794865,308.72595324189933L104.95872491745104,303.1850496792649L103.42710185420583,302.56936245117686L102.9165608331241,299.6960726477864L103.08674117347982,296.0529556735364L104.66090932182124,293.1280411640182L103.29946659893176,292.3069871278458L99.9809499618932,292.101721878671L98.74714249429235,290.40825701142785L96.40716281432105,289.84375819240995L93.08864617728977,283.5825999762874L93.76936753873451,281.73492126042584L95.81153162306146,281.47829475206527L102.87401574802789,277.0128191503354L103.72491744983563,274.6516297755079L102.3209296418645,274.18964715229595L101.68275336550869,270.9556698995875L102.57620015240536,266.1300486566706L105.5118110236217,264.48719601270204L105.59690119380684,261.97149127991725L107.38379476759292,259.8664332979297L106.53289306578517,259.04492734298765L106.8732537465039,255.03992567746718L107.72415544831165,251.03465816324388L109.34086868173472,249.185983456935L109.76631953263131,247.3886064956423L111.63830327660253,245.89931071275169L112.27647955295834,241.84207695125951L113.34010668021801,238.76045109717415L115.50990601980448,236.5004919711846L118.4880619761243,236.29503693784864L117.59461518922762,233.16176084959807L119.93459486919164,231.15843333600424L118.70078740156896,227.6652926049337L118.91351282702817,224.22332333480153L116.78625857251609,222.37382570751834L119.04114808229497,220.21600662382843L122.70002540005225,220.11325140372537L123.21056642113399,218.88017507239783L122.78511557023012,214.82112025675633L123.38074676148972,212.8171820540465L122.52984505968925,211.275645678219L126.69926339852827,212.7657981449829L131.50685801371583,211.68672590998358L137.37807975615578,214.30729631509712L139.5478790957568,214.15314827642396L140.5264160528386,215.5918479373031L146.05727711455984,216.2598039372533L146.69545339090837,217.44155407200378L146.22745745491557,220.26738416805892L149.24815849631705,222.27107417257866L148.90779781559104,223.96645206343055L152.94958089916327,225.14805083389183L154.73647447294206,229.72010581404538L157.2891795783653,231.67211341066468L159.0760731521441,234.24044806373422L159.45897891795903,236.0895812038234L158.35280670561042,237.99002000941255L158.7782575565143,239.58223339993492L165.96837693674752,247.08047935164905L166.35128270256973,249.3400418467536L170.43561087122362,251.8049225684008L176.17919735839678,252.72922687188293L178.09372618745692,249.185983456935L180.39116078231746,250.0076236552577L182.05041910083673,249.185983456935L185.3689357378753,250.57249479876918L188.0918211836397,256.6316889344289L189.6659893319811,258.53148044338013Z"/>

    <path name="玉里鎮" class="town" data-zip="981" d="M195.409575819147,431.88066916975004L194.72885445770953,434.03097848559446L196.0477520955028,435.5668675103607L193.40995681991626,440.0719199492087L190.13398526796664,440.6350282248586L188.21945643891377,442.27313198392585L184.26276352553396,446.88006421662976L184.43294386588968,448.0573358310703L180.39116078231746,456.34878308814586L175.9239268478559,462.74573940133814L177.07264414528618,465.61135974554963L178.51917703834624,471.8538556866333L181.539878079755,472.6213319142389L183.58204216408194,474.15625562840614L185.62420624840888,474.41207252212735L185.3689357378753,476.7655380121796L181.880238760481,480.24440900081754L180.09334518668766,480.960622723871L177.2853695707381,485.4111925680518L174.94538989078137,492.1631668353257L171.7970535941131,492.6746498683224L170.77597155193507,497.27780604337204L169.2018034036082,498.35182632922806L166.47891795782925,501.88061833264146L165.840741681488,504.1818955794097L166.18110236219945,509.8580122327985L162.39458978917537,510.36934844159805L156.48082296165376,509.8580122327985L153.67284734569694,512.0055958259982L152.69431038861512,510.5738817382189L150.48196596393245,510.88068041154656L150.94996189991798,508.4773832939936L149.84378968757665,506.63649662864736L148.2696215392425,505.81830713662384L148.3972567945093,503.26139499006604L146.56781813564157,502.4431607045444L144.05765811531455,505.51148327800183L143.24930149860302,508.9887309489659L139.12242824485293,513.1304907284739L136.10172720345145,512.4146508909525L133.20866141731676,512.568045841057L129.71996443993703,516.3516672285805L125.25273050546093,520.1861819599508L123.59347218694165,518.0900100904182L124.01892303784552,515.9426382629663L125.50800101599452,513.6417998131674L124.18910337820125,512.6703089292496L124.31673863347532,509.755744482356L120.0196850393695,506.53422353587484L121.76403352806665,503.67050806000043L123.38074676148972,503.67050806000043L126.18872237744654,501.82947786242767L128.52870205740328,502.03403948869345L129.12433324866288,500.29524402409334L126.31635763270606,498.4541129991194L122.48729997460032,497.07322862814726L120.44513589027338,493.7998975888404L119.93459486919164,489.4010850433024L122.82766065532633,487.7642373625458L128.57124714248494,485.82042421134065L132.2301244602495,485.36003842132595L133.63411226822063,482.8022768719893L135.76136652273271,482.2907118045514L140.61150622301648,479.68166379752984L142.86639573279535,475.58881652572563L141.93040386080975,474.71905138973307L138.18643637286732,473.8492739510366L135.20828041656205,471.39336535099574L132.95339090678317,471.44453111418807L132.35775971552357,470.1653742577273L133.4639319278649,468.47684644490437L136.86753873507405,467.0441197979708L140.05842011683853,463.922706789981L141.24968249937228,460.8523097587731L140.4838709677424,458.60058771068543L144.3129286258627,453.9945353960593L144.86601473203336,450.8724589631056L149.5034290068579,444.26951177395676L149.58851917704305,441.50527629615135L152.09867919735552,439.55999884659104L153.92811785623053,439.3040366922032L153.7153924307786,437.3586893892734L154.82156464313448,435.9252360772134L156.8211836423652,437.7682413206676L159.9695199390335,439.61119114922076L164.01130302260572,430.3958877354253L167.20218440436292,426.8629872036163L168.73380746762268,423.58591174168214L170.60579121157934,421.5888578606555L177.7108204216347,416.21185041274657L180.6464312928656,411.44896342053653L183.11404622808186,411.7562576450837L183.49695199390408,414.26576935455523L182.1355092710146,418.51634003101935L183.75222250443767,419.8477833632405L186.39001778003876,419.3356932021743L187.7514605029137,420.1038268368793L189.07035814071423,417.54334389030555L192.2186944373825,420.6671187082611L192.6866903733826,422.30575649381353L190.60198120395944,423.89314501774606L192.72923545846425,425.27567568040104L193.40995681991626,427.27260930448756L195.4521209042432,428.399055954309L194.38849377698352,431.3686796369366Z"/>

    <path name="卓溪鄉" class="town" data-zip="982" d="M144.10020320041076,424.71242621612146L144.86601473203336,426.40215906485537L146.95072390144924,427.8358352193536L151.97104394208145,429.37187956965136L152.31140462280746,430.8566858250124L154.82156464313448,435.9252360772134L153.7153924307786,437.3586893892734L153.92811785623053,439.3040366922032L152.09867919735552,439.55999884659104L149.58851917704305,441.50527629615135L149.5034290068579,444.26951177395676L144.86601473203336,450.8724589631056L144.3129286258627,453.9945353960593L140.4838709677424,458.60058771068543L141.24968249937228,460.8523097587731L140.05842011683853,463.922706789981L136.86753873507405,467.0441197979708L133.4639319278649,468.47684644490437L132.35775971552357,470.1653742577273L132.95339090678317,471.44453111418807L135.20828041656205,471.39336535099574L138.18643637286732,473.8492739510366L141.93040386080975,474.71905138973307L142.86639573279535,475.58881652572563L140.61150622301648,479.68166379752984L135.76136652273271,482.2907118045514L133.63411226822063,482.8022768719893L132.2301244602495,485.36003842132595L128.57124714248494,485.82042421134065L122.82766065532633,487.7642373625458L119.93459486919164,489.4010850433024L120.44513589027338,493.7998975888404L122.48729997460032,497.07322862814726L126.31635763270606,498.4541129991194L129.12433324866288,500.29524402409334L128.52870205740328,502.03403948869345L126.18872237744654,501.82947786242767L123.38074676148972,503.67050806000043L121.76403352806665,503.67050806000043L120.0196850393695,506.53422353587484L124.31673863347532,509.755744482356L124.18910337820125,512.6703089292496L125.50800101599452,513.6417998131674L124.01892303784552,515.9426382629663L123.59347218694165,518.0900100904182L125.25273050546093,520.1861819599508L123.67856235711952,521.7710451471448L122.35966471932625,525.3496188468162L121.59385318770364,529.3369281754331L119.38150876302097,534.6018270583627L119.42405384810263,538.4863193123747L114.87172974346322,545.6924284709094L113.42519685039588,545.8968448554842L112.53175006349193,549.4740222818273L109.9364998730016,554.2262382431163L107.85179070357844,556.5255666419744L108.10706121412659,559.284648045068L105.72453644907364,561.12396737782L103.34201168402797,563.8317548115319L100.57658115316735,564.9557072994867L102.36347472694615,567.203551132634L99.59804419608554,568.8893805184362L100.70421640842687,570.0643254072511L99.59804419608554,571.5457459264107L96.91770383540279,572.3630662368341L95.98171196341718,574.3552393715818L95.34353568706865,572.567394631451L96.15189230378746,569.5023980208662L95.21590043180186,567.1013781813035L93.85445770891238,566.0796394056051L93.25882651765278,563.9850222601635L90.45085090170323,560.0510377367373L90.7061214122441,558.7737163165166L90.06794513589557,553.9196546724397L88.45123190245795,552.0290224404362L86.36652273304935,546.8167102291518L84.19672339344834,546.2545719034988L80.45275590551319,543.8526506172784L77.94259588518617,545.283593675711L74.19862839725829,545.7946367476088L71.56083312167175,548.963009594212L69.56121412242646,549.2185164654129L65.22161544323171,547.8387668293872L64.49834899669804,544.7725463826955L62.073279146563436,541.3484206167668L60.79692659385182,537.7707732877407L58.66967233934702,536.9529962626002L54.88315976631566,536.9529962626002L52.03263906528446,537.6685517511105L47.77813055626757,535.5729730040639L45.05524511048861,532.8639488628378L41.31127762256074,533.2728657755579L38.88620777241158,532.6083744184834L39.141478282959724,531.2282541551904L35.525146050298645,525.963067803792L35.18478536957264,522.9980080632322L33.86588773177937,522.0266644319036L32.29171958343795,518.0388830579977L31.525908051822626,513.0793595869563L32.121539243082225,511.7499350330545L30.972821945644682,508.63078803565077L29.69646939294762,506.7387695517973L24.037973075945047,503.92620234996684L21.14490728981764,500.4998107425781L25.48450596901239,497.993821647422L26.207772415538784,495.4877306264807L25.782321564649465,492.98153764912786L26.207772415538784,490.21949256502376L22.50635001269984,488.7361209216251L21.229997460002778,486.69003241939936L16.252222504444944,483.7742387836861L14.25260350521421,478.86311613029284L12.167894335791061,480.75599108236383L10.12573025146412,481.0117805279042L8.934467868937645,478.0957177996861L5.743586487173161,476.0492754410079L3.446151892298076,476.1004373298838L0.21272542545193573,475.0260287248311L0,472.82599062349254L0.6381762763558072,469.5002021721175L1.9570739141490776,469.14202960584043L3.10579121158662,467.0441197979708L5.743586487173161,464.07622261301185L9.019558039122785,463.0016037954174L8.72174244348571,461.7734449837226L6.21158242317324,459.72645905514946L7.062484124966431,458.2935283068109L9.14719329438958,457.4746957226089L11.955168910339125,457.4746957226089L13.869697739391995,455.2228498045042L15.358775717555545,455.73464022069857L16.76276352552668,454.5063360533277L17.145669291334343,449.7976090104712L18.166751333512366,445.29327107280733L15.401320802637201,444.3718884728605L14.67805435610353,442.27313198392585L11.74244348488719,441.5564669744963L11.274447548901662,440.4302621775987L15.018415036829538,437.87062887592947L17.018034036074823,437.7170474789036L19.99618999238737,434.79892781000854L27.867030734058062,432.2390592967877L28.377571755139797,430.19108747181053L30.84518669037061,427.1702040361488L27.4841249682504,425.9925311411025L26.84594869189459,424.4051970515411L24.633604267211922,423.38108870103133L22.336169672344113,421.38402813750145L24.84632969265658,418.51634003101935L26.463042926086928,417.54334389030555L27.058674117346527,415.7509420727947L28.76047752094746,414.16334232068584L28.164846329702414,412.47327149767625L32.121539243082225,409.7588175824003L32.50444500888989,407.7100933232505L33.82334264668316,406.6344856030919L34.9720599441207,402.63920549010254L34.88696977394284,400.94881603935755L40.92837185673852,402.6904286828594L44.92760985521454,402.5879822544048L47.22504445008963,399.4120577725389L49.82029464059451,400.6926923459032L52.37299974599591,400.6926923459032L56.96786893573153,399.7706381590415L59.47802895605855,401.5635085231388L61.52019304038549,401.3586117156574L63.39217678435671,402.43431228968984L64.5834391668759,399.92431482324537L68.24231648463319,396.90193612843177L70.02921005841199,396.85070808202363L68.19977139953698,393.67448527862507L69.90157480315247,388.2437861102462L68.54013208026299,384.9134013763596L70.0717551435082,381.7365573040679L72.58191516382067,381.8390387274703L73.94335788671015,377.99586749707123L70.369570739138,375.177387979993L70.369570739138,371.79504054278186L71.0077470154938,369.23253114649197L77.81496062992665,369.3350335913583L78.53822707645304,370.3087982177567L81.81419862839539,370.9237994381001L82.23964947929926,367.6949737799241L83.85636271272233,366.2086314391072L86.32397764795314,365.49107388067205L88.49377698755416,362.82578607840696L90.8763017526071,364.7735078691003L93.47155194310471,365.029782415093L96.49225298451347,362.92829930459084L99.68313436627795,363.28709423727196L103.34201168402797,359.904086581113L107.08597917195584,358.0587304464898L107.46888493777078,356.3158427293565L110.2343154686314,356.008269127944L110.06413512826839,362.36447442505596L109.46850393700151,363.543375037847L109.6386842773718,366.6699139775119L111.04267208534293,369.3350335913583L110.829946659891,372.2562807911854L112.999745999492,373.94746517295425L112.23393446786213,376.7147565955329L113.72301244602568,382.55640387044696L112.74447548895841,383.5811965838657L112.19138938278047,386.5529981138825L114.02082804165548,388.807371699746L117.7222504445017,391.42029144151456L121.33858267716278,389.9345272668961L123.76365252729738,390.6517972454276L126.48653797307634,389.47342068707985L127.16725933452835,387.11659931766735L128.95415290830715,387.2190717045705L132.31521463042736,386.040628866047L133.20866141731676,384.65721040619064L139.63296926593466,380.6604919625406L142.908940817877,381.01918251906864L142.99403098805487,386.91165402764454L142.10058420116547,390.3956303634768L143.46202692405495,392.3937035358231L143.50457200915116,399.61696110825505L142.69621539243963,401.87085244604896L145.12128524257423,408.2222808241877L141.7176784353578,409.2466429535016L140.05842011683853,411.70504204822646L139.76060452120873,414.88032795603067L143.46202692405495,415.08517945115636L141.54749809498753,421.43523563254894L142.48348996697314,425.22447139776887Z"/>

    <path name="富里鄉" class="town" data-zip="983" d="M166.18110236219945,509.8580122327985L166.81927863855526,514.0508440301437L166.52146304292546,516.3005387561298L163.8411226822427,517.629865274037L163.33058166116098,519.82830399661L160.13970027940377,522.2311590977897L158.69316738633643,524.071580616499L159.54406908814417,526.8321100637422L157.96990093980276,530.8193237134274L155.7575565151201,534.0395776950936L157.33172466344695,537.8729946553758L154.6513843027642,540.2751481499654L153.20485140969686,540.5817993267319L153.33248666497093,544.2614948683331L151.97104394208145,546.7145036406891L151.75831851664407,549.2185164654129L149.37579375158384,553.8174598115402L149.54597409194685,554.9926905288448L148.22707645415358,558.7737163165166L145.4616459232857,558.1094987690321L143.50457200915116,558.5693424451165L142.69621539243963,562.6566917785658L140.82423164845386,565.0578837876801L142.44094488189148,567.4078965300978L142.73876047752128,569.1448052143533L144.95110490221123,570.6773312937257L143.75984251968475,572.1587371690348L142.73876047752128,576.5005850438902L142.0154940309876,577.3689181540649L142.7813055626175,579.9738445778821L143.12166624332895,583.8044201243647L142.73876047752128,586.8687103926404L140.1860553721126,589.9839171639542L134.8253746507471,589.6775103115542L129.71996443993703,590.494591892566L126.74180848360993,591.7712603476011L124.27419354839367,594.3245185578671L121.59385318770364,595.8053602497603L121.04076708153298,594.3755826519227L118.1902463804945,592.9457721557264L119.50914401828777,590.494591892566L119.38150876302097,588.1965225493914L116.19062738125649,585.0812261148149L115.42481584962661,582.7829564251242L111.85102870205446,580.2802993214264L108.83032766066026,581.8636247247159L107.1710693421337,581.5061031640707L104.02273304546543,576.7048998102L101.47002794005675,576.3984274084232L95.98171196341718,574.3552393715818L96.91770383540279,572.3630662368341L99.59804419608554,571.5457459264107L100.70421640842687,570.0643254072511L99.59804419608554,568.8893805184362L102.36347472694615,567.203551132634L100.57658115316735,564.9557072994867L103.34201168402797,563.8317548115319L105.72453644907364,561.12396737782L108.10706121412659,559.284648045068L107.85179070357844,556.5255666419744L109.9364998730016,554.2262382431163L112.53175006349193,549.4740222818273L113.42519685039588,545.8968448554842L114.87172974346322,545.6924284709094L119.42405384810263,538.4863193123747L119.38150876302097,534.6018270583627L121.59385318770364,529.3369281754331L122.35966471932625,525.3496188468162L123.67856235711952,521.7710451471448L125.25273050546093,520.1861819599508L129.71996443993703,516.3516672285805L133.20866141731676,512.568045841057L136.10172720345145,512.4146508909525L139.12242824485293,513.1304907284739L143.24930149860302,508.9887309489659L144.05765811531455,505.51148327800183L146.56781813564157,502.4431607045444L148.3972567945093,503.26139499006604L148.2696215392425,505.81830713662384L149.84378968757665,506.63649662864736L150.94996189991798,508.4773832939936L150.48196596393245,510.88068041154656L152.69431038861512,510.5738817382189L153.67284734569694,512.0055958259982L156.48082296165376,509.8580122327985L162.39458978917537,510.36934844159805Z"/>
</svg>