<?xml version="1.0" encoding="utf-8"?>
<svg version="1.1" xmlns="http://www.w3.org/2000/svg" xmlns:xlink="http://www.w3.org/1999/xlink" x="0px" y="0px"
	 viewBox="0 0 540 400" style="enable-background:new 0 0 540 400;" xml:space="preserve" data-w="540" data-h="400">
    <style type="text/css">.town{fill:#9CCA97;stroke:#FFFFFF;stroke-width:1.5;stroke-linecap:round;stroke-linejoin:round;}</style>

      <path name="仁愛區" class="town" data-zip="200" d="M319.113,143.361 324.953,154.863 340.918,158.202 343.254,165.437 336.829,179.535 336.635,197.713 332.741,200.866 323.785,209.213 310.352,207.914 307.042,192.148 294.971,191.963 300.228,182.503 296.529,163.397 304.316,155.42 314.051,140.579Z"/>

    <path name="信義區" class="town" data-zip="201" d="M426.192,162.098 431.449,173.97 432.811,190.108 416.847,194.745 408.28,181.205 403.024,184.729 381.024,176.567 368.174,194.189 352.405,194.003 347.537,199.753 336.635,197.713 336.829,179.535 343.254,165.437 340.918,158.202 324.953,154.863 332.157,144.66 358.829,137.054 372.458,141.692 388.033,121.284 396.988,119.058 406.139,145.588 416.068,148.556Z"/>


    <path name="中正區" class="town" data-zip="202" d="M426.192,162.098 416.068,148.556 406.139,145.588 396.988,119.058 388.033,121.284 372.458,141.692 358.829,137.054 332.157,144.66 324.953,154.863 319.113,143.361 324.175,135.013 339.36,124.438 346.759,106.07 339.944,86.031 365.449,76.381 389.006,85.474 384.723,93.638 406.334,108.482 423.272,114.605 452.28,109.41 443.714,128.149 442.741,143.732 448.776,151.153 447.997,163.397 442.546,172.857Z"/>

    <path name="中山區" class="town" data-zip="203" d="M339.944,86.031 346.759,106.07 339.36,124.438 324.175,135.013 319.113,143.361 314.051,140.579 304.316,155.42 301.007,145.031 282.316,126.479 271.219,131.302 261.485,122.212 254.281,109.966 250.193,87.701 259.148,82.134 254.476,71.186 277.644,72.299 289.909,76.01 305.29,85.659 329.626,93.082Z"/>

    <path name="安樂區" class="town" data-zip="204" d="M254.476,71.186 259.148,82.134 250.193,87.701 254.281,109.966 261.485,122.212 271.219,131.302 282.316,126.479 301.007,145.031 304.316,155.42 296.529,163.397 300.228,182.503 294.971,191.963 291.856,192.89 284.653,186.398 276.865,196.229 266.936,186.584 250.971,181.761 245.325,172.857 234.228,174.156 229.166,157.275 228.193,144.66 203.662,130.375 198.795,122.397 188.671,117.388 190.812,105.142 181.078,94.195 193.149,82.876 202.104,79.907 209.892,69.701 225.856,67.66 232.865,53 240.653,52.257Z"/>

    <path name="暖暖區" class="town" data-zip="205"  d="M332.741,200.866 345.59,203.648 352.989,221.268 350.263,235.178 353.378,245.749 352.015,259.101 357.272,273.009 368.564,272.267 377.52,278.386 386.67,292.479 374.794,307.497 358.635,322.515 352.21,316.953 334.493,322.515 324.175,331.785 307.431,327.892 295.75,332.341 287.184,327.336 287.573,303.047 277.449,276.532 283.874,262.81 281.927,247.789 289.13,242.967 284.458,232.952 269.077,225.349 279.007,216.632 284.653,201.052 291.856,192.89 294.971,191.963 307.042,192.148 310.352,207.914 323.785,209.213Z"/>

   <path name="七堵區" class="town" data-zip="206"  d="M181.078,94.195 190.812,105.142 188.671,117.388 198.795,122.397 203.662,130.375 228.193,144.66 229.166,157.275 234.228,174.156 245.325,172.857 250.971,181.761 266.936,186.584 276.865,196.229 284.653,186.398 291.856,192.89 284.653,201.052 279.007,216.632 269.077,225.349 284.458,232.952 289.13,242.967 281.927,247.789 283.874,262.81 277.449,276.532 287.573,303.047 287.184,327.336 275.697,319.178 254.086,297.114 242.405,300.452 226.83,298.412 220.794,292.293 203.856,288.399 184.582,272.823 189.449,259.101 183.219,252.61 173.68,262.624 160.83,256.134 135.326,237.96 121.113,218.672 128.122,212.366 123.644,200.866 115.467,191.592 115.467,174.341 108.848,158.759 98.14,151.895 91.326,152.637 78.671,142.99 74.777,131.488 80.034,126.479 101.45,117.388 123.06,118.872 127.538,111.079 140.388,102.544 163.556,99.576 168.423,94.566Z"/>

</svg>