<?xml version="1.0" encoding="utf-8"?>
<svg version="1.1" xmlns="http://www.w3.org/2000/svg" xmlns:xlink="http://www.w3.org/1999/xlink" x="0px" y="0px" viewBox="0 0 620 600" xml:space="preserve" data-w="620" data-h="600">
    <style type="text/css">.town{fill:#9CCA97;stroke:#FFFFFF;stroke-width:1.5;stroke-linecap:round;stroke-linejoin:round;}</style>

    <path name="金沙鎮" class="town" d="M538.9444283856137,180.35466571749566L519.8460710319923,201.62237256477965L510.2004360049905,205.76280662075442L491.4879040524247,188.44787081219692L468.3383799875155,159.65008918193053L463.70847517446964,149.67371959944285L450.01167343603447,151.1796087205439L440.55895110953134,160.96769721900637L428.01962557429215,166.23806945192337L414.9015619374986,176.77852636252646L386.543394957931,189.20071561251825L378.8268869362655,177.53140147260274L366.67338680214016,176.40208807410818L358.1852279783343,171.69656821275566L344.68133894039784,151.36784431029082L336.00026741606416,131.03769380981976L350.8545453577535,117.29520963681716L354.326973967487,103.17553969265282L364.7442597967456,97.71574934376986L360.6930930853705,76.8169794628484L361.27183118698304,64.38996824997594L378.05523613406694,56.29329495027196L388.0866965622117,38.02787394570623L396.3819426854898,31.813601711328374L393.29533947684104,16.936467952487874L406.41340311369277,19.76129907090217L417.4094270445639,12.605006618956395L424.9330223656434,17.689758949949464L434.9644827937882,12.793332374516467L445.188855922519,19.196335055654345L456.18487985339016,19.94962016392674L463.129737072828,40.475883914630685L469.3029434901837,49.70281215131399L500.74771367845824,60.059217699512374L498.43276127192075,72.29812805423717L503.0626660849084,84.3482416517727L511.5508249087725,92.44412990267301L511.35791220818646,102.98727277425496L524.4759758450382,119.177780268481L539.1373410861415,120.49557242777519L539.1373410861415,128.02569829065033L527.1767536526022,138.19105762401887L528.7200552569411,157.20308693032712L533.3499600699288,172.4494565248242Z"/>

    <path name="金湖鎮" class="town" d="M538.9444283856137,180.35466571749566L542.0310315943207,186.0011117077447L554.3774444289156,190.5181893084591L546.0821983056958,218.18375408519933L533.3499600699288,216.49001984792267L521.7751980374451,226.65227690959728L533.9286981715704,240.38957700121682L524.2830631445104,255.0670693032589L515.6019916201476,257.70141241727833L512.129563010385,272.1898721520556L505.7634438925015,277.6463773140058L495.92489616488456,277.27006990582595L485.50761033562594,287.430198730086L469.6887688912975,294.3915632295393L450.78332423820393,296.64926722849486L463.90138787499745,275.2003704415911L452.13371314201504,258.0777451957765L416.63777624236536,247.35206975592882L417.79525244561955,240.76593223246164L400.2401966963371,232.48600436262495L385.000093353563,230.60416961568262L364.9371724972734,232.29782143724879L337.73648172096,239.63686507404054L312.0790925489273,252.0563621764668L308.4137512386369,243.40040518192836L313.815306853794,227.96958046049258L312.2720052494551,201.81057539542962L327.3191958917014,179.79001506860368L324.42550538358046,171.3201233232394L323.07511647979845,143.27360350024537L336.00026741606416,131.03769380981976L344.68133894039784,151.36784431029082L358.1852279783343,171.69656821275566L366.67338680214016,176.40208807410818L378.8268869362655,177.53140147260274L386.543394957931,189.20071561251825L414.9015619374986,176.77852636252646L428.01962557429215,166.23806945192337L440.55895110953134,160.96769721900637L450.01167343603447,151.1796087205439L463.70847517446964,149.67371959944285L468.3383799875155,159.65008918193053L491.4879040524247,188.44787081219692L510.2004360049905,205.76280662075442L519.8460710319923,201.62237256477965Z"/>

    <path name="金寧鄉" class="town" d="M323.07511647979845,143.27360350024537L324.42550538358046,171.3201233232394L327.3191958917014,179.79001506860368L312.2720052494551,201.81057539542962L313.815306853794,227.96958046049258L308.4137512386369,243.40040518192836L312.0790925489273,252.0563621764668L298.1893781099643,260.14756675469835L286.4217033769528,270.68461129927164L278.7051953552582,287.0539040026706L257.87062369679916,269.1793426407821L246.29586166428635,280.84497059004934L238.19352824159432,262.78186375348014L245.13838546109037,252.80904188651039L248.99663947185036,238.31961450247763L233.37071072802064,229.09869302843435L244.5596473594196,217.99556188066344L234.72109963180264,209.71498397745745L220.83138519283966,223.4530862362226L212.92196447061724,221.38300287962193L205.78419455059338,227.02864996314747L191.50865471054567,217.43098453425773L189.77244040567894,206.7038061153653L175.88272596671595,184.11897526583925L175.49690056563122,169.62611526894761L156.39854321200983,140.8264629148398L157.17019401415018,131.41419104706438L170.0953449504741,106.18779373447614L184.75671019157744,97.52747887417354L200.9613770370779,92.63240367892286L212.15031366847688,93.19722427290253L223.33925029987586,98.65709985473222L236.07148853561375,111.27090135595063L250.9257664773031,131.2259424896256L266.358782520605,140.44997791282367L282.5634493660473,142.52063936829654L290.85869548935443,148.1678226503791L317.4806481641135,148.1678226503791Z"/>

    <path name="金城鎮" class="town" d="M278.7051953552582,287.0539040026706L271.5674254352343,292.886417478614L263.8509174135688,308.87819221877L256.9060601940728,333.52261529637326L234.72109963180264,345.37376912535547L223.53216300040367,339.7304228142457L206.94167075384757,336.5324779269504L195.36690872139297,322.61160189739167L179.35515457642032,323.17597470821784L176.07563866724377,314.8983969333058L164.30796393417404,301.72903705286444L139.4222255643399,283.10277992102056L145.40251928116777,273.88328128151625L166.2370909396268,269.74381930245727L189.96535310620675,229.66324766424805L191.50865471054567,217.43098453425773L205.78419455059338,227.02864996314747L212.92196447061724,221.38300287962193L220.83138519283966,223.4530862362226L234.72109963180264,209.71498397745745L244.5596473594196,217.99556188066344L233.37071072802064,229.09869302843435L248.99663947185036,238.31961450247763L245.13838546109037,252.80904188651039L238.19352824159432,262.78186375348014L246.29586166428635,280.84497059004934L257.87062369679916,269.1793426407821Z"/>

    <path name="烈嶼鄉" class="town" d="M78.07598679221701,183.3661172671491L101.61133625824004,191.64744771082042L113.57192369180848,205.38640596785262L120.70969361183234,207.26840434633777L114.72939989506267,248.29293434133433L107.78454267559573,260.52389636125736L95.82395524199819,254.690732620591L80.39093919869629,263.3463528567954L80.5838518992241,271.0609272442234L72.67443117705989,280.0923635778672L58.20597863642615,278.7752966118933L43.54461339532281,283.6672295103708L30.23363705794327,301.3527608535951L15.379359116224805,291.00497431894473L6.3124621908064,278.9634494014317L12.292755907576066,265.2279752721952L10.942367003794061,248.4811068922936L25.796644945483422,228.7223226608039L32.93441486550728,202.93978981404507L39.68635938447551,193.34132706641685L62.45005804832908,184.11897526583925Z"/>
</svg>