<?xml version="1.0" encoding="utf-8"?>
<svg version="1.1" xmlns="http://www.w3.org/2000/svg" xmlns:xlink="http://www.w3.org/1999/xlink" x="0px" y="0px"
	 viewBox="0 0 640 500" style="enable-background:new 0 0 640 500;" xml:space="preserve" data-w="640" data-h="500">
<style type="text/css">
	.town{fill:#9CCA97;stroke:#FFFFFF;stroke-width:1.5;stroke-linecap:round;stroke-linejoin:round;}
</style>

    <path name="三灣鄉" class="town"  d="M352.81920814116893,174.67637666092196L344.98330418187834,170.92139539558775L344.37271426297957,168.31370929935292L331.7538559389068,156.63066952201189L327.3779615201056,154.96158292528344L327.07266656064894,150.37149045001934L323.61265702015953,148.4936812357082L318.829702655421,149.95420172713057L313.5379233582353,147.55476702260057L306.61790427728556,147.7634151789607L302.64906980439264,152.24927405047129L298.1714103990962,154.23135117679703L293.79551598025137,152.7708760608075L292.98139608840575,142.96442756200486L289.82668150738755,136.7046270035098L294.100810939708,134.4092954477128L292.8796311019105,129.7141798097582L287.89314676418144,125.22758625416463L284.8401971696585,127.73174953929993L274.86722849418584,128.357783237454L282.1943075210438,121.26256780839321L282.49960248050047,117.08874067826764L286.9772618857969,115.00177960409565L290.94609635871893,110.30600136299472L290.4372714262863,99.55728291668129L288.91079662901757,97.26133118426878L298.1714103990962,92.56494678540184L300.3084751152637,87.2421837205984L307.22849419621343,87.34655360617398L318.0155827635317,92.98240967679885L320.86500238509325,84.63291080750787L327.78502146604296,72.83837876070902L328.8026713308791,69.39376675312815L336.94387024962634,68.97623215182466L349.86802353314124,75.96976922959948L355.2615678168222,75.23911784118536L358.2127524248499,75.44787577747047L365.03100651930436,86.09410974538332L369.813960884072,90.6863480761458L372.9686754650902,90.79071534504692L375.4110351407144,96.113340932352L382.6363491810771,94.2347907404801L388.64048338368593,94.54788422271668L386.40165368102316,100.80960405744554L386.50341866750387,107.48845742767298L383.04340912701446,110.51470602395784L379.27810462711204,109.15812006408305L373.2739704245323,111.87127859732573L369.2033709651587,109.99294377747356L365.8451264111791,114.06263678626783L350.47861345204,112.91478685286711L340.20034981712524,109.88859109054829L333.0768007632287,105.19263818754189L326.9709015741537,104.9839254460785L330.32914612814784,113.01913724281621L334.50151057400217,115.00177960409565L333.28033073617553,121.78428729270308L336.8421052631311,123.97548751491922L336.0279853712709,130.44454165528805L339.1826999522891,137.74794687130634L342.7444744792447,132.844274704923L347.0186039115797,130.75755268780995L353.6333280330582,135.6612992249211L358.31451741134515,137.12195589991097L361.36746700585354,142.86009988591104L362.1815868977428,149.53691173932748L356.27921768165834,168.10509227912553Z"/>

    <path name="南庄鄉" class="town"  d="M386.50341866750387,107.48845742767298L392.71108284305956,111.34952149939636L403.59993639685854,110.93211439536026L404.0069963427959,116.46265568190938L407.67053585623216,120.11477797603948L411.8429003020865,121.05387946049814L421.5105740181316,126.3753334189314L427.7182381936582,135.76563235878348L431.48354269357515,139.3129118410543L439.82827158529835,132.32259716791305L446.44299570677686,139.9388928457156L452.14183494989993,141.81681877533265L454.3806646525627,146.8244959847434L454.6859596120048,152.8751962257047L459.57067896325316,155.6918108009122L461.40244871997857,167.5835483463161L457.73890920655685,169.77401959471536L457.23008427412424,173.63333657513795L453.77007473363483,177.17964065162596L448.8853553823865,196.57839509427868L440.5406264906924,204.50398244360986L448.2747654634877,210.65642703490448L451.83653999044327,211.9077381170864L454.3806646525627,217.85131077749975L458.553029098417,220.6665979449317L456.11066942279285,228.59080164427724L455.8053744633362,235.2634624722923L445.32358085544547,240.99752273810736L447.66417554458894,256.00920758163556L450.4118301796698,262.4720695912474L450.2083002067084,268.10076768088766L445.32358085544547,271.64464518741806L439.9300365717645,269.6642542507252L436.36826204483805,266.01609141149675L433.5188424232474,269.8727177906003L429.44824296388833,269.1430940256432L424.0546986802219,271.7488755034792L418.4576244235941,271.95733589984593L410.82525043725036,275.1884318502962L405.1264111941273,274.3546078662657L402.378756559061,264.66103497556105L398.81698203210544,258.61523669537564L390.3704881539161,254.44556652028405L380.4992844649387,260.0745915313091L376.7339799649926,264.4525635754944L369.5086659246299,265.18221210002594L366.35395134359715,263.61867483070455L357.5003975194559,264.2440918609718L343.86388933057606,259.0321967925811L335.9262203847902,252.25643930393562L332.87327079026727,247.66958407722632L332.66974081727676,240.6847619539949L327.27619653363945,234.2208804764923L330.1256161551719,232.1356928656387L333.78915566860815,222.4391566964223L334.6032755604974,209.82221334113274L348.3415487358725,190.3210306462679L348.8503736683051,182.2903301015249L352.81920814116893,174.67637666092196L356.27921768165834,168.10509227912553L362.1815868977428,149.53691173932748L361.36746700585354,142.86009988591104L358.31451741134515,137.12195589991097L353.6333280330582,135.6612992249211L347.0186039115797,130.75755268780995L342.7444744792447,132.844274704923L339.1826999522891,137.74794687130634L336.0279853712709,130.44454165528805L336.8421052631311,123.97548751491922L333.28033073617553,121.78428729270308L334.50151057400217,115.00177960409565L330.32914612814784,113.01913724281621L326.9709015741537,104.9839254460785L333.0768007632287,105.19263818754189L340.20034981712524,109.88859109054829L350.47861345204,112.91478685286711L365.8451264111791,114.06263678626783L369.2033709651587,109.99294377747356L373.2739704245323,111.87127859732573L379.27810462711204,109.15812006408305L383.04340912701446,110.51470602395784Z"/>

    <path name="苗栗市" class="town"  d="M221.94943552231416,171.13000815086343L223.37414533308765,174.57207300767186L223.1706153601408,183.6461954913284L219.7106058196805,199.70697083069535L215.33471140083566,204.50398244360986L212.89235172521148,212.53338940207686L207.49880744154507,216.60005359933348L205.15821275241615,220.6665979449317L198.23819367146643,224.73302246288222L197.62760375256767,232.4484730149925L191.01287963110371,236.72306404061237L186.94228017171554,236.9315772908085L187.8581650500564,229.3206396313508L183.07521068531787,231.7186515641697L181.1416759420972,236.8273207050588L175.34107171250798,238.18265017982048L173.1022420098452,243.08257653105102L165.77516298295814,244.95909803084578L167.30163778022688,237.97413881880493L161.3992685641424,229.00785239509787L165.67339799649199,224.0031602180934L170.35458737474983,215.035966169944L169.94752742882702,206.90242568418398L165.26633805055462,196.05695890355128L161.2975035776617,195.2226568967235L156.61631419937476,190.00815496856012L158.3463189696049,185.7321161996333L158.65161392904702,176.13661951572067L161.6027985371038,171.3386205902425L169.94752742882702,168.20940082872767L177.4781364286464,169.2524819806058L185.4158053744468,157.36088854602713L202.0034981713834,159.13426148286453L210.3482270631066,165.91459449102695L215.4364763873018,166.95769302032204Z"/>

    <path name="卓蘭鎮" class="town"  d="M286.4684369533934,415.51200640397656L287.89314676418144,428.21433604223785L283.7207823183271,442.37294203593046L285.75608204799937,452.7827621738179L281.1766576562077,455.69737222684853L286.4684369533934,463.816321190061L292.57433614245383,477.346850471753L291.96374622355506,484.4238343621291L288.0966767371283,492.6451729530381L282.8048974399426,494.5183214750796L269.8807441564568,492.43704378491384L253.19128637302492,491.6045240031308L243.93067260291718,493.9980049672922L235.48417872472783,497.95236169646523L227.7500397519325,498.5767235533094L216.35236126568634,497.7442404558351L211.7729368738801,496.39144481482435L203.52997296865215,489.52320278259504L195.79583399584226,477.86722918456144L183.68580060421664,468.5001147686053L174.32342184767185,467.9797010428956L162.00985848304117,465.7939421479714L155.90395929398073,463.3999763551474L150.51041501031432,456.32192358058455L153.46159961835656,451.74181521451465L162.62044840193994,448.61892760208866L157.02337414531212,442.68524797603095L154.17395452375058,442.78934980022314L159.05867387499893,437.16773977605044L168.62458260454878,441.2278142552641L179.61520114482846,440.9155050422305L191.9287645094446,434.35684953575037L201.69820321192674,440.4990916671777L208.7199872793426,438.72932091211624L213.50294164411025,434.04452489009054L217.77707107645983,435.710248226369L219.40531086022384,426.6526367942897L223.06885037364555,425.7156088232223L225.40944506280357,419.57271344331457L230.49769438699877,418.2191576154619L235.8912386706652,424.57034383537757L250.24010176496813,419.156236131319L256.85482588644663,419.7809516312409L262.65543011606496,416.8655886026427L269.98250914295204,416.2408599956507L277.9201780887088,417.90679670587633L281.8890125616017,414.9913943548345Z"/>

    <path name="大湖鄉" class="town"  d="M282.3978374940052,324.37515348679153L288.19844172362355,328.12596585786014L290.6408013992477,335.0021914392164L290.03021148034895,344.58666381514195L285.65431706151867,350.3161948749548L285.45078708855726,358.232975403349L290.03021148034895,361.6703841015624L290.4372714262863,367.71168384246994L296.23787565587554,373.02364380619474L297.2555255207408,381.5640158203496L293.6937509937852,386.2505819864782L292.16727619651647,397.1852877438723L291.86198123707436,412.4924293635813L286.4684369533934,415.51200640397656L281.8890125616017,414.9913943548345L277.9201780887088,417.90679670587633L269.98250914295204,416.2408599956507L262.65543011606496,416.8655886026427L256.85482588644663,419.7809516312409L250.24010176496813,419.156236131319L235.8912386706652,424.57034383537757L230.49769438699877,418.2191576154619L225.40944506280357,419.57271344331457L223.06885037364555,425.7156088232223L219.40531086022384,426.6526367942897L217.77707107645983,435.710248226369L213.50294164411025,434.04452489009054L208.7199872793426,438.72932091211624L201.69820321192674,440.4990916671777L191.9287645094446,434.35684953575037L179.61520114482846,440.9155050422305L168.62458260454878,441.2278142552641L159.05867387499893,437.16773977605044L154.17395452375058,442.78934980022314L155.90395929398073,430.81712913338197L163.2310383208387,429.04723513367935L173.61106694224873,423.94564986439946L185.31404038795154,412.0759308282977L185.00874542849488,408.22326017933665L189.28287486087356,403.3291731074096L196.81348386069294,402.60025176706404L200.4770233741292,394.89427785726L200.884083320052,388.1251641449526L203.428207982186,381.77231101052894L209.63587215771258,380.21008946354414L215.94530131973443,374.0651807331269L218.5911909683491,367.19089250496836L214.52059150896093,363.1286529603276L218.3876609953877,357.399651371441L221.44061058991065,348.2327564365114L217.77707107645983,347.2951989228277L223.2723803466215,337.29419079498985L226.02003498170234,334.48127720698176L232.02416918426752,333.12689103714365L236.2982986166171,326.77151755163504L240.57242804895213,323.333243134839L245.05008745424857,314.99767810184494L252.3771664811502,313.2263058848621L264.89425981872773,325.8338148117364L271.00015900778817,327.29246077525386Z"/>

    <path name="公館鄉" class="town"  d="M281.78724757510645,220.04098353794325L286.06137700745603,224.73302246288222L285.1454921291006,229.3206396313508L275.4778184130846,246.83559403575055L269.8807441564568,254.8625392002432L265.5048497376265,253.19464092977069L257.261885832384,261.42969293664646L258.48306567018153,263.9313836996007L251.2577516298188,276.439158397905L244.1342025759077,299.6797688621591L246.78009222450783,305.41115786923183L253.19128637302492,302.91021730941793L255.9389410080912,304.5775160372759L252.3771664811502,313.2263058848621L245.05008745424857,314.99767810184494L240.57242804895213,323.333243134839L236.2982986166171,326.77151755163504L232.02416918426752,333.12689103714365L226.02003498170234,334.48127720698176L223.2723803466215,337.29419079498985L220.32119573857926,333.7519939915255L223.06885037364555,324.8961057234883L218.3876609953877,322.2913249444573L216.14883129272494,315.83125718570955L211.467641914438,312.70530974314534L207.90586738748243,312.91370843509503L204.34409286052687,305.8279769023284L194.47288917156402,300.9302739808809L190.91111464460846,294.36499602765616L189.48640483382042,278.6279026335542L191.31817459054582,271.95733589984593L189.28287486087356,264.8695060611717L191.52170456350723,259.24067636938344L189.89346477977233,247.3568384017599L192.4375894418481,241.51878913760083L191.01287963110371,236.72306404061237L197.62760375256767,232.4484730149925L198.23819367146643,224.73302246288222L205.15821275241615,220.6665979449317L207.49880744154507,216.60005359933348L212.89235172521148,212.53338940207686L215.33471140083566,204.50398244360986L219.7106058196805,199.70697083069535L223.2723803466215,200.74981363627012L223.88297026552027,212.11628886067774L234.56829384638695,220.6665979449317L245.35538241373433,224.0031602180934L251.0542216568283,220.97940408486102L258.48306567018153,221.3964778351583L266.82779456190474,217.9555816968641L274.86722849418584,220.56232907405501Z"/>

    <path name="銅鑼鄉" class="town"  d="M191.01287963110371,236.72306404061237L192.4375894418481,241.51878913760083L189.89346477977233,247.3568384017599L191.52170456350723,259.24067636938344L189.28287486087356,264.8695060611717L191.31817459054582,271.95733589984593L189.48640483382042,278.6279026335542L190.91111464460846,294.36499602765616L194.47288917156402,300.9302739808809L204.34409286052687,305.8279769023284L207.90586738748243,312.91370843509503L211.467641914438,312.70530974314534L216.14883129272494,315.83125718570955L218.3876609953877,322.2913249444573L223.06885037364555,324.8961057234883L220.32119573857926,333.7519939915255L223.2723803466215,337.29419079498985L217.77707107645983,347.2951989228277L221.44061058991065,348.2327564365114L218.3876609953877,357.399651371441L214.52059150896093,363.1286529603276L218.5911909683491,367.19089250496836L215.94530131973443,374.0651807331269L209.63587215771258,380.21008946354414L203.428207982186,381.77231101052894L200.884083320052,388.1251641449526L194.37112418506877,389.2707296681874L189.28287486087356,383.2303685882216L189.68993480678182,379.8976430437615L182.46462076640455,374.5859462645203L178.69931626647303,365.94098531696363L169.94752742882702,360.31626357375353L164.3504531721701,355.1079844597516L167.19987279376073,341.87807577523927L165.36810303702077,338.2318159677525L154.07218953725533,336.3565592774721L151.83335983462166,334.2729109656975L141.3515662267164,338.2318159677525L129.44506280803762,345.00336496912496L134.22801717281982,321.5619775471132L132.49801240258967,318.6445495446642L132.3962474160944,311.2465101155649L129.44506280803762,303.5354566861788L138.19685164571274,289.36267038268124L141.45333121321164,280.2954940361051L141.96215614561515,277.7940993908778L149.69629511842504,266.64149759364227L155.90395929398073,263.5144383838415L155.49689934804337,253.5073733892168L161.50103355063766,253.29888516155916L165.46986802350148,249.65029024535033L165.77516298295814,244.95909803084578L173.1022420098452,243.08257653105102L175.34107171250798,238.18265017982048L181.1416759420972,236.8273207050588L183.07521068531787,231.7186515641697L187.8581650500564,229.3206396313508L186.94228017171554,236.9315772908085Z"/>

    <path name="頭屋鄉" class="town"  d="M315.1661631419702,167.79216615641053L300.7155350612011,194.90979234263796L297.4590554937022,202.52262830770997L292.57433614245383,201.1669485504135L289.2160915884597,202.73119324140862L284.3313722372259,210.55215059906186L281.78724757510645,220.04098353794325L274.86722849418584,220.56232907405501L266.82779456190474,217.9555816968641L258.48306567018153,221.3964778351583L251.0542216568283,220.97940408486102L245.35538241373433,224.0031602180934L234.56829384638695,220.6665979449317L223.88297026552027,212.11628886067774L223.2723803466215,200.74981363627012L219.7106058196805,199.70697083069535L223.1706153601408,183.6461954913284L223.37414533308765,174.57207300767186L221.94943552231416,171.13000815086343L222.9670853871503,166.4361447430747L218.48942598185386,160.9076115826174L213.6047066306055,157.56952184159672L217.98060104945034,152.66655581683517L224.08650023848168,152.24927405047129L230.29416441403737,155.0659014303128L236.50182858956396,156.00476441924184L240.47066306248598,153.60543516695543L249.222451900132,152.7708760608075L254.92129114325508,154.02271282301808L258.5848306566768,151.31038545181946L263.36778502144443,154.7529456780503L270.1860391158989,152.45791509174887L273.03545873746043,156.1090821339494L281.0748926697124,156.7349867625344L283.3137223723752,162.05506124355088L290.8443313722237,158.19541983176168L296.95023056129867,162.472313295395L299.2908252504276,159.55152238431765Z"/>

    <path name="三義鄉" class="town"  d="M200.884083320052,388.1251641449526L200.4770233741292,394.89427785726L196.81348386069294,402.60025176706404L189.28287486087356,403.3291731074096L185.00874542849488,408.22326017933665L185.31404038795154,412.0759308282977L173.61106694224873,423.94564986439946L163.2310383208387,429.04723513367935L155.90395929398073,430.81712913338197L154.17395452375058,442.78934980022314L157.02337414531212,442.68524797603095L162.62044840193994,448.61892760208866L153.46159961835656,451.74181521451465L150.51041501031432,456.32192358058455L155.90395929398073,463.3999763551474L136.670376848444,454.55235413047194L126.79917315946659,446.3287654613596L108.58324057876598,429.15134716919783L102.4773413897201,426.54852288723123L105.12323103830568,417.0738308474647L107.87088567337196,415.1996394085909L106.85323580853583,403.3291731074096L119.16679917312285,383.64695365400985L125.4762283351738,375.8357755649631L126.59564318650519,371.0447021027758L129.64859278102813,366.357622297779L127.20623310540395,363.2328144349267L126.18858324056782,355.4204867235276L129.95388774047024,351.7745831510547L129.44506280803762,345.00336496912496L141.3515662267164,338.2318159677525L151.83335983462166,334.2729109656975L154.07218953725533,336.3565592774721L165.36810303702077,338.2318159677525L167.19987279376073,341.87807577523927L164.3504531721701,355.1079844597516L169.94752742882702,360.31626357375353L178.69931626647303,365.94098531696363L182.46462076640455,374.5859462645203L189.68993480678182,379.8976430437615L189.28287486087356,383.2303685882216L194.37112418506877,389.2707296681874Z"/>

    <path name="西湖鄉" class="town"  d="M156.61631419937476,190.00815496856012L161.2975035776617,195.2226568967235L165.26633805055462,196.05695890355128L169.94752742882702,206.90242568418398L170.35458737474983,215.035966169944L165.67339799649199,224.0031602180934L161.3992685641424,229.00785239509787L167.30163778022688,237.97413881880493L165.77516298295814,244.95909803084578L165.46986802350148,249.65029024535033L161.50103355063766,253.29888516155916L155.49689934804337,253.5073733892168L155.90395929398073,263.5144383838415L149.69629511842504,266.64149759364227L141.96215614561515,277.7940993908778L141.45333121321164,280.2954940361051L134.12625218632456,274.3546078662657L136.16155191601138,267.89230146878253L134.8386070917186,261.2212166622521L128.52917792969674,258.1982753400116L126.90093814596185,254.54980980823893L127.81682302430272,247.14834089139185L123.23739863251103,246.21009820007748L123.74622356494365,240.26774647329512L120.896803943353,238.91243746385953L116.72443949752778,230.3632586335516L112.85737001110101,225.775676117486L112.5520750516589,215.45305788473706L107.66735570041055,209.1965497602032L102.6808713626815,207.11098399502225L105.22499602478638,200.22839321925494L110.41501033547684,191.3639444435612L117.02973445698444,188.13088598955073L122.01621879468439,181.87313806719976L131.07330259180162,176.97103705606423L142.16568611860566,178.535556325176L147.25393544282997,176.7624331446932L149.89982509141555,183.8547889827678Z"/>

    <path name="造橋鄉" class="town"  d="M255.22658610271174,103.62728490116933L253.8018762919237,108.2189373264955L255.9389410080912,112.49738450108634L256.54953092699,119.17567007861726L265.91190968356386,127.3143921576484L274.86722849418584,128.357783237454L284.8401971696585,127.73174953929993L287.89314676418144,125.22758625416463L292.8796311019105,129.7141798097582L294.100810939708,134.4092954477128L289.82668150738755,136.7046270035098L292.98139608840575,142.96442756200486L293.79551598025137,152.7708760608075L298.1714103990962,154.23135117679703L302.64906980439264,152.24927405047129L306.61790427728556,147.7634151789607L313.5379233582353,147.55476702260057L318.829702655421,149.95420172713057L323.61265702015953,148.4936812357082L327.07266656064894,150.37149045001934L327.3779615201056,154.96158292528344L323.3073620607174,160.38604039436905L320.0508824932331,160.80329750299643L315.1661631419702,167.79216615641053L299.2908252504276,159.55152238431765L296.95023056129867,162.472313295395L290.8443313722237,158.19541983176168L283.3137223723752,162.05506124355088L281.0748926697124,156.7349867625344L273.03545873746043,156.1090821339494L270.1860391158989,152.45791509174887L263.36778502144443,154.7529456780503L258.5848306566768,151.31038545181946L254.92129114325508,154.02271282301808L249.222451900132,152.7708760608075L240.47066306248598,153.60543516695543L236.50182858956396,156.00476441924184L230.29416441403737,155.0659014303128L224.08650023848168,152.24927405047129L217.98060104945034,152.66655581683517L212.99411671170674,152.24927405047129L210.3482270631066,148.4936812357082L213.40117665762955,141.81681877533265L210.3482270631066,138.9999202709114L207.49880744154507,128.4621219101573L198.8487835903652,129.29682844275885L197.32230879312556,122.82772032385765L197.2205438066303,112.70608583538706L203.7335029416281,108.2189373264955L213.70647161710076,93.60860163560574L218.3876609953877,83.90230550931665L224.5953251709143,87.76403235546968L230.0906344410614,87.55529313942316L236.2982986166171,84.63291080750787L243.32008268401842,83.38044220261509L245.7624423596426,85.15476935546758L245.5589123866812,90.89508253461099L247.49244712990185,98.09622716176818L253.49658133248158,98.09622716176818Z"/>

    <path name="獅潭鄉" class="town"  d="M352.81920814116893,174.67637666092196L348.8503736683051,182.2903301015249L348.3415487358725,190.3210306462679L334.6032755604974,209.82221334113274L333.78915566860815,222.4391566964223L330.1256161551719,232.1356928656387L327.27619653363945,234.2208804764923L332.66974081727676,240.6847619539949L332.87327079026727,247.66958407722632L335.9262203847902,252.25643930393562L343.86388933057606,259.0321967925811L339.9968198441493,261.42969293664646L327.6832564795477,259.13643662030154L321.2720623310306,262.68054397870947L317.09969788519084,267.371134562989L311.4008586420532,269.8727177906003L299.3925902369083,271.2277231373191L297.4590554937022,276.8560647329614L300.20671012876846,287.17409603091073L295.32199077753467,293.6355014697365L294.60963587214064,304.6817215408664L289.9284464938537,312.08011178502056L288.3002067101188,319.58230096271654L282.3978374940052,324.37515348679153L271.00015900778817,327.29246077525386L264.89425981872773,325.8338148117364L252.3771664811502,313.2263058848621L255.9389410080912,304.5775160372759L253.19128637302492,302.91021730941793L246.78009222450783,305.41115786923183L244.1342025759077,299.6797688621591L251.2577516298188,276.439158397905L258.48306567018153,263.9313836996007L257.261885832384,261.42969293664646L265.5048497376265,253.19464092977069L269.8807441564568,254.8625392002432L275.4778184130846,246.83559403575055L285.1454921291006,229.3206396313508L286.06137700745603,224.73302246288222L281.78724757510645,220.04098353794325L284.3313722372259,210.55215059906186L289.2160915884597,202.73119324140862L292.57433614245383,201.1669485504135L297.4590554937022,202.52262830770997L300.7155350612011,194.90979234263796L315.1661631419702,167.79216615641053L320.0508824932331,160.80329750299643L323.3073620607174,160.38604039436905L327.3779615201056,154.96158292528344L331.7538559389068,156.63066952201189L344.37271426297957,168.31370929935292L344.98330418187834,170.92139539558775Z"/>

    <path name="泰安鄉" class="town"  d="M288.0966767371283,492.6451729530381L291.96374622355506,484.4238343621291L292.57433614245383,477.346850471753L286.4684369533934,463.816321190061L281.1766576562077,455.69737222684853L285.75608204799937,452.7827621738179L283.7207823183271,442.37294203593046L287.89314676418144,428.21433604223785L286.4684369533934,415.51200640397656L291.86198123707436,412.4924293635813L292.16727619651647,397.1852877438723L293.6937509937852,386.2505819864782L297.2555255207408,381.5640158203496L296.23787565587554,373.02364380619474L290.4372714262863,367.71168384246994L290.03021148034895,361.6703841015624L285.45078708855726,358.232975403349L285.65431706151867,350.3161948749548L290.03021148034895,344.58666381514195L290.6408013992477,335.0021914392164L288.19844172362355,328.12596585786014L282.3978374940052,324.37515348679153L288.3002067101188,319.58230096271654L289.9284464938537,312.08011178502056L294.60963587214064,304.6817215408664L295.32199077753467,293.6355014697365L300.20671012876846,287.17409603091073L297.4590554937022,276.8560647329614L299.3925902369083,271.2277231373191L311.4008586420532,269.8727177906003L317.09969788519084,267.371134562989L321.2720623310306,262.68054397870947L327.6832564795477,259.13643662030154L339.9968198441493,261.42969293664646L343.86388933057606,259.0321967925811L357.5003975194559,264.2440918609718L366.35395134359715,263.61867483070455L369.5086659246299,265.18221210002594L376.7339799649926,264.4525635754944L380.4992844649387,260.0745915313091L390.3704881539161,254.44556652028405L398.81698203210544,258.61523669537564L402.378756559061,264.66103497556105L405.1264111941273,274.3546078662657L410.82525043725036,275.1884318502962L418.4576244235941,271.95733589984593L424.0546986802219,271.7488755034792L429.44824296388833,269.1430940256432L433.5188424232474,269.8727177906003L436.36826204483805,266.01609141149675L439.9300365717645,269.6642542507252L445.32358085544547,271.64464518741806L450.2083002067084,268.10076768088766L457.23008427412424,267.266900946026L463.8448083955882,264.8695060611717L468.72952774683654,268.62193183572526L476.0566067737236,270.28964392726994L483.68898076003825,265.5991523846351L487.556050246465,264.9737414860756L491.6266497058241,259.13643662030154L502.0066783272341,255.175267884395L508.31610748925596,258.92795688622573L515.3378915566864,258.92795688622573L523.3773254889384,253.19464092977069L528.9743997455807,259.5533951448342L532.8414692319784,258.82371690124637L540.2703132453316,262.4720695912474L547.4956272857235,263.4102018583544L556.2474161233695,257.88555349779926L561.2339004610985,257.4685899405886L565.1009699475253,260.38730841964934L573.6492288122099,258.51099647449155L578.9410081093956,253.7158613022475L585.3522022578836,252.152194285547L588.3033868659695,253.5073733892168L592.3739863253286,250.06727739869893L595.9357608522841,250.90124792932693L595.7322308793227,255.38375328057737L600.5151852440758,257.989794190511L597.0551757036155,268.20500066904424L601.8381300683541,272.47848551558127L607.0281443790445,274.5630643337099L608.9616791222652,278.83635265865087L613.0322785816534,279.77437388303224L613.0322785816534,284.0475011706476L620.664652567968,289.9879709803754L622.8017172841355,299.1587217274973L627.4829066624225,303.639662974354L636.4382254730444,306.66161120280594L636.5399904595106,313.2263058848621L639.287645094606,318.5403545506488L640,327.81340203963555L637.3541103513853,331.4599360362736L637.2523453649192,345.73258897406413L636.0311655271071,348.6494466293152L628.3987915407633,348.85779125598856L622.292892351732,354.1704734423147L620.3593576085113,360.83708072614536L621.9875973922462,369.898986108532L613.0322785816534,379.0644491516832L613.0322785816534,385.9381491653694L609.9793289871304,389.8955796053233L609.7757990141399,394.0611739803644L596.5463507711829,396.8728795306997L591.7633964064007,395.83151374357476L589.6263316902623,388.95830364487483L589.0157417713344,380.834980192707L585.5557322308741,378.439550449526L575.5827635554015,379.8976430437615L575.2774685959594,385.0008464822822L568.5609794879856,396.35219761340704L561.6409604070504,397.081151750921L553.0927015423658,404.89113452594756L552.4821116234671,410.2016719670064L547.3938622992282,415.4078841502196L546.3762124343921,419.2603555763453L537.7261885832413,419.2603555763453L527.651454921288,422.38390265248745L519.3067260295647,420.5097828316466L514.8290666242538,427.6937715757995L509.53728732706804,431.85823272493144L506.48433773253055,439.97857319490504L503.634918110969,439.87446926665143L500.37843854348466,446.12056703335475L499.9713785975473,452.2622896677458L493.2548894895881,454.55235413047194L486.94546032756625,451.95000522946066L480.6360311655153,459.02828038713415L473.5124821116042,461.83867213135454L472.69836221975856,464.2326647795235L464.9642232469196,466.626616250338L459.87597392269527,459.54872758480633L451.73477500396257,461.5264091847166L452.2435999363952,464.54492165427655L447.66417554458894,468.91644434834234L443.89887104468653,468.81236207013353L433.62060740974266,474.6408498148703L430.8729527746764,481.30167991882627L430.36412784224376,487.02557626966154L423.5458737478184,491.0841966131702L413.57290507234575,489.1069348069541L407.67053585623216,480.78131404001033L396.272857369986,473.6000663278537L392.8128478295257,463.9204072041939L383.04340912701446,450.9090520391255L378.76927969470853,450.1803801713904L375.5128001271805,452.9909506310614L369.3051359516394,453.30323273280374L363.70806169501157,451.0131477086725L360.24805215452216,446.5369635777279L350.6821434250014,449.2435107330348L338.4703450468951,447.47385124495486L335.11210049290094,442.78934980022314L320.7632373986271,442.9975532148419L313.94498330417264,438.83342569767046L304.58260454759875,443.51806038774157L295.32199077753467,446.7451613824451L294.91493083158275,450.076283878705L298.8837653044757,466.10619552010394L298.8837653044757,476.5142404861799L300.7155350612011,482.03018888267616L290.03021148034895,492.54110840784415Z"/>

    <path name="苑裡鎮" class="town"  d="M126.59564318650519,371.0447021027758L125.4762283351738,375.8357755649631L119.16679917312285,383.64695365400985L106.85323580853583,403.3291731074096L107.87088567337196,415.1996394085909L105.12323103830568,417.0738308474647L102.4773413897201,426.54852288723123L85.48258864681702,422.4880196792765L81.61551916041935,418.1150373902892L70.11607568767795,411.03467902715784L67.97901097151043,404.16222138330704L63.806646525656106,399.37212555580845L55.4619176339329,393.54048151871393L56.78486245824024,390.41628573779235L48.23660359355563,385.0008464822822L45.59071394497005,378.5437004286505L41.82540944503853,373.6485669006288L35.00715535058407,368.3366308664772L26.86595643183682,365.73266635723485L21.065352202233043,357.60798284892735L21.37064716167515,352.7121103699428L17.80887263471959,345.6284143511075L9.972968675458105,340.2112260535105L6.716489107944653,334.37709412550976L-1.4551915228366852e-11,331.87667666688503L9.464143743025488,323.854199290603L17.80887263471959,313.95569718950355L18.419462553647463,309.4750899010796L23.60947686433792,305.5153627451873L33.98950548574794,308.53727002220694L37.44951502623735,310.62130556937336L35.414215296521434,314.7892825467243L40.90952456666855,319.6864951727257L45.59071394497005,314.89348036350566L56.683097471744986,318.5403545506488L62.17840674192121,323.12486012386216L62.788996660819976,326.3547615620664L75.61138495783962,332.60596975397493L80.59786929556867,336.1481958563527L89.24789314674854,338.44017625566266L94.84496740339091,348.6494466293152L99.22086182219209,352.81627966957603L101.15439656541275,357.81631401339837L106.85323580853583,365.94098531696363L114.58737478133116,367.9199998299882L121.71092383524228,367.9199998299882Z"/>

    <path name="通霄鎮" class="town"  d="M82.73493401175074,186.1492965531288L90.77436794400273,185.52352554936806L97.38909206549579,187.81800534083595L97.99968198439456,192.8240105053519L105.22499602478638,200.22839321925494L102.6808713626815,207.11098399502225L107.66735570041055,209.1965497602032L112.5520750516589,215.45305788473706L112.85737001110101,225.775676117486L116.72443949752778,230.3632586335516L120.896803943353,238.91243746385953L123.74622356494365,240.26774647329512L123.23739863251103,246.21009820007748L127.81682302430272,247.14834089139185L126.90093814596185,254.54980980823893L128.52917792969674,258.1982753400116L134.8386070917186,261.2212166622521L136.16155191601138,267.89230146878253L134.12625218632456,274.3546078662657L141.45333121321164,280.2954940361051L138.19685164571274,289.36267038268124L129.44506280803762,303.5354566861788L132.3962474160944,311.2465101155649L132.49801240258967,318.6445495446642L134.22801717281982,321.5619775471132L129.44506280803762,345.00336496912496L129.95388774047024,351.7745831510547L126.18858324056782,355.4204867235276L127.20623310540395,363.2328144349267L129.64859278102813,366.357622297779L126.59564318650519,371.0447021027758L121.71092383524228,367.9199998299882L114.58737478133116,367.9199998299882L106.85323580853583,365.94098531696363L101.15439656541275,357.81631401339837L99.22086182219209,352.81627966957603L94.84496740339091,348.6494466293152L89.24789314674854,338.44017625566266L80.59786929556867,336.1481958563527L75.61138495783962,332.60596975397493L62.788996660819976,326.3547615620664L62.17840674192121,323.12486012386216L56.683097471744986,318.5403545506488L45.59071394497005,314.89348036350566L40.90952456666855,319.6864951727257L35.414215296521434,314.7892825467243L37.44951502623735,310.62130556937336L33.98950548574794,308.53727002220694L23.60947686433792,305.5153627451873L30.834790904729743,298.4292524429038L36.63539513434807,291.23856369641726L39.993639688313124,284.1517221380418L43.555414215268684,284.2559430268957L43.45364922877343,277.48142187862686L45.89600890442671,273.5207788535081L46.60836380982073,266.43302918068L49.457783431353164,263.9313836996007L52.408968039409956,255.8007231292031L55.76721259337501,250.27577050335458L62.890761647286126,242.7698204689259L66.24900620129483,232.76125245572257L66.8595961201936,225.98420590324895L69.20019080932252,223.3775609362674L71.54078549845144,212.53338940207686L73.98314517410472,210.03076723751292L76.4255048497289,202.00121459354705L79.37668945775658,198.55983463581651L80.19080934963131,190.42532238104468Z"/>

    <path name="竹南鎮" class="town"  d="M312.5202734933846,31.70615130207807L302.5473048179265,41.102924672428344L293.8972809667466,40.89411448179089L283.7207823183271,43.39981578728839L276.8007632373774,40.89411448179089L264.9960248051939,43.19100909361805L266.4207346159674,48.51548049072153L263.4695500079397,51.438631812266976L269.37191922402417,55.71884816756938L260.7218953728443,64.38326771521315L258.5848306566768,68.5586962805719L259.19542057557555,73.25590161621585L254.71776117029367,96.84388129326544L255.22658610271174,103.62728490116933L253.49658133248158,98.09622716176818L247.49244712990185,98.09622716176818L245.5589123866812,90.89508253461099L245.7624423596426,85.15476935546758L243.32008268401842,83.38044220261509L236.2982986166171,84.63291080750787L230.0906344410614,87.55529313942316L224.5953251709143,87.76403235546968L218.3876609953877,83.90230550931665L210.6535220225487,77.84856923341067L202.61408809029672,75.23911784118536L210.85705199553922,65.63590962109447L218.5911909683491,59.58136783058217L224.3917951979529,52.273806464385416L234.36476387342555,43.504219014925184L236.50182858956396,32.437034548955126L239.554778184116,22.413153132827574L243.0147877245763,16.252278944808495L252.78422642708756,4.034132756325562L259.2971855620708,9.568983555858722L265.8101446970686,8.942407898110105L269.16838925106276,11.239837966633786L275.4778184130846,9.46455447857079L284.1278422642645,1.4232764466796652L290.33550643979106,10.613269950586982L294.5078708856454,22.517572342399944L293.1849260613526,27.738431399648107L300.9190650341625,29.931132909270673L308.9584989664436,29.513478182794643Z"/>

    <path name="後龍鎮" class="town"  d="M218.3876609953877,83.90230550931665L213.70647161710076,93.60860163560574L203.7335029416281,108.2189373264955L197.2205438066303,112.70608583538706L197.32230879312556,122.82772032385765L198.8487835903652,129.29682844275885L207.49880744154507,128.4621219101573L210.3482270631066,138.9999202709114L213.40117665762955,141.81681877533265L210.3482270631066,148.4936812357082L212.99411671170674,152.24927405047129L217.98060104945034,152.66655581683517L213.6047066306055,157.56952184159672L218.48942598185386,160.9076115826174L222.9670853871503,166.4361447430747L221.94943552231416,171.13000815086343L215.4364763873018,166.95769302032204L210.3482270631066,165.91459449102695L202.0034981713834,159.13426148286453L185.4158053744468,157.36088854602713L177.4781364286464,169.2524819806058L169.94752742882702,168.20940082872767L161.6027985371038,171.3386205902425L158.65161392904702,176.13661951572067L158.3463189696049,185.7321161996333L156.61631419937476,190.00815496856012L149.89982509141555,183.8547889827678L147.25393544282997,176.7624331446932L142.16568611860566,178.535556325176L131.07330259180162,176.97103705606423L122.01621879468439,181.87313806719976L117.02973445698444,188.13088598955073L110.41501033547684,191.3639444435612L105.22499602478638,200.22839321925494L97.99968198439456,192.8240105053519L97.38909206549579,187.81800534083595L90.77436794400273,185.52352554936806L82.73493401175074,186.1492965531288L82.12434409285197,183.6461954913284L86.2967085387063,175.61510598697714L87.9249483224703,166.22752487922844L91.69025282237271,161.95074803306488L94.03084751150163,155.2745382033172L101.96851645728748,147.2417941950589L108.17618063281407,144.32068015469122L116.41914453805657,133.36595026388022L124.05151852440031,132.42693283353947L127.1044681189087,127.73174953929993L134.12625218632456,121.67994355414703L135.85625695655472,110.6190582356212L139.01097153758747,108.84505986450313L141.7586261726683,102.2706309652458L154.6827794561832,89.3295663654535L166.79281284782337,82.5454567874549L181.03991095563106,80.24922071993205L187.5528700906143,77.95294625766837L202.61408809029672,75.23911784118536L210.6535220225487,77.84856923341067Z"/>

    <path name="頭份市" class="town"  d="M355.2615678168222,75.23911784118536L349.86802353314124,75.96976922959948L336.94387024962634,68.97623215182466L328.8026713308791,69.39376675312815L327.78502146604296,72.83837876070902L320.86500238509325,84.63291080750787L318.0155827635317,92.98240967679885L307.22849419621343,87.34655360617398L300.3084751152637,87.2421837205984L298.1714103990962,92.56494678540184L288.91079662901757,97.26133118426878L290.4372714262863,99.55728291668129L290.94609635871893,110.30600136299472L286.9772618857969,115.00177960409565L282.49960248050047,117.08874067826764L282.1943075210438,121.26256780839321L274.86722849418584,128.357783237454L265.91190968356386,127.3143921576484L256.54953092699,119.17567007861726L255.9389410080912,112.49738450108634L253.8018762919237,108.2189373264955L255.22658610271174,103.62728490116933L254.71776117029367,96.84388129326544L259.19542057557555,73.25590161621585L258.5848306566768,68.5586962805719L260.7218953728443,64.38326771521315L269.37191922402417,55.71884816756938L263.4695500079397,51.438631812266976L266.4207346159674,48.51548049072153L264.9960248051939,43.19100909361805L276.8007632373774,40.89411448179089L283.7207823183271,43.39981578728839L293.8972809667466,40.89411448179089L302.5473048179265,41.102924672428344L312.5202734933846,31.70615130207807L320.15264747972833,38.179553071218834L326.4620766417502,33.898789354341716L333.0768007632287,41.41613936227441L337.65622515502037,38.91040181380595L340.70917474955786,34.107610197232134L344.6780092224217,35.569347192784335L352.20861822227016,33.16791389968057L354.956272857351,39.01480845907645L351.69979328983754,41.207329648528685L352.3103832087654,46.949480945884716L343.45682938462414,59.268194610707724L345.3903641278157,63.443778783508606L351.90332326282805,61.87794960635074L354.7527428843896,64.80081628737389Z"/>
</svg>
