<?xml version="1.0" encoding="utf-8"?>
<svg version="1.1" xmlns="http://www.w3.org/2000/svg" xmlns:xlink="http://www.w3.org/1999/xlink" x="0px" y="0px"
	 viewBox="0 0 515 600" style="enable-background:new 0 0 515 600;" xml:space="preserve" data-w="515" data-h="600">
    <style type="text/css">
	.town{fill:#9CCA97;stroke:#FFFFFF;stroke-width:1.5;stroke-linecap:round;stroke-linejoin:round;}
    </style>

    <path name="南投市" class="town" d="M88.32172974341665,219.95678906910325L86.56895031681051,224.7750306084854L88.39184092047799,234.55459537471688L84.74605971311394,235.41745015004562L82.85305793239968,233.76363832795323L79.76816614154086,238.7968897695573L75.84194022593147,240.88201638236205L76.75338552777248,250.51614956593767L73.17771549748431,256.7706275390883L70.16293488371593,258.35215497512763L72.12604784152063,260.79628238537407L75.91205140300735,260.9400526442005L81.45083439110022,263.5278804139343L81.38072321402433,268.8470847056087L83.55416970301303,270.644046471647L77.94527553785883,269.0627218962436L74.79027256998233,263.59976352098965L71.2847137167555,265.1811782338809L67.07804309287167,264.5342390056867L62.66103893780382,267.55325137382897L53.54658591943735,270.9315572281339L46.67569056712091,270.140900572791L42.53913112029841,268.9908428866038L39.03357226710068,269.63775203294426L26.41356039547827,264.8936502272045L17.158885022974573,264.5342390056867L20.313887990880175,262.4496273370678L20.73455505327729,255.83607632587155L19.051886803717935,252.52912958090747L18.771442095458042,248.71881022202433L22.487334479868878,238.2216744329744L17.36921855415858,234.62650023654714L21.1552221156453,227.72338703746573L20.664443876201403,223.98399268609137L16.87844031471468,219.5252929058588L18.14044150187692,216.0732534808012L22.13677859454765,217.36778287427296L28.937562769802753,209.456496061317L30.129452779889107,211.686106805264L36.5095698927762,217.79928877619022L39.31401697536057,219.0937947950115L40.92657404784404,222.32998315624354L45.41368937995867,223.26486162345827L47.44691351483925,219.6691251766715L51.65358413869399,217.72737126113498L55.57981005430338,210.96688321725014L60.417481271753786,211.5422625207175L65.32526366626553,208.08993472787915L66.16659779103065,211.39841801965304L71.21460253967962,213.19645872059846L72.19615901858197,215.78557790129707L75.42127316353435,216.0732534808012L80.67961144339642,218.1588755398152L83.2036138177209,215.28214355371892Z"/>

    <path name="埔里鎮" class="town" d="M230.01641859070514,142.97578615114617L230.99797506962204,145.63878377302535L234.36331156871165,145.63878377302535L237.51831453661725,149.02140310576942L240.46298397330975,149.09337242458787L244.5995434201177,154.3469858300232L244.5995434201177,156.7937753755141L248.80621404400154,159.3844252352501L251.96121701187803,158.01714658620403L255.53688704218075,159.09657872890966L257.009221760527,162.47872027058838L262.33767121743585,167.37181902019438L270.04990069453197,167.1559523123251L272.5739030688419,171.90490698885696L270.89123481931165,174.42319608022808L270.89123481931165,177.9486891010929L274.18646014132537,182.04960888201822L277.90235252575076,182.33738610714136L285.96513788815355,179.3876283983882L290.3821420432214,182.8409941625432L299.2862615304184,183.12876900075207L301.1091521340859,183.84820229910474L304.1940439249156,180.03514400099084L307.90993630935554,181.25821703721522L307.3490468928212,184.3518023804827L312.67749634973006,188.52438653398713L315.13138754697866,194.8548555520174L310.1534939754056,200.89718444241225L309.6627157359617,203.1989234621069L304.8951556955726,206.86720538723966L306.4376015909802,208.73725569069939L301.38959684233123,215.78557790129707L301.4597080194071,219.8129572310936L299.4264838845411,224.05590549489352L293.11647794874443,223.1210347619126L289.12014085605915,223.76825393517356L286.94669436707045,215.42598220932268L281.54813373310026,209.6003434857521L279.7953543064941,206.0040929011011L275.8691283908847,206.29179792959258L273.4853483706829,207.8741600989888L269.8395671633334,206.79527964457156L269.4890112780122,216.36092819449186L271.7325689440768,221.2512658738233L276.99090722390974,221.6827542472529L277.90235252575076,223.19294821973017L274.95768308902916,227.1481051156734L271.66245776701544,227.1481051156734L265.913341247724,233.8355437842256L270.7510124651744,237.21503927393132L274.11634896426403,238.2216744329744L273.62557072482014,247.78418042955673L270.47056775691453,244.40505813017808L269.6292336321494,238.86879144353225L266.5443418412906,237.64645563874728L262.54800474861986,238.29357653913758L260.2343359055085,241.3134162166789L255.88744292750198,242.32000826833973L258.3413341247651,247.20901909929307L259.5332241348515,254.68584693043886L262.12733768625185,259.71799856729194L257.49999999998545,255.47663112362716L258.69189001008635,252.74480350144586L248.87632522104832,243.61418249456256L246.07187813846394,242.89519897359423L244.24898753479647,235.63316262802982L236.95742512009747,232.9726747419336L229.87619623659702,231.96598435611304L223.77652383196983,235.1298327562181L220.13074262462032,238.7249880415693L211.78751255395764,235.77697067651388L206.8797301594459,239.5159040782346L200.7800577548187,235.92077850886199L198.8870559740899,233.18839273211051L195.80216418324562,231.89407749461316L194.3999406419607,234.7703097980775L189.70249177864753,237.35884494498168L186.68771116487915,237.8621630917878L185.9164882171608,224.55929364224357L187.31871175844572,220.6040296623505L186.33715527955792,217.0801111908404L190.26338119515276,211.4703402972591L190.75415943459666,207.94608502943083L194.18960711076215,205.14097261674397L200.14905716123758,202.9831377853552L205.687840149345,203.63049335314645L204.6361724933813,195.2145286885716L203.16383777503506,190.6106102032827L203.16383777503506,187.22946614765533L205.47750661814644,183.56042963070286L204.77639484750398,180.32292730252811L201.62139187959838,177.66089863689558L200.3593906924507,174.0634445670912L193.7689400483796,172.1207629453238L192.7172723924159,168.30723577289245L197.27449890162097,165.4290010523655L202.0420589419955,159.24050209075722L202.39261482731672,152.90766850773798L205.96828485759033,150.31684252414198L209.89451077321428,151.10849127317852L212.48862432458554,146.64638507459313L222.09385558243957,147.1501817275166L225.1787473732693,149.30928005473834L227.14186033105943,148.08579701229246L228.12341680997633,142.83183821201237Z"/>

    <path name="草屯鎮" class="town" d="M156.25946031887725,204.20591684136525L151.84245616382395,205.3567534189424L140.55455665643967,204.63748218274122L136.20766367844772,205.78831356111914L134.59510660596425,209.74419069361466L131.36999246101186,211.7580288663412L128.07476713896904,211.32649568792112L122.60609532793751,214.5629470286076L119.59131471415458,212.26148177818322L115.94553350681963,213.84374509150803L112.58019700771547,208.5934069668583L107.95285932146362,206.3637240513308L99.25907336546516,211.7580288663412L98.3476280636387,215.92941579928447L93.93062390857085,215.28214355371892L90.9859544718638,220.67594501333224L88.32172974341665,219.95678906910325L83.2036138177209,215.28214355371892L80.67961144339642,218.1588755398152L75.42127316353435,216.0732534808012L72.19615901858197,215.78557790129707L71.21460253967962,213.19645872059846L66.16659779103065,211.39841801965304L65.32526366626553,208.08993472787915L60.417481271753786,211.5422625207175L55.57981005430338,210.96688321725014L51.65358413869399,217.72737126113498L47.44691351483925,219.6691251766715L45.41368937995867,223.26486162345827L40.92657404784404,222.32998315624354L39.31401697536057,219.0937947950115L36.5095698927762,217.79928877619022L30.129452779889107,211.686106805264L28.937562769802753,209.456496061317L28.937562769802753,200.537532709659L31.181120435867342,193.4880852754468L27.956006290900405,190.03510477998861L22.627556833991548,186.9417036757659L21.716111532150535,183.48848632799127L23.118335073449998,179.31568194902138L25.361892739500036,176.29388207418742L28.65711806154286,175.574391803264L42.04835288086906,176.58167666289592L46.39524585886102,177.9486891010929L50.60191648271575,171.7610027464143L61.46914892771747,177.01336691778488L69.25148958187492,178.45232032415515L78.01538671493472,175.1426950354762L86.42872796267329,175.64634107459642L94.49151332507608,180.68265520867135L96.17418157463544,183.41654297103014L99.53951807372505,180.1790357602731L104.09674458291556,177.9486891010929L107.39196990495839,177.66089863689558L112.72041936183814,175.574391803264L113.14108642423525,172.33661841319918L116.50642292332486,168.0913711830326L118.82009176646534,167.37181902019438L123.30720709857997,170.609760988762L130.94932539861475,170.4658547917461L135.15599602248403,176.00608661711158L139.36266664635332,176.86947038323342L138.24088781331375,180.82654599133093L142.6578919683816,181.7618307888879L149.10812025830091,186.00646964953557L153.66534676750598,187.8769285370072L154.997459131715,192.55291539076643L156.75023855835025,194.99872496923854L155.2077926629281,200.89718444241225Z"/>

    <path name="竹山鎮" class="town" d="M108.30341520678485,317.927982964251L104.8679675306339,325.3993016993336L105.49896812421503,331.79256536454704L101.0118527920713,337.53895652741267L94.98229156454909,339.19098045657665L92.38817801316327,342.06399798841085L86.56895031681051,342.6385912008518L85.6575050149695,346.01425703938366L82.64272440118657,345.5833275677396L78.57627613143995,346.73246853784804L77.94527553785883,349.0307093201627L74.29949433050933,350.2516274177069L76.33271846537536,354.1297351419271L79.20727672503563,355.63784596239566L82.29216851586534,360.4492797543935L84.60583735899127,359.3721139673835L87.3401732645143,362.7471931740729L91.9675109507516,364.4705922669709L92.03762212782749,370.4304431575147L84.67594853606715,373.94873632225426L85.72761619201628,377.1079105507306L89.02284151405911,380.6977556079182L87.48039561863698,383.21056762801163L89.5837309305789,385.86689771474994L87.41028444157564,394.33794830125044L89.7940644617629,397.6400207962906L88.25161856634077,401.7315625994852L86.3586167855974,403.38248650098103L91.54684388838359,410.9907274904617L104.23696693705278,419.96193976332506L107.39196990495839,420.0337061027785L108.58385991504474,423.69371874428543L110.96763993524655,424.4831150636019L112.86064171597536,434.38590302379816L117.0673123398592,435.6057415214127L119.24075882883335,437.7583601608858L124.00831886922242,436.96907222275695L132.70210482522089,441.99170373535526L135.3663295536826,441.84820359685546L141.67633548947924,447.51629723918813L142.5877807913057,455.7667263120711L143.91989315554383,461.36226935361265L148.407008487673,464.8055197611757L148.96789790417824,468.10518654868065L146.9346737693122,471.97856503397634L144.97156081152207,472.5523857150256L142.02689137478592,477.7166189551899L135.08588484540815,480.87240382166055L129.26665714906994,480.442075571038L126.5323212435469,477.7166189551899L118.82009176646534,477.21455279912334L108.5137487379834,469.39632991596955L104.30707811409957,469.1811405496592L100.80151926088729,467.4596084122495L96.384515105834,469.1811405496592L93.2295121379284,469.25287039153045L89.23317504524312,471.33301270602533L85.86783854615351,470.40054063931166L85.79772736909217,465.09245176988406L81.10027850576444,462.22309343186134L77.5947196525376,456.34064304477215L73.80871609106543,457.847158282224L74.50982786170789,462.8687064694059L68.34004428003391,465.66631323743786L62.801261291941046,463.65778322645565L59.22559126166743,463.370846967704L55.50969887722749,464.9489858717752L53.82703062769724,470.40054063931166L49.90080471208785,470.25708260178726L44.08157701573509,471.5481972932066L38.6830163817649,470.68745607717574L37.0003481322201,468.3921087839881L32.02245456064702,466.455367204333L33.5649004560546,457.1297729973776L27.815783936777734,455.55150666018017L23.468890958785778,460.14275547768557L21.22533329272119,463.7295171583246L18.21055267895281,462.3665633676974L16.668106783530675,456.4123823971495L16.948551491761464,452.39489679436883L21.1552221156453,446.5118491544854L20.944888584461296,440.2696880242911L24.73089214594802,430.79805354770724L27.325005697319284,428.4299999584837L28.937562769802753,424.8419294410305L28.516895707405638,421.2537257187432L29.9191192487051,417.0912424748858L28.587006884481525,415.65586184418135L28.79734041566553,410.56008834439126L26.62389392669138,404.60271645706234L28.16633982208441,402.09046150151335L25.361892739500036,400.3677346022814L24.52055861473491,397.209322095634L24.17000272941368,384.7900159569326L27.465228051456506,377.39510307422825L35.03723517442995,378.4720674179225L34.12578987257439,375.02573916809706L34.19590104963572,368.70715066346384L35.107346351476735,364.6860149858694L30.05934160282777,350.3234456471L25.992893333081156,344.00323633003063L26.063004510157043,341.0584516104318L42.39890876619029,335.2404412576543L48.07791410839127,330.64324593191486L53.96725298183446,329.4939127631769L62.801261291941046,325.11195402401063L71.63526960207673,313.25811378804065L83.90472558834881,305.28288928043185L91.68706624250626,309.9531461365186L96.24429275171133,311.03086547238127L101.9934092709882,313.9047245957372Z"/>

    <path name="集集鎮" class="town" d="M161.16724271340354,289.4741803072575L160.60635329688375,292.9954363165525L164.9532462748757,299.17528759728884L161.3074650675262,301.3309560818816L156.25946031887725,302.19320992437133L152.89412381978764,307.65397114033476L152.12290087208385,314.33579604996703L144.41067139500228,315.4134662245524L140.414334302317,317.35324208172096L137.46966486560996,318.718246065353L132.00099305459298,319.0056128546057L119.87175942241447,316.92218416402466L113.9123093719536,318.6464042337793L108.30341520678485,317.927982964251L101.9934092709882,313.9047245957372L96.24429275171133,311.03086547238127L91.68706624250626,309.9531461365186L83.90472558834881,305.28288928043185L86.07817207733751,300.18127224654745L82.92316910944646,296.37284620240825L82.222057338804,293.4266016429865L86.49883913974918,292.4205462014543L89.72395328468701,289.40231659431447L90.14462034708413,286.9589183289354L92.80884507554583,286.24025993802206L96.66495981407934,288.0368958221152L101.9934092709882,287.318245505714L103.67607752054755,291.3426179534654L106.34030224898015,293.71404411783806L109.91597227928287,294.14520621600604L114.68353231965739,296.9477126455131L123.58765180685441,291.4144802133487L126.3219877123629,293.3547408897648L131.08954775273742,292.4205462014543L140.62466783351556,293.2828800827265L145.60256140508864,289.76163462081604L149.4586761436367,291.1988932722743L153.24467970510887,288.6118121997133Z"/>

    <path name="名間鄉" class="town" d="M83.55416970301303,270.644046471647L86.00806090027618,278.9815083764661L90.14462034708413,286.9589183289354L89.72395328468701,289.40231659431447L86.49883913974918,292.4205462014543L82.222057338804,293.4266016429865L82.92316910944646,296.37284620240825L86.07817207733751,300.18127224654745L83.90472558834881,305.28288928043185L71.63526960207673,313.25811378804065L62.801261291941046,325.11195402401063L53.96725298183446,329.4939127631769L53.75691945062135,326.4768478329097L50.74213883685297,326.1176671302601L50.60191648271575,318.43087841683155L47.727358223099145,315.6289988090648L43.02990935977141,318.21535211653827L31.601787498249905,321.088996380975L30.26967513404088,318.5745623484945L24.310225083550904,315.48531047309734L23.118335073449998,309.0909619621416L20.594332699125516,305.9295537748949L17.64966326241847,304.85177719837156L15.195772065155325,300.97168136216715L10.007544962398242,299.6064251662683L14.564771471588756,291.98937635515904L15.686550304628327,288.5399478408981L12.671769690845395,285.66532934928546L10.848879087163368,281.8563271661151L14.704993825711426,276.1066034066098L14.073993232130306,273.3753638441085L17.158885022974573,264.5342390056867L26.41356039547827,264.8936502272045L39.03357226710068,269.63775203294426L42.53913112029841,268.9908428866038L46.67569056712091,270.140900572791L53.54658591943735,270.9315572281339L62.66103893780382,267.55325137382897L67.07804309287167,264.5342390056867L71.2847137167555,265.1811782338809L74.79027256998233,263.59976352098965L77.94527553785883,269.0627218962436Z"/>

    <path name="鹿谷鄉" class="town" d="M140.414334302317,317.35324208172096L141.39589078121935,321.3045162372764L144.27044904086506,322.238430030513L141.25566842709668,326.26133957233833L139.71322253167455,330.93057707778644L142.72800314544293,334.80946353008767L141.95678019772458,338.4008855949796L143.77967080142116,347.0197516366279L143.35900373902405,350.68253599042873L148.05645260235178,352.6216007001458L149.59889849775936,355.7096601742269L154.997459131715,358.1513115118978L154.787125600531,361.59824331649725L156.18934914183046,364.75782245178925L153.17456852804753,368.70715066346384L153.17456852804753,377.3233050235649L151.6321226326254,381.1285280332486L152.89412381978764,388.4513648803695L156.04912678769324,393.6918774227779L160.3960197656852,396.49148665650864L155.698570902372,397.4246716862217L151.84245616382395,402.80825530266884L153.10445735100075,405.8947078367419L149.80923202895792,408.119763577899L147.705896717016,411.277819187766L138.24088781331375,422.8325517696612L138.17077663626696,438.61939420212366L135.3663295536826,441.84820359685546L132.70210482522089,441.99170373535526L124.00831886922242,436.96907222275695L119.24075882883335,437.7583601608858L117.0673123398592,435.6057415214127L112.86064171597536,434.38590302379816L110.96763993524655,424.4831150636019L108.58385991504474,423.69371874428543L107.39196990495839,420.0337061027785L104.23696693705278,419.96193976332506L91.54684388838359,410.9907274904617L86.3586167855974,403.38248650098103L88.25161856634077,401.7315625994852L89.7940644617629,397.6400207962906L87.41028444157564,394.33794830125044L89.5837309305789,385.86689771474994L87.48039561863698,383.21056762801163L89.02284151405911,380.6977556079182L85.72761619201628,377.1079105507306L84.67594853606715,373.94873632225426L92.03762212782749,370.4304431575147L91.9675109507516,364.4705922669709L87.3401732645143,362.7471931740729L84.60583735899127,359.3721139673835L82.29216851586534,360.4492797543935L79.20727672503563,355.63784596239566L76.33271846537536,354.1297351419271L74.29949433050933,350.2516274177069L77.94527553785883,349.0307093201627L78.57627613143995,346.73246853784804L82.64272440118657,345.5833275677396L85.6575050149695,346.01425703938366L86.56895031681051,342.6385912008518L92.38817801316327,342.06399798841085L94.98229156454909,339.19098045657665L101.0118527920713,337.53895652741267L105.49896812421503,331.79256536454704L104.8679675306339,325.3993016993336L108.30341520678485,317.927982964251L113.9123093719536,318.6464042337793L119.87175942241447,316.92218416402466L132.00099305459298,319.0056128546057L137.46966486560996,318.718246065353Z"/>

    <path name="中寮鄉" class="town" d="M156.25946031887725,204.20591684136525L157.38123915193137,214.20334673657635L151.4217891014414,216.7205203690537L152.61367911152774,221.32318073795614L152.19301204915973,228.87394050025978L158.1524620996206,229.66493797752264L160.95690918220498,230.95928337639634L161.868354484046,234.1231650689333L161.44768742166343,240.9539164897833L162.35913272350444,245.33972091183023L164.4624680354318,249.4377500080991L162.49935507761256,251.95399675151566L165.79458039966994,253.67938487794163L166.63591452443507,258.4240419654743L168.59902748223976,261.87455406802474L169.861028669402,263.81541251860835L165.23369098315015,272.51285097539585L164.81302392075304,277.6159392625086L166.00491393085395,280.05957552084146L164.53257921249315,287.67757133676787L161.16724271340354,289.4741803072575L153.24467970510887,288.6118121997133L149.4586761436367,291.1988932722743L145.60256140508864,289.76163462081604L140.62466783351556,293.2828800827265L131.08954775273742,292.4205462014543L126.3219877123629,293.3547408897648L123.58765180685441,291.4144802133487L114.68353231965739,296.9477126455131L109.91597227928287,294.14520621600604L106.34030224898015,293.71404411783806L103.67607752054755,291.3426179534654L101.9934092709882,287.318245505714L96.66495981407934,288.0368958221152L92.80884507554583,286.24025993802206L90.14462034708413,286.9589183289354L86.00806090027618,278.9815083764661L83.55416970301303,270.644046471647L81.38072321402433,268.8470847056087L81.45083439110022,263.5278804139343L75.91205140300735,260.9400526442005L72.12604784152063,260.79628238537407L70.16293488371593,258.35215497512763L73.17771549748431,256.7706275390883L76.75338552777248,250.51614956593767L75.84194022593147,240.88201638236205L79.76816614154086,238.7968897695573L82.85305793239968,233.76363832795323L84.74605971311394,235.41745015004562L88.39184092047799,234.55459537471688L86.56895031681051,224.7750306084854L88.32172974341665,219.95678906910325L90.9859544718638,220.67594501333224L93.93062390857085,215.28214355371892L98.3476280636387,215.92941579928447L99.25907336546516,211.7580288663412L107.95285932146362,206.3637240513308L112.58019700771547,208.5934069668583L115.94553350681963,213.84374509150803L119.59131471415458,212.26148177818322L122.60609532793751,214.5629470286076L128.07476713896904,211.32649568792112L131.36999246101186,211.7580288663412L134.59510660596425,209.74419069361466L136.20766367844772,205.78831356111914L140.55455665643967,204.63748218274122L151.84245616382395,205.3567534189424Z"/>

    <path name="魚池鄉" class="town" d="M262.12733768625185,259.71799856729194L259.18266824953025,267.1938501264558L254.90588644859963,268.487688309815L256.5184435210831,275.172240732667L259.0424458954076,276.89721086546706L264.6513400605618,286.88705273208325L263.24911651927687,291.1988932722743L263.1088941651542,301.3309560818816L251.4704387724487,302.33691814533086L246.21210049261572,299.31900033541024L243.61798694121535,302.1213557332485L239.83198337972863,296.44470469607404L233.38175508979475,292.9235752404893L234.29320039163576,296.15727039866033L227.28208268519666,298.16929240674654L226.5809709145542,301.5465202684245L223.07541206132737,308.6598669728919L211.99784608514165,309.8812977508969L209.75428841907706,310.88717025950245L207.7911754612578,318.14350990902676L204.28561660806008,321.1608363867708L199.09738950528845,320.1550714193363L196.1527200685814,322.6694641054819L192.15638297589612,323.1723347501247L187.94971235202684,320.72979554658014L181.77992877035285,320.0832306617922L178.62492580244725,313.832879165333L181.49948406209296,310.95901789281197L183.0419299575151,306.1451076387784L189.00138000799052,300.68426061845093L188.1600458832254,297.9537206372588L183.9533752593561,296.01355292718654L180.44781640614383,292.8517141106204L179.95703816667083,286.81518708141084L181.14892817677173,285.23412914662913L181.56959523916885,277.83155673118017L185.0050429153198,272.3690980761967L180.37770522906794,262.9528136162153L179.67659345841093,256.33929734292906L177.22270226116234,250.8756133863426L185.07515409239568,248.9344927246566L184.09359761349333,244.11746774598578L186.47737763366604,241.38531600001443L186.68771116487915,237.8621630917878L189.70249177864753,237.35884494498168L194.3999406419607,234.7703097980775L195.80216418324562,231.89407749461316L198.8870559740899,233.18839273211051L200.7800577548187,235.92077850886199L206.8797301594459,239.5159040782346L211.78751255395764,235.77697067651388L220.13074262462032,238.7249880415693L223.77652383196983,235.1298327562181L229.87619623659702,231.96598435611304L236.95742512009747,232.9726747419336L244.24898753479647,235.63316262802982L246.07187813846394,242.89519897359423L248.87632522104832,243.61418249456256L258.69189001008635,252.74480350144586L257.49999999998545,255.47663112362716Z"/>

    <path name="國姓鄉" class="town" d="M239.06076043202484,90.20427127904986L238.00909277606115,96.25324394434938L231.62897566320316,105.90199824157025L229.9463074136438,114.25386013319803L232.1898650797084,118.06955282750641L225.8097479668504,127.7160930481732L230.2267521219037,136.3539556691976L230.01641859070514,142.97578615114617L228.12341680997633,142.83183821201237L227.14186033105943,148.08579701229246L225.1787473732693,149.30928005473834L222.09385558243957,147.1501817275166L212.48862432458554,146.64638507459313L209.89451077321428,151.10849127317852L205.96828485759033,150.31684252414198L202.39261482731672,152.90766850773798L202.0420589419955,159.24050209075722L197.27449890162097,165.4290010523655L192.7172723924159,168.30723577289245L193.7689400483796,172.1207629453238L200.3593906924507,174.0634445670912L201.62139187959838,177.66089863689558L204.77639484750398,180.32292730252811L205.47750661814644,183.56042963070286L203.16383777503506,187.22946614765533L203.16383777503506,190.6106102032827L204.6361724933813,195.2145286885716L205.687840149345,203.63049335314645L200.14905716123758,202.9831377853552L194.18960711076215,205.14097261674397L190.75415943459666,207.94608502943083L190.26338119515276,211.4703402972591L186.33715527955792,217.0801111908404L187.31871175844572,220.6040296623505L185.9164882171608,224.55929364224357L186.68771116487915,237.8621630917878L186.47737763366604,241.38531600001443L184.09359761349333,244.11746774598578L185.07515409239568,248.9344927246566L177.22270226116234,250.8756133863426L173.36658752261428,258.7834761079939L168.59902748223976,261.87455406802474L166.63591452443507,258.4240419654743L165.79458039966994,253.67938487794163L162.49935507761256,251.95399675151566L164.4624680354318,249.4377500080991L162.35913272350444,245.33972091183023L161.44768742166343,240.9539164897833L161.868354484046,234.1231650689333L160.95690918220498,230.95928337639634L158.1524620996206,229.66493797752264L152.19301204915973,228.87394050025978L152.61367911152774,221.32318073795614L151.4217891014414,216.7205203690537L157.38123915193137,214.20334673657635L156.25946031887725,204.20591684136525L155.2077926629281,200.89718444241225L156.75023855835025,194.99872496923854L154.997459131715,192.55291539076643L153.66534676750598,187.8769285370072L149.10812025830091,186.00646964953557L142.6578919683816,181.7618307888879L138.24088781331375,180.82654599133093L139.36266664635332,176.86947038323342L135.15599602248403,176.00608661711158L130.94932539861475,170.4658547917461L123.30720709857997,170.609760988762L118.82009176646534,167.37181902019438L122.53598415087617,163.3422265370573L124.28876357748231,159.81619336453878L126.95298830594402,159.60030954441754L127.09321066006669,156.14610190494204L130.80910304447752,151.9721005866886L130.66888069035485,149.9570000086096L135.0157736683468,143.4076286627933L134.87555131422414,140.67259300814476L137.39955368854862,134.69842606933162L140.69477901056234,133.33079293930132L142.8682254995656,130.5234844081424L145.7427837592113,131.5312457175969L152.5435679344664,129.29975989719242L151.9125673408853,125.26855606315439L151.98267851796118,112.23796065803253L154.64690324640833,109.43002942967723L153.24467970510887,106.55001378900852L156.04912678769324,102.51784524933828L157.2410167977796,95.53314835415586L161.23735389046487,92.79673531618391L163.06024449413235,89.91621535012382L169.15991689875955,89.98822941428443L171.47358574187092,95.31711861245276L177.08247990702512,96.68529867791949L181.8500399474142,95.74917760446988L186.1268217483448,102.44584068462427L187.8796011749655,107.77403110032901L184.7245982070599,114.68583303068954L185.6360435089009,118.71748543493959L188.23015706030128,116.77367436726854L191.45527120525367,111.22999488895948L194.6803853502206,109.14203179289325L194.54016299608338,106.33400909751435L196.50327595390263,103.30989185962608L196.99405419334653,95.89319683169379L203.7247271915403,97.40538553315855L205.19706190988654,100.21367211071265L210.2450666585355,102.51784524933828L213.890847865885,102.58984975946805L218.79863026039675,99.42159968697524L222.0237444053637,99.06156458384794L234.36331156871165,87.46770466788803Z"/>

    <path name="水里鄉" class="town" d="M223.07541206132737,308.6598669728919L222.7248561759916,317.71245553611516L223.77652383196983,321.1608363867708L223.00530088426603,331.2897398028799L225.45919208152918,332.1517248704695L225.10863619620795,336.46153433299696L222.79496735306748,340.69932535733824L220.55140968701744,339.47828607028714L214.4517372824048,338.47271266869575L211.9277349080803,336.3897057576505L208.2819537007308,335.886904228435L205.26717308694788,340.9866264670418L192.15638297589612,340.91480127003524L186.82793351900182,342.5667672369418L182.9718187804683,342.2794708451511L182.2707070098113,345.87061409655144L185.21537644651835,350.2516274177069L186.54748881074192,354.56062635799753L188.58071294560796,355.63784596239566L186.68771116487915,366.1939605312582L186.54748881074192,370.8612614660233L188.7910464768065,373.51793181446556L190.47371472635132,380.4105729218936L193.20805063187436,384.1438811306689L186.96815587310994,390.38966981458725L184.30393114467734,388.81031317684756L180.5179275831906,388.8821026758742L178.97548168776848,386.7283944642004L175.39981165749487,386.3694384203736L167.89791571158275,391.8254261401926L163.3406892024068,392.3997226880347L163.48091155652946,395.34293884771614L160.3960197656852,396.49148665650864L156.04912678769324,393.6918774227779L152.89412381978764,388.4513648803695L151.6321226326254,381.1285280332486L153.17456852804753,377.3233050235649L153.17456852804753,368.70715066346384L156.18934914183046,364.75782245178925L154.787125600531,361.59824331649725L154.997459131715,358.1513115118978L149.59889849775936,355.7096601742269L148.05645260235178,352.6216007001458L143.35900373902405,350.68253599042873L143.77967080142116,347.0197516366279L141.95678019772458,338.4008855949796L142.72800314544293,334.80946353008767L139.71322253167455,330.93057707778644L141.25566842709668,326.26133957233833L144.27044904086506,322.238430030513L141.39589078121935,321.3045162372764L140.414334302317,317.35324208172096L144.41067139500228,315.4134662245524L152.12290087208385,314.33579604996703L152.89412381978764,307.65397114033476L156.25946031887725,302.19320992437133L161.3074650675262,301.3309560818816L164.9532462748757,299.17528759728884L160.60635329688375,292.9954363165525L161.16724271340354,289.4741803072575L164.53257921249315,287.67757133676787L166.00491393085395,280.05957552084146L164.81302392075304,277.6159392625086L165.23369098315015,272.51285097539585L169.861028669402,263.81541251860835L168.59902748223976,261.87455406802474L173.36658752261428,258.7834761079939L177.22270226116234,250.8756133863426L179.67659345841093,256.33929734292906L180.37770522906794,262.9528136162153L185.0050429153198,272.3690980761967L181.56959523916885,277.83155673118017L181.14892817677173,285.23412914662913L179.95703816667083,286.81518708141084L180.44781640614383,292.8517141106204L183.9533752593561,296.01355292718654L188.1600458832254,297.9537206372588L189.00138000799052,300.68426061845093L183.0419299575151,306.1451076387784L181.49948406209296,310.95901789281197L178.62492580244725,313.832879165333L181.77992877035285,320.0832306617922L187.94971235202684,320.72979554658014L192.15638297589612,323.1723347501247L196.1527200685814,322.6694641054819L199.09738950528845,320.1550714193363L204.28561660806008,321.1608363867708L207.7911754612578,318.14350990902676L209.75428841907706,310.88717025950245L211.99784608514165,309.8812977508969Z"/>

    <path name="信義鄉" class="town" d="M427.2391596730886,317.06587035143093L427.02882614187547,321.448195873003L422.3313772785623,324.106230396741L420.8590425602015,331.79256536454704L421.9808213932265,336.9643328587372L424.15426788222976,337.6826119082907L422.82215551802074,341.41757652315573L411.53425601063645,348.52797383789584L408.30914186568407,348.8870708788709L407.25747420970583,351.83161608836235L412.5158124895388,361.8854820656452L416.2317048739642,362.7471931740729L418.1948178317689,365.475894167419L423.45315611160186,365.8349280182956L425.62660260059056,367.0556331039079L423.1026002262661,371.72289230550814L422.8922666950675,377.46690107142786L423.66348964278586,382.13365620864715L426.117380840049,383.06698013359346L430.25394028685696,391.8972133956195L430.1838291097811,396.3479189279533L431.51594147400465,397.85536942584804L430.25394028685696,404.67449420949197L430.25394028685696,414.2922304905733L426.81849261069146,418.5983691860456L425.69671377766645,422.04314196843916L428.01038262079237,426.2771736306022L427.58971555839526,433.02253590518376L425.27604671526933,435.6057415214127L424.084156705183,442.92444944734234L420.01770843543636,449.52516213251874L420.3682643207576,458.56453825196877L417.14315017579065,465.88151041129095L415.3202595721232,467.53133952874487L414.40881427028216,473.0544760235862L412.5158124895388,478.36212876322315L407.8183636262256,481.5178926161134L403.6818041794031,481.08756723067563L399.9659117949923,478.00351273391425L396.46035294178,482.2350973472858L392.53412702615606,483.45433321450764L389.9400134747848,485.74932384550993L389.30901288120367,490.91285419643464L384.0506746013707,489.90885593534404L382.92889576833113,488.33112338448336L372.06166332334396,488.18769187990983L371.08010684442706,492.2754066434609L371.08010684442706,497.7254250687547L376.75911218665715,502.1712660222256L374.5856656976539,508.33774054709284L370.58932860498317,508.12263756407265L368.13543740773457,513.2132803535824L370.3088838967233,518.5187367493781L367.6446591682761,527.121563724977L370.51921742792183,532.2112111248061L367.71477034533746,532.2112111248061L361.82543147192337,537.0855532000423L360.0025408682559,541.0278570351984L356.9877602544875,539.3792766906154L353.762646109506,539.7376660991868L349.7663090168353,536.7988339596377L342.40463542507496,538.3041005405576L338.4082983323897,538.3041005405576L334.2717388855817,536.2970732546455L330.5558465011709,541.3145638078822L324.17572938829835,541.457916877298L314.5704981304734,538.6624939113317L314.71072048461065,541.3862403689927L312.88782988091407,547.765242797399L310.7844945689867,549.4853516293442L310.2236051524669,552.7104737388199L303.9135992166557,557.0821353138926L304.8250445184967,559.8053662334187L302.09070861298824,562.241876703536L301.1792633111472,565.108281558636L298.5851497597614,566.6847682684311L294.5888126670907,571.1991117896432L298.23459387445473,574.351862564472L301.81026390472834,576.0715018088576L302.7918203836307,578.5076054605233L308.12026984053955,580.4421149832815L304.1940439249156,585.2423987071306L303.4228209772118,588.4663371897368L290.87292028267984,592.6214784640742L286.1053602423053,597.2062565219694L282.9503572743997,597.4211627066052L278.46324194227054,600.0000000000018L275.3082389743504,595.7018999740521L275.3783501514263,591.8334480326448L278.8839090046531,588.03648488414L273.90601543308003,580.298819298303L267.94656538259005,580.2271713768259L257.009221760527,576.6447081466904L253.99444114675862,574.925079017883L248.2453246274672,575.1400343185705L245.5810998990346,573.2054195410474L232.6105321421055,576.5730575388534L226.16030385215709,572.2739246516867L221.25252145764534,573.9219480114443L212.27829079340154,570.2675977174276L208.1417313465936,569.980976210918L191.735715913499,570.3392529622797L187.38882293550705,576.2148037094012L182.20059583273542,575.5699434973867L175.7503675428161,571.9156550151747L165.72446922259405,572.8471533298307L160.74657565102098,572.2739246516867L159.06390740146162,573.5636844349101L154.787125600531,570.9841477942955L151.00112203904428,564.6066667994019L149.94945438309514,556.150486195007L148.12656377941312,553.1404819448908L148.96789790417824,549.2703396882571L148.407008487673,544.2532595043085L146.16345082160842,541.6012697354417L144.97156081152207,535.0068195525309L140.1338895940571,526.8348150958591L138.5213325215882,525.5444357948181L138.6615548756963,518.4470433241731L142.1671137289377,510.9189391739674L146.72434023811365,506.04328415750206L147.495563185832,499.9483710043496L145.9531172903953,497.0083348715525L148.75756437299424,487.9008282343857L144.13022668672784,481.66133398679085L145.3221166968433,479.7248575750382L142.02689137478592,477.7166189551899L144.97156081152207,472.5523857150256L146.9346737693122,471.97856503397634L148.96789790417824,468.10518654868065L148.407008487673,464.8055197611757L143.91989315554383,461.36226935361265L142.5877807913057,455.7667263120711L141.67633548947924,447.51629723918813L135.3663295536826,441.84820359685546L138.17077663626696,438.61939420212366L138.24088781331375,422.8325517696612L147.705896717016,411.277819187766L149.80923202895792,408.119763577899L153.10445735100075,405.8947078367419L151.84245616382395,402.80825530266884L155.698570902372,397.4246716862217L160.3960197656852,396.49148665650864L163.48091155652946,395.34293884771614L163.3406892024068,392.3997226880347L167.89791571158275,391.8254261401926L175.39981165749487,386.3694384203736L178.97548168776848,386.7283944642004L180.5179275831906,388.8821026758742L184.30393114467734,388.81031317684756L186.96815587310994,390.38966981458725L193.20805063187436,384.1438811306689L190.47371472635132,380.4105729218936L188.7910464768065,373.51793181446556L186.54748881074192,370.8612614660233L186.68771116487915,366.1939605312582L188.58071294560796,355.63784596239566L186.54748881074192,354.56062635799753L185.21537644651835,350.2516274177069L182.2707070098113,345.87061409655144L182.9718187804683,342.2794708451511L186.82793351900182,342.5667672369418L192.15638297589612,340.91480127003524L205.26717308694788,340.9866264670418L208.2819537007308,335.886904228435L211.9277349080803,336.3897057576505L214.4517372824048,338.47271266869575L220.55140968701744,339.47828607028714L222.79496735306748,340.69932535733824L225.10863619620795,336.46153433299696L225.45919208152918,332.1517248704695L223.00530088426603,331.2897398028799L223.77652383196983,321.1608363867708L222.7248561759916,317.71245553611516L223.07541206132737,308.6598669728919L226.5809709145542,301.5465202684245L227.28208268519666,298.16929240674654L234.29320039163576,296.15727039866033L233.38175508979475,292.9235752404893L239.83198337972863,296.44470469607404L243.61798694121535,302.1213557332485L246.21210049261572,299.31900033541024L251.4704387724487,302.33691814533086L263.1088941651542,301.3309560818816L267.8764542055287,305.64214787047604L271.10156835049565,311.4619498213833L275.65879485968617,312.25226610389655L277.13112957804697,315.1979331565708L280.91713313951914,315.2697775662782L286.94669436707045,317.2813992297124L292.83603324048454,318.287194270335L294.0980344276468,319.86770806696586L299.98737330106087,321.73555450015556L305.59626746621507,321.87923349157063L307.83982513227966,323.02865769152413L314.079719891015,323.67520276413416L322.0022828992951,320.2987527733385L328.45251118922897,319.0056128546057L331.81784768833313,319.6521849888304L334.34185006264306,317.927982964251L344.22752602874243,314.33579604996703L343.31608072688687,307.29472007571167L349.27553077737684,302.9836024780707L357.82909437925264,301.4028108645034L363.5782108985295,296.37284620240825L368.20554858478135,294.50450648492915L370.02843918847793,292.4205462014543L370.72955095910584,287.9650310326979L372.6926639169251,284.8029270058141L375.4269998224336,283.94051690947526L382.508228705934,285.52159616374047L389.65956876651035,290.9114432640963L394.3570176298381,292.27682313459445L401.92902475281153,292.7079916894545L406.9069183243846,297.01957070884237L409.9918101152143,297.59443327903136L413.6375913225638,301.3309560818816L417.42359488405054,303.34286966996297L416.3018160510255,308.44431875272494L418.82581842535,316.06006252776206L424.5749349446269,317.35324208172096Z"/>

    <path name="仁愛鄉" class="town" d="M427.2391596730886,317.06587035143093L424.5749349446269,317.35324208172096L418.82581842535,316.06006252776206L416.3018160510255,308.44431875272494L417.42359488405054,303.34286966996297L413.6375913225638,301.3309560818816L409.9918101152143,297.59443327903136L406.9069183243846,297.01957070884237L401.92902475281153,292.7079916894545L394.3570176298381,292.27682313459445L389.65956876651035,290.9114432640963L382.508228705934,285.52159616374047L375.4269998224336,283.94051690947526L372.6926639169251,284.8029270058141L370.72955095910584,287.9650310326979L370.02843918847793,292.4205462014543L368.20554858478135,294.50450648492915L363.5782108985295,296.37284620240825L357.82909437925264,301.4028108645034L349.27553077737684,302.9836024780707L343.31608072688687,307.29472007571167L344.22752602874243,314.33579604996703L334.34185006264306,317.927982964251L331.81784768833313,319.6521849888304L328.45251118922897,319.0056128546057L322.0022828992951,320.2987527733385L314.079719891015,323.67520276413416L307.83982513227966,323.02865769152413L305.59626746621507,321.87923349157063L299.98737330106087,321.73555450015556L294.0980344276468,319.86770806696586L292.83603324048454,318.287194270335L286.94669436707045,317.2813992297124L280.91713313951914,315.2697775662782L277.13112957804697,315.1979331565708L275.65879485968617,312.25226610389655L271.10156835049565,311.4619498213833L267.8764542055287,305.64214787047604L263.1088941651542,301.3309560818816L263.24911651927687,291.1988932722743L264.6513400605618,286.88705273208325L259.0424458954076,276.89721086546706L256.5184435210831,275.172240732667L254.90588644859963,268.487688309815L259.18266824953025,267.1938501264558L262.12733768625185,259.71799856729194L259.5332241348515,254.68584693043886L258.3413341247651,247.20901909929307L255.88744292750198,242.32000826833973L260.2343359055085,241.3134162166789L262.54800474861986,238.29357653913758L266.5443418412906,237.64645563874728L269.6292336321494,238.86879144353225L270.47056775691453,244.40505813017808L273.62557072482014,247.78418042955673L274.11634896426403,238.2216744329744L270.7510124651744,237.21503927393132L265.913341247724,233.8355437842256L271.66245776701544,227.1481051156734L274.95768308902916,227.1481051156734L277.90235252575076,223.19294821973017L276.99090722390974,221.6827542472529L271.7325689440768,221.2512658738233L269.4890112780122,216.36092819449186L269.8395671633334,206.79527964457156L273.4853483706829,207.8741600989888L275.8691283908847,206.29179792959258L279.7953543064941,206.0040929011011L281.54813373310026,209.6003434857521L286.94669436707045,215.42598220932268L289.12014085605915,223.76825393517356L293.11647794874443,223.1210347619126L299.4264838845411,224.05590549489352L301.4597080194071,219.8129572310936L301.38959684233123,215.78557790129707L306.4376015909802,208.73725569069939L304.8951556955726,206.86720538723966L309.6627157359617,203.1989234621069L310.1534939754056,200.89718444241225L315.13138754697866,194.8548555520174L312.67749634973006,188.52438653398713L307.3490468928212,184.3518023804827L307.90993630935554,181.25821703721522L304.1940439249156,180.03514400099084L301.1091521340859,183.84820229910474L299.2862615304184,183.12876900075207L290.3821420432214,182.8409941625432L285.96513788815355,179.3876283983882L277.90235252575076,182.33738610714136L274.18646014132537,182.04960888201822L270.89123481931165,177.9486891010929L270.89123481931165,174.42319608022808L272.5739030688419,171.90490698885696L270.04990069453197,167.1559523123251L262.33767121743585,167.37181902019438L257.009221760527,162.47872027058838L255.53688704218075,159.09657872890966L251.96121701187803,158.01714658620403L248.80621404400154,159.3844252352501L244.5995434201177,156.7937753755141L244.5995434201177,154.3469858300232L240.46298397330975,149.09337242458787L237.51831453661725,149.02140310576942L234.36331156871165,145.63878377302535L230.99797506962204,145.63878377302535L230.01641859070514,142.97578615114617L230.2267521219037,136.3539556691976L225.8097479668504,127.7160930481732L232.1898650797084,118.06955282750641L229.9463074136438,114.25386013319803L231.62897566320316,105.90199824157025L238.00909277606115,96.25324394434938L239.06076043202484,90.20427127904986L241.8652075146092,93.15679416812054L248.4556581586803,93.08478250694316L251.4003275953728,95.53314835415586L257.1494441146788,93.94891883704986L261.0055588532123,94.09294079426763L262.8985606339411,89.34010087048227L267.2454536119476,88.18786142360113L268.5074547990953,84.08289473476907L270.54067893397587,83.00261083777878L272.8543477771018,77.60100689735555L272.994570131239,74.79205132603602L278.6735754734691,66.58078118425692L281.6182449101616,64.41980245657032L287.2972502523917,64.20370187517983L289.40058556431904,69.1018607969454L292.2751438239793,70.4704188086871L293.74747854232555,65.21216704146354L300.408040363458,63.62743125027555L303.7733768625476,67.5171900066598L307.4191580698971,64.20370187517983L308.3306033717381,61.610456480444554L311.6959398708277,61.466385212090245L317.234722858906,56.2796737213248L318.7070575772814,56.20763406341939L323.194172909396,52.10128304310638L325.6480641066446,51.8131113776617L329.9949570846511,46.76996535369108L329.85473473052843,45.18492115706613L333.43040476080205,39.78116204296384L339.74041069661325,35.96231965487459L348.57441900674894,35.96231965487459L351.1685325581202,36.826976702777756L359.79220733705733,36.75492225038397L363.92876678385073,34.16092544242929L364.98043443982897,29.981558851934096L368.2756597618427,24.360740375144815L377.3200016031624,22.48706002032486L381.7370057582302,15.064038510961836L385.6632316738396,18.811656156125537L390.5710140683659,24.79312288032088L395.8293523481989,22.847386047116743L401.36813533629174,16.721656937010266L409.0803648133733,17.802696781429404L414.33870309322083,15.064038510961836L416.93281664460665,12.181154654295824L429.34249498501595,19.31613180783461L433.5491656088707,17.226143735289952L438.31672564925975,5.694344592073321L440.9108392006601,1.8020448882343771L447.92195690709923,3.637978807091713e-12L450.3057369272865,5.766422704706201L455.4939640300581,7.496280921062862L456.2651869777619,10.23515836554725L461.733858788808,12.25322782182775L466.71175236038107,12.25322782182775L470.5678670989146,7.352127278685657L473.8630924209574,8.86572956107193L477.2985400971229,8.000816938398202L482.48676719988,8.361198159429478L484.4498801576992,10.16308365979421L487.8853278338356,9.370258270348131L497.8411149769963,14.055039157708961L500.505339705458,16.43337755846005L503.80056502747175,24.57693187469704L504.99245503757265,33.728585731099884L499.0330049870827,35.025598941963835L495.5975573109463,34.59326317936211L488.79677313567663,36.75492225038397L485.22110310538847,40.28552593925633L482.2764336686814,44.680583350644156L475.1952047851664,48.715210622216546L470.49775592185324,48.715210622216546L465.7301958814787,50.94859112306949L463.2763046842156,50.51632803786924L463.065971153017,65.71639560270705L459.1397452374076,64.92403523123357L458.5087446438265,67.73328303722155L460.96263584108965,69.53403914452429L460.68219113282976,74.14381899917498L458.71907817502506,81.49019272493024L468.5346429640631,84.08289473476907L473.7228700668202,89.91621535012382L479.1915418778517,93.15679416812054L482.13621131455875,95.96520636341666L488.44621725036995,96.32525320309287L490.61966373935866,97.47739391843425L488.44621725036995,106.76601798951378L484.309657803562,111.5899838906189L487.0439937090705,119.29342182414985L483.8188795641181,122.96493431352792L476.8778730347258,127.93204917076218L475.33542713930365,130.95538341910287L470.63797827599046,136.56989218969102L468.32430943285,134.98634632922403L459.9810793621873,142.04012065657662L461.6637476117321,152.83570207079174L455.4939640300581,164.06180911666888L455.28363049885957,167.37181902019438L452.2688498850912,172.62442494363495L450.6562928126077,177.58895088518693L444.3462868768256,188.02080847146863L445.32784335569886,196.221606262774L447.57140102176345,200.6094631645683L453.1802951869322,200.6094631645683L456.40540933189914,207.65838498277662L454.58251872823166,211.686106805264L454.23196284291043,218.3027098665334L452.2688498850912,220.67594501333224L453.95151813465054,222.54572515230393L452.4090722392284,228.08293648138715L454.3020740199572,233.04458079271353L453.3205175410694,235.3455458826429L455.4238528529968,239.3002003528636L454.5124075511558,242.4638062687045L455.1434081447369,248.9344927246566L454.37218519701855,250.8756133863426L448.48284632360446,251.01939853668955L444.97728747037763,254.47017738097566L448.27251279242046,257.41761919163037L447.9920680841751,262.9528136162153L449.9551810419798,268.487688309815L446.2392886575399,271.650330346758L447.64151219883934,276.60971799827894L442.87395215845027,276.89721086546706L439.43850448228477,280.56266937440523L437.7558362327545,285.44972949022485L436.77427975385217,291.91751452576864L433.7594991400838,294.2889264849764L433.0583873694268,297.1632866741311L430.53438499511685,300.10941654974886L429.2022726308787,306.43251203805994L428.6413832143735,312.82703749858774Z"/>
</svg>