<?xml version="1.0" encoding="utf-8"?>
<svg version="1.1" xmlns="http://www.w3.org/2000/svg" xmlns:xlink="http://www.w3.org/1999/xlink" x="0px" y="0px" viewBox="0 0 400 600" xml:space="preserve" data-w="400" data-h="600">
    <style type="text/css">.town{fill:#9CCA97;stroke:#FFFFFF;stroke-width:1.5;stroke-linecap:round;stroke-linejoin:round;}</style>

    <path name="馬公市" class="town" d="M234.2962008860486,285.38323842806494L230.28257579878846,289.5548357555235L222.70629473519512,294.8980408991629L211.92813298403053,296.1635057380663L215.85156424909655,288.94550939221153L219.72989860308007,288.7111523628373L223.2023607572046,285.5707287283658ZM214.99472293832514,265.9765768032812L216.43782409330015,270.85194399588L209.2223183184542,271.18008735168405L211.79284225076844,266.30473207569594ZM295.0868370391254,194.3726491762427L295.2672246834991,197.84353196006487L299.95730343715695,200.7514996096943L300.1376910815161,213.7427773870877L298.0632331712404,219.55795920925448L304.28660690203833,222.60613918411764L307.804165967289,222.32477162962095L321.6940145838744,229.26499889284605L322.32537133917504,233.110105246662L316.82354818585736,232.6411957422897L308.79629801133706,238.40866868076773L308.8864918335021,242.8630511680385L304.24150999097037,241.6908595946261L301.4455015031999,243.5663611944874L297.8828455268813,250.73991282935458L293.4633482397767,255.7095994961528L298.6945899265411,262.46057711137473L294.41038337272767,264.75770733949685L296.80051966065366,271.9770035912843L290.8477273963945,271.6957395762147L283.9929969102959,268.3674039917678L279.5284027121088,268.3205254365421L274.47754866973264,271.9301262963454L262.97783634107327,272.492652755358L261.98570429701067,267.99237509156956L265.0071973402228,263.25754511350533L263.6091930963448,258.8038397254604L258.69362978725985,255.00635312974555L254.5447139667085,254.7250535511812L249.08798772447335,257.397375738612L246.6527545254794,250.69302811636953L240.6548653501377,241.03442783831633L236.77653099615418,243.37881221471616L234.52168544150481,237.3771063731292L240.47447770574945,228.70229115078837L243.36068001569947,232.82875974084163L243.27048619350535,239.8153317662036L248.9076000801142,242.53483856019375L249.35856919102662,246.80153981668263L247.01352981422679,251.4431815580283L250.39579814618628,254.34998652907234L252.69574061191815,249.8959854886416L256.12310585496016,250.9743361485307L263.02293325217033,248.72385537478112L262.8425456077821,256.60037293609275L265.09739116243145,261.1010325388743L269.1561131607741,258.9913671433351L271.8168309152534,254.58440354074628L271.14037724885566,248.95828221687043L276.59710349107627,251.6307192630884L279.8891780008562,249.6146751953238L285.4360980652855,254.25621960972785L288.45759110848303,249.09893812548398L284.4890629323054,243.5663611944874L289.6301107969048,240.518657775694L289.2693355081574,230.43729910207912L278.8068521346431,228.9836453170974L274.25206411424733,231.98471968080412L271.2756679821323,231.14067430670912L264.06016220728634,234.18859088277532L254.63490778890264,228.8898606606199L254.4545201445435,223.49713254275775L261.89551047484565,227.48308293913942L266.54049231737736,225.41978223919796L267.6228181836341,219.60485481096111L270.14824520482216,216.69729646738415L265.27777880680514,212.0075532694391L261.4896382750012,213.36759569860078L258.1524668541242,217.49453648509734L251.6585116567876,218.0572912885582L252.56044987862697,208.72463533883638L257.70149774319725,206.52034529070806L258.0171761208476,201.8771475507856L253.73296956703416,195.92048639977656L255.7172336551157,193.80979483944247L263.56409618527687,194.70097977980186L267.6228181836341,193.62217620124284L273.5756104478787,188.83781206886124L276.326522024523,192.82479405508275L273.0795444258547,196.43642816395004L275.69516526922234,201.45503068181642L275.7402621803194,206.19204366884514L280.9715038670838,205.3478358028333L286.7439084869693,210.9757877327138L287.1948775978817,205.066431998217L289.4497231525165,203.23729285455192L287.8262343531824,196.90546440591788Z"/>

    <path name="湖西鄉" class="town" d="M321.6940145838744,229.26499889284605L307.804165967289,222.32477162962095L304.28660690203833,222.60613918411764L298.0632331712404,219.55795920925448L300.1376910815161,213.7427773870877L299.95730343715695,200.7514996096943L295.2672246834991,197.84353196006487L295.0868370391254,194.3726491762427L296.48484128300333,185.78886334821073L292.06534399589873,178.7056527706991L294.726061750378,173.6861970479913L300.76904783681675,173.21707941209752L301.12982312556414,173.21707941209752L301.62588914758817,177.2983477369453L305.0081574795331,178.28346281505947L309.51784858880274,176.0786713987145L311.9530817878258,171.43441738956972L315.4255439419794,175.28118470313348L312.8099230985972,178.94020217035722L315.38044703088235,183.72492017026525L312.35895398767025,186.68010169760237L311.7726941434521,192.7778890750451L316.2372883416392,199.48513436440408L321.4234331173211,188.6501864610691L320.0705257845402,184.1470929556417L326.15860878204694,180.1129430004694L327.96248522576934,183.02129590131517L324.71550762707193,188.69709288766535L328.41345433668175,189.2130624953461L333.05843617924256,178.18964264395254L336.1250261335517,175.46882905925668L337.25244891086186,169.27642630718037L341.44646164251026,171.19985482822085L342.9797566196503,175.42191799489956L340.13865122082643,179.03402181507772L346.13654039616813,183.34965435395134L347.7149322844052,188.79090569156688L352.8559801489755,188.27493445635264L356.19315156983794,180.30058057932183L360.25187356819515,185.69504843982213L364.58117703310563,194.41955359749045L365.66350289933325,201.59573645266937L364.67137085529976,206.94244619342135L366.97131332103163,214.39934281360547L370.3986785640882,217.91660280929136L377.3886997834488,219.74554151760094L377.0730214057985,224.5756955250581L362.3714283895679,228.936752997055L358.7636755021231,225.46667578967026L360.38716430148634,220.4020775289173L352.405011038034,218.1041874154871L348.9776457950211,219.83933257331955L332.8780485348543,219.60485481096111L328.1428728701285,222.09029821625154L325.3919612934842,227.20172562309017Z"/>

    <path name="白沙鄉" class="town" d="M349.4286149059335,108.36917734393865L351.41287899401505,116.06623380428209L349.3384210837394,119.25756603966511L342.3033029532817,118.41280905076928L347.1737693512987,114.4705390683157ZM301.12982312556414,173.21707941209752L300.76904783681675,173.21707941209752L298.28871772669663,168.76037980218825L294.0496080839803,169.88629688211222L286.9693930424255,163.4590594836336L294.41038337272767,158.86128404853662L285.12041968760605,154.2164319639778L279.1676274233614,153.70032732389154L280.56563166723936,149.24297703969205L285.4360980652855,144.0816488461678L283.4969308882719,136.94930355054385L279.0774336011964,134.1807248066434L278.31078611260455,130.98974929366523L272.8540598703694,125.64000161025979L273.6658042700583,123.34048278492264L268.5247564054589,115.54998171292027L262.5719641412288,115.6907779358844L258.91911434271606,118.1312221996377L254.49961705561145,126.20314303990745L246.33707614782907,121.13478465097069L237.9039537734934,131.92827941863652L237.76866304020223,131.83442670296427L246.291979236732,120.57162183973196L243.4508738378936,115.2214566149596L247.41940201404213,109.40173509508531L252.6506437008211,107.19580656254038L261.264153719545,106.82032573285323L272.8089629593014,100.24924012063275L277.5892355351243,104.94290573165199L283.3616401549807,106.30403786644092L285.1655165987322,104.14499422995505L292.6516038401169,109.02626047383819L292.02024708483077,113.57881899338463L297.1612949493865,115.26838882131779L295.31232159459614,119.0698427264033L300.8592416590109,125.64000161025979L298.8298806598177,130.2858473709639L292.7868945733935,128.83110497178495L290.12617681891425,130.56740858532066L290.9379212185886,135.96388379633936L287.05958686461963,137.27777518628136L288.59288184175966,142.29859822303843L295.222127772402,146.28696801473416L291.47908415169513,150.22829884979L294.8162555725721,157.9698603057077L301.5807922364911,158.5797824561705L302.1670520806947,164.7257657500304L298.5592991932499,168.61963950067366ZM300.8592416590109,20.10285705215574L302.48273045834503,24.329706517448358L308.34532890039554,26.490044359499734L311.4570157657872,32.7830024255054L306.09048334576073,35.69456885029285L300.76904783681675,34.708400262396026L295.31232159459614,39.733087755910674L291.1634057740448,46.49498451483669L289.4948200636136,41.79925933103368L286.06745482055703,39.967881596141524L286.8791992202314,34.520557797761285L293.1025729510584,30.71669081726941L296.7554227495566,20.80734129427219ZM295.13193395022245,0L296.3044536386151,4.791143808321067L291.7496656182775,8.407873234667932L288.59288184175966,17.707582706607354L286.2478424649453,14.185042032750061L288.72817257505085,6.9048288033482095Z"/>

    <path name="西嶼鄉" class="town" d="M237.76866304020223,131.83442670296427L237.9039537734934,131.92827941863652L233.89032868620416,137.88779179523772L233.39426266419468,144.5977906378139L225.63759395622765,146.38081057616L223.69842677924316,148.58609179659106L216.07704880455276,147.45999529543042L212.33400518387498,152.01124365784563L215.5809827825433,158.15752895610058L216.16724262674688,164.49119142090422L214.814335293966,169.74555776551279L217.4299561373482,177.53289960401162L213.867300161015,185.13215760834646L207.59882951912005,187.1022651598505L211.07129167327366,194.3726491762427L207.0576665860135,200.23557447409985L209.71838434049278,205.25403460031885L208.09489554112952,209.38122536198352L212.6496835615253,212.99241295937463L209.94386889594898,215.99384545332214L205.88514689759177,215.61867006892498L193.7991747247288,211.8199601265951L190.01103419292485,212.6172291693656L186.22289366115,217.44764014479006L176.70744542055763,215.99384545332214L173.86634002171922,220.35518220622907L165.88418675829598,219.60485481096111L165.88418675829598,216.6035032122454L175.2192473545001,210.92888911038972L180.27010139690537,204.40982082121263L184.779792506175,209.6157210187921L189.7404527263716,209.47502367398192L198.5794473005808,201.36122675244042L200.11274227770627,193.66908088544005L196.00892336826655,187.4306135986444L186.31308748334413,184.24090894927576L189.01890214889136,179.1278413939981L194.25014383567031,179.08093161277066L193.88936854692292,183.39656263855431L199.70687007789093,182.3645765786314L197.90299363416852,177.34525814325752L198.75983494493994,172.46648777229348L203.90088280951022,165.80480236352741L196.59518321247015,161.34785570339955L195.15208205752424,158.86128404853662L199.88725772225007,153.32497724295172L197.8127998120035,147.78844108860358L200.24803301099746,142.48628888299936L202.81855694329715,142.29859822303843L206.6517943861836,130.7081889698493L212.60458665042825,123.66898789937841L218.24170053702255,122.30803287651361L218.51228200357582,127.04785073059611L214.31826927195652,130.47355491317285L213.867300161015,133.89917121078543L218.37699127031374,135.30693325428365L224.8709464676649,139.53013035663753L233.4844564863888,138.07548865287754Z"/>

    <path name="望安鄉" class="town" d="M304.37680072423245,532.1290074804456L308.93158874459914,532.6904504891863L309.4727516777057,539.3340163561734L304.917963657339,542.3281932318969L300.31807872590434,540.3164879254073L297.3867795048427,534.6554827229047ZM361.60478090097604,521.601520769269L362.3714283895679,529.3217575820963L357.0048959695123,535.4040589448741L356.6892175918765,541.5796552060492L351.41287899401505,535.6847739633304L352.72068941569887,530.351089290125L351.63836354947125,524.268561353223ZM214.27317236085946,521.0400318572865L214.09278471647121,524.9704054211288L211.07129167327366,529.2749695916064L208.90663994080387,523.5667136532211ZM202.09700636578782,512.9449749720952L206.11063145304797,514.8167073835903L206.02043763088295,518.4665112614894L200.51861447756528,517.3902972554351ZM230.50806035425921,408.4144441362914L233.52955339748587,410.6154270428742L235.60401130773243,416.56258437543875L230.73354490971542,418.3419978647544L226.90030746684351,416.84354595883997L220.04557698074495,421.1047249810763L213.19084649463184,419.84043314474184L221.66906578006456,415.11094021528334L220.85732138040476,412.7695457819282L229.47083139912866,410.0534773715517ZM189.9659372818569,386.0279405904148L193.25801179160771,389.2128580980934L193.48349634706392,392.8192180232909L197.40692761212995,394.27110194366105L199.6166762556968,388.8850024150561L203.31462296530663,393.0533939059569L202.14210327688488,400.12531409195435L203.85578589841316,401.717615862759L203.54010752076283,411.73931936857116L209.62819051829865,413.378312240402L211.07129167327366,415.95383227269485L202.95384767655923,419.23169581733237L202.72836312110303,430.1417257347639L197.4520245232561,428.5497591061139L187.0346380608098,430.98452400319366L183.29159444011748,427.47282986754726L190.73258477041963,418.5293031839574L188.65812686014397,407.71199522939423L188.52283612688188,401.48345501588483L191.99529828102095,396.2381455583527L186.1326998389559,388.3229622473518ZM27.30137897017994,371.3201399570826L32.21694227926491,376.1916911064109L37.538377788237995,378.2526789878975L34.742369300467544,382.4213990840326L27.256282059082878,385.2785373061779L22.611300216522068,383.4986878173913Z"/>

    <path name="七美鄉" class="town" d="M139.9534628799447,565.0630693182429L145.72586749981565,565.764702479366L141.75733932365256,579.6562930221262L142.43379299003573,586.3443302379819L135.7143532372138,585.0348103948018L129.5360764174984,593.4061662802051L131.02427448358503,599.9999999999964L124.53031928620476,595.2767898864731L121.59902006517223,583.3978928524957L113.66196371284605,575.6339583260524L117.85597644449444,568.8518453386241Z"/>
</svg>