<?xml version="1.0" encoding="utf-8"?>
<svg version="1.1" xmlns="http://www.w3.org/2000/svg" xmlns:xlink="http://www.w3.org/1999/xlink" x="0px" y="0px" viewBox="0 0 400 700" style="enable-background:new 0 0 400 700;" xml:space="preserve" data-w="400" data-h="700">
    <style type="text/css">.town{fill:#9CCA97;stroke:#FFFFFF;stroke-width:1.5;stroke-linecap:round;stroke-linejoin:round;}</style>


    <path name="佳冬鄉" class="town" d="M165.79347383056302,302.96767510507743L162.52299620656413,309.46234719546555L159.5194963477843,322.8235967943183L165.52649606534396,333.4963616794412L158.05111863903585,337.3770797012148L158.71856305209803,342.6008812766104L157.38367422597366,344.01872238758915L152.8450522171479,342.5262574939279L149.44108571053948,345.8096503614015L141.96570828424592,345.8096503614015L127.14844231425377,337.45170739238165L122.40958698152099,335.4367398432787L124.4119202207221,330.51108969212873L129.75147552519047,325.88373885678993L132.08753097090812,322.5996802170612L132.68823094267282,314.76227832326913L131.55357544047,312.07502506681703L133.55590867965657,308.71585502798735L137.29359739281063,308.71585502798735L141.5652416364028,300.2800988134859L142.83338602121512,299.1602536238843L147.572241353977,300.8773443532755L155.84855207594228,300.13078686029985L159.31926302386273,301.17596575942116L163.5909072674549,301.0266551699933Z"/>

    <path name="竹田鄉" class="town" d="M120.87446483147505,187.55942323057207L126.01378681206552,185.9150841117862L128.6835644642997,183.672758764229L132.7549753839703,182.17784652135742L134.15660865142127,178.14146884532602L138.49499733632547,172.60986470220269L139.56290839721623,173.88066643581806L140.63081945812155,177.09497324725817L140.6975638994336,182.40208482049638L139.49616395591875,186.81199979897065L138.9622084254661,199.14375340837432L139.56290839721623,200.63840541171703L150.10853012360167,197.6490784905509L151.44341894971149,203.70237039375934L150.70923009536637,206.0936908096901L153.37900774760055,210.50253413524842L152.8450522171479,215.73310679213682L151.10969674319495,220.8886826292037L146.3708414104476,223.05543758148997L141.69873051901232,227.46351475125994L137.56057515802968,227.76236023816273L135.09103082968795,226.492260602834L132.5547420600633,229.40599407028276L127.94937560992548,232.39434835846623L123.14377583589521,232.46905604430867L121.60865368584928,234.85967182677996L121.34167592063022,240.01423807645915L118.40492050314788,242.7781688683408L119.60632044666272,239.19251384856761L118.33817606185039,231.87139295766792L115.26793176175852,231.27372621427094L112.13094302036916,224.02672591577175L115.6683984095871,221.4864129366306L119.73980932927225,220.66453282034308L122.60982030544255,215.50894514303764L125.47983128159831,214.46285063894538L127.01495343164424,210.87615576707503L130.81938658611034,205.421137869027L127.21518675556581,199.59215141526693L124.34517577941006,197.42487527634512L120.20702041841287,190.9227577206857Z"/>

    <path name="萬丹鄉" class="town" d="M118.40492050314788,242.7781688683408L116.13560949874227,245.61671914342332L113.53257628780557,245.31792825899356L110.32884310508962,252.26458016029392L105.5232433310448,254.13187555252262L101.38508797006216,251.06949239920505L103.38742120926327,233.51495764738138L101.05136576354562,233.2161297605635L100.38392135046888,230.3772192423712L88.43666635664704,230.825473756875L85.29967761525768,232.02080907214804L76.95662245198037,232.24493281534342L78.22476683680725,228.95773304114664L81.02803337168007,211.99701207783073L80.22710007600836,203.0298009618091L78.22476683680725,199.89108227418728L74.82080033019884,197.0512021067716L72.35125600185711,189.80165912334996L72.35125600185711,184.79392789007215L73.35242262145039,181.80411487552192L85.83363314572489,181.72936837425368L88.23643303274002,180.90715307415485L96.91321040254843,183.59801369700108L97.78088813953218,181.80411487552192L102.85346567879606,180.83240588449007L103.18718788532715,187.2604545460199L105.38975444843527,187.93313279614267L110.79605419424479,185.84034076511307L111.12977640076133,188.53106511954138L116.53607614657085,188.9047709582701L119.1391093575221,187.40993900298054L119.80655377058429,184.56969509727423L120.87446483147505,187.55942323057207L120.20702041841287,190.9227577206857L124.34517577941006,197.42487527634512L127.21518675556581,199.59215141526693L130.81938658611034,205.421137869027L127.01495343164424,210.87615576707503L125.47983128159831,214.46285063894538L122.60982030544255,215.50894514303764L119.73980932927225,220.66453282034308L115.6683984095871,221.4864129366306L112.13094302036916,224.02672591577175L115.26793176175852,231.27372621427094L118.33817606185039,231.87139295766792L119.60632044666272,239.19251384856761Z"/>

    <path name="屏東市" class="town" d="M129.75147552519047,126.1768389363715L132.5547420600633,127.97176426991064L134.35684197532828,131.11280375692513L130.6858977035008,136.12329929992666L126.81472010773723,136.34764380056185L123.41075360111427,137.69369992344764L122.40958698152099,146.74170429429068L122.87679807067616,151.45231526210227L121.00795371408458,153.4710786616106L124.01145357286441,157.73277487060295L127.08169787295628,157.13465333595923L130.4856643795647,159.9756978660007L126.61448678380111,161.0223775640534L127.01495343164424,167.7507638920888L123.61098692503583,170.06821146114817L121.87563145106833,177.16972330583303L121.54190924453724,181.13139429896364L119.80655377058429,184.56969509727423L119.1391093575221,187.40993900298054L116.53607614657085,188.9047709582701L111.12977640076133,188.53106511954138L110.79605419424479,185.84034076511307L105.38975444843527,187.93313279614267L103.18718788532715,187.2604545460199L102.85346567879606,180.83240588449007L97.78088813953218,181.80411487552192L96.91321040254843,183.59801369700108L88.23643303274002,180.90715307415485L85.83363314572489,181.72936837425368L73.35242262145039,181.80411487552192L74.22010035843414,156.16269799632937L76.42266692154226,150.48030311910225L76.22243359760614,146.59215735024554L78.15802239549521,142.329972704154L81.69547778474225,138.89017859661544L87.96945526752097,138.44150082110355L90.90621068497421,139.26407515994106L94.24343275029969,135.59982678330198L97.04669928515796,129.31793649265273L100.58415467439045,129.01878872284215L102.18602126573387,126.55078445096478L105.99045442018542,127.07430575145372L111.93070969643304,124.30708975515518L113.0653651986504,122.81126447773386L116.93654279441398,123.18522295829098L118.67189826836693,121.68938039060413L124.47866466201958,122.28772018425843Z"/>

    <path name="潮州鎮" class="town" d="M184.8156396028353,255.40161605727735L182.4795841571322,258.090423898444L169.46441810240503,262.1234971129488L152.51133001063135,266.67917619334L146.83805249960278,266.45513136023874L143.76780819952546,265.2602169226284L137.56057515802968,267.42598860013095L135.22451971229748,270.6372170308023L134.82405306448345,265.0361688415578L132.88846426660893,265.33489950235526L131.01961991001735,259.9576080892184L132.68823094267282,257.642294390238L130.95287546870532,253.6837279096144L130.81938658611034,248.67927306173806L128.4833311403927,245.99020646478675L131.21985323393892,242.1805688333443L130.88613102740783,239.8648341853077L126.6812312251277,240.6865527602913L121.34167592063022,240.01423807645915L121.60865368584928,234.85967182677996L123.14377583589521,232.46905604430867L127.94937560992548,232.39434835846623L132.5547420600633,229.40599407028276L135.09103082968795,226.492260602834L137.56057515802968,227.76236023816273L141.69873051901232,227.46351475125994L146.30409696915012,227.68764895217282L148.1729413257126,226.34283603028416L151.97737448016414,228.2106267538784L153.045285541084,230.9001826426229L157.1166964607546,232.46905604430867L157.91762975642632,234.18731705070059L162.78997397178318,235.00908337088367L163.791140591391,231.94610104348249L171.1330291350605,230.0783817565025L172.5346624024969,231.49785167158734L175.87188446780783,240.5371498969107L184.61540627891372,244.5709470525835L180.81097312447673,255.02816467860976Z"/>

    <path name="長治鄉" class="town" d="M191.4233392921451,126.77515106830833L184.94912848545937,130.5145183552795L174.20327343515237,140.310977881918L170.39884028070082,142.10564201789566L167.19510709798487,146.66693085102452L155.7150631933182,157.13465333595923L154.17994104328682,155.4150334323167L147.70573023658653,155.1159659971254L145.16944146693277,152.34954861462575L137.69406404065376,153.09723675004352L136.35917521451483,154.96643193460295L133.48916423834453,154.3682933849832L131.55357544047,156.31223021932965L130.4856643795647,159.9756978660007L127.08169787295628,157.13465333595923L124.01145357286441,157.73277487060295L121.00795371408458,153.4710786616106L122.87679807067616,151.45231526210227L122.40958698152099,146.74170429429068L123.41075360111427,137.69369992344764L126.81472010773723,136.34764380056185L130.6858977035008,136.12329929992666L134.35684197532828,131.11280375692513L132.5547420600633,127.97176426991064L129.75147552519047,126.1768389363715L131.2865976752364,118.32365031030167L142.1659416081675,116.45374981900568L142.09919716687,115.33179222531544L151.24318562580447,117.05212189712802L153.6459855128196,115.85537405037576L161.05461849781568,117.57569443825378L165.25951830011036,115.78057681979408L172.66815128510643,116.82773280030051L172.20094019595126,119.52036771333951L186.48425063549075,121.01624371325124Z"/>

    <path name="麟洛鄉" class="town" d="M155.7150631933182,157.13465333595923L145.83688587999495,166.33036552299745L144.63548593649466,169.17114152911563L139.56290839721623,173.88066643581806L138.49499733632547,172.60986470220269L134.15660865142127,178.14146884532602L132.7549753839703,182.17784652135742L128.6835644642997,183.672758764229L126.01378681206552,185.9150841117862L120.87446483147505,187.55942323057207L119.80655377058429,184.56969509727423L121.54190924453724,181.13139429896364L121.87563145106833,177.16972330583303L123.61098692503583,170.06821146114817L127.01495343164424,167.7507638920888L126.61448678380111,161.0223775640534L130.4856643795647,159.9756978660007L131.55357544047,156.31223021932965L133.48916423834453,154.3682933849832L136.35917521451483,154.96643193460295L137.69406404065376,153.09723675004352L145.16944146693277,152.34954861462575L147.70573023658653,155.1159659971254L154.17994104328682,155.4150334323167Z"/>

    <path name="九如鄉" class="town" d="M124.87913130984816,88.47573299776195L122.54307586413051,96.25652692270887L123.61098692503583,98.8749228274246L123.27726471850474,105.15878441871791L120.14027597711538,111.36743813300927L124.54540910331707,111.66664032101107L127.21518675556581,108.3753654843731L130.5524088208913,108.74937961385513L136.8931307449675,112.5642413472433L140.96454166465264,113.46183406727141L142.09919716687,115.33179222531544L142.1659416081675,116.45374981900568L131.2865976752364,118.32365031030167L129.75147552519047,126.1768389363715L124.47866466201958,122.28772018425843L118.67189826836693,121.68938039060413L116.93654279441398,123.18522295829098L113.0653651986504,122.81126447773386L111.93070969643304,124.30708975515518L105.99045442018542,127.07430575145372L102.18602126573387,126.55078445096478L100.58415467439045,129.01878872284215L97.04669928515796,129.31793649265273L94.24343275029969,135.59982678330198L90.90621068497421,139.26407515994106L87.96945526752097,138.44150082110355L81.69547778474225,138.89017859661544L83.69781102391426,132.83285375391097L86.76805532399158,118.24885498254298L86.90154420661565,109.72180959978141L86.23409979355347,103.28863009122142L85.4331664978672,87.72754680022808L85.83363314572489,80.46984070140934L91.17318845022237,81.6670255639965L92.30784395242517,86.75489610291697L95.0443660459714,91.4684199989515L97.11344372645544,91.61805192212705L102.3195101483434,89.29873114003749L107.25859880499775,89.89727085155755L107.5255765702459,87.2786323075361L110.79605419424479,87.65272786260539L111.59698748990195,83.76206345507308L114.5337429073843,85.33331212767916L123.41075360111427,85.10884959245232Z"/>

    <path name="里港鄉" class="town" d="M145.43641923216637,81.21808297530515L144.36850817126106,83.61241939467254L131.353342116563,81.81667263097552L128.21635337517364,82.714550175775L124.87913130984816,88.47573299776195L123.41075360111427,85.10884959245232L114.5337429073843,85.33331212767916L111.59698748990195,83.76206345507308L110.79605419424479,87.65272786260539L107.5255765702459,87.2786323075361L107.25859880499775,89.89727085155755L102.3195101483434,89.29873114003749L97.11344372645544,91.61805192212705L95.0443660459714,91.4684199989515L92.30784395242517,86.75489610291697L91.17318845022237,81.6670255639965L85.83363314572489,80.46984070140934L87.90271082619438,70.74216477151458L92.1743550698011,60.26511224423302L93.10877724809689,51.433572039668434L94.37692163290922,49.487530966658596L94.44366607422126,44.62225682123244L95.57832157640951,42.676078562046314L95.24459936989297,38.70874759918479L100.18368802654732,33.31890481113987L104.0548656223109,34.890973368588675L109.66139869204198,35.41499053316147L111.73047637252603,34.36695336012235L113.33234296386945,37.36131510520863L117.93770941400726,37.96017631238465L122.20935365759942,40.205872766960965L125.94704237075348,38.03503370215185L131.01961991001735,37.136741195097784L139.49616395591875,39.68188159800957L144.50199705388513,39.307600451127655L151.10969674319495,39.98130547121036L159.31926302386273,33.24404376516941L157.98437419773836,38.559033806001025L155.78180763463024,41.178991681887055L156.3825076063804,45.74503413737693L153.37900774760055,48.81389223430597L151.77714115625713,52.78080829066312L151.97737448016414,55.475224461362814L145.10269702563528,61.9115813710996L149.44108571053948,66.62631518186936L150.30876344750868,70.81699677978213L148.90713018008682,75.45646827943528Z"/>

    <path name="鹽埔鄉" class="town" d="M203.70431649249804,117.27651047500513L202.70314987290476,120.11872088035852L200.1001166619535,121.68938039060413L191.4233392921451,126.77515106830833L186.48425063549075,121.01624371325124L172.20094019595126,119.52036771333951L172.66815128510643,116.82773280030051L165.25951830011036,115.78057681979408L161.05461849781568,117.57569443825378L153.6459855128196,115.85537405037576L151.24318562580447,117.05212189712802L142.09919716687,115.33179222531544L140.96454166465264,113.46183406727141L136.8931307449675,112.5642413472433L130.5524088208913,108.74937961385513L127.21518675556581,108.3753654843731L124.54540910331707,111.66664032101107L120.14027597711538,111.36743813300927L123.27726471850474,105.15878441871791L123.61098692503583,98.8749228274246L122.54307586413051,96.25652692270887L124.87913130984816,88.47573299776195L128.21635337517364,82.714550175775L131.353342116563,81.81667263097552L144.36850817126106,83.61241939467254L145.43641923216637,81.21808297530515L150.90946341927338,81.81667263097552L155.44808542809915,79.57194233926384L164.59207388706272,80.6194896188099L166.2606849197182,79.57194233926384L169.99837363284314,80.99361090033017L178.14119547221344,85.85705602000598L181.74539530274342,83.98652911206955L184.01470630716358,89.89727085155755L189.3542616116465,92.44102336853939L191.62357261606667,97.15427063115021L192.15752814651933,104.11150243978955L196.96312792056415,107.55252932174335L201.23477216417086,114.88300555474234Z"/>

    <path name="高樹鄉" class="town" d="M212.3143494209944,3.9689229722698656L210.2452717404958,5.092173384620764L212.3810938622919,8.461846089971004L207.30851632304257,19.618366417511425L207.6422385295591,21.63987965344677L204.03803869901458,25.757645979840163L199.2991833662818,27.32983768070335L202.2359387837496,29.95010027229182L200.1668611032801,34.81611354148845L200.9677943989518,40.28072841617177L199.16569448367227,46.7180972574497L204.30501646424818,49.6372278250401L200.1668611032801,52.18203894191174L200.90104995762522,59.74122982496738L200.30034998587507,70.66733270537406L201.30151660546835,73.13676033262527L199.96662777934398,77.02785175235476L203.83780537510756,78.2250791809056L205.84013861429412,80.46984070140934L209.91154953397927,81.2929068846588L208.2429385013238,84.43545886510219L203.9712942577171,87.87718450209468L201.5684943706874,95.20914875110248L203.57082760987396,102.09171238831732L206.8413052338874,106.05644568266143L205.77339417299663,114.35941848167386L203.70431649249804,117.27651047500513L201.23477216417086,114.88300555474234L196.96312792056415,107.55252932174335L192.15752814651933,104.11150243978955L191.62357261606667,97.15427063115021L189.3542616116465,92.44102336853939L184.01470630716358,89.89727085155755L181.74539530274342,83.98652911206955L178.14119547221344,85.85705602000598L169.99837363284314,80.99361090033017L166.2606849197182,79.57194233926384L164.59207388706272,80.6194896188099L155.44808542809915,79.57194233926384L150.90946341927338,81.81667263097552L145.43641923216637,81.21808297530515L148.90713018008682,75.45646827943528L150.30876344750868,70.81699677978213L149.44108571053948,66.62631518186936L145.10269702563528,61.9115813710996L151.97737448016414,55.475224461362814L151.77714115625713,52.78080829066312L153.37900774760055,48.81389223430597L156.3825076063804,45.74503413737693L155.78180763463024,41.178991681887055L157.98437419773836,38.559033806001025L159.31926302386273,33.24404376516941L161.1881073804252,29.80037289748725L164.59207388706272,26.206846222123204L178.0077065896039,15.275713257529787L184.88238404414733,8.461846089971004L192.0240392639098,5.915882034565584L194.560328033549,6.814465261446458L210.57899394704145,0Z"/>

    <path name="萬巒鄉" class="town" d="M200.63407219240617,165.2089837434287L198.03103898146946,174.2544284944197L198.23127230539103,181.57987519963717L201.76872769462352,184.79392789007215L206.8413052338874,183.74750377410783L201.30151660546835,190.84801821547626L200.03337222065602,194.13650222104297L202.2359387837496,196.4533220560479L201.76872769462352,201.83411051781695L196.6961501553451,204.97276666535072L197.43033900970477,208.18604807951124L201.76872769462352,209.00803329892733L201.3682610467804,217.07806587425875L201.90221657723305,219.99208030558293L198.56499451190757,222.60714739891773L199.76639445542241,233.51495764738138L197.36359456840728,235.6067272624041L197.16336124447116,241.06005891956556L198.63173895320506,242.7781688683408L197.09661680317367,244.64564543008055L196.36242794879945,248.82866348201787L196.96312792056415,252.26458016029392L198.49825007061008,254.58002114216833L203.03687207943585,255.55099620952933L201.70198325329693,255.7003761336764L197.29685012709524,254.28125764387914L195.02753912268963,256.52196163901317L184.8156396028353,255.40161605727735L180.81097312447673,255.02816467860976L184.61540627891372,244.5709470525835L175.87188446780783,240.5371498969107L172.5346624024969,231.49785167158734L171.1330291350605,230.0783817565025L163.791140591391,231.94610104348249L162.78997397178318,235.00908337088367L157.91762975642632,234.18731705070059L157.1166964607546,232.46905604430867L153.045285541084,230.9001826426229L151.97737448016414,228.2106267538784L148.1729413257126,226.34283603028416L146.30409696915012,227.68764895217282L141.69873051901232,227.46351475125994L146.3708414104476,223.05543758148997L151.10969674319495,220.8886826292037L152.8450522171479,215.73310679213682L155.1143632215535,217.07806587425875L159.58624078908178,215.1353412503122L157.85088531512883,210.57725857607693L162.65648508917366,210.57725857607693L165.52649606534396,201.31099133811767L168.66348480673332,196.52805726292718L171.066284693763,196.07964516216998L173.86955122860672,190.25010011010272L177.2735177352297,187.40993900298054L178.0744510309014,184.64443941889294L180.54399535922857,183.97173845958787L188.41983943336527,177.31922325083178L192.62473923565994,175.74946237932636L194.8273057987535,171.6380639468698L195.69498353575182,166.40512384879912Z"/>

    <path name="內埔鄉" class="town" d="M213.44900492321176,123.78355353028019L214.58366042541456,129.31793649265273L212.3143494209944,133.2067736349054L209.84480509266723,134.25374164269306L205.1059497599199,138.74061956836158L203.90454981640505,142.7786325229299L204.37176090556022,147.71375382191763L201.83547213593556,155.0411989946042L201.0345388402493,159.52711740471022L202.30268322506163,164.46138871030234L200.63407219240617,165.2089837434287L195.69498353575182,166.40512384879912L194.8273057987535,171.6380639468698L192.62473923565994,175.74946237932636L188.41983943336527,177.31922325083178L180.54399535922857,183.97173845958787L178.0744510309014,184.64443941889294L177.2735177352297,187.40993900298054L173.86955122860672,190.25010011010272L171.066284693763,196.07964516216998L168.66348480673332,196.52805726292718L165.52649606534396,201.31099133811767L162.65648508917366,210.57725857607693L157.85088531512883,210.57725857607693L159.58624078908178,215.1353412503122L155.1143632215535,217.07806587425875L152.8450522171479,215.73310679213682L153.37900774760055,210.50253413524842L150.70923009536637,206.0936908096901L151.44341894971149,203.70237039375934L150.10853012360167,197.6490784905509L139.56290839721623,200.63840541171703L138.9622084254661,199.14375340837432L139.49616395591875,186.81199979897065L140.6975638994336,182.40208482049638L140.63081945812155,177.09497324725817L139.56290839721623,173.88066643581806L144.63548593649466,169.17114152911563L145.83688587999495,166.33036552299745L155.7150631933182,157.13465333595923L167.19510709798487,146.66693085102452L170.39884028070082,142.10564201789566L174.20327343515237,140.310977881918L184.94912848545937,130.5145183552795L191.4233392921451,126.77515106830833L200.1001166619535,121.68938039060413L203.37059428596694,123.48438870533937L207.84247185346612,122.886056289115Z"/>

    <path name="新埤鄉" class="town" d="M203.03687207943585,255.55099620952933L197.0298723618762,264.21465482298663L194.8940502400801,268.24747566703445L194.9607946813776,272.3548076080169L193.75939473786275,278.6274911943947L192.29101702912885,281.2409907999172L193.4256725313462,284.4517663040224L196.36242794879945,287.0651105598554L191.75706149869075,291.47030456960783L192.29101702912885,298.4883403725089L191.82380593998823,305.1326135706531L194.49358359223697,308.4919062704157L187.01820616592886,311.8510839745177L178.60840656135406,309.7609424724942L168.79697368934285,305.43122202360064L165.79347383056302,302.96767510507743L163.5909072674549,301.0266551699933L159.31926302386273,301.17596575942116L155.84855207594228,300.13078686029985L147.572241353977,300.8773443532755L142.83338602121512,299.1602536238843L143.70106375821342,295.800641329417L143.5008304342773,289.00640689607644L145.97037476260448,280.5689547034872L142.9668749038392,279.29954060961063L139.22918619068514,274.14704391532723L135.7584752427647,274.2217197163027L135.22451971229748,271.6827105355933L135.22451971229748,270.6372170308023L137.56057515802968,267.42598860013095L143.76780819952546,265.2602169226284L146.83805249960278,266.45513136023874L152.51133001063135,266.67917619334L169.46441810240503,262.1234971129488L182.4795841571322,258.090423898444L184.8156396028353,255.40161605727735L195.02753912268963,256.52196163901317L197.29685012709524,254.28125764387914L201.70198325329693,255.7003761336764Z"/>

    <path name="崁頂鄉" class="town" d="M135.22451971229748,270.6372170308023L135.22451971229748,271.6827105355933L130.95287546870532,271.1599651786655L130.4189199382672,275.64054911576204L127.08169787295628,276.6113152827784L122.00912033369241,275.64054911576204L121.00795371408458,279.07552465017216L117.13677611833555,277.7314181349975L111.19652084208792,278.7021635793353L107.92604321805993,273.9230161707492L102.45299903095292,272.72819287712446L100.3171769091714,276.46196726798553L95.11111048728344,280.5689547034872L93.77622166115907,275.3418498977517L93.10877724809689,268.99427610950806L97.18018816776748,261.15258727208493L105.5232433310448,254.13187555252262L110.32884310508962,252.26458016029392L113.53257628780557,245.31792825899356L116.13560949874227,245.61671914342332L118.40492050314788,242.7781688683408L121.34167592063022,240.01423807645915L126.6812312251277,240.6865527602913L130.88613102740783,239.8648341853077L131.21985323393892,242.1805688333443L128.4833311403927,245.99020646478675L130.81938658611034,248.67927306173806L130.95287546870532,253.6837279096144L132.68823094267282,257.642294390238L131.01961991001735,259.9576080892184L132.88846426660893,265.33489950235526L134.82405306448345,265.0361688415578Z"/>

    <path name="南州鄉" class="town" d="M135.22451971229748,271.6827105355933L135.7584752427647,274.2217197163027L139.22918619068514,274.14704391532723L142.9668749038392,279.29954060961063L145.97037476260448,280.5689547034872L143.5008304342773,289.00640689607644L143.70106375821342,295.800641329417L139.4294195146067,296.323255246034L134.7573086231714,298.264368265729L134.62381974056188,300.6533777020395L121.47516480323975,302.221133521567L121.07469815539662,300.6533777020395L116.80305391180445,301.0266551699933L116.60282058786834,291.6196297109218L114.93420955521287,290.2010316843789L110.26209866377758,290.94766478372003L107.59232101154339,292.8888842287397L107.32534324632434,286.8411123543501L111.19652084208792,278.7021635793353L117.13677611833555,277.7314181349975L121.00795371408458,279.07552465017216L122.00912033369241,275.64054911576204L127.08169787295628,276.6113152827784L130.4189199382672,275.64054911576204L130.95287546870532,271.1599651786655Z"/>

    <path name="琉球鄉" class="town" d="M36.9767021095613,374.98226170422276L43.05044626843301,379.6073040196934L41.782301883606124,384.97804852036825L35.10785775298427,389.3042688031055L28.96736915281508,395.9424101815275L24.028280496160733,398.77653670730797L20.624313989537768,398.1053035723962L19.956869576475583,393.70488435385414L24.362002702677273,389.97556183436245L26.2308470592543,386.24609826986125L24.762469350520405,382.06893157679406L28.96736915281508,377.66779657574443Z"/>

    <path name="三地門鄉" class="town" d="M295.0107121993933,33.54348760077664L290.8725568384252,37.66074617299455L284.3983460317104,38.933317853812696L280.8608906424779,41.253846576959404L272.31760215529357,44.77196121727502L273.18527989226277,50.31086081827016L269.9815467095759,57.645671763986684L268.1794467942964,63.40834716241261L264.04129143331375,66.8508205836788L263.7743136680947,71.41565076250845L253.76264747216192,80.02089256129511L257.5003361853014,87.12899368092621L259.36918054187845,95.13433559134864L255.69823627003643,96.63058781193831L250.69240317207004,97.22908223145532L247.6889033132902,98.80011249759082L249.35751434594567,109.72180959978141L248.42309216766444,112.33984186941234L256.29893624180113,119.81954475804196L254.89730297436472,126.77515106830833L252.7614808525541,130.43973242088578L250.82589205467957,137.61891951707366L247.35518110675912,135.97373601162144L243.95121460013615,136.04851768455228L240.7474814174493,132.83285375391097L234.40675949335855,131.93544016532906L232.0707040476409,127.07430575145372L228.93371530625154,127.97176426991064L222.99346002998936,124.68104247264637L220.9911267908028,122.28772018425843L218.3880935798661,121.9137582455187L217.25343807764875,124.68104247264637L213.44900492321176,123.78355353028019L207.84247185346612,122.886056289115L203.37059428596694,123.48438870533937L200.1001166619535,121.68938039060413L202.70314987290476,120.11872088035852L203.70431649249804,117.27651047500513L205.77339417299663,114.35941848167386L206.8413052338874,106.05644568266143L203.57082760987396,102.09171238831732L201.5684943706874,95.20914875110248L203.9712942577171,87.87718450209468L208.2429385013238,84.43545886510219L209.91154953397927,81.2929068846588L205.84013861429412,80.46984070140934L203.83780537510756,78.2250791809056L199.96662777934398,77.02785175235476L201.30151660546835,73.13676033262527L200.30034998587507,70.66733270537406L200.90104995762522,59.74122982496738L200.1668611032801,52.18203894191174L204.30501646424818,49.6372278250401L199.16569448367227,46.7180972574497L200.9677943989518,40.28072841617177L200.1668611032801,34.81611354148845L202.2359387837496,29.95010027229182L199.2991833662818,27.32983768070335L204.03803869901458,25.757645979840163L207.6422385295591,21.63987965344677L207.30851632304257,19.618366417511425L212.3810938622919,8.461846089971004L210.2452717404958,5.092173384620764L212.3143494209944,3.9689229722698656L214.45017154279049,5.616352430828556L216.9864603124297,2.6210051978214324L219.0555379929283,3.89403914601462L220.12344905381906,10.783107662002294L219.45600464075687,13.55357251687201L220.92438234949077,18.120921895175343L225.9302154474717,18.7947748067636L228.26627089318936,20.441950997152162L231.2697707519692,19.842981091052934L232.8716373433126,15.799836944506751L240.34701476960618,14.377208881742263L241.28143694790197,11.906278683236451L245.15261454366555,8.611606587583083L249.4910032285552,3.2200820915768418L262.8398914897989,3.0703132172457117L266.7110690855625,6.365174695052701L274.38667983576306,8.237204907343767L278.7250685206818,13.85307746343642L282.6629905577429,14.751586722268257L287.13486812527117,20.142466508952566L288.33626806877146,25.458177990059994L289.60441245359834,25.907379626254624L294.1430344624241,31.297636194860388Z"/>

    <path name="霧臺鄉" class="town" d="M286.6009125948185,181.13139429896364L282.52950167513336,173.88066643581806L280.66065731855633,172.23609632911212L279.65949069896305,167.45173437945778L277.1899463706359,162.96618141035287L278.9253018446034,160.57380192969867L279.1922796098079,155.0411989946042L275.92180198582355,150.92892531581674L275.92180198582355,145.171449904994L271.2496910943737,142.7786325229299L267.11153573339107,144.04982409326658L264.04129143331375,142.4047494844799L259.8363916310045,138.29194110209028L255.09753629827173,141.35786932312112L250.82589205467957,137.61891951707366L252.7614808525541,130.43973242088578L254.89730297436472,126.77515106830833L256.29893624180113,119.81954475804196L248.42309216766444,112.33984186941234L249.35751434594567,109.72180959978141L247.6889033132902,98.80011249759082L250.69240317207004,97.22908223145532L255.69823627003643,96.63058781193831L259.36918054187845,95.13433559134864L257.5003361853014,87.12899368092621L253.76264747216192,80.02089256129511L263.7743136680947,71.41565076250845L264.04129143331375,66.8508205836788L268.1794467942964,63.40834716241261L269.9815467095759,57.645671763986684L273.18527989226277,50.31086081827016L272.31760215529357,44.77196121727502L280.8608906424779,41.253846576959404L284.3983460317104,38.933317853812696L290.8725568384252,37.66074617299455L295.0107121993933,33.54348760077664L298.8151453538594,35.34013111233253L302.61957850831095,32.12112110991802L307.29168939974625,30.399281003237775L306.49075610407453,26.131979660278375L307.5586671649653,23.511613403679803L312.6312447042437,24.260296737651515L320.907555426209,19.543494743442352L322.3091886936454,16.39883195636321L326.91455514376867,13.778201314000398L333.52225483309303,13.403819694784033L338.66157681366894,17.596810820612518L340.59716561154346,22.53831638495285L342.7329877333541,23.58648199848176L346.67090977041516,19.543494743442352L354.1462871966942,29.95010027229182L354.1462871966942,37.66074617299455L352.2106983988342,41.328701414018724L354.4800094032398,42.82578597396787L356.81606484895747,48.51449573484024L362.3558534773765,51.20903083874873L364.9588866883132,50.16116500333919L371.5665863776376,52.18203894191174L377.9073083017138,57.421144992236805L379.4424304517597,60.5644723523601L379.50917489307176,64.90508979080732L378.44126383216644,69.32034561805085L380.0431304235244,72.3884555851946L379.84289709960285,77.62646731757923L377.50684165387065,82.11596607104548L373.1017085276835,83.98652911206955L374.43659735379333,91.8424993735589L373.50217517549754,95.13433559134864L373.8358973820432,104.70995067013064L372.23403079069976,106.43046875651817L371.7000752602471,110.54462735671586L369.697742021046,112.41464175304827L368.9635531666863,115.48138732081497L366.49400883835915,119.2959843244862L361.28794241648575,119.22118974624027L357.0830426141765,120.04392693625596L352.0772095162247,119.59516206098851L350.2083651596331,121.68938039060413L347.9390541552275,118.99680566557254L343.7341543529328,119.2959843244862L338.1943657245283,126.6255733810267L335.9917991614202,133.4311248724498L330.6522438569227,133.05720585527342L324.91222190459666,134.47809046168732L324.2447774915345,137.8432605635062L319.37243327616306,137.0206741935981L317.16986671305494,139.03973739462708L310.3619336998381,139.1145167072882L304.8221450714191,136.12329929992666L303.22027848007565,136.49720651313328L306.4240116627625,146.14351513748989L302.88655627353,151.1532356378193L302.95330071484204,157.58324483180513L298.6816564712499,164.98470583663766L294.8104788754863,169.47016575853013L290.7390679557866,176.57172123034434Z"/>

    <path name="瑪家鄉" class="town" d="M250.82589205467957,137.61891951707366L255.09753629827173,141.35786932312112L259.8363916310045,138.29194110209028L264.04129143331375,142.4047494844799L267.11153573339107,144.04982409326658L271.2496910943737,142.7786325229299L275.92180198582355,145.171449904994L275.92180198582355,150.92892531581674L279.1922796098079,155.0411989946042L278.9253018446034,160.57380192969867L277.1899463706359,162.96618141035287L274.18644651185605,163.4147460131644L269.6478245030303,166.1808486990867L263.6408247854706,163.3399853896608L260.3703471614717,161.0223775640534L257.5003361853014,161.9195226271022L241.9488813609496,163.93806876919734L244.95238121972943,169.6944333276624L237.9442148825765,169.6196775287117L231.87047072370478,166.40512384879912L226.5309154192073,167.0031883875763L225.52974879962858,168.72260346229268L219.45600464075687,172.53511114240064L216.6527381058986,170.06821146114817L214.1164493362594,170.29247765219588L209.31084956221457,173.65640851183161L208.77689403177646,176.57172123034434L204.8389719946863,182.0283540351138L201.76872769462352,184.79392789007215L198.23127230539103,181.57987519963717L198.03103898146946,174.2544284944197L200.63407219240617,165.2089837434287L202.30268322506163,164.46138871030234L201.0345388402493,159.52711740471022L201.83547213593556,155.0411989946042L204.37176090556022,147.71375382191763L203.90454981640505,142.7786325229299L205.1059497599199,138.74061956836158L209.84480509266723,134.25374164269306L212.3143494209944,133.2067736349054L214.58366042541456,129.31793649265273L213.44900492321176,123.78355353028019L217.25343807764875,124.68104247264637L218.3880935798661,121.9137582455187L220.9911267908028,122.28772018425843L222.99346002998936,124.68104247264637L228.93371530625154,127.97176426991064L232.0707040476409,127.07430575145372L234.40675949335855,131.93544016532906L240.7474814174493,132.83285375391097L243.95121460013615,136.04851768455228L247.35518110675912,135.97373601162144Z"/>

    <path name="泰武鄉" class="town" d="M277.1899463706359,162.96618141035287L279.65949069896305,167.45173437945778L280.66065731855633,172.23609632911212L282.52950167513336,173.88066643581806L286.6009125948185,181.13139429896364L281.06112396639946,193.68807911779368L282.32926835122635,201.16152819985655L276.4557575162762,210.50253413524842L278.5915796380723,217.37694315322915L277.85739078369807,222.75657768848578L273.6524909814034,224.40029577923633L272.65132436182466,231.7219766146536L265.7099024659692,228.8083122409007L258.56824724620674,230.3772192423712L256.63265844831767,228.2106267538784L252.3610142047255,229.10715361279108L249.82472543510085,228.13591581081528L246.15378116325883,229.10715361279108L242.2158591261832,232.39434835846623L238.07770376518602,230.9748914712345L232.8716373433126,228.06120481059406L229.66790416062577,228.8083122409007L226.26393765398825,227.08995660658184L220.39042681905266,228.36004846855212L215.25110483847675,226.4175483451454L211.1796939187916,229.0324433555361L211.64690500793222,238.8937033253551L210.11178285788628,244.64564543008055L207.50874964694958,245.9155091146622L205.9068830555916,244.12275558896727L201.30151660546835,245.54202150792116L198.63173895320506,242.7781688683408L197.16336124447116,241.06005891956556L197.36359456840728,235.6067272624041L199.76639445542241,233.51495764738138L198.56499451190757,222.60714739891773L201.90221657723305,219.99208030558293L201.3682610467804,217.07806587425875L201.76872769462352,209.00803329892733L197.43033900970477,208.18604807951124L196.6961501553451,204.97276666535072L201.76872769462352,201.83411051781695L202.2359387837496,196.4533220560479L200.03337222065602,194.13650222104297L201.30151660546835,190.84801821547626L206.8413052338874,183.74750377410783L201.76872769462352,184.79392789007215L204.8389719946863,182.0283540351138L208.77689403177646,176.57172123034434L209.31084956221457,173.65640851183161L214.1164493362594,170.29247765219588L216.6527381058986,170.06821146114817L219.45600464075687,172.53511114240064L225.52974879962858,168.72260346229268L226.5309154192073,167.0031883875763L231.87047072370478,166.40512384879912L237.9442148825765,169.6196775287117L244.95238121972943,169.6944333276624L241.9488813609496,163.93806876919734L257.5003361853014,161.9195226271022L260.3703471614717,161.0223775640534L263.6408247854706,163.3399853896608L269.6478245030303,166.1808486990867L274.18644651185605,163.4147460131644Z"/>

    <path name="來義鄉" class="town" d="M272.65132436182466,231.7219766146536L272.31760215529357,236.65259527621674L279.1922796098079,248.9780536740709L281.72856837946165,265.40958202509137L284.13136826649134,266.9779018397676L287.53533477309975,272.28013038333484L288.2695236274594,279.29954060961063L284.7988126795535,281.2409907999172L284.0646238251793,285.9451144124487L280.1934462294157,287.43843976466087L282.06229058599274,292.5902375852984L280.32693511202524,298.1897107831337L280.1934462294157,302.4450965931828L275.5213353379804,304.75935172638856L273.31876877488685,308.41725657097413L269.7813133856398,311.10460997658265L266.4440913203289,311.77643683021233L265.64315802465717,307.6707564532335L263.9078025507042,305.35656999555977L261.77198042890814,297.74176469401027L259.502669424488,295.57666308390253L256.2321918004891,295.0540451880697L250.95938093730365,296.0246190633243L247.2216922241496,293.6354968572796L245.68657007410366,295.4273439693334L244.88563677843194,303.5649042813184L242.5495813327143,307.7454067205599L237.14328158690478,310.73137084853624L232.93838178462465,311.4032002570493L229.73464860192325,310.73137084853624L226.73114874314342,314.01582646477436L219.78972684728797,315.5087245058239L219.2557713168353,314.3144078893074L213.91621601233783,313.344014938908L211.58016056662018,314.68763339284305L208.3096829426213,320.65904849490653L205.77339417299663,320.5844080474362L202.43617210767115,318.4944524833336L194.22660582701792,315.8073013896483L187.01820616592886,311.8510839745177L194.49358359223697,308.4919062704157L191.82380593998823,305.1326135706531L192.29101702912885,298.4883403725089L191.75706149869075,291.47030456960783L196.36242794879945,287.0651105598554L193.4256725313462,284.4517663040224L192.29101702912885,281.2409907999172L193.75939473786275,278.6274911943947L194.9607946813776,272.3548076080169L194.8940502400801,268.24747566703445L197.0298723618762,264.21465482298663L203.03687207943585,255.55099620952933L198.49825007061008,254.58002114216833L196.96312792056415,252.26458016029392L196.36242794879945,248.82866348201787L197.09661680317367,244.64564543008055L198.63173895320506,242.7781688683408L201.30151660546835,245.54202150792116L205.9068830555916,244.12275558896727L207.50874964694958,245.9155091146622L210.11178285788628,244.64564543008055L211.64690500793222,238.8937033253551L211.1796939187916,229.0324433555361L215.25110483847675,226.4175483451454L220.39042681905266,228.36004846855212L226.26393765398825,227.08995660658184L229.66790416062577,228.8083122409007L232.8716373433126,228.06120481059406L238.07770376518602,230.9748914712345L242.2158591261832,232.39434835846623L246.15378116325883,229.10715361279108L249.82472543510085,228.13591581081528L252.3610142047255,229.10715361279108L256.63265844831767,228.2106267538784L258.56824724620674,230.3772192423712L265.7099024659692,228.8083122409007Z"/>

    <path name="春日鄉" class="town" d="M280.1934462294157,302.4450965931828L284.4650904730079,302.4450965931828L289.3374346883793,306.40169321917347L293.5423344906594,307.14820299171697L296.47908990814176,309.16375100989353L295.5446677298314,312.522905718577L299.0153786777664,317.5241008500034L303.28702292137314,326.0330116406767L305.1558672779356,331.33204852944255L299.08212311907846,337.1531962877598L292.6746567536902,338.94424931841786L289.00371248183365,337.52633502689787L284.5318349143199,340.3621431594347L281.9288017033832,340.2128921391395L284.1981127077888,345.2126779939408L281.6618239381496,346.33199821045855L280.7941462011804,349.46602705097575L283.4639238534146,352.0776414794109L279.5260018163535,355.06225879926933L278.3246018728387,357.67372469689144L277.590413018479,364.0155677121493L274.9206353662303,366.9998230731235L268.5799134421395,367.1490334670634L263.7075692267972,373.04266321465366L258.30126948097313,375.9520466294325L255.23102518088126,375.3552570359061L251.69356979166332,376.6980285380214L248.0226255198213,380.204067861403L243.350514628386,380.57704342742363L239.61282591523195,382.14352539147876L238.07770376518602,385.351006022187L235.94188164340449,383.56079714462066L224.5285821800353,383.4116116039295L220.92438234949077,382.2181191497002L219.9232157298975,385.4255973532363L216.85297142982017,382.7402738766232L211.1129494774941,380.3532582571934L208.17619406001177,377.8915878444386L207.4420052056521,375.50445477319226L206.70781635127787,372.8934617490577L200.4338388684846,373.56486656465677L197.29685012709524,370.4316049386507L194.2933502683154,369.6855755749948L195.89521685967338,365.7315255960675L193.02520588348852,360.28512130293893L193.35892809003417,349.98835548317766L201.0345388402493,347.07820461107076L198.03103898146946,339.46663363899825L202.03570545984257,333.6456228983134L199.5661611315154,332.6754209234168L199.43267224890587,329.69012399557687L196.36242794879945,328.64524864251325L196.82963903795462,325.80910237978605L200.3670944271871,323.86853407167473L202.43617210767115,318.4944524833336L205.77339417299663,320.5844080474362L208.3096829426213,320.65904849490653L211.58016056662018,314.68763339284305L213.91621601233783,313.344014938908L219.2557713168353,314.3144078893074L219.78972684728797,315.5087245058239L226.73114874314342,314.01582646477436L229.73464860192325,310.73137084853624L232.93838178462465,311.4032002570493L237.14328158690478,310.73137084853624L242.5495813327143,307.7454067205599L244.88563677843194,303.5649042813184L245.68657007410366,295.4273439693334L247.2216922241496,293.6354968572796L250.95938093730365,296.0246190633243L256.2321918004891,295.0540451880697L259.502669424488,295.57666308390253L261.77198042890814,297.74176469401027L263.9078025507042,305.35656999555977L265.64315802465717,307.6707564532335L266.4440913203289,311.77643683021233L269.7813133856398,311.10460997658265L273.31876877488685,308.41725657097413L275.5213353379804,304.75935172638856Z"/>

    <path name="獅子鄉" class="town" d="M274.9206353662303,366.9998230731235L280.7941462011804,371.69984188875424L287.80231253833335,372.81886093152207L288.0692903035524,377.59319937322834L290.9393012797227,381.024612243451L296.0786232602841,380.05487723975057L302.1523674191558,382.36730649680067L304.8888895127311,387.3649521514508L306.9579671932006,389.378857143367L307.75890048888687,397.9561400333514L309.8279781693709,401.6105818231117L307.29168939974625,405.7869210141471L303.4872562452947,408.02417289022014L297.61374541034456,408.546191032101L296.7460676733608,412.7222368039784L297.34676764511096,416.0032917289609L299.81631197343813,418.38944503008315L304.42167842357594,418.76227627634216L307.5586671649653,424.6528232328692L315.5012556803995,425.7712418467563L316.36893341738323,430.6921333914288L310.69565590635466,431.2140317616486L309.4275115215278,437.17838890832536L310.9626336715737,440.3095324043006L311.69682252594794,444.7824226062203L321.9754664871143,440.53318171803403L328.85014394165773,445.1551543278001L333.1885326265474,451.78954406022604L337.66041019407567,454.32391262785313L345.13578762036923,454.32391262785313L350.27510960094514,456.3364532106534L353.478842783632,460.06327219466766L355.34768714022357,464.1626110881625L356.2153648772073,470.42309219185154L355.21419825761404,477.20483373224124L351.676742868367,478.3971798862294L344.40159876600956,476.8322226179753L343.66740991163533,475.8634271658593L336.7259880157799,475.7143808712717L326.91455514376867,480.33471180139895L322.576166458879,479.4404710072031L320.70732210228743,481.82509520248095L313.0317113520723,483.09190348057746L309.96146705198043,486.7432015063223L305.4895894844667,488.15897477961335L301.4849230060936,488.3825160808392L291.87372345800395,494.4179408248983L290.60557907317707,496.280652103831L282.86322388166445,501.7195689711698L279.7262351402751,500.82552091244725L272.31760215529357,502.83711772239076L267.7789801464678,503.35863616802817L269.3808467378112,508.0521789221766L267.9792134703748,510.80860064139415L270.9827133291692,516.0232433183628L271.51666885962186,521.8335228101878L270.248524474795,526.2282521989819L270.9827133291692,527.6434626836417L269.3808467378112,534.8681707762316L270.0482911508734,542.9115583828443L262.3726804006583,544.5499465260073L260.3703471614717,546.7095987837638L256.8328917722247,547.7521727598723L258.56824724620674,540.5284002077751L252.0940364394919,533.0061828068156L248.95704769810254,525.6323680737096L246.68773669371149,525.7813394398509L247.35518110675912,523.472258179303L246.0870367219468,515.9487503499931L243.48400351099554,503.9546538944669L241.74864803702803,498.29234101750626L244.35168124799384,491.7355751538962L243.4172590696835,486.8177163929213L246.8879700176185,485.1783759557202L251.42659202644427,480.5582707397243L257.700569509223,479.9621124506775L252.9617141764902,476.08699618752325L243.88447015883867,478.0990946922102L242.2826035674807,480.18567222914317L239.54608147393446,479.66403196191095L232.6714040193765,471.61551993390094L232.27093737156247,468.03819365708296L226.86463762575295,458.4980253064423L227.131615390972,454.02575498773695L223.86113776697312,449.5532826084709L220.9911267908028,444.18604893086376L228.26627089318936,440.3095324043006L221.72531564516248,438.5203196880939L215.98529369283642,438.5948708641863L210.84597171224596,421.81943942037105L210.57899394704145,411.00709652255136L212.44783830360393,407.3530026515782L208.04270517740224,408.02417289022014L204.90571643601288,402.0580551901694L204.90571643601288,399.4477652755995L200.03337222065602,386.24609826986125L197.4970834510168,382.2927128514748L203.57082760987396,378.48836207616296L208.17619406001177,377.8915878444386L211.1129494774941,380.3532582571934L216.85297142982017,382.7402738766232L219.9232157298975,385.4255973532363L220.92438234949077,382.2181191497002L224.5285821800353,383.4116116039295L235.94188164340449,383.56079714462066L238.07770376518602,385.351006022187L239.61282591523195,382.14352539147876L243.350514628386,380.57704342742363L248.0226255198213,380.204067861403L251.69356979166332,376.6980285380214L255.23102518088126,375.3552570359061L258.30126948097313,375.9520466294325L263.7075692267972,373.04266321465366L268.5799134421395,367.1490334670634Z"/>

    <path name="東港鎮" class="town" d="M111.19652084208792,278.7021635793353L107.32534324632434,286.8411123543501L107.59232101154339,292.8888842287397L110.26209866377758,290.94766478372003L114.93420955521287,290.2010316843789L116.60282058786834,291.6196297109218L116.80305391180445,301.0266551699933L115.40142064436805,301.25062096889997L115.53490952697757,307.3721548159865L116.73630947049242,309.6862937384176L114.60048734869633,312.82149168435353L113.19885408125992,318.1958837714028L109.92837645726104,319.3901531719439L107.19185436370026,318.34516824085404L102.98695456140558,324.8388230180353L88.57015523925656,315.95658949103927L73.819633710591,301.77320584430345L73.15218929752882,298.11505324370773L79.092444573791,295.3526843267664L80.36058895860333,293.1875299624444L83.49757769999269,292.4409139224099L90.77272180236469,287.66243660494L95.11111048728344,280.5689547034872L100.3171769091714,276.46196726798553L102.45299903095292,272.72819287712446L107.92604321805993,273.9230161707492Z"/>

    <path name="恆春鎮" class="town" d="M301.81864521263924,590.7860644573029L304.8221450714191,593.9868057994336L307.5586671649653,599.7925398535044L302.35260074307735,608.4260843435222L299.8830564147502,608.3516604239103L293.942801138488,610.0633965515681L296.7460676733608,614.3798183438576L299.6828230908286,616.2402874923791L302.28585630177986,619.7378757653496L302.4860896257014,625.9141690657889L298.54816758861125,633.5037904069322L296.4123454668297,633.4293851487382L292.7414011949877,636.4055523313509L292.7414011949877,640.8696371952901L296.0118788189866,641.0184365959922L307.49192272365326,638.9352248613377L315.1007890325709,640.4976377260373L321.44151095666166,640.1256368746199L324.04454416759836,644.8127466037022L327.8489773220499,644.14317293157L329.984799443846,647.11902165434L334.3899325700768,646.9702313181679L336.92622133970144,643.7711856236947L340.797398935465,640.9440369232798L341.6650766724488,643.0272068624818L340.99763225937204,648.755700764963L339.12878790280956,654.7070357733173L339.59599899193563,661.6994028045956L343.86764323554235,673.0795531965523L346.8043986530247,675.5339261697936L352.8113983705698,684.5327801852254L352.4109317227412,690.1101773160808L353.34535390102246,692.9359402969603L355.81489822934964,694.9436709481106L354.34652052061574,698.2154423317861L350.2083651596331,700L345.3360209442908,699.4795072873349L343.2669432637922,696.9513614731259L341.99879887897987,692.6384953059714L342.06554332027736,687.2843348222068L336.25877692663926,685.5739178352633L333.3220215091569,680.4424920192178L327.7154884394404,675.0876810041627L326.4473440546135,672.7076732655605L320.4403443370684,673.3026804934652L316.7026556239143,671.3688940991742L315.2342779151804,669.286313212895L310.8291447889642,670.1788531731727L309.69448928677593,667.129308849775L306.62424498668406,666.2367417494606L300.8174785930314,666.1623607991514L297.28002320381347,662.1457075439521L292.40767898844206,659.988549563268L288.80347915792663,655.2277607685774L281.26135729032103,657.9801193677686L280.92763508378994,661.1043267280293L278.19111299022916,661.9969395182598L278.19111299022916,667.426829451153L276.18877975102805,666.9805482180727L277.1232019293384,672.7820493620438L272.5845799205126,678.3600994665994L272.38434659659106,682.9710534645073L265.3094358181406,684.0122073111779L261.77198042890814,681.7811501308151L258.9687138940353,677.6907498266173L259.1022027766594,673.7489335985101L256.9663806548633,672.3357919560021L253.42892526561627,672.8564254033772L253.0284586177877,667.6499693229453L253.96288079608348,660.5092471190128L254.02962523738097,651.8058041183813L256.29893624180113,646.7470453994629L255.36451406350534,640.0512365384711L251.02612537860114,635.2150960781637L250.15844764161739,630.8995734531545L246.954714458916,629.1881939791056L242.48283689140226,624.574764352421L241.48167027180898,619.5890447141883L245.4195923088846,619.365797722081L240.7474814174493,608.4260843435222L240.61399253483978,603.6628417237171L243.08353686316696,602.1742818287967L246.15378116325883,602.6208521264525L250.2919365242269,595.1033193346448L254.63032520914567,591.530432067264L258.7684805701283,591.0093753231413L260.9710471332219,588.1807341055373L266.31060243771935,590.1161288621879L268.24619123559387,589.2973125838325L271.58341330091935,592.7214086977856L276.85622416409024,591.530432067264L279.45925737505604,587.8829777348492L279.59274625766557,584.9798065606356L281.39484617293056,582.0765509147986L285.73323485783476,583.416525556775L288.5365013927076,582.6720974220025L292.20744566453504,584.2353900897124L294.1430344624241,587.6596598738324L296.54583434943925,587.5852204757848Z"/>

    <path name="枋寮鄉" class="town" d="M187.01820616592886,311.8510839745177L194.22660582701792,315.8073013896483L202.43617210767115,318.4944524833336L200.3670944271871,323.86853407167473L196.82963903795462,325.80910237978605L196.36242794879945,328.64524864251325L199.43267224890587,329.69012399557687L199.5661611315154,332.6754209234168L202.03570545984257,333.6456228983134L198.03103898146946,339.46663363899825L201.0345388402493,347.07820461107076L193.35892809003417,349.98835548317766L193.02520588348852,360.28512130293893L195.89521685967338,365.7315255960675L194.2933502683154,369.6855755749948L197.29685012709524,370.4316049386507L200.4338388684846,373.56486656465677L206.70781635127787,372.8934617490577L207.4420052056521,375.50445477319226L204.03803869901458,374.53466544215735L197.4970834510168,376.6234306013248L192.95846144219104,378.78674783672795L189.02053940511541,382.14352539147876L188.15286166814622,384.3067214613002L184.61540627891372,385.72396211303567L180.41050647661905,375.13146000634697L171.66698466551316,365.5077066984377L162.25601844134508,359.31518207993395L161.98904067611147,358.4198450828353L148.1061968844151,349.16755241591636L141.96570828424592,345.8096503614015L149.44108571053948,345.8096503614015L152.8450522171479,342.5262574939279L157.38367422597366,344.01872238758915L158.71856305209803,342.6008812766104L158.05111863903585,337.3770797012148L165.52649606534396,333.4963616794412L159.5194963477843,322.8235967943183L162.52299620656413,309.46234719546555L165.79347383056302,302.96767510507743L168.79697368934285,305.43122202360064L178.60840656135406,309.7609424724942Z"/>

    <path name="新園鄉" class="town" d="M105.5232433310448,254.13187555252262L97.18018816776748,261.15258727208493L93.10877724809689,268.99427610950806L93.77622166115907,275.3418498977517L95.11111048728344,280.5689547034872L90.77272180236469,287.66243660494L83.49757769999269,292.4409139224099L80.36058895860333,293.1875299624444L79.092444573791,295.3526843267664L73.15218929752882,298.11505324370773L71.95078935402853,295.4273439693334L66.27751184299996,295.2033648711167L65.94378963645431,287.21444241242716L67.14518957998371,274.371071147405L65.7435563125473,268.47151639795993L65.20960078209464,259.9576080892184L66.74472293212602,252.8621185645461L70.74938941049913,241.43356365147702L74.22010035843414,239.41662114140854L76.95662245198037,232.24493281534342L85.29967761525768,232.02080907214804L88.43666635664704,230.825473756875L100.38392135046888,230.3772192423712L101.05136576354562,233.2161297605635L103.38742120926327,233.51495764738138L101.38508797006216,251.06949239920505Z"/>

    <path name="林邊鄉" class="town" d="M143.70106375821342,295.800641329417L142.83338602121512,299.1602536238843L141.5652416364028,300.2800988134859L137.29359739281063,308.71585502798735L133.55590867965657,308.71585502798735L131.55357544047,312.07502506681703L132.68823094267282,314.76227832326913L132.08753097090812,322.5996802170612L129.75147552519047,325.88373885678993L124.4119202207221,330.51108969212873L122.40958698152099,335.4367398432787L110.52907642902574,328.5706142635099L102.98695456140558,324.8388230180353L107.19185436370026,318.34516824085404L109.92837645726104,319.3901531719439L113.19885408125992,318.1958837714028L114.60048734869633,312.82149168435353L116.73630947049242,309.6862937384176L115.53490952697757,307.3721548159865L115.40142064436805,301.25062096889997L116.80305391180445,301.0266551699933L121.07469815539662,300.6533777020395L121.47516480323975,302.221133521567L134.62381974056188,300.6533777020395L134.7573086231714,298.264368265729L139.4294195146067,296.323255246034Z"/>

    <path name="車城鄉" class="town" d="M270.0482911508734,542.9115583828443L271.51666885962186,547.6777035522464L270.5822466813115,553.0393441406231L272.31760215529357,556.1668345092894L276.12203530973056,557.6560811223353L282.4627572338359,548.6457989065766L285.79997929913225,547.3053566785038L292.80814563629974,549.5394170324016L299.74956753214065,552.9648788871891L307.22494495844876,555.720056183487L307.75890048888687,566.7400034338407L308.49308934324654,570.015968983671L308.42634490194905,578.3543046904942L304.08795621704485,584.8309237107642L301.81864521263924,590.7860644573029L296.54583434943925,587.5852204757848L294.1430344624241,587.6596598738324L292.20744566453504,584.2353900897124L288.5365013927076,582.6720974220025L285.73323485783476,583.416525556775L281.39484617293056,582.0765509147986L279.59274625766557,584.9798065606356L279.45925737505604,587.8829777348492L276.85622416409024,591.530432067264L271.58341330091935,592.7214086977856L268.24619123559387,589.2973125838325L266.31060243771935,590.1161288621879L260.9710471332219,588.1807341055373L258.7684805701283,591.0093753231413L254.63032520914567,591.530432067264L250.2919365242269,595.1033193346448L246.15378116325883,602.6208521264525L243.08353686316696,602.1742818287967L240.61399253483978,603.6628417237171L240.7474814174493,608.4260843435222L245.4195923088846,619.365797722081L241.48167027180898,619.5890447141883L236.87630382168572,609.5424364862101L238.07770376518602,603.2907038295689L244.15144792405772,595.9965211731596L242.8833035392454,592.3492300271228L244.88563677843194,587.5852204757848L249.42425878724316,586.8408234413037L250.35868096553895,584.0865061290533L249.69123655247677,578.5031972063862L250.22519208291487,576.4931294871349L248.6900699328835,571.1327508147788L246.0202922806493,568.0057301592842L247.35518110675912,565.6231723863893L251.4933364677563,564.3574154028047L257.5003361853014,560.5600479833884L256.43242512441066,551.2521626894995L252.42775864603755,539.7836515737654L248.0226255198213,534.719213021297L247.4886699893832,531.7400110776325L245.4863367501821,529.8034819590375L245.21935898496304,525.8558250392107L246.68773669371149,525.7813394398509L248.95704769810254,525.6323680737096L252.0940364394919,533.0061828068156L258.56824724620674,540.5284002077751L256.8328917722247,547.7521727598723L260.3703471614717,546.7095987837638L262.3726804006583,544.5499465260073Z"/>

    <path name="滿州鄉" class="town" d="M375.30427509076253,524.6640487527857L375.03729732555803,527.0475870399678L369.3640198145149,532.3358586051163L368.56308651885774,534.793691926654L369.1637864906079,539.7836515737654L372.3675196733093,548.5713303673838L378.641497156088,552.0712915027361L376.5056750342919,555.1243486316343L376.3721861516824,559.9643693742964L373.43543073420005,563.8362166779298L372.70124187982583,578.4287509762235L373.50217517549754,586.9152633946287L373.168452968981,591.3071223671159L375.6379972973082,597.7829008802546L378.10754162563535,602.0998532517478L370.23169755149866,608.2028124183744L368.83006428406225,614.7519149436248L363.0900423317362,618.8448861354573L363.5572534208768,623.2353417028135L361.48817574039276,627.1791459387332L355.8816426706617,629.9322756080255L352.2106983988342,632.8341410916728L345.66974315080734,634.0990304810512L342.06554332027736,636.1079395954421L340.797398935465,640.9440369232798L336.92622133970144,643.7711856236947L334.3899325700768,646.9702313181679L329.984799443846,647.11902165434L327.8489773220499,644.14317293157L324.04454416759836,644.8127466037022L321.44151095666166,640.1256368746199L315.1007890325709,640.4976377260373L307.49192272365326,638.9352248613377L296.0118788189866,641.0184365959922L292.7414011949877,640.8696371952901L292.7414011949877,636.4055523313509L296.4123454668297,633.4293851487382L298.54816758861125,633.5037904069322L302.4860896257014,625.9141690657889L302.28585630177986,619.7378757653496L299.6828230908286,616.2402874923791L296.7460676733608,614.3798183438576L293.942801138488,610.0633965515681L299.8830564147502,608.3516604239103L302.35260074307735,608.4260843435222L307.5586671649653,599.7925398535044L304.8221450714191,593.9868057994336L301.81864521263924,590.7860644573029L304.08795621704485,584.8309237107642L308.42634490194905,578.3543046904942L313.0984557933698,583.5654105171907L318.23777777396026,584.012064065415L321.30802207405213,580.9598916312807L323.71082196106727,575.4508562015762L323.8443108436768,572.84512532599L326.4473440546135,572.398421767095L325.37943299372273,568.8247212406004L322.9766331067076,566.3677278085579L323.4438441958482,563.3150152270864L327.2482773503143,562.7938110501436L329.51758835470537,558.1773121768911L330.5187549743132,553.4116695725897L333.52225483309303,550.879829183219L337.99413240060676,548.9436725063606L339.8629767571838,545.8904258568346L343.86764323554235,544.4010032637852L348.005798596525,539.411275166518L348.87347633350873,534.4212968422471L346.6041653291177,529.3565852687789L343.80089879424486,525.4833964843638L345.80323203341686,523.8446942683513L357.14978705548856,527.0475870399678L360.2200313555659,526.4517078252084L367.02796436879726,528.5372694537728L368.83006428406225,526.8241327529267L372.70124187982583,526.3772226722613Z"/>

    <path name="枋山鄉" class="town" d="M207.4420052056521,375.50445477319226L208.17619406001177,377.8915878444386L203.57082760987396,378.48836207616296L197.4970834510168,382.2927128514748L200.03337222065602,386.24609826986125L204.90571643601288,399.4477652755995L204.90571643601288,402.0580551901694L208.04270517740224,408.02417289022014L212.44783830360393,407.3530026515782L210.57899394704145,411.00709652255136L210.84597171224596,421.81943942037105L215.98529369283642,438.5948708641863L221.72531564516248,438.5203196880939L228.26627089318936,440.3095324043006L220.9911267908028,444.18604893086376L223.86113776697312,449.5532826084709L227.131615390972,454.02575498773695L226.86463762575295,458.4980253064423L232.27093737156247,468.03819365708296L232.6714040193765,471.61551993390094L239.54608147393446,479.66403196191095L242.2826035674807,480.18567222914317L243.88447015883867,478.0990946922102L252.9617141764902,476.08699618752325L257.700569509223,479.9621124506775L251.42659202644427,480.5582707397243L246.8879700176185,485.1783759557202L243.4172590696835,486.8177163929213L244.35168124799384,491.7355751538962L241.74864803702803,498.29234101750626L243.48400351099554,503.9546538944669L246.0870367219468,515.9487503499931L247.35518110675912,523.472258179303L246.68773669371149,525.7813394398509L245.21935898496304,525.8558250392107L246.15378116325883,520.4927192307532L242.95004798054288,515.2783111215322L243.88447015883867,513.7139353282382L242.48283689140226,504.62516956019863L240.68073697613727,502.76261486367366L240.68073697613727,498.36684723127473L239.27910370870086,493.67284652318085L237.0765371456073,490.4688772680547L235.94188164340449,486.37062623359634L237.21002602821682,482.9428680525434L236.60932605645212,477.9500517590968L231.2030263106426,469.4542340853677L228.33301533448684,466.17495173134375L228.19952645187732,461.7030281134503L218.98879355161625,454.9202252139985L218.98879355161625,451.93862636049744L214.04970489494735,448.584220286506L213.31551604058768,445.8260678880579L215.1843603971647,436.9547320079837L212.51458274490142,428.60451235494656L209.04387179699552,420.85010525177313L209.04387179699552,413.3933705436539L204.7722275533888,405.48861693263825L201.0345388402493,401.0139475105443L194.36009470962745,394.3761474316507L184.61540627891372,385.72396211303567L188.15286166814622,384.3067214613002L189.02053940511541,382.14352539147876L192.95846144219104,378.78674783672795L197.4970834510168,376.6234306013248L204.03803869901458,374.53466544215735Z"/>

    <path name="牡丹鄉" class="town" d="M375.30427509076253,524.6640487527857L372.70124187982583,526.3772226722613L368.83006428406225,526.8241327529267L367.02796436879726,528.5372694537728L360.2200313555659,526.4517078252084L357.14978705548856,527.0475870399678L345.80323203341686,523.8446942683513L343.80089879424486,525.4833964843638L346.6041653291177,529.3565852687789L348.87347633350873,534.4212968422471L348.005798596525,539.411275166518L343.86764323554235,544.4010032637852L339.8629767571838,545.8904258568346L337.99413240060676,548.9436725063606L333.52225483309303,550.879829183219L330.5187549743132,553.4116695725897L329.51758835470537,558.1773121768911L327.2482773503143,562.7938110501436L323.4438441958482,563.3150152270864L322.9766331067076,566.3677278085579L325.37943299372273,568.8247212406004L326.4473440546135,572.398421767095L323.8443108436768,572.84512532599L323.71082196106727,575.4508562015762L321.30802207405213,580.9598916312807L318.23777777396026,584.012064065415L313.0984557933698,583.5654105171907L308.42634490194905,578.3543046904942L308.49308934324654,570.015968983671L307.75890048888687,566.7400034338407L307.22494495844876,555.720056183487L299.74956753214065,552.9648788871891L292.80814563629974,549.5394170324016L285.79997929913225,547.3053566785038L282.4627572338359,548.6457989065766L276.12203530973056,557.6560811223353L272.31760215529357,556.1668345092894L270.5822466813115,553.0393441406231L271.51666885962186,547.6777035522464L270.0482911508734,542.9115583828443L269.3808467378112,534.8681707762316L270.9827133291692,527.6434626836417L270.248524474795,526.2282521989819L271.51666885962186,521.8335228101878L270.9827133291692,516.0232433183628L267.9792134703748,510.80860064139415L269.3808467378112,508.0521789221766L267.7789801464678,503.35863616802817L272.31760215529357,502.83711772239076L279.7262351402751,500.82552091244725L282.86322388166445,501.7195689711698L290.60557907317707,496.280652103831L291.87372345800395,494.4179408248983L301.4849230060936,488.3825160808392L305.4895894844667,488.15897477961335L309.96146705198043,486.7432015063223L313.0317113520723,483.09190348057746L320.70732210228743,481.82509520248095L322.576166458879,479.4404710072031L326.91455514376867,480.33471180139895L336.7259880157799,475.7143808712717L343.66740991163533,475.8634271658593L344.40159876600956,476.8322226179753L351.676742868367,478.3971798862294L355.21419825761404,477.20483373224124L356.2153648772073,470.42309219185154L355.34768714022357,464.1626110881625L361.9553868295334,460.5850156593915L364.8253978057037,460.43594637854403L366.8944754862023,456.5600663055575L374.9038084429485,452.38587191400075L376.17195282776083,458.4234891231881L376.5724194755894,464.1626110881625L374.6368306777149,465.9513603452924L373.50217517549754,473.55318441292366L374.970552884246,482.7193144905177L371.23286417109193,488.53154333512794L372.23403079069976,498.29234101750626L373.50217517549754,504.5506680431572L372.16728634937317,511.7025588260367L373.36868629290257,516.4701999557383L372.4342641146068,520.2692502089976Z"/>
</svg>
