<?xml version="1.0" encoding="utf-8"?>
<svg version="1.1" xmlns="http://www.w3.org/2000/svg" xmlns:xlink="http://www.w3.org/1999/xlink" x="0px" y="0px"
	 viewBox="0 0 700 360" style="enable-background:new 0 0 700 360;" xml:space="preserve" data-w="700" data-h="360">
<style type="text/css">
	.town{fill:#9CCA97;stroke:#FFFFFF;stroke-width:1.5;stroke-linecap:round;stroke-linejoin:round;}
</style>

    <path name="南屯區" class="town"  d="M91.22746583994012,243.42873355078336L87.69089447698207,239.0260611696758L83.02905040762562,236.06677734850382L82.9486737857369,229.64266009076528L84.95808933288208,229.71484351173058L89.86106326789013,218.4535898527174L92.03123205878364,221.05245506055144L97.33608910323528,223.79562721628463L101.19416695373366,222.49623941006212L105.37375129177235,222.7849937383835L109.87484211736592,226.53872292185042L114.4563095648191,226.9718363088723L118.31438741531747,230.9419535714951L121.60982891260937,229.64266009076528L124.42301067861263,226.46653717208756L126.67355609139486,230.65322316860693L133.74669881732552,230.50885764964914L136.6402572051884,228.41553383709834L138.7300493742223,229.64266009076528L138.0870363991271,234.98409031998744L139.61419221496908,238.0155840076659L139.45343897119164,245.4495664692222L138.64967275233357,254.32630596418312L136.07762085198192,254.39847130188718L131.5765300264029,258.2953210943451L126.83430933517229,262.624973574686L122.01171202205296,264.14030703520984L115.26007578367717,262.76929205023407L114.13480307727878,254.18197513029008L106.7401538638369,252.66648861566864L100.79228384430462,249.77978317443558L96.85382937193208,244.72784518482877L94.20140084970626,242.99569253288064Z"/>

    <path name="烏日區" class="town"  d="M131.5765300264029,258.2953210943451L136.07762085198192,263.5630398908106L136.23837409575935,267.02659207939723L141.54323114019644,266.6658110676035L141.1413480307674,269.1912504411048L143.95452979677066,275.8292399511047L136.55988058329967,279.72524323724065L134.79159490184975,282.7553617016092L137.52440004593518,286.36252432749825L130.45125732001907,287.8053524796014L130.7727638075594,292.06157271056145L136.31875071764807,292.8550850095344L138.0870363991271,298.33735946401066L142.90963371224643,301.2947759389499L144.59754277183674,304.2521039037456L143.31151682169002,306.19956423680924L143.63302330923034,313.70053442518474L141.8647376277513,314.3496300903862L142.18624411529163,319.1816527914234L139.53381559308036,318.38835183031915L135.9168676082336,320.263416575006L140.016075324369,326.03262362995156L137.3636468021723,327.6912083938878L133.5859455735481,323.5086369431847L132.38029624526098,329.7103175393604L126.99506257893518,327.474872827479L126.27167298199493,325.74417126759L121.047192559432,326.82586329021433L118.07325754968042,323.6528664885773L120.64530945000297,320.1191820874483L117.43024457458523,308.65186711150454L118.95740039041266,305.7667985900989L118.7162705247465,296.5340132885285L114.69743943048525,293.4321808592649L111.56275117695623,284.77538900849686L111.32162131129007,280.37456216704595L109.5533356298256,270.63432962846855L103.0428292571014,270.41786909599614L100.87266046617879,268.68616773856047L93.07612814330787,267.96461653472215L88.0927775864111,265.2948311880209L91.54897232748044,259.08910494741576L88.89654380525462,256.56340686885596L92.67424503387883,250.1406259782525L90.9059593523998,246.82082234626432L91.22746583994012,243.42873355078336L94.20140084970626,242.99569253288064L96.85382937193208,244.72784518482877L100.79228384430462,249.77978317443558L106.7401538638369,252.66648861566864L114.13480307727878,254.18197513029008L115.26007578367717,262.76929205023407L122.01171202205296,264.14030703520984L126.83430933517229,262.624973574686Z"/>

    <path name="中區" class="town"  d="M161.1551268802432,239.3147670263097L161.07475025835447,244.29480987669376L158.82420484557224,245.305222635252L152.63520496040292,239.17041420376336L156.65403605466418,235.56152488303997Z"/>

    <path name="東區" class="town"  d="M171.44333448157704,233.39612781368123L171.60408772535447,237.2938082594701L178.19497071995283,234.19011226755538L179.64174991389154,236.21113471970602L178.51647720749315,243.78959961176588L174.0957630037883,253.46031779100304L163.40567229303997,253.60464968151427L160.91399701457703,255.91393119064378L159.62797106441576,253.82114712103794L160.67286714893999,249.49110798014954L158.82420484557224,245.305222635252L161.07475025835447,244.29480987669376L161.1551268802432,239.3147670263097L163.56642553680285,236.78856208863L165.73659432772547,232.02468504185163Z"/>

    <path name="南區" class="town"  d="M160.91399701457703,255.91393119064378L159.62797106441576,258.2953210943451L154.24273739808996,259.0169430430142L150.70616603514645,260.9652959259074L151.42955563210126,263.5630398908106L146.36582845333032,262.9857693675731L143.95452979677066,267.5316832790995L141.1413480307674,269.1912504411048L141.54323114019644,266.6658110676035L136.23837409575935,267.02659207939723L136.07762085198192,263.5630398908106L131.5765300264029,258.2953210943451L136.07762085198192,254.39847130188718L138.64967275233357,254.32630596418312L139.45343897119164,245.4495664692222L147.73223102536576,250.42929927010482L158.82420484557224,245.305222635252L160.67286714893999,249.49110798014954L159.62797106441576,253.82114712103794Z"/>

    <path name="西區" class="town"  d="M145.40130899070937,224.01219018289703L147.1695946721884,231.3028653844849L151.26880238833837,231.73595781386757L153.84085428867547,233.61266966325638L151.34917901021254,237.94340667085635L152.63520496040292,239.17041420376336L158.82420484557224,245.305222635252L147.73223102536576,250.42929927010482L139.45343897119164,245.4495664692222L139.61419221496908,238.0155840076659L138.0870363991271,234.98409031998744L138.7300493742223,229.64266009076528L140.6590882994642,229.20955845358912L143.3918934435642,224.66187622386497Z"/>

    <path name="北區" class="town"  d="M174.25651624756574,226.9718363088723L171.44333448157704,233.39612781368123L165.73659432772547,232.02468504185163L163.56642553680285,236.78856208863L161.1551268802432,239.3147670263097L156.65403605466418,235.56152488303997L152.63520496040292,239.17041420376336L151.34917901021254,237.94340667085635L153.84085428867547,233.61266966325638L151.26880238833837,231.73595781386757L147.1695946721884,231.3028653844849L145.40130899070937,224.01219018289703L148.05373751292063,216.36000962904654L152.07256860719644,215.63807508493483L156.73441267653834,216.432202792108L156.17177632334642,219.82522170962693L162.68228269605606,221.05245506055144L163.0841658054851,224.66187622386497Z"/>

    <path name="西屯區" class="town"  d="M146.2050752095529,194.33862171282453L144.3564129061997,195.63838156886413L141.22172465265612,204.01419952482684L141.7843610058626,212.96687120879506L146.2854518314416,211.73953700095444L149.66126995062223,213.18345800884344L148.05373751292063,216.36000962904654L145.40130899070937,224.01219018289703L143.3918934435642,224.66187622386497L140.6590882994642,229.20955845358912L138.7300493742223,229.64266009076528L136.6402572051884,228.41553383709834L133.74669881732552,230.50885764964914L126.67355609139486,230.65322316860693L124.42301067861263,226.46653717208756L121.60982891260937,229.64266009076528L118.31438741531747,230.9419535714951L114.4563095648191,226.9718363088723L109.87484211736592,226.53872292185042L105.37375129177235,222.7849937383835L101.19416695373366,222.49623941006212L97.33608910323528,223.79562721628463L92.03123205878364,221.05245506055144L89.86106326789013,218.4535898527174L89.37880353657238,215.49368754043098L91.7901021931466,212.60589214900028L95.56780342175625,210.72877968429384L97.01458261568041,206.54124585899262L99.34550465036591,203.72539009434695L92.2723619244498,201.27047568351918L97.33608910323528,190.72808747189993L98.30060856585624,184.6620912668659L115.6619588931062,188.77834382046785L125.86978987255134,192.6055818320492L130.69238718567067,191.73905043087507L132.62142611092713,192.6055818320492L137.12251693650614,188.05620672361692L142.50775060283195,190.00596470459277L146.44620507521904,190.07817722014806Z"/>

    <path name="北屯區" class="town"  d="M219.1870478815108,182.56779131132134L221.35721667241887,185.31203734677183L229.15374899530434,187.40627879835665L234.21747617407527,190.65587543398578L238.71856699965429,192.38894969808462L242.3355149845156,198.3100561863066L241.6121253875317,204.73621938983706L239.68308646227524,208.12964174655644L243.38041106901073,219.10331258922815L237.3521644276043,221.918728211891L234.297852795964,220.6193156254012L228.59111264209787,221.26902406323643L224.73303479161405,219.7530310359034L221.75909978183336,224.87843728458756L217.7402686875721,227.04402168811066L214.36445056837692,226.53872292185042L209.6222298771463,227.91024211045442L205.76415202664793,224.7340632970445L202.6294637731189,226.8996508766977L198.44987943508022,226.39435136938118L193.22539901253185,228.63208664031845L189.60845102768508,228.92082297034722L186.55413939603022,227.47713285201826L175.38178895396413,224.01219018289703L174.25651624756574,226.9718363088723L163.0841658054851,224.66187622386497L162.68228269605606,221.05245506055144L156.17177632334642,219.82522170962693L156.73441267653834,216.432202792108L152.07256860719644,215.63807508493483L148.05373751292063,216.36000962904654L149.66126995062223,213.18345800884344L146.2854518314416,211.73953700095444L141.7843610058626,212.96687120879506L141.22172465265612,204.01419952482684L144.3564129061997,195.63838156886413L146.2050752095529,194.33862171282453L149.98277643816255,192.75000298939995L157.94006200482545,193.18326518799222L162.03926972098998,191.37799342520884L169.03203582500282,193.25547536870363L166.6207371684577,197.2269536071035L169.675048800098,204.59181584096223L173.69387989437382,205.60263622991988L174.89952922264638,201.631496352893L177.39120450109476,199.6819689885233L179.80250315765443,203.50878246478896L183.74095763002697,202.35353371470774L187.35790561487374,203.29217435807004L191.69824319670442,201.99251569661283L192.82351590308826,199.75417439512603L196.038580778506,200.1874057210589L198.44987943508022,193.97757425784584L206.4875416236173,191.95568399750846L204.8800091859157,187.18963520117904L208.89884028017696,180.7623244742863Z"/>

    <path name="豐原區" class="town"  d="M205.12113905155275,133.37500002701563L210.58674933976727,134.242046978874L213.64106097140757,133.37500002701563L216.21311287175922,143.2733299426036L219.74968423468817,146.88561014907827L219.9104374784656,156.99928685018313L222.80399586635758,158.37177689358577L223.76851532897854,162.34466615498968L218.86554139395594,163.21145698000691L217.82064530946082,166.75077339031486L222.32173613503983,171.73449234737564L219.1870478815108,182.56779131132134L208.89884028017696,180.7623244742863L207.77356757377856,179.02904508518986L200.86117809163989,176.50129113769435L197.80686645998503,176.42906864022007L194.1095418532641,180.6178856935403L190.4122172465286,180.7623244742863L186.71489263980766,178.8123830106233L185.83074979906087,173.61234980163135L180.60626937649795,171.66226634333725L179.2398668044625,167.68975427952319L176.3463084165851,167.5452962658892L173.69387989437382,173.54012517911178L170.31806177517865,176.71795831139752L168.4693994718109,174.11792067165516L169.11241244689154,171.2289092031533L170.5591916408448,168.55649789648305L168.2282696061593,165.45063117421887L170.63956826273352,157.43270683310038L174.57802273510606,152.37602119946314L181.00815248594154,151.8703382971762L176.90894476976246,141.3948916307745L179.96325640143186,137.8546600337395L180.1240096452093,131.06283730970608L188.80468480881245,132.14667037755862L198.8517625444947,132.5079454024235Z"/>

    <path name="東勢區" class="town"  d="M315.9605006315396,124.19828272753148L311.05752669653157,127.44997381306894L303.6628774830606,136.33737877212116L301.3319554484042,136.84314180284855L296.67011137904774,144.5737661498788L298.0365139510832,148.18599844367054L296.83086462279607,151.2201707343047L297.7953840854316,153.96529334694787L296.9112412446848,157.72165242452684L298.5187736824155,168.41204115850996L303.3413709955348,172.45674946522558L302.85911126421706,175.9957325398209L310.09300723389606,178.23461514148585L310.01263061200734,187.33406431904586L306.1545527615235,193.1110549541918L302.2964749110106,192.1723170865771L298.27764381674933,194.26641232793918L298.9206567918154,197.66019607089402L294.58031921001384,207.26324717001262L291.28487771272194,210.65658233566137L288.8735790561477,211.23415964088053L287.5071764840977,214.2663848565826L289.6773452750058,219.68084030922182L289.6773452750058,223.07374721955057L285.09587782753806,225.09499786885863L282.52382592720096,227.40494779035726L275.93294293258805,226.53872292185042L271.59260535078647,223.6512516404946L267.9756573659397,218.5979730537947L266.52887817201554,212.24491176458105L263.3941899184865,203.50878246478896L264.1175795154413,196.93812423705822L262.83155356528005,185.8175479915517L260.01837179929134,175.0568310948911L258.49121598347847,162.99475999158676L256.96406016765104,154.47096544793385L254.47238488920266,146.3798989323659L251.65920312321396,142.4786104344712L249.00677460098814,135.03683327822L245.47020323804463,133.4472542327203L237.67367091515916,133.01372819924654L231.4846710299753,131.13509322059326L223.3666322195495,130.77381313324076L220.23194396602048,132.7969644631812L213.64106097140757,133.37500002701563L210.58674933976727,134.242046978874L205.12113905155275,133.37500002701563L205.12113905155275,128.89513520133187L209.78298312092375,126.94416228996124L215.89160638420435,125.64349209340071L218.62441152830434,119.71799815116174L216.1327362498705,117.76684240367103L216.69537260304787,113.43080151352478L215.81122976231563,107.43229495137712L212.51578826502373,104.32449032763907L213.0784246182302,100.4938046109055L216.53461935929954,98.61454545110246L223.68813870708982,102.15619608063935L230.1182684579253,104.32449032763907L238.798943621543,105.84226770866371L245.38982661615591,106.13136549279443L253.82937191412202,112.70810935820191L259.294982202322,120.94648367451009L265.08209897807683,125.78801185709017L268.29716385349457,126.72738512331853L276.2544494201429,127.30545650157364L281.72005970835744,126.87190328771976L287.7483063497639,124.12602169942693L294.1784361005848,122.39174102897596L305.91342289585737,123.04209987957438L313.2276954874251,124.4150654919431Z"/>

    <path name="沙鹿區" class="town"  d="M124.18188081296103,149.91982267692947L119.27890687795298,153.89305426256396L117.75175106212555,156.63810206825656L117.2694913308078,165.08947750187872L112.92915374900622,168.12312704473516L104.97186818235787,165.3784005460875L102.80169939143525,172.8901011853959L98.30060856585624,184.6620912668659L97.33608910323528,190.72808747189993L92.2723619244498,201.27047568351918L85.35997244231112,197.94902331927005L81.1000114823837,199.32094115998916L76.92042714434501,198.5988815252531L75.31289470662887,193.39989557098306L69.12389482144499,190.87251138854845L69.12389482144499,185.88976358560467L67.0341026524402,183.00109841393714L63.336778045704705,181.48451519171795L64.94431048342085,176.50129113769435L64.78355723964341,172.09562157051914L72.17820645309985,161.76680135109928L69.3650246870966,161.04446556036783L70.8118038810353,154.32648797081856L73.70536226892727,155.04887322828654L74.66988173154823,150.93120598942915L81.42151796992403,150.13654855057757L88.0927775864111,145.15173226044135L91.87047881503531,143.923550202584L98.86324491904816,144.5015201464812L103.0428292571014,143.63456395281537L107.4635434607917,144.7182579969558L115.17969916178845,149.2696421820474Z"/>

    <path name="后里區" class="town"  d="M216.53461935929954,98.61454545110246L213.0784246182302,100.4938046109055L212.51578826502373,104.32449032763907L215.81122976231563,107.43229495137712L216.69537260304787,113.43080151352478L216.1327362498705,117.76684240367103L218.62441152830434,119.71799815116174L215.89160638420435,125.64349209340071L209.78298312092375,126.94416228996124L205.12113905155275,128.89513520133187L205.12113905155275,133.37500002701563L198.8517625444947,132.5079454024235L188.80468480881245,132.14667037755862L180.1240096452093,131.06283730970608L170.63956826273352,130.34027526976206L159.30646457687544,130.26801877265098L142.1058674934029,124.9208900761987L133.42519232977065,119.13988198331572L135.9972442301223,111.62406112002645L136.6402572051884,106.99865372027853L149.50051670685934,105.98681670750011L155.76989321393194,104.46904156881283L164.12906188999477,101.28886492539823L166.7814904122206,99.0482238464574L171.6844643472432,97.38577955503933L172.0059708347835,93.33797093873L181.570788839148,94.34993880035836L181.8119187047996,88.1333993470871L184.06246411758184,81.98875676722673L184.06246411758184,75.40994646980835L192.58238603743666,78.4463754932658L205.3622689172189,90.59114823423442L212.3550350212463,96.37384310776542Z"/>

    <path name="神岡區" class="town"  d="M133.42519232977065,119.13988198331572L142.1058674934029,124.9208900761987L159.30646457687544,130.26801877265098L170.63956826273352,130.34027526976206L180.1240096452093,131.06283730970608L179.96325640143186,137.8546600337395L176.90894476976246,141.3948916307745L181.00815248594154,151.8703382971762L174.57802273510606,152.37602119946314L170.63956826273352,157.43270683310038L168.2282696061593,165.45063117421887L170.5591916408448,168.55649789648305L169.11241244689154,171.2289092031533L166.21885405902867,171.59004028615527L165.33471121828188,168.48426955407194L158.10081524860288,170.86777679163788L156.49328281088674,166.24516457514983L153.278217935469,169.35100615513147L153.76047766678676,162.34466615498968L144.51716614997713,159.0218970543392L138.16741302101582,155.98796610945647L131.81765989206906,162.34466615498968L128.4418417728739,161.4056341204523L130.37088069813035,158.37177689358577L127.47732231026748,155.1933496413585L125.62866000689974,149.9920646880346L124.18188081296103,149.91982267692947L129.8886209668126,145.4407140379917L131.09427029511426,140.60015689297506L133.9074520610884,136.48188276154178L127.7988287978078,134.67556757768034L126.35204960386909,130.55704444131698L129.72786772306426,121.59685212369732L133.3448157078965,118.99535240800105Z"/>

    <path name="潭子區" class="town"  d="M208.89884028017696,180.7623244742863L204.8800091859157,187.18963520117904L206.4875416236173,191.95568399750846L198.44987943508022,193.97757425784584L196.038580778506,200.1874057210589L192.82351590308826,199.75417439512603L191.69824319670442,201.99251569661283L187.35790561487374,203.29217435807004L183.74095763002697,202.35353371470774L179.80250315765443,203.50878246478896L177.39120450109476,199.6819689885233L174.89952922264638,201.631496352893L173.69387989437382,205.60263622991988L169.675048800098,204.59181584096223L166.6207371684577,197.2269536071035L169.03203582500282,193.25547536870363L162.03926972098998,191.37799342520884L157.94006200482545,193.18326518799222L149.98277643816255,192.75000298939995L150.78654265703517,189.42826266972406L154.80537375129643,186.8285614775923L156.17177632334642,182.20670059894837L152.23332185095933,181.34007747305805L154.88575037318515,177.07906920517053L155.6091399701545,172.60120025115975L158.10081524860288,170.86777679163788L165.33471121828188,168.48426955407194L166.21885405902867,171.59004028615527L169.11241244689154,171.2289092031533L168.4693994718109,174.11792067165516L170.31806177517865,176.71795831139752L173.69387989437382,173.54012517911178L176.3463084165851,167.5452962658892L179.2398668044625,167.68975427952319L180.60626937649795,171.66226634333725L185.83074979906087,173.61234980163135L186.71489263980766,178.8123830106233L190.4122172465286,180.7623244742863L194.1095418532641,180.6178856935403L197.80686645998503,176.42906864022007L200.86117809163989,176.50129113769435L207.77356757377856,179.02904508518986Z"/>

    <path name="大雅區" class="town"  d="M158.10081524860288,170.86777679163788L155.6091399701545,172.60120025115975L154.88575037318515,177.07906920517053L152.23332185095933,181.34007747305805L156.17177632334642,182.20670059894837L154.80537375129643,186.8285614775923L150.78654265703517,189.42826266972406L149.98277643816255,192.75000298939995L146.2050752095529,194.33862171282453L146.44620507521904,190.07817722014806L142.50775060283195,190.00596470459277L137.12251693650614,188.05620672361692L132.62142611092713,192.6055818320492L130.69238718567067,191.73905043087507L125.86978987255134,192.6055818320492L115.6619588931062,188.77834382046785L98.30060856585624,184.6620912668659L102.80169939143525,172.8901011853959L104.97186818235787,165.3784005460875L112.92915374900622,168.12312704473516L117.2694913308078,165.08947750187872L117.75175106212555,156.63810206825656L119.27890687795298,153.89305426256396L124.18188081296103,149.91982267692947L125.62866000689974,149.9920646880346L127.47732231026748,155.1933496413585L130.37088069813035,158.37177689358577L128.4418417728739,161.4056341204523L131.81765989206906,162.34466615498968L138.16741302101582,155.98796610945647L144.51716614997713,159.0218970543392L153.76047766678676,162.34466615498968L153.278217935469,169.35100615513147L156.49328281088674,166.24516457514983Z"/>

    <path name="新社區" class="town"  d="M258.49121598347847,162.99475999158676L260.01837179929134,175.0568310948911L262.83155356528005,185.8175479915517L264.1175795154413,196.93812423705822L263.3941899184865,203.50878246478896L266.52887817201554,212.24491176458105L267.9756573659397,218.5979730537947L271.59260535078647,223.6512516404946L275.93294293258805,226.53872292185042L282.52382592720096,227.40494779035726L285.09587782753806,225.09499786885863L289.6773452750058,223.07374721955057L298.5187736824155,221.19683444862676L307.60133195546223,221.55778199215274L308.32472155241703,230.07575982276467L301.2515788265009,228.19898055751764L299.9655528763251,236.1389560605603L301.09082558273803,242.63482356401073L304.7077735675848,241.1913344699933L308.9677345275122,242.41830154821582L307.5209553335735,252.73865516850128L309.1284877712751,259.9550436810241L304.94890343322186,261.68689833570534L307.4405787116848,264.0681488269329L307.7620851992251,267.6038389536516L305.67229303020576,270.77863638626513L305.91342289585737,273.664727220661L302.53760477667674,275.8292399511047L299.16178665748157,281.67318721312404L296.5093581352703,283.6210927512948L295.5448386726348,279.4366556751447L298.84028016994125,272.29384460032816L296.9916178665735,266.73796737552766L292.5709036628832,259.8107210868511L287.58755310598644,260.74881417329016L281.72005970835744,259.3055903437489L279.38913767367194,253.7489813606917L273.0393845447252,253.7489813606917L268.0560339878284,258.8726190757807L264.19795613733004,254.83146221871357L263.71569640602684,251.65615132812673L265.6447353312833,249.20243194031355L265.162475599951,240.97480928164077L262.75117694339133,238.88170792404344L258.00895625214616,240.25305521664995L255.35652772994945,236.28331332595553L251.25732001377037,238.37646989837958L248.76564473533654,234.91191076154792L244.1038006659801,232.5299556536993L245.87208634744457,226.10560762924433L243.38041106901073,219.10331258922815L239.68308646227524,208.12964174655644L241.6121253875317,204.73621938983706L242.3355149845156,198.3100561863066L238.71856699965429,192.38894969808462L234.21747617407527,190.65587543398578L229.15374899530434,187.40627879835665L221.35721667241887,185.31203734677183L219.1870478815108,182.56779131132134L222.32173613503983,171.73449234737564L217.82064530946082,166.75077339031486L218.86554139395594,163.21145698000691L223.76851532897854,162.34466615498968L225.9386841198866,163.35592137311687L228.51073602020915,158.8051908127709L231.7258008956269,157.64941610645837L233.97634630842367,154.687681264586L238.07555402457365,159.31083796514577L242.65702147205593,160.32212445176265L243.7019175565656,157.0715236469914L242.73739809391554,152.73722167618325L237.3521644276043,146.3798989323659L237.51291767138173,142.40636288697715L241.21024227810267,144.21253560047262L245.5505798599188,148.04151170703335L248.92639797911397,153.96529334694787L251.25732001377037,155.6267776037639L254.95464462050586,162.70582992925847Z"/>

    <path name="石岡區" class="town"   d="M258.49121598347847,162.99475999158676L254.95464462050586,162.70582992925847L251.25732001377037,155.6267776037639L248.92639797911397,153.96529334694787L245.5505798599188,148.04151170703335L241.21024227810267,144.21253560047262L237.51291767138173,142.40636288697715L237.3521644276043,146.3798989323659L242.73739809391554,152.73722167618325L243.7019175565656,157.0715236469914L242.65702147205593,160.32212445176265L238.07555402457365,159.31083796514577L233.97634630842367,154.687681264586L231.7258008956269,157.64941610645837L228.51073602020915,158.8051908127709L225.9386841198866,163.35592137311687L223.76851532897854,162.34466615498968L222.80399586635758,158.37177689358577L219.9104374784656,156.99928685018313L219.74968423468817,146.88561014907827L216.21311287175922,143.2733299426036L213.64106097140757,133.37500002701563L220.23194396602048,132.7969644631812L223.3666322195495,130.77381313324076L231.4846710299753,131.13509322059326L237.67367091515916,133.01372819924654L245.47020323804463,133.4472542327203L249.00677460098814,135.03683327822L251.65920312321396,142.4786104344712L254.47238488920266,146.3798989323659L256.96406016765104,154.47096544793385Z"/>

    <path name="外埔區" class="town"  d="M176.3463084165851,73.81939836556921L184.06246411758184,75.40994646980835L184.06246411758184,81.98875676722673L181.8119187047996,88.1333993470871L181.570788839148,94.34993880035836L172.0059708347835,93.33797093873L171.6844643472432,97.38577955503933L166.7814904122206,99.0482238464574L164.12906188999477,101.28886492539823L155.76989321393194,104.46904156881283L149.50051670685934,105.98681670750011L136.6402572051884,106.99865372027853L135.9972442301223,111.62406112002645L133.42519232977065,119.13988198331572L133.3448157078965,118.99535240800105L131.9784131358465,117.33324695693227L116.94798484326748,106.92637999493309L107.2224135951401,106.2759140645503L109.31220576415944,97.16893691204314L110.75898495809815,94.13308942590811L115.42082902744005,90.73571977410757L123.53886783786584,89.28999475526143L125.54828338501102,82.85625913837066L129.1652313698578,83.29000743638608L132.9429325984529,79.45849753220318L140.176828568161,70.20441999344985L158.58307497992064,73.31330944704314L160.19060741762223,70.42132246864276L172.16672407853184,72.51802156338454Z"/>

    <path name="大肚區" class="town"  d="M89.37880353657238,215.49368754043098L89.86106326789013,218.4535898527174L84.95808933288208,229.71484351173058L82.9486737857369,229.64266009076528L83.02905040762562,236.06677734850382L87.69089447698207,239.0260611696758L91.22746583994012,243.42873355078336L90.9059593523998,246.82082234626432L92.67424503387883,250.1406259782525L88.89654380525462,256.56340686885596L91.54897232748044,259.08910494741576L88.0927775864111,265.2948311880209L81.58227121368691,266.2328721116064L71.37444023424177,262.9857693675731L65.50694683661277,261.97553782117393L62.37225858308375,259.8107210868511L58.91606384201441,254.18197513029008L53.209323688133736,251.9448201813102L47.18107704674185,242.2739532733176L48.70823286255472,235.27280802471796L45.17166149961122,227.54931786074303L39.38454472385638,213.32784894397992L48.70823286255472,213.54443494929728L54.25421977264341,214.9883294659703L59.96095992652408,218.1648228150043L61.327362498574075,217.37070909169051L67.91824549317244,218.02043897837575L70.89218050292402,215.85465600437237L80.45699850730307,218.4535898527174L80.13549201976275,213.76102047778113Z"/>

    <path name="霧峰區" class="town"  d="M136.55988058329967,279.72524323724065L142.3469973590545,286.14609828626635L151.42955563210126,287.15608242011876L154.7249971294077,289.75313704486325L158.98495808934967,295.95693556000697L163.40567229303997,296.606147767583L168.14789298427058,290.1859728422278L176.90894476976246,286.5789498943486L186.39338615226734,287.8053524796014L190.09071075900283,289.2481595502395L193.78803536570922,287.01179960491936L198.44987943508022,289.03173983350644L210.7475025835447,291.77302120304375L214.36445056837692,294.44209048326957L218.70478815019305,299.92427687085365L225.69755425422045,302.52099583528616L233.1725800895656,309.0846201269378L236.06613847745757,316.22477141107447L239.12045010909787,318.60470726895437L235.66425536801398,322.49902423753883L235.58387874612527,326.03262362995156L232.77069698015111,326.3210751513361L231.0024112986721,329.9987583398397L224.73303479161405,334.9021233295316L221.19646342864144,339.3005234858065L220.7945803192124,342.68932147692976L215.24859340910916,344.8523233867818L211.79239866803982,345.14072007190407L207.13055459869793,347.4478633204526L203.59398323572532,350.7642875917991L201.906074176135,347.9525437421253L193.46652887818345,342.76142230178084L184.70547709267703,342.2567154253411L175.7032954414899,345.64541225004723L167.5852566310641,344.20342777451515L156.17177632334642,338.86790262758586L143.95452979677066,329.8545380446885L140.016075324369,326.03262362995156L135.9168676082336,320.263416575006L139.53381559308036,318.38835183031915L142.18624411529163,319.1816527914234L141.8647376277513,314.3496300903862L143.63302330923034,313.70053442518474L143.31151682169002,306.19956423680924L144.59754277183674,304.2521039037456L142.90963371224643,301.2947759389499L138.0870363991271,298.33735946401066L136.31875071764807,292.8550850095344L130.7727638075594,292.06157271056145L130.45125732001907,287.8053524796014L137.52440004593518,286.36252432749825L134.79159490184975,282.7553617016092Z"/>

    <path name="太平區" class="town"   d="M268.0560339878284,258.8726190757807L265.7251119531429,262.6971328388572L265.80548857503163,266.8101236306684L262.83155356528005,270.99509612722613L264.3587093810929,274.0254826394994L261.5455276151188,276.9114785132624L261.46515099323005,290.474528986575L262.1081639683107,294.58636244381705L255.03502124239458,296.9668193727448L252.061086232643,295.88480060691654L249.8105408198462,298.8422904945728L246.43472270065104,300.21280457013927L243.78229417843977,306.41594634959984L243.9430474222172,309.2288707110856L239.4419565966382,316.0084107656985L239.12045010909787,318.60470726895437L236.06613847745757,316.22477141107447L233.1725800895656,309.0846201269378L225.69755425422045,302.52099583528616L218.70478815019305,299.92427687085365L214.36445056837692,294.44209048326957L210.7475025835447,291.77302120304375L198.44987943508022,289.03173983350644L193.78803536570922,287.01179960491936L196.44046388793504,283.54894878712366L200.2181651165447,282.9717951757666L200.2181651165447,278.2822969889821L198.20874956941407,275.8292399511047L192.42163279365923,277.1279248015635L177.87346423241252,267.96461653472215L181.00815248594154,265.0062014167743L171.6844643472432,262.6971328388572L172.56860718796088,256.56340686885596L174.0957630037883,253.46031779100304L178.51647720749315,243.78959961176588L179.64174991389154,236.21113471970602L178.19497071995283,234.19011226755538L171.60408772535447,237.2938082594701L171.44333448157704,233.39612781368123L174.25651624756574,226.9718363088723L175.38178895396413,224.01219018289703L186.55413939603022,227.47713285201826L189.60845102768508,228.92082297034722L193.22539901253185,228.63208664031845L198.44987943508022,226.39435136938118L202.6294637731189,226.8996508766977L205.76415202664793,224.7340632970445L209.6222298771463,227.91024211045442L214.36445056837692,226.53872292185042L217.7402686875721,227.04402168811066L221.75909978183336,224.87843728458756L224.73303479161405,219.7530310359034L228.59111264209787,221.26902406323643L234.297852795964,220.6193156254012L237.3521644276043,221.918728211891L243.38041106901073,219.10331258922815L245.87208634744457,226.10560762924433L244.1038006659801,232.5299556536993L248.76564473533654,234.91191076154792L251.25732001377037,238.37646989837958L255.35652772994945,236.28331332595553L258.00895625214616,240.25305521664995L262.75117694339133,238.88170792404344L265.162475599951,240.97480928164077L265.6447353312833,249.20243194031355L263.71569640602684,251.65615132812673L264.19795613733004,254.83146221871357Z"/>

    <path name="大里區" class="town"  d="M174.0957630037883,253.46031779100304L172.56860718796088,256.56340686885596L171.6844643472432,262.6971328388572L181.00815248594154,265.0062014167743L177.87346423241252,267.96461653472215L192.42163279365923,277.1279248015635L198.20874956941407,275.8292399511047L200.2181651165447,278.2822969889821L200.2181651165447,282.9717951757666L196.44046388793504,283.54894878712366L193.78803536570922,287.01179960491936L190.09071075900283,289.2481595502395L186.39338615226734,287.8053524796014L176.90894476976246,286.5789498943486L168.14789298427058,290.1859728422278L163.40567229303997,296.606147767583L158.98495808934967,295.95693556000697L154.7249971294077,289.75313704486325L151.42955563210126,287.15608242011876L142.3469973590545,286.14609828626635L136.55988058329967,279.72524323724065L143.95452979677066,275.8292399511047L141.1413480307674,269.1912504411048L143.95452979677066,267.5316832790995L146.36582845333032,262.9857693675731L151.42955563210126,263.5630398908106L150.70616603514645,260.9652959259074L154.24273739808996,259.0169430430142L159.62797106441576,258.2953210943451L160.91399701457703,255.91393119064378L163.40567229303997,253.60464968151427Z"/>

    <path name="和平區" class="town"  d="M309.1284877712751,259.9550436810241L307.5209553335735,252.73865516850128L308.9677345275122,242.41830154821582L304.7077735675848,241.1913344699933L301.09082558273803,242.63482356401073L299.9655528763251,236.1389560605603L301.2515788265009,228.19898055751764L308.32472155241703,230.07575982276467L307.60133195546223,221.55778199215274L298.5187736824155,221.19683444862676L289.6773452750058,223.07374721955057L289.6773452750058,219.68084030922182L287.5071764840977,214.2663848565826L288.8735790561477,211.23415964088053L291.28487771272194,210.65658233566137L294.58031921001384,207.26324717001262L298.9206567918154,197.66019607089402L298.27764381674933,194.26641232793918L302.2964749110106,192.1723170865771L306.1545527615235,193.1110549541918L310.01263061200734,187.33406431904586L310.09300723389606,178.23461514148585L302.85911126421706,175.9957325398209L303.3413709955348,172.45674946522558L298.5187736824155,168.41204115850996L296.9112412446848,157.72165242452684L297.7953840854316,153.96529334694787L296.83086462279607,151.2201707343047L298.0365139510832,148.18599844367054L296.67011137904774,144.5737661498788L301.3319554484042,136.84314180284855L303.6628774830606,136.33737877212116L311.05752669653157,127.44997381306894L315.9605006315396,124.19828272753148L320.0597083476896,123.11436170747038L327.61511080492346,115.67111328738247L326.32908485474763,111.76860157883493L326.32908485474763,104.46904156881283L323.59627971064765,93.26568711930304L323.7570329544251,90.8802911002058L330.34791594902345,88.63941152186453L336.8584223217331,85.31414070906612L341.68101963486697,88.2779745214284L351.72809737053467,88.1333993470871L354.13939602709434,91.38628905811129L362.7396945688379,92.61513033989468L369.49133080721367,90.73571977410757L371.9026294637879,93.91623957058619L375.84108393616043,95.50646067630805L380.2617981398653,95.28961386639276L382.5123435526475,93.26568711930304L385.4862785623991,93.77167273321538L392.3182914226636,102.95124288447914L394.80996670109744,109.74501573001908L402.7672522677749,114.80390190881008L406.9468366058136,120.65742964387027L413.939602709841,122.1026912645284L418.76220002297487,119.2121466909739L419.0837065105152,115.16524091685642L421.01274543577165,110.54000087482564L428.3270180273248,106.34818827034906L430.89906992764736,106.49273652179545L434.1141348030942,103.38490205419657L433.79262831553933,101.21658698201281L439.49936846940545,99.91557486876263L443.03593983234896,104.90269401094338L448.5015501205635,103.16807270961726L449.1445630956441,101.50569843513586L454.04753703065217,99.48190031899503L458.54862785624573,94.56678769395148L462.8889654380473,96.37384310776542L467.6311861292925,94.78363610666202L467.9526926168328,90.44657648059365L470.2836146515183,86.03703529090853L472.2126535767602,86.10932445505023L474.38282236766827,80.47060908796266L478.08014697440376,77.43424297038655L481.29521184980695,72.44572234379302L487.0823286255618,73.74710010915805L494.2358479733666,71.57812753480539L500.2640946147585,71.57812753480539L500.9874842117424,68.83069313117085L504.6044321965601,65.21553010425487L505.00631530600367,61.45561856943095L511.03456194742466,55.96010275439767L515.9375358824182,55.45392126257502L520.5993799517746,47.42697810301979L520.8405098174408,43.88334262926219L527.8332759214536,42.87085170613864L530.2445745780278,44.60654399709165L530.7268343093165,50.24733067359921L532.2539901251585,55.09236144685201L535.5494316224649,55.81547973889246L544.8731197611633,53.86304805418331L545.0338730049407,50.89816968953528L547.12366517396,48.15015320108796L547.12366517396,43.30477767439879L553.3930416810181,36.86801106054918L552.348145596523,30.503149870917696L553.6341715466842,25.801565081841545L557.9745091284858,22.040133935308404L563.2793661729229,21.967797297958896L564.8065219887503,18.567914761806605L571.9600413365406,20.159363910421234L576.8630152715486,18.712593031399592L588.3568722011842,17.265800666493305L591.4111838328245,15.746645556740987L597.117923986676,16.036010261388583L602.8246641405422,12.41888966400802L605.5574692846421,9.235712408193649L607.5668848317873,9.59744233659876L612.8717418762099,15.095571828282118L613.2736249856389,20.2317018904032L612.3894821449067,24.644217116056097L612.3894821449067,31.226450479472987L610.7015730853163,35.927773632738536L612.7913652543211,42.58156665482966L615.845676885976,42.87085170613864L620.1860144677921,48.94563961775202L622.9188196118921,46.99307047107504L632.0013778849388,46.5591609092553L638.7530141233292,49.741119548740244L642.1288322425098,54.58617545456218L640.3605465610308,57.334010713930184L641.8073257549695,62.5402232946617L644.8616373866098,65.86626932612126L650.1664944310469,66.8785217185432L654.908715122292,64.42017627706446L655.7928579630243,61.23869617846867L663.8305201515614,57.04476854011227L668.9746239522356,58.63558988969453L672.4308186933049,56.90014713178607L677.2534160064242,57.334010713930184L684.0854288666887,54.36923779705103L690.0332988862065,54.51386295564589L693.5698702491645,62.03407592232179L697.3475714777887,62.46791668783408L700,68.54148501383679L696.7849351245823,72.3011237440951L692.6857274084323,73.24101081608023L688.506143070379,81.98875676722673L689.9529222643177,85.67558866825857L687.5416236077581,88.92856016009682L686.2555976575968,95.65102494912207L688.0238833390758,101.07203093502903L685.4518314387387,102.8066894007352L681.7545068320032,107.64911484628101L679.7450912848872,112.12995179199788L675.1636238374194,111.4072500315815L671.466299230684,112.85264821614328L667.206338270742,112.05768185608395L665.3576759674033,121.59685212369732L661.4995981168904,125.78801185709017L656.1143644505646,128.31707320453643L649.6842346997291,134.31430054520388L650.8898840280162,136.84314180284855L651.6936502468743,143.20108298082414L653.3815593064646,146.23540953419797L652.9796761970356,153.09842082264004L648.237455505805,154.83215820967598L644.5401308990695,153.89305426256396L640.1997933172534,155.33782584162327L635.7790791135485,161.694568011324L630.0723389596969,161.76680135109928L629.6704558502679,169.35100615513147L623.481455965084,177.1512912245671L614.3988976920518,171.59004028615527L610.2996899758873,170.14550798291748L606.7631186129292,170.94000338021215L604.6733264439245,169.0620948051619L599.2880927775841,168.6287261857433L595.6711447927373,169.56768910955725L592.2953266735567,167.97866966895526L588.2764955792954,173.10677632817533L583.1323917786212,173.10677632817533L577.4256516247551,171.01222991566829L576.7022620277712,168.12312704473516L571.2366517395858,166.3173945653616L568.8253530830116,160.39435880192832L561.5110804914584,162.2724332406142L558.7782753473293,166.3173945653616L553.8753014123213,178.23461514148585L549.454587208631,180.4012271241554L536.6747043288487,173.03455133371608L533.9418991847633,176.06795535602942L528.4762888965488,178.88460375525028L520.4386267080117,177.72906546752347L514.731886554131,184.08435780795116L509.2662762659311,186.10641004924764L504.12217246527143,179.89568860350846L500.1033413709956,175.9957325398209L495.4414973016392,183.7232726706352L486.11780916294083,185.67311664418594L482.74199104374566,191.52241638666965L481.5363417154731,195.85500654046336L477.2763807555457,198.5266752700736L468.3545757262618,198.5988815252531L465.6217705821764,197.7324029625488L456.4588356872264,197.7324029625488L449.86795269261347,201.70370032769642L446.170628085878,207.26324717001262L446.41175795154413,208.9238300702891L441.8302905040764,214.12199529897043L439.25823860375385,214.41077420228248L434.67677115627157,218.7423560430143L433.06923871857,218.8145474581761L427.36249856470386,224.15656522925565L423.8259272017458,224.37312740173365L422.8614077391103,227.04402168811066L419.16408313238935,230.43667481080047L415.6275117694313,226.39435136938118L408.7151222872926,228.05461143984212L407.1879664714652,233.54048909963967L404.2140314617136,232.16904833836452L401.9634860489168,227.04402168811066L396.0959926512878,227.2605775082484L393.0416810196475,229.49829309006236L387.1741876219894,238.08776129159378L387.0134343782265,240.97480928164077L384.60213572166685,246.5321384842391L382.5123435526475,247.68686885811985L381.1459409805975,251.9448201813102L376.6448501550185,253.09948714017082L374.71581122976204,258.07883347986717L370.6969801354862,257.86234539007273L364.7491101159685,259.5942367995158L361.6947984843282,256.99638827739545L354.8627856240637,257.1407149910119L352.6122402112669,254.68713212441435L347.0662533011928,251.22314646316227L334.2059937995218,263.27440505155755L330.9105523022299,263.6351984686444L325.84682512344443,266.9544359826032L322.0691238948202,266.8101236306684L316.84464347227185,264.3567813432819L315.23711103457026,261.470418167195Z"/>

    <path name="大甲區" class="town"  d="M176.3463084165851,73.81939836556921L172.16672407853184,72.51802156338454L160.19060741762223,70.42132246864276L158.58307497992064,73.31330944704314L140.176828568161,70.20441999344985L132.9429325984529,79.45849753220318L129.1652313698578,83.29000743638608L125.54828338501102,82.85625913837066L123.53886783786584,89.28999475526143L115.42082902744005,90.73571977410757L110.75898495809815,94.13308942590811L109.31220576415944,97.16893691204314L107.2224135951401,106.2759140645503L97.49684234699816,106.70955849858728L91.46859570559172,100.34924749581114L96.69307612815464,94.78363610666202L98.86324491904816,90.0851461612001L96.37156964061433,86.47076947386813L106.7401538638369,80.32602236465755L103.92697209783364,75.84372782221908L108.34768630153849,70.3490216971004L110.83936157997232,60.80484995057486L115.42082902744005,59.720225945646234L116.06384200253524,57.40632112346066L125.95016649444005,59.720225945646234L127.71845217591908,58.852518065003096L124.10150419107231,52.12752043123328L115.6619588931062,47.06538854375685L110.75898495809815,44.968142670342786L107.4635434607917,41.858350272785174L98.86324491904816,36.36173049527133L102.72132276956108,29.273526518889412L106.17751751063042,26.163233502473304L108.10655643588689,21.31676514524588L111.16086806752719,19.07428776537199L111.56275117695623,16.470055706631683L114.4563095648191,14.29980913890904L116.22459524629812,10.176207427095505L120.96681593754329,11.912482060321054L123.21736135032552,15.963669165819738L128.76334826042876,19.79767320484825L131.2550235388626,24.788886363454367L131.01389367322554,28.26088387571872L135.11310138937552,33.90261606937929L140.90021816513035,35.710794477206946L145.64243885636097,39.47169816191308L148.29486737857223,42.943172834904544L150.14352968193998,47.499295854049706L156.17177632334642,51.25974504482292L155.20725686072547,53.50148234467633L161.1551268802432,57.55094178181753L163.96830864624644,60.949465574092756L165.57584108394803,65.79396518228896L173.6135032724851,70.7828255235545Z"/>

    <path name="大安區" class="town"  d="M91.46859570559172,100.34924749581114L86.72637501436111,93.77167273321538L74.75025835343695,93.26568711930304L71.45481685613049,92.54284598609956L58.433804110696656,91.5308594222588L62.77414169249823,91.5308594222588L69.8472844184289,81.62729517320986L72.17820645309985,80.03684827624238L73.70536226892727,72.51802156338454L79.8943621540966,65.07092079936047L80.53737512919179,61.16638860770399L89.37880353657238,49.09027281486851L91.54897232748044,47.21002452828543L93.71914111840306,41.78602833962577L98.86324491904816,36.36173049527133L107.4635434607917,41.858350272785174L110.75898495809815,44.968142670342786L115.6619588931062,47.06538854375685L124.10150419107231,52.12752043123328L127.71845217591908,58.852518065003096L125.95016649444005,59.720225945646234L116.06384200253524,57.40632112346066L115.42082902744005,59.720225945646234L110.83936157997232,60.80484995057486L108.34768630153849,70.3490216971004L103.92697209783364,75.84372782221908L106.7401538638369,80.32602236465755L96.37156964061433,86.47076947386813L98.86324491904816,90.0851461612001L96.69307612815464,94.78363610666202Z"/>

    <path name="龍井區" class="town"  d="M63.336778045704705,181.48451519171795L67.0341026524402,183.00109841393714L69.12389482144499,185.88976358560467L69.12389482144499,190.87251138854845L75.31289470662887,193.39989557098306L76.92042714434501,198.5988815252531L81.1000114823837,199.32094115998916L85.35997244231112,197.94902331927005L92.2723619244498,201.27047568351918L99.34550465036591,203.72539009434695L97.01458261568041,206.54124585899262L95.56780342175625,210.72877968429384L91.7901021931466,212.60589214900028L89.37880353657238,215.49368754043098L80.13549201976275,213.76102047778113L80.45699850730307,218.4535898527174L70.89218050292402,215.85465600437237L67.91824549317244,218.02043897837575L61.327362498574075,217.37070909169051L59.96095992652408,218.1648228150043L54.25421977264341,214.9883294659703L48.70823286255472,213.54443494929728L39.38454472385638,213.32784894397992L36.24985647031281,205.45823395336993L33.59742794810154,202.4257371592539L1.4551915228366852e-11,190.07817722014806L2.6524285222258186,186.61191660646728L8.600298541743541,184.4454416179542L11.091973820191924,178.37905742745716L13.905155586180626,176.86240282826475L17.20059708347253,169.8565989714116L21.460558043414494,158.8051908127709L28.372947525553172,165.95624408269578L36.24985647031281,172.24007288781286L40.26868756458862,172.81787603153498L39.4649213457451,175.49017133894085L50.074635434604716,179.96790855150175L51.11953151911439,178.45127849076744Z"/>

    <path name="清水區" class="town"  d="M37.214375932948315,127.73900779642281L38.17889539556927,124.48732630678569L42.35847973362252,119.64573381685477L43.88563554943539,113.50307043558496L47.261453668630566,106.2759140645503L53.289700310022454,102.66213570338368L57.630037891853135,94.56678769395148L58.433804110696656,91.5308594222588L71.45481685613049,92.54284598609956L74.75025835343695,93.26568711930304L86.72637501436111,93.77167273321538L91.46859570559172,100.34924749581114L97.49684234699816,106.70955849858728L107.2224135951401,106.2759140645503L116.94798484326748,106.92637999493309L131.9784131358465,117.33324695693227L133.3448157078965,118.99535240800105L129.72786772306426,121.59685212369732L126.35204960386909,130.55704444131698L127.7988287978078,134.67556757768034L133.9074520610884,136.48188276154178L131.09427029511426,140.60015689297506L129.8886209668126,145.4407140379917L124.18188081296103,149.91982267692947L115.17969916178845,149.2696421820474L107.4635434607917,144.7182579969558L103.0428292571014,143.63456395281537L98.86324491904816,144.5015201464812L91.87047881503531,143.923550202584L88.0927775864111,145.15173226044135L81.42151796992403,150.13654855057757L74.66988173154823,150.93120598942915L58.59455735445954,147.2468308497664L59.317946951428894,145.29622325568926L53.611206797577324,142.98434177600575L54.57572626018373,140.4556589756212L45.5735446090257,134.02528596020056L41.87622000230476,130.19576222223986Z"/>

    <path name="梧棲區" class="town"  d="M74.66988173154823,150.93120598942915L73.70536226892727,155.04887322828654L70.8118038810353,154.32648797081856L69.3650246870966,161.04446556036783L72.17820645309985,161.76680135109928L64.78355723964341,172.09562157051914L64.94431048342085,176.50129113769435L63.336778045704705,181.48451519171795L51.11953151911439,178.45127849076744L50.074635434604716,179.96790855150175L39.4649213457451,175.49017133894085L40.26868756458862,172.81787603153498L36.24985647031281,172.24007288781286L28.372947525553172,165.95624408269578L21.460558043414494,158.8051908127709L23.87185669997416,152.95394132368165L22.826960615464486,152.0148193924615L25.720519003341906,144.5737661498788L29.257090366299963,146.3076542598974L36.24985647031281,130.84606925729167L37.214375932948315,127.73900779642281L41.87622000230476,130.19576222223986L45.5735446090257,134.02528596020056L54.57572626018373,140.4556589756212L53.611206797577324,142.98434177600575L59.317946951428894,145.29622325568926L58.59455735445954,147.2468308497664Z"/>
</svg>
