<?xml version="1.0" encoding="utf-8"?>
<!-- Generator: Adobe Illustrator 23.0.3, SVG Export Plug-In . SVG Version: 6.00 Build 0)  -->
<svg version="1.1" id="圖層_1" xmlns="http://www.w3.org/2000/svg" xmlns:xlink="http://www.w3.org/1999/xlink" x="0px" y="0px"
	 viewBox="0 0 720 773" style="enable-background:new 0 0 720 773;" xml:space="preserve">
    <style type="text/css">.town{fill:#9CCA97;stroke:#FFFFFF;stroke-width:1.5;stroke-linecap:round;stroke-linejoin:round;}</style>

    <path name="新營區" class="town" d="M351.48734429484466,113.90977453941377L349.7855155104189,114.33544554438777L340.85091439221287,108.58878663993528L338.5108998136275,111.14288402193051L342.02092168148374,117.84718596747189L336.9154353282356,118.59209019967238L329.36357009738276,125.4024743840746L323.4071693519072,124.12555052684547L322.5562549596798,133.70221877467702L310.43072487071913,134.76625589593095L297.02882319338096,134.44704553911652L288.9451364674169,136.8943078659795L290.11514375668776,146.78935950641971L285.00965740343963,156.79015741191324L280.1168996482156,156.4709931356956L275.6495990891126,173.70490915331538L266.82136226994044,174.44954069328378L265.97044787772757,179.129998666529L257.46130395562795,182.42750793300002L249.69671012669278,179.87460375574665L252.2494533033314,167.2158234586641L247.35669554813649,167.3222041362278L247.03760265106393,158.7051290525851L242.0384805968206,146.78935950641971L246.6121454549575,144.34225594013333L249.69671012669278,147.8533053354986L253.73855348968937,143.70387464080704L264.1622547942825,136.04309064141853L261.7158759166632,128.59473723432893L271.3950271280628,126.57297852386546L271.71412002513534,119.7626466373622L267.67227666213876,112.31349768022847L266.9277265689889,104.43828706859131L278.0959779667173,110.50436369036106L280.22326394723495,106.88603126436647L284.5842002073332,105.9282230020799L288.83877216836845,101.67122452821786L293.306072727486,91.45394270836914L288.7324078693491,88.79307971982053L291.9233368401474,83.15189637431104L298.73065197782125,88.58020867178129L301.49612375249853,78.14916265252032L305.64433141451445,79.32002996471783L301.81521664958564,84.5356022045853L304.1552312281565,91.66680973860639L313.30256094441575,89.64456093565241L315.9616684200737,93.05043818144259L320.2162403811235,91.24107538053795L327.4490127149038,93.05043818144259L338.1918069165549,98.69125480523508L337.7663497204485,102.84191096825816L350.5300656035979,100.60695632017087L352.338258687043,107.73741133102521Z"/>

    <path name="鹽水區" class="town" d="M291.9233368401474,83.15189637431104L288.7324078693491,88.79307971982053L293.306072727486,91.45394270836914L288.83877216836845,101.67122452821786L284.5842002073332,105.9282230020799L280.22326394723495,106.88603126436647L278.0959779667173,110.50436369036106L266.9277265689889,104.43828706859131L267.67227666213876,112.31349768022847L271.71412002513534,119.7626466373622L271.3950271280628,126.57297852386546L261.7158759166632,128.59473723432893L264.1622547942825,136.04309064141853L253.73855348968937,143.70387464080704L249.69671012669278,147.8533053354986L246.6121454549575,144.34225594013333L242.0384805968206,146.78935950641971L247.03760265106393,158.7051290525851L247.35669554813649,167.3222041362278L252.2494533033314,167.2158234586641L249.69671012669278,179.87460375574665L257.46130395562795,182.42750793300002L248.5267028374219,188.80958172761166L247.03760265106393,187.32045502219262L236.2948084493837,193.8086866675767L229.8065862088115,194.97866633419835L226.29656434092612,189.34140917647892L221.08471368865867,190.4050585207442L221.72289948281832,186.04404915089253L215.02194864416379,180.4064623113336L214.5964914480428,174.34316498129556L210.87374098214786,171.25823709867836L202.15186846199504,174.76866738460376L194.38727463305986,173.27940378593848L191.7281671574019,177.42803054535761L186.62268080416834,174.87504280018038L182.36810884308943,168.81152583901348L184.70812342166028,161.7903106034537L187.89905239245854,162.7477680605698L202.47096135905304,155.19432935591612L203.85369724639168,150.5131374483426L203.960061545411,139.55433107155477L212.89466266364616,134.55344906563914L218.21287761493295,126.25375101338432L223.95654976235528,111.24930381705053L231.0829577971308,99.01054006439153L238.42209442993044,99.32982465419991L249.05852433256223,94.85977948273285L261.6095116176439,83.36477501305126L262.0349688137503,78.68137618382389L254.90856077901844,79.00070340925959L260.1204114312859,70.16573631545543L265.11953348552925,68.46255115077656L268.73591965240485,69.84639054939544L271.28866282904346,74.74295197755782L276.7132420793787,74.74295197755782L281.7123641336075,72.40113791056865L283.94601441317354,66.43999400240136L291.81697254112805,64.41740996346925L293.09334412941826,82.19393881571159Z"/>

    <path name="白河區" class="town" d="M529.8602737618639,144.44865256362027L525.9247946978867,141.150322726804L519.2238438592321,139.23513073644426L509.5446926478471,132.63817422872307L498.4828055491089,130.51006286126358L491.8882190094737,137.31991469659988L487.63364704843843,137.5327176665014L482.7408892932435,132.21255433134138L477.3163100429083,133.80862282088856L469.2326233169151,129.12677454421646L464.44622986071045,128.16910604963414L458.91528631134133,131.8933386286626L454.2352571541851,131.99974393714365L450.2997780902224,129.33958894832904L452.00160687464813,125.08324442252342L444.7688345408533,118.80491931158758L442.2160913642292,114.5482806009677L434.45149753529404,106.3539163065434L418.3904883823561,98.79768329932631L417.32684539209004,92.94400567068078L409.98770875927585,90.28316872248979L407.54132988165657,82.72613820368497L404.5631295089406,84.10984790416478L405.94586539627926,91.45394270836914L403.0740293225681,93.36973526741349L399.9894646508037,84.5356022045853L391.2675921306509,84.5356022045853L395.52216409168614,79.107145668866L388.5021203559736,77.6169472600377L389.3530347481719,70.27218475518748L386.8002915715624,65.2690275733512L382.01389811535773,65.37547943933896L389.3530347481719,54.94284244536175L396.1603498858458,52.92010550483246L406.7967797885067,51.855496307252906L408.6049728719372,48.55516042187082L406.7967797885067,37.26959953959158L400.62765044496336,33.96894693876311L401.69129343522945,28.006295975876128L394.1394282043475,25.450802495979588L388.39575605695427,25.557282249257696L384.460276992977,22.469339100065554L387.6512059637753,9.903957388531126L397.64945007223287,6.922188740183628L411.3704446466145,1.0649726616538828L418.60321698040934,3.4078862146307074L422.8577889414446,10.968860570810648L426.1550822112622,7.987112837505265L434.7705904323957,6.496217009582324L435.30241192752146,3.088400132382958L441.89699846715666,-3.637978807091713e-12L459.87256500260264,7.667636392681743L469.8708091110457,14.48298808249092L473.91265247404226,14.802450187180511L479.4435960234259,18.422973738641303L485.0809038717998,29.603457571880426L497.2064339608187,20.446169894581544L504.1201133975119,25.450802495979588L505.9283064809424,29.28402659589483L500.92918442672817,33.33010267057034L491.3563975143479,38.01489826995385L488.8036543377384,47.91637745927801L497.7382554559299,46.95819798283992L500.71645582867495,50.365030907585606L508.2683210595278,52.3878018377909L511.88470722641796,51.0038035822181L519.8620296533918,61.43671078146144L519.7556653543725,66.22709168571237L510.5019713390793,71.54956022303668L511.45925003029697,76.65895486327281L514.862907599163,80.7037706297524L523.0529586241755,79.85223940160722L535.072124414146,84.8549171484483L542.6239896449988,89.00595047021852L548.8994832875469,98.05268227886336L540.3903393654618,105.71537590376101L539.8585178703215,109.44015719125309L530.498459556009,116.35736658028327L531.8811954433622,127.21143153945013L534.4339386199863,134.76625589593095L534.1148457229283,138.91592973329898Z"/>

    <path name="柳營區" class="town" d="M329.36357009738276,125.4024743840746L330.32084878861497,130.19084359431145L333.7245063574519,134.44704553911652L340.42545719610644,136.25589539298016L348.5091439220996,124.23196125680624L357.55010933933954,128.70114484483565L359.8901239179104,132.95738837212411L366.0592532614246,131.4677166522306L369.88836802636797,137.74552033948203L374.1429399874178,137.63911904010456L378.6102405465208,141.8951131175745L384.034819796856,140.83112573175822L393.3948781111685,145.93819750079638L395.52216409168614,154.44960388550317L390.31031343943323,157.8540335120124L390.5230420374719,162.0030794462691L396.6921713809861,172.3220123741994L402.754936425481,171.25823709867836L407.3286012836179,173.27940378593848L414.9868308134901,172.21563518014227L415.62501660764974,177.85352435373716L425.7296250151703,183.1720969477101L426.6869037064025,192.63869804327624L425.51689641710254,198.80762807407882L410.4131659553823,205.61443433840032L403.81857941576163,206.35891038570844L402.8613007245294,209.65583216245795L396.9048999790539,208.06055630931223L391.7994136257912,203.38098444343996L388.39575605695427,204.33818125115795L381.26934802217875,202.42378164203546L376.05749736989674,198.70126932104904L368.9310893351503,198.48855159295272L361.9110455994087,200.93478759249774L357.3373807413009,196.25499757306534L349.5727869123657,194.4468585052491L350.21097270652535,184.767632615185L345.211850652282,179.66185981495073L341.0636429902661,181.57654461473794L337.0217996272695,179.02362621459542L333.61814205843257,172.00288056969657L327.5553770139377,174.87504280018038L320.0035117830703,174.44954069328378L316.81258281228656,171.7901256628138L312.77073944929,176.57703937228143L307.0270673018531,175.83241820600233L302.2406738456775,171.364614959748L295.539723007023,172.96027398230945L279.2659852560173,175.6196686344956L275.6495990891126,173.70490915331538L280.1168996482156,156.4709931356956L285.00965740343963,156.79015741191324L290.11514375668776,146.78935950641971L288.9451364674169,136.8943078659795L297.02882319338096,134.44704553911652L310.43072487071913,134.76625589593095L322.5562549596798,133.70221877467702L323.4071693519072,124.12555052684547Z"/>

    <path name="後壁區" class="town" d="M391.2675921306509,84.5356022045853L385.31119138517533,88.47377303616304L385.84301288031565,93.47616748060318L378.82296914458857,93.47616748060318L381.9075338163384,100.71338347563142L372.01565400690015,99.4362527020603L372.8665683991276,105.9282230020799L358.40102373153786,103.16118752672264L357.4437450403202,110.07868198270444L351.48734429484466,113.90977453941377L352.338258687043,107.73741133102521L350.5300656035979,100.60695632017087L337.7663497204485,102.84191096825816L338.1918069165549,98.69125480523508L327.4490127149038,93.05043818144259L320.2162403811235,91.24107538053795L315.9616684200737,93.05043818144259L313.30256094441575,89.64456093565241L304.1552312281565,91.66680973860639L301.81521664958564,84.5356022045853L305.64433141451445,79.32002996471783L301.49612375249853,78.14916265252032L298.73065197782125,88.58020867178129L291.9233368401474,83.15189637431104L293.09334412941826,82.19393881571159L291.81697254112805,64.41740996346925L283.94601441317354,66.43999400240136L281.7123641336075,72.40113791056865L279.15962095696887,59.20114806151105L281.18054263846716,53.23948681060574L288.83877216836845,43.551288709353685L307.7716173950321,43.551288709353685L307.7716173950321,31.945930875219346L315.00438972882694,28.64516262914185L319.0462330918235,34.181894431294495L326.3853697246377,31.307078101384832L331.1717631808133,31.626504824078438L341.3827358873532,19.168364931774704L348.4027796230657,13.844061856842018L358.9328452266782,12.353223541816988L381.48207662023196,11.394819752407784L387.6512059637753,9.903957388531126L384.460276992977,22.469339100065554L388.39575605695427,25.557282249257696L394.1394282043475,25.450802495979588L401.69129343522945,28.006295975876128L400.62765044496336,33.96894693876311L406.7967797885067,37.26959953959158L408.6049728719372,48.55516042187082L406.7967797885067,51.855496307252906L396.1603498858458,52.92010550483246L389.3530347481719,54.94284244536175L382.01389811535773,65.37547943933896L386.8002915715624,65.2690275733512L389.3530347481719,70.27218475518748L388.5021203559736,77.6169472600377L395.52216409168614,79.107145668866Z"/>

    <path name="東山區" class="town" d="M529.8602737618639,144.44865256362027L529.0093593696511,152.96014204122548L530.179366658951,159.87537767150934L528.2648092764721,162.32223215439808L534.2212100219476,168.38600683496043L537.5185032917652,178.06627081340412L540.7094322625344,181.36380304445265L538.2630533849442,189.66050475723387L532.3066526394687,196.36135802848366L527.201166286206,199.33942072904392L518.6920223641209,205.93349594545361L510.5019713390793,210.08123624559084L503.8010205004248,217.95099832580308L486.88909695525945,221.35401326709325L482.63452499420964,218.27003419291577L459.234379208443,208.80502044545938L454.6607143503061,208.06055630931223L450.2997780902224,211.57014121621978L447.1088491194241,209.5494809567499L447.7470349136129,202.95556171612407L437.536062207073,202.31742540523192L426.6869037064025,192.63869804327624L425.7296250151703,183.1720969477101L415.62501660764974,177.85352435373716L414.9868308134901,172.21563518014227L407.3286012836179,173.27940378593848L402.754936425481,171.25823709867836L396.6921713809861,172.3220123741994L390.5230420374719,162.0030794462691L390.31031343943323,157.8540335120124L395.52216409168614,154.44960388550317L393.3948781111685,145.93819750079638L384.034819796856,140.83112573175822L378.6102405465208,141.8951131175745L374.1429399874178,137.63911904010456L369.88836802636797,137.74552033948203L366.0592532614246,131.4677166522306L359.8901239179104,132.95738837212411L357.55010933933954,128.70114484483565L348.5091439220996,124.23196125680624L340.42545719610644,136.25589539298016L333.7245063574519,134.44704553911652L330.32084878861497,130.19084359431145L329.36357009738276,125.4024743840746L336.9154353282356,118.59209019967238L342.02092168148374,117.84718596747189L338.5108998136275,111.14288402193051L340.85091439221287,108.58878663993528L349.7855155104189,114.33544554438777L351.48734429484466,113.90977453941377L357.4437450403202,110.07868198270444L358.40102373153786,103.16118752672264L372.8665683991276,105.9282230020799L372.01565400690015,99.4362527020603L381.9075338163384,100.71338347563142L378.82296914458857,93.47616748060318L385.84301288031565,93.47616748060318L385.31119138517533,88.47377303616304L391.2675921306509,84.5356022045853L399.9894646508037,84.5356022045853L403.0740293225681,93.36973526741349L405.94586539627926,91.45394270836914L404.5631295089406,84.10984790416478L407.54132988165657,82.72613820368497L409.98770875927585,90.28316872248979L417.32684539209004,92.94400567068078L418.3904883823561,98.79768329932631L434.45149753529404,106.3539163065434L442.2160913642292,114.5482806009677L444.7688345408533,118.80491931158758L452.00160687464813,125.08324442252342L450.2997780902224,129.33958894832904L454.2352571541851,131.99974393714365L458.91528631134133,131.8933386286626L464.44622986071045,128.16910604963414L469.2326233169151,129.12677454421646L477.3163100429083,133.80862282088856L482.7408892932435,132.21255433134138L487.63364704843843,137.5327176665014L491.8882190094737,137.31991469659988L498.4828055491089,130.51006286126358L509.5446926478471,132.63817422872307L519.2238438592321,139.23513073644426L525.9247946978867,141.150322726804Z"/>

    <path name="麻豆區" class="town" d="M285.6478431975702,241.9831710734361L283.0951000209461,254.52944339507303L287.0305790849234,258.0379627409093L285.54147889855085,271.9649287324755L276.50051348134,273.240618052052L262.24769741180353,277.0676222975235L259.48222563712625,282.1701459851538L257.8867611517344,297.05153682875607L254.69583218095067,297.7955684642693L255.44038227412966,307.7865008286426L257.1422110585554,311.0812401217481L254.05764638679102,315.6512452567149L248.73943143547513,318.9458157083682L234.80570826302574,323.83440284361495L234.6993439640064,316.50146375628174L230.1256791058695,315.9700777459839L220.97834938963933,307.7865008286426L209.2782764967269,294.9257122673007L206.19371182499162,290.14249926071716L202.89641855517402,283.02055008685784L207.6828120113496,281.851243230758L206.7255333200883,273.9847652510325L207.47008341329638,263.24743411589225L198.53548229507578,258.5695495698674L198.96093949119677,251.76509881221136L187.154502299265,248.25643574395144L190.23906697104394,244.64136545429938L188.4308738875843,239.85658233317736L184.8144877206796,240.707221374636L182.47447314212332,233.47663882399502L191.30270996129548,231.1372595613284L190.8772527652036,228.69150663617984L200.98186117269506,226.99009023882172L207.89554060938826,219.3334822770521L208.10826920745603,215.50503456803926L212.89466266364616,208.5923167764522L225.87110714483424,217.5256161344405L229.8065862088115,226.67107255788505L235.33752975816606,229.75488227677488L239.69846601822064,229.32953290737714L240.97483760656905,237.3046368438554L251.39853891113307,243.0464543647504L260.75859722544556,240.60089175297253L263.63043329914217,242.6211419344836L286.07330039369117,240.707221374636Z"/>

    <path name="下營區" class="town" d="M295.539723007023,172.96027398230945L296.17790880118264,178.06627081340412L292.98697983038437,181.151061177854L295.3269944089843,189.55413963769752L284.0523787121929,199.23306234607298L281.49963553555426,208.3796128115282L289.05150076642167,217.84465288888532L286.07330039369117,221.14132705132943L283.52055721705256,231.98794706755143L284.9032931043912,237.4109687554228L288.30695067322813,238.26162138857399L285.6478431975702,241.9831710734361L286.07330039369117,240.707221374636L263.63043329914217,242.6211419344836L260.75859722544556,240.60089175297253L251.39853891113307,243.0464543647504L240.97483760656905,237.3046368438554L239.69846601822064,229.32953290737714L235.33752975816606,229.75488227677488L229.8065862088115,226.67107255788505L225.87110714483424,217.5256161344405L212.89466266364616,208.5923167764522L214.06466995293158,203.16827322778045L217.46832752176851,202.8492058493066L224.70109985553427,196.7867991099738L221.08471368865867,190.4050585207442L226.29656434092612,189.34140917647892L229.8065862088115,194.97866633419835L236.2948084493837,193.8086866675767L247.03760265106393,187.32045502219262L248.5267028374219,188.80958172761166L257.46130395562795,182.42750793300002L265.97044787772757,179.129998666529L266.82136226994044,174.44954069328378L275.6495990891126,173.70490915331538L279.2659852560173,175.6196686344956Z"/>

    <path name="六甲區" class="town" d="M426.6869037064025,192.63869804327624L437.536062207073,202.31742540523192L447.7470349136129,202.95556171612407L447.1088491194241,209.5494809567499L450.2997780902224,211.57014121621978L454.6607143503061,208.06055630931223L459.234379208443,208.80502044545938L482.63452499420964,218.27003419291577L476.1463027536083,224.9696336913039L473.2744666799117,229.96755651806234L467.9562517285667,245.066672271907L462.6380367772799,253.35991908454525L453.80979995810776,245.27932523762502L447.53430631553056,247.08686352050063L436.15332631973433,243.0464543647504L433.0687616479554,243.79074827436125L423.28324613755103,243.25911013676523L419.560495671627,239.11226929400073L398.9258216605522,236.45397889174637L394.8839782975556,237.51730059312467L382.01389811535773,249.10702811316878L371.90928970786626,239.43126103971736L370.31382522248896,232.73229475609696L370.63291811954696,226.77741185877312L358.1882951334992,229.96755651806234L355.4228233588219,226.24571461519372L348.93460111820605,228.69150663617984L341.27637158830476,228.05347770440858L342.9782003727305,221.67304203624371L339.57454280389356,218.27003419291577L331.5972203769343,219.6525152604736L331.06539888179395,214.65425539544594L325.21536243533774,211.88919039516986L310.11163197363203,212.1018894779736L306.1761529096548,214.65425539544594L299.6879306690389,215.18599293296938L289.05150076642167,217.84465288888532L281.49963553555426,208.3796128115282L284.0523787121929,199.23306234607298L295.3269944089843,189.55413963769752L292.98697983038437,181.151061177854L296.17790880118264,178.06627081340412L295.539723007023,172.96027398230945L302.2406738456775,171.364614959748L307.0270673018531,175.83241820600233L312.77073944929,176.57703937228143L316.81258281228656,171.7901256628138L320.0035117830703,174.44954069328378L327.5553770139377,174.87504280018038L333.61814205843257,172.00288056969657L337.0217996272695,179.02362621459542L341.0636429902661,181.57654461473794L345.211850652282,179.66185981495073L350.21097270652535,184.767632615185L349.5727869123657,194.4468585052491L357.3373807413009,196.25499757306534L361.9110455994087,200.93478759249774L368.9310893351503,198.48855159295272L376.05749736989674,198.70126932104904L381.26934802217875,202.42378164203546L388.39575605695427,204.33818125115795L391.7994136257912,203.38098444343996L396.9048999790539,208.06055630931223L402.8613007245294,209.65583216245795L403.81857941576163,206.35891038570844L410.4131659553823,205.61443433840032L425.51689641710254,198.80762807407882Z"/>

    <path name="官田區" class="town" d="M433.0687616479554,243.79074827436125L425.3041678190493,251.76509881221136L417.1141167940368,269.30720853996536L411.6895375437016,270.2639931196318L410.4131659553823,273.77215213433374L403.92494371478097,272.28385205797167L398.2876358663925,275.3667433198643L394.5648854004685,285.4654356022729L385.630284282277,284.61504506271376L378.6102405465208,285.9969272941926L372.01565400690015,284.2961473942669L361.9110455994087,289.07954277499084L361.0601312071958,294.1816667093808L352.23189438802365,300.02764171609306L344.467300559103,300.66537096516186L329.576298695436,290.9928591439857L317.4507686064462,280.5756255787637L305.5379671154951,276.0045751485268L303.7297740320355,273.6658454653625L295.3269944089843,271.64600474324106L285.54147889855085,271.9649287324755L287.0305790849234,258.0379627409093L283.0951000209461,254.52944339507303L285.6478431975702,241.9831710734361L288.30695067322813,238.26162138857399L284.9032931043912,237.4109687554228L283.52055721705256,231.98794706755143L286.07330039369117,221.14132705132943L289.05150076642167,217.84465288888532L299.6879306690389,215.18599293296938L306.1761529096548,214.65425539544594L310.11163197363203,212.1018894779736L325.21536243533774,211.88919039516986L331.06539888179395,214.65425539544594L331.5972203769343,219.6525152604736L339.57454280389356,218.27003419291577L342.9782003727305,221.67304203624371L341.27637158830476,228.05347770440858L348.93460111820605,228.69150663617984L355.4228233588219,226.24571461519372L358.1882951334992,229.96755651806234L370.63291811954696,226.77741185877312L370.31382522248896,232.73229475609696L371.90928970786626,239.43126103971736L382.01389811535773,249.10702811316878L394.8839782975556,237.51730059312467L398.9258216605522,236.45397889174637L419.560495671627,239.11226929400073L423.28324613755103,243.25911013676523Z"/>

    <path name="大內區" class="town" d="M462.6380367772799,253.35991908454525L461.3616651889606,256.0179159641084L451.78887827660947,273.9847652510325L447.21521341847256,280.5756255787637L446.68339192333224,285.5717340880583L437.00424071193265,297.37040797165537L438.59970519733906,305.0231165460027L434.2387689372554,316.50146375628174L439.2378909914987,321.07130750482975L439.1315266924794,335.4176075188079L433.9196760401828,340.51819123203313L429.98419697620557,346.8936827254729L420.73050296092697,353.8001666620221L420.19868146578665,345.40609170763855L413.8168235242192,346.14988901691686L410.9449874504935,343.0684195785434L404.5631295089406,341.3682720515353L401.37220053814235,348.7000238849505L392.1185065228492,352.52514683599657L387.7575702627946,352.3126425032169L385.52391998322855,356.03142590531206L369.2501822322083,359.11263542049346L355.7419162558799,348.80627858599473L348.8282368191867,342.64338446072725L342.02092168148374,332.7609864150654L337.65998542142916,321.2838550658089L337.55362112239527,315.9700777459839L343.4036575688515,309.5933021044366L344.467300559103,300.66537096516186L352.23189438802365,300.02764171609306L361.0601312071958,294.1816667093808L361.9110455994087,289.07954277499084L372.01565400690015,284.2961473942669L378.6102405465208,285.9969272941926L385.630284282277,284.61504506271376L394.5648854004685,285.4654356022729L398.2876358663925,275.3667433198643L403.92494371478097,272.28385205797167L410.4131659553823,273.77215213433374L411.6895375437016,270.2639931196318L417.1141167940368,269.30720853996536L425.3041678190493,251.76509881221136L433.0687616479554,243.79074827436125L436.15332631973433,243.0464543647504L447.53430631553056,247.08686352050063L453.80979995810776,245.27932523762502Z"/>

    <path name="佳里區" class="town" d="M182.47447314212332,233.47663882399502L184.8144877206796,240.707221374636L188.4308738875843,239.85658233317736L190.23906697104394,244.64136545429938L187.154502299265,248.25643574395144L198.96093949119677,251.76509881221136L198.53548229507578,258.5695495698674L207.47008341329638,263.24743411589225L206.7255333200883,273.9847652510325L207.6828120113496,281.851243230758L202.89641855517402,283.02055008685784L206.19371182499162,290.14249926071716L202.57732565807237,290.9928591439857L196.40819631455815,286.74101256751965L183.11265893626842,290.5676797918095L186.72904510315857,300.24021842703587L178.11353688205418,303.53511977749076L180.02809426453314,307.7865008286426L173.96532922003826,312.0377640856641L170.029850156061,316.92657123989557L163.54162791544513,317.2454010799265L164.1798137096048,333.82364037111984L160.77615614076785,334.35496459182104L157.69159146900347,339.3493224240083L149.9269976400683,340.41193079882214L151.30973352740693,334.56749376541484L145.8851542770717,331.3795252791533L140.2478464286978,333.1860488798484L137.16328175694798,327.87268350241357L137.16328175694798,319.6897411849277L143.5451396985154,318.73326490998807L142.2687681101961,309.16817430654555L146.94879726735235,299.28362090779046L147.69334736053133,293.5439105008736L142.16240381117677,292.79985823885727L141.84331091407512,285.89062910320354L133.1214383939514,282.5953486257022L135.46145297252224,275.1541321204131L135.3550886735029,267.71255429702796L141.63058231603645,268.13779705126217L139.7160249335575,259.63271769297717L144.50241838976217,258.6758667142676L152.37337651768757,263.4600618374461L157.69159146900347,262.60954918047355L160.24433464564208,258.99481770465354L161.0952490378695,252.29670741513473L163.86072081251768,248.5754084361579L168.11529277358204,234.75264880293253L166.94528548428207,229.32953290737714L175.24170080832846,232.51962435740643L175.24170080832846,236.77297617785734Z"/>

    <path name="學甲區" class="town" d="M203.960061545411,139.55433107155477L203.85369724639168,150.5131374483426L202.47096135905304,155.19432935591612L187.89905239245854,162.7477680605698L184.70812342166028,161.7903106034537L182.36810884308943,168.81152583901348L186.62268080416834,174.87504280018038L191.7281671574019,177.42803054535761L194.38727463305986,173.27940378593848L202.15186846199504,174.76866738460376L210.87374098214786,171.25823709867836L214.5964914480428,174.34316498129556L215.02194864416379,180.4064623113336L221.72289948281832,186.04404915089253L221.08471368865867,190.4050585207442L224.70109985553427,196.7867991099738L217.46832752176851,202.8492058493066L214.06466995293158,203.16827322778045L212.89466266364616,208.5923167764522L208.10826920745603,215.50503456803926L207.89554060938826,219.3334822770521L200.98186117269506,226.99009023882172L190.8772527652036,228.69150663617984L191.30270996129548,231.1372595613284L182.47447314212332,233.47663882399502L175.24170080832846,236.77297617785734L175.24170080832846,232.51962435740643L166.94528548428207,229.32953290737714L164.49890660667734,218.0573436887862L159.92524174854043,213.4844263047562L157.7979557680228,207.10338280773067L152.37337651768757,202.31742540523192L147.48061876249267,201.1475019161917L131.84506680560298,206.03984966650023L123.12319428547926,211.35744139376038L126.42048755526775,199.55213727294904L130.99415241340466,197.4249585116122L127.37776624652906,190.8305161852404L127.59049484456773,187.00135455412965L121.20863690301485,183.06572731066262L121.63409409912128,180.3000907483729L127.16503764847585,174.55591633114454L131.41960960952565,173.17302725883565L136.0996387666819,175.40691876659912L140.88603222285747,167.2158234586641L138.12056044818019,158.38596878105454L138.54601764428662,150.40674505412608L133.44053129102394,145.5126147171395L136.0996387666819,138.91592973329898L140.14148212967848,144.9806345679608L144.2896897916944,142.63989987170498L155.7770340865245,155.40710739422502L159.60614885148243,152.10901445981654L168.85984286676103,149.9811747352942L173.22077912683017,150.9387062834503L174.17805781807692,141.04392380266654L179.81536566646537,138.80952925046586L175.98625090153655,133.4894104594714L178.75172267618473,128.59473723432893L182.2617445440701,129.65880999753062L195.4509176233405,139.23513073644426Z"/>

    <path name="西港區" class="town" d="M206.19371182499162,290.14249926071716L209.2782764967269,294.9257122673007L220.97834938963933,307.7865008286426L230.1256791058695,315.9700777459839L234.6993439640064,316.50146375628174L234.80570826302574,323.83440284361495L222.14835667889565,329.4667124201842L208.85281930062047,341.15575228767557L193.85545313791954,350.8251039459137L194.1745460350212,359.11263542049346L188.96269538272463,366.4435408198078L177.6880796859332,378.3422374277761L171.6253146414383,384.716160566295L166.20073539110308,383.8663194055407L162.26525632714038,377.81106524497227L163.96708511156612,376.00506610289085L165.6689138959773,360.17510713945376L162.26525632714038,355.18142620357685L167.90256417551427,346.3624018724986L165.34982099887566,338.81801548006115L160.77615614076785,334.35496459182104L164.1798137096048,333.82364037111984L163.54162791544513,317.2454010799265L170.029850156061,316.92657123989557L173.96532922003826,312.0377640856641L180.02809426453314,307.7865008286426L178.11353688205418,303.53511977749076L186.72904510315857,300.24021842703587L183.11265893626842,290.5676797918095L196.40819631455815,286.74101256751965L202.57732565807237,290.9928591439857Z"/>

    <path name="新化區" class="town" d="M357.7628379373782,391.5147208802009L358.40102373153786,397.88809841696275L362.5492313935538,400.0124989529577L370.5265538205276,413.07691780642926L373.7174827913259,413.2893382238217L377.3338689582306,424.44099876558903L378.92933344362245,433.8927266690989L375.41931157575164,437.29095907605006L373.93021138936456,443.76863210051306L375.5256758747564,449.71510872896033L380.95025512512075,451.3078760331591L386.693927272514,449.18418263862986L389.88485624331224,450.56458667161496L387.43847736569296,459.6961790836285L393.8203353072895,464.686472098736L384.88573418908345,463.9432471981454L383.1839054046577,468.08402605694937L377.1211403601628,466.703778783507L365.8465246633714,470.10128832727787L356.9119235451799,468.6148871057085L352.0191657899559,473.0740478237203L347.4455009318481,481.8858199513634L342.44637887760473,486.23843747536375L338.5108998136275,481.3550045419688L332.7672276662197,480.0810401132767L331.2781274798617,471.4815052144113L326.49173402365705,462.1382575345888L322.76898355774756,462.8814911298359L309.8989033755788,459.2714658417717L295.539723007023,461.5011973175642L291.81697254112805,457.6787807707515L288.30695067322813,455.3428129207605L279.5850781530753,451.20169205798084L278.5214351628383,443.2376855352268L284.69056450635253,436.016630703034L278.0959779667173,430.3882210246775L278.415070863819,423.59137684714005L282.35054992776713,419.0245787595886L272.99049161348375,408.93466110447844L282.77600712387357,409.1470872354839L288.6260435703298,411.3775439197525L289.79605085960065,406.810383676926L297.98610188464227,405.00472482126133L298.19883048268093,410.20921349508717L312.1325536551303,407.44766998225896L318.83350449378486,403.4114788336956L322.2371620626218,405.42958763349816L328.7253843032231,402.88039317398216L333.83087065647123,396.93210861047555L334.5754207496502,390.98359417187385L337.97907831851626,387.58433982915085L334.14996355355834,384.18501039092735L334.14996355355834,379.8295097817463L338.9363570097339,377.9172998282738L340.00000000001455,381.74169596554566L344.57366485812236,381.10430321188323L349.89187980946735,383.8663194055407Z"/>

    <path name="善化區" class="town" d="M344.467300559103,300.66537096516186L343.4036575688515,309.5933021044366L337.55362112239527,315.9700777459839L335.42633514187764,317.77678267488955L328.9381129012763,337.8616583497824L330.7463059847214,343.2809366964757L330.85267028374074,351.56887502442623L322.76898355774756,351.8876329561208L305.9634243116161,346.8936827254729L294.58244431580533,352.52514683599657L289.4769579625281,347.5312173241946L283.7332858151058,346.46865819005325L278.8405280598963,350.8251039459137L272.8841273144353,345.9373758674046L262.8858832059632,349.33755098903566L256.50402526439575,353.0564063823731L249.69671012669278,349.9750754481138L255.546746573149,347.8499836315859L261.82224021571164,340.0931490581861L260.54586862739234,334.56749376541484L257.1422110585554,330.95445781404123L255.22765367607644,324.68457601979026L249.80307442574122,323.30304221769256L248.73943143547513,318.9458157083682L254.05764638679102,315.6512452567149L257.1422110585554,311.0812401217481L255.44038227412966,307.7865008286426L254.69583218095067,297.7955684642693L257.8867611517344,297.05153682875607L259.48222563712625,282.1701459851538L262.24769741180353,277.0676222975235L276.50051348134,273.240618052052L285.54147889855085,271.9649287324755L295.3269944089843,271.64600474324106L303.7297740320355,273.6658454653625L305.5379671154951,276.0045751485268L317.4507686064462,280.5756255787637L329.576298695436,290.9928591439857Z"/>

    <path name="新市區" class="town" d="M330.85267028374074,351.56887502442623L333.93723495551967,360.0688602980117L340.85091439221287,369.630781970518L342.6591074756434,377.2798912279213L338.9363570097339,377.9172998282738L334.14996355355834,379.8295097817463L334.14996355355834,384.18501039092735L337.97907831851626,387.58433982915085L334.5754207496502,390.98359417187385L333.83087065647123,396.93210861047555L328.7253843032231,402.88039317398216L322.2371620626218,405.42958763349816L318.83350449378486,403.4114788336956L312.1325536551303,407.44766998225896L298.19883048268093,410.20921349508717L297.98610188464227,405.00472482126133L289.79605085960065,406.810383676926L288.6260435703298,411.3775439197525L282.77600712387357,409.1470872354839L272.99049161348375,408.93466110447844L271.3950271280628,405.11094063422934L265.3322620835679,405.5358031533942L258.6313112449134,402.56174089877095L251.07944601406052,405.11094063422934L246.29305255785584,403.19904478966055L245.22940956761886,397.038329993291L240.3366518124094,398.41920129954815L234.27388676788541,397.3569937019274L235.55025835623383,396.18855687832547L235.23116545914672,383.54762776000643L241.2939305036416,384.07878013582376L240.44301611142873,376.74871537654326L242.0384805968206,372.71171895593943L240.76210900850128,366.01857034130444L241.93211629780126,359.6438721979139L237.25208714064502,356.03142590531206L245.22940956761886,353.8001666620221L249.69671012669278,349.9750754481138L256.50402526439575,353.0564063823731L262.8858832059632,349.33755098903566L272.8841273144353,345.9373758674046L278.8405280598963,350.8251039459137L283.7332858151058,346.46865819005325L289.4769579625281,347.5312173241946L294.58244431580533,352.52514683599657L305.9634243116161,346.8936827254729L322.76898355774756,351.8876329561208Z"/>

    <path name="安定區" class="town" d="M249.69671012669278,349.9750754481138L245.22940956761886,353.8001666620221L237.25208714064502,356.03142590531206L241.93211629780126,359.6438721979139L240.76210900850128,366.01857034130444L242.0384805968206,372.71171895593943L240.44301611142873,376.74871537654326L241.2939305036416,384.07878013582376L235.23116545914672,383.54762776000643L235.55025835623383,396.18855687832547L234.27388676788541,397.3569937019274L227.67930022827932,393.63920938361116L212.68193406556384,388.8590690072633L205.34279743274965,389.7088825928149L200.55640397657407,395.020111184851L196.94001780969847,393.3205379776882L193.2172673437599,395.97611286654137L190.55815986813104,391.1960450751649L198.53548229507578,383.54762776000643L190.4517955690826,383.33516629623773L177.6880796859332,378.3422374277761L188.96269538272463,366.4435408198078L194.1745460350212,359.11263542049346L193.85545313791954,350.8251039459137L208.85281930062047,341.15575228767557L222.14835667889565,329.4667124201842L234.80570826302574,323.83440284361495L248.73943143547513,318.9458157083682L249.80307442574122,323.30304221769256L255.22765367607644,324.68457601979026L257.1422110585554,330.95445781404123L260.54586862739234,334.56749376541484L261.82224021571164,340.0931490581861L255.546746573149,347.8499836315859Z"/>

    <path name="山上區" class="town" d="M420.73050296092697,353.8001666620221L416.36956670085783,359.7501193330936L414.56137361741276,365.5935986882105L408.1795156758162,374.09280860339277L403.0740293225681,380.1482091296748L397.22399287612643,383.22893545432817L389.2466704491526,382.9102424884841L383.715726899798,386.94697128002736L379.99297643385944,383.22893545432817L370.4201895215083,382.9102424884841L370.2074609234696,388.32793313304865L357.7628379373782,391.5147208802009L349.89187980946735,383.8663194055407L344.57366485812236,381.10430321188323L340.00000000001455,381.74169596554566L338.9363570097339,377.9172998282738L342.6591074756434,377.2798912279213L340.85091439221287,369.630781970518L333.93723495551967,360.0688602980117L330.85267028374074,351.56887502442623L330.7463059847214,343.2809366964757L328.9381129012763,337.8616583497824L335.42633514187764,317.77678267488955L337.55362112239527,315.9700777459839L337.65998542142916,321.2838550658089L342.02092168148374,332.7609864150654L348.8282368191867,342.64338446072725L355.7419162558799,348.80627858599473L369.2501822322083,359.11263542049346L385.52391998322855,356.03142590531206L387.7575702627946,352.3126425032169L392.1185065228492,352.52514683599657L401.37220053814235,348.7000238849505L404.5631295089406,341.3682720515353L410.9449874504935,343.0684195785434L413.8168235242192,346.14988901691686L420.19868146578665,345.40609170763855Z"/>

    <path name="玉井區" class="town" d="M535.4975816102378,340.41193079882214L528.4775378745107,351.3563693693213L524.2229659134755,362.1937831748073L519.1174795602128,368.3558934379762L514.9692718981823,368.6746165620425L506.77922087316983,373.45538415336705L504.1201133975119,371.6493338644068L495.6109694754123,373.66785926358716L488.2718328425981,369.52454166318057L483.16634648934996,378.12976877476467L487.20818985234655,381.2105355208914L484.86817527376115,389.92133525592L476.5717599497002,388.7528419790651L471.67900219449075,390.98359417187385L467.9562517285667,387.4781119209729L463.5953154684976,376.32377337471553L461.14893659092195,376.8549506935706L457.2134575269447,383.54762776000643L452.7461569678271,382.1666230008559L446.0452061291726,388.43416045455524L447.0024848204048,396.61344402222676L443.59882725156785,400.0124989529577L438.9187980944116,400.96846962948985L434.45149753529404,397.6756567508455L429.7714683781669,401.60578011589314L426.4741751083202,393.5329856549579L417.32684539209004,391.3022704168361L410.73225885245483,377.3861261780621L408.1795156758162,374.09280860339277L414.56137361741276,365.5935986882105L416.36956670085783,359.7501193330936L420.73050296092697,353.8001666620221L429.98419697620557,346.8936827254729L433.9196760401828,340.51819123203313L439.1315266924794,335.4176075188079L439.2378909914987,321.07130750482975L434.2387689372554,316.50146375628174L438.59970519733906,305.0231165460027L437.00424071193265,297.37040797165537L446.68339192333224,285.5717340880583L447.21521341847256,280.5756255787637L451.78887827660947,273.9847652510325L461.3616651889606,256.0179159641084L465.61623714999587,259.3137680309119L464.9780513558362,272.390159685634L467.4244302334555,271.433388381658L473.69992387598904,279.83151037951757L478.69904593024694,283.3394504087846L480.29451041562425,287.4850942296798L479.3372317244066,293.8627889366471L481.7836106019822,296.3075015839386L480.61360331271135,303.7476916280175L475.93357415554055,311.5063626195697L478.1672244351066,314.16335154899934L485.5063610679208,313.419399285729L487.5272827494191,310.1247101954723L493.05822629877366,315.33241210510823L490.93094031825603,320.2211143179702L491.46276181339636,326.27863803604123L494.12186928903975,331.9108579559688L501.99282741696516,331.6983251058482L507.73649956440204,338.07418267109824L511.9910715254373,338.1804447214854L515.0756361972162,330.31685441023365L519.7556653543725,333.0797833739489L525.0738803056738,333.3985796710549L527.4138948842447,336.5865062466837Z"/>

    <path name="楠西區" class="town" d="M527.201166286206,199.33942072904392L533.9021171248605,208.48596483097936L537.9439604878571,207.31608854817387L540.3903393654618,210.61298968513438L550.4949477729533,212.73998495122942L558.0468130038062,217.3129245950986L564.535035244422,224.43793016484778L571.3423503820959,224.65061179719123L575.4905580441118,220.50326662969383L585.3824378535646,224.22524823682397L589.1051883194887,227.62812360509633L587.9351810302032,234.85898248759986L589.4242812165612,239.53759147388337L584.5315234613663,247.7248131135675L583.7869733681582,254.95472274814165L579.1069442110165,260.90850969994426L578.362394117823,266.8620652478203L574.5332793528942,274.8352147681908L568.683242906438,283.12685026788677L566.8750498229783,290.8865644164689L561.4504705726431,299.07104287112816L559.0040916950675,300.34650667203823L552.8349623515242,312.35660408204785L556.7704414154869,314.48218712926973L559.7486417882465,322.7716797526409L558.1531773028546,326.4911783877433L558.0468130038062,337.5428713164656L553.8986053417902,339.0305384781677L549.8567619787937,336.69276932627326L545.3894614196906,341.6870511460729L537.9439604878571,337.22408362153146L535.4975816102378,340.41193079882214L527.4138948842447,336.5865062466837L525.0738803056738,333.3985796710549L519.7556653543725,333.0797833739489L515.0756361972162,330.31685441023365L511.9910715254373,338.1804447214854L507.73649956440204,338.07418267109824L501.99282741696516,331.6983251058482L494.12186928903975,331.9108579559688L491.46276181339636,326.27863803604123L490.93094031825603,320.2211143179702L493.05822629877366,315.33241210510823L487.5272827494191,310.1247101954723L485.5063610679208,313.419399285729L478.1672244351066,314.16335154899934L475.93357415554055,311.5063626195697L480.61360331271135,303.7476916280175L481.7836106019822,296.3075015839386L479.3372317244066,293.8627889366471L480.29451041562425,287.4850942296798L478.69904593024694,283.3394504087846L473.69992387598904,279.83151037951757L467.4244302334555,271.433388381658L464.9780513558362,272.390159685634L465.61623714999587,259.3137680309119L461.3616651889606,256.0179159641084L462.6380367772799,253.35991908454525L467.9562517285667,245.066672271907L473.2744666799117,229.96755651806234L476.1463027536083,224.9696336913039L482.63452499420964,218.27003419291577L486.88909695525945,221.35401326709325L503.8010205004248,217.95099832580308L510.5019713390793,210.08123624559084L518.6920223641209,205.93349594545361Z"/>

    <path name="南化區" class="town" d="M465.0844156548701,469.5704323916143L462.5316724782315,467.87168112611835L460.40438649771386,460.9703117939207L450.08704949216917,460.757957072954L451.0443281834014,453.43154018466885L449.7679565951112,448.7594404502961L443.91792014865496,448.12232497428704L440.62062687883736,442.4943572720913L443.06700575642753,437.3971526316018L440.30153398177936,425.50301957532065L436.57878351584077,417.4314778088119L436.04696202070045,404.79229297550046L438.9187980944116,400.96846962948985L443.59882725156785,400.0124989529577L447.0024848204048,396.61344402222676L446.0452061291726,388.43416045455524L452.7461569678271,382.1666230008559L457.2134575269447,383.54762776000643L461.14893659092195,376.8549506935706L463.5953154684976,376.32377337471553L467.9562517285667,387.4781119209729L471.67900219449075,390.98359417187385L476.5717599497002,388.7528419790651L484.86817527376115,389.92133525592L487.20818985234655,381.2105355208914L483.16634648934996,378.12976877476467L488.2718328425981,369.52454166318057L495.6109694754123,373.66785926358716L504.1201133975119,371.6493338644068L506.77922087316983,373.45538415336705L514.9692718981823,368.6746165620425L519.1174795602128,368.3558934379762L524.2229659134755,362.1937831748073L528.4775378745107,351.3563693693213L535.4975816102378,340.41193079882214L537.9439604878571,337.22408362153146L545.3894614196906,341.6870511460729L549.8567619787937,336.69276932627326L553.8986053417902,339.0305384781677L558.0468130038062,337.5428713164656L558.1531773028546,326.4911783877433L559.7486417882465,322.7716797526409L556.7704414154869,314.48218712926973L552.8349623515242,312.35660408204785L559.0040916950675,300.34650667203823L561.4504705726431,299.07104287112816L566.8750498229783,290.8865644164689L568.683242906438,283.12685026788677L574.5332793528942,274.8352147681908L578.362394117823,266.8620652478203L579.1069442110165,260.90850969994426L583.7869733681582,254.95472274814165L584.5315234613663,247.7248131135675L589.4242812165612,239.53759147388337L587.9351810302032,234.85898248759986L589.1051883194887,227.62812360509633L590.5942885058612,222.84280849721472L597.8270608396124,216.99388673147405L601.6561756045703,205.72078828140366L605.4852903695282,199.44577903800382L608.2507621442055,204.44453608204276L608.7825836393458,210.50663914516917L622.1844853166403,218.4827244012704L629.6299862484739,217.63196179319857L631.5445436309528,215.07964557337255L641.7555163374636,210.82569054314808L652.9237677352357,212.527286755987L658.4547112845903,215.6113816318175L661.4329116573499,213.4844263047562L669.1975054862414,216.67484820232858L671.2184271677397,224.33158923780138L668.772048290135,226.77741185877312L666.1129408144916,234.85898248759986L662.9220118437079,234.75264880293253L657.603796892392,240.707221374636L653.0301320342551,252.40302891428655L650.4773888576165,255.91159697465264L654.3065036225744,263.5663755875503L651.2219389507954,266.9683766371563L650.0519316615391,273.0280039029167L643.4573451219039,273.77215213433374L644.7337167101941,278.4495725684101L638.564587366709,281.4260385262205L636.1182084890897,285.89062910320354L629.5236219494545,286.74101256751965L623.6735855030129,295.24458782996953L624.5244998952403,299.81506471053945L616.0153559731261,307.57393457389844L613.1435198994295,308.53048040120484L606.5489333597943,322.66540703890496L599.8479825211107,332.4421887943972L599.5288896240527,342.64338446072725L584.744252059405,365.16862586049683L585.488802152584,368.88709827774073L579.5324014071084,376.9611859372126L568.4705143083993,387.26565588460653L564.1095780483301,394.7014426380738L551.3458621651516,400.96846962948985L546.4531044099567,406.0668796537284L538.5821462820022,409.46572588256095L531.0302810511494,416.68802505993153L531.668466845309,418.9183725421062L515.9265505894145,433.57413853972685L510.7146999371471,440.6891165695597L488.48456144063675,455.6613560742662L486.0381825630466,466.2790848310069L483.91089658249984,469.4642609853472L475.72084555751644,470.7383130397575Z"/>

    <path name="左鎮區" class="town" d="M438.9187980944116,400.96846962948985L436.04696202070045,404.79229297550046L436.57878351584077,417.4314778088119L440.30153398177936,425.50301957532065L443.06700575642753,437.3971526316018L440.62062687883736,442.4943572720913L443.91792014865496,448.12232497428704L449.7679565951112,448.7594404502961L451.0443281834014,453.43154018466885L450.08704949216917,460.757957072954L460.40438649771386,460.9703117939207L462.5316724782315,467.87168112611835L465.0844156548701,469.5704323916143L466.2544229441555,475.6220818212023L463.7016797675169,478.1700737587671L464.2335012626572,484.9645133392405L459.6598364045203,483.58441699798277L457.5325504240027,490.8032459989954L457.42618612498336,497.9155857586193L453.7034356590739,499.4017049440263L449.0234065019031,496.85406330190017L438.59970519733906,519.7813261251467L436.366054917773,519.675189225567L432.3242115548055,513.2007005526284L428.2823681918089,510.54714324019733L413.17863773005956,508.74269824425573L413.0722734310111,506.08906438766644L406.9031440874969,503.32923683615445L407.96678707777755,492.6079005263455L409.77498016122263,486.9815550347121L404.8822224060277,481.56733092472496L404.3504009108874,478.06390826770803L399.35127885664406,474.348070080272L393.8203353072895,464.686472098736L387.43847736569296,459.6961790836285L389.88485624331224,450.56458667161496L386.693927272514,449.18418263862986L380.95025512512075,451.3078760331591L375.5256758747564,449.71510872896033L373.93021138936456,443.76863210051306L375.41931157575164,437.29095907605006L378.92933344362245,433.8927266690989L377.3338689582306,424.44099876558903L373.7174827913259,413.2893382238217L370.5265538205276,413.07691780642926L362.5492313935538,400.0124989529577L358.40102373153786,397.88809841696275L357.7628379373782,391.5147208802009L370.2074609234696,388.32793313304865L370.4201895215083,382.9102424884841L379.99297643385944,383.22893545432817L383.715726899798,386.94697128002736L389.2466704491526,382.9102424884841L397.22399287612643,383.22893545432817L403.0740293225681,380.1482091296748L408.1795156758162,374.09280860339277L410.73225885245483,377.3861261780621L417.32684539209004,391.3022704168361L426.4741751083202,393.5329856549579L429.7714683781669,401.60578011589314L434.45149753529404,397.6756567508455Z"/>

    <path name="仁德區" class="town" d="M208.85281930062047,518.5076785212113L213.63921275682515,516.8094653934968L219.80834210033936,519.7813261251467L230.76386490002915,517.8708507844276L230.87022919904848,502.6923465548098L232.04023648834846,496.2171463265222L241.2939305036416,500.9939596363147L242.5703020919609,499.50785576738053L242.99575928806735,487.5123511019847L241.2939305036416,484.1152247428763L261.7158759166632,477.42691378806194L262.8858832059632,480.93035090043486L268.3104624562984,480.61185990277954L267.45954806408554,488.46777942546396L264.4813476913696,538.1419134167008L270.01229124072415,540.688874776024L268.6295553533855,544.4031182724248L261.7158759166632,543.6602767056283L262.56679030889063,549.9212582830223L261.07769012253266,558.1980994451806L258.8440398429666,560.1080768715765L255.75947517118766,569.3393023273966L262.67315460790996,580.1614177743068L264.4813476913696,591.5132167732918L254.69583218095067,585.6782837622086L250.86671741599275,588.8610017270294L250.44126021990087,594.5897293758717L241.0812019055884,589.8158043717813L236.08207985134504,583.7686216086586L225.97747144385357,581.5406526854058L224.16927836039395,577.8272999549845L224.38200695847627,570.188123020609L219.9147063993587,568.5965804047992L212.15011257045262,576.7663256851083L206.08734752595774,575.8114426298125L199.4927609863371,570.2942252801768L192.8981744467019,569.7637132554773L182.58083744117175,563.5035341223593L184.4953948236216,556.2880984555668L188.53723818660364,554.05973418344L193.32363164279377,545.5704335298433L189.81360977492295,544.6153580650971L192.25998865254223,536.4439158822715L207.89554060938826,536.4439158822715Z"/>

    <path name="歸仁區" class="town" d="M291.81697254112805,457.6787807707515L292.13606543818605,468.50871504205134L295.85881590412464,473.28638559676256L296.70973029632296,478.06390826770803L292.3487940362247,494.2002252458733L293.9442585216457,496.6417579352201L300.00702356614056,496.32329933812434L306.4952458067419,501.20625902211395L307.9843459931144,509.59185145496303L312.23891795414966,509.80413902863074L310.64345346874325,516.4910483552158L324.2580837441201,538.3541617981173L324.3644480431394,547.3744488810553L320.2162403811235,553.3169389643081L318.5144115966832,561.911922806954L318.727140194751,574.2199577914944L324.5771766411781,578.8882669592494L316.1743970181269,584.9356401654768L313.6216538414883,589.497537477062L310.43072487071913,587.8001030009291L299.79429496805824,587.2696509146299L280.0105353491963,582.3894065286513L273.0968559125031,582.7076880212953L274.6923203978804,591.9375669693109L269.16137684849673,593.2106105873536L264.4813476913696,591.5132167732918L262.67315460790996,580.1614177743068L255.75947517118766,569.3393023273966L258.8440398429666,560.1080768715765L261.07769012253266,558.1980994451806L262.56679030889063,549.9212582830223L261.7158759166632,543.6602767056283L268.6295553533855,544.4031182724248L270.01229124072415,540.688874776024L264.4813476913696,538.1419134167008L267.45954806408554,488.46777942546396L268.3104624562984,480.61185990277954L269.9059269417048,460.86413446997904L277.35142787353834,461.182666222594L280.8614497413946,458.9529301430339L287.3496719820105,458.7405726451361L288.30695067322813,455.3428129207605Z"/>

    <path name="關廟區" class="town" d="M352.0191657899559,473.0740478237203L352.0191657899559,476.8960830471515L356.27373775102024,480.5056960908878L356.4864663490589,485.70763702921977L362.5492313935538,489.635517126957L372.5474755020259,491.7586539636759L369.35654653125675,496.2171463265222L370.31382522248896,516.4910483552158L365.5274317662843,516.172630661029L363.0810528886941,513.0945591348063L356.5928306480928,510.97171547166727L350.5300656035979,515.3235136033582L352.1255300889752,518.6138162222996L346.16912934352877,525.4064775449151L347.7645938289206,538.248037643807L349.67915121138503,544.1908781886486L347.87095812796906,546.4193845500486L349.0409654172254,553.8475073416812L354.3591803685413,560.3202951311941L351.8064371919172,562.760784211041L351.2746156967769,568.3843734870134L358.5073880305572,580.2675132033655L364.99561027117306,579.1004594882688L368.824725036131,580.7979892588264L370.1010966244212,576.129737635536L371.6965611098276,575.3870482715902L372.4411112030066,578.5699776208385L368.824725036131,581.2223687955884L365.42106746729405,582.601594263062L365.74016036435205,585.1478244134123L358.82648092765885,586.1026499339569L360.5283097120555,590.1340706129704L352.76371588316397,596.3931738951069L343.72275046592404,599.7878360811337L330.4272130876343,599.9999999999964L324.6835409401974,589.497537477062L321.4926119694428,587.4818319670085L318.30168299864454,592.6801770170605L313.6216538414883,589.497537477062L316.1743970181269,584.9356401654768L324.5771766411781,578.8882669592494L318.727140194751,574.2199577914944L318.5144115966832,561.911922806954L320.2162403811235,553.3169389643081L324.3644480431394,547.3744488810553L324.2580837441201,538.3541617981173L310.64345346874325,516.4910483552158L312.23891795414966,509.80413902863074L307.9843459931144,509.59185145496303L306.4952458067419,501.20625902211395L300.00702356614056,496.32329933812434L293.9442585216457,496.6417579352201L292.3487940362247,494.2002252458733L296.70973029632296,478.06390826770803L295.85881590412464,473.28638559676256L292.13606543818605,468.50871504205134L291.81697254112805,457.6787807707515L295.539723007023,461.5011973175642L309.8989033755788,459.2714658417717L322.76898355774756,462.8814911298359L326.49173402365705,462.1382575345888L331.2781274798617,471.4815052144113L332.7672276662197,480.0810401132767L338.5108998136275,481.3550045419688L342.44637887760473,486.23843747536375L347.4455009318481,481.8858199513634Z"/>

    <path name="龍崎區" class="town" d="M393.8203353072895,464.686472098736L399.35127885664406,474.348070080272L404.3504009108874,478.06390826770803L404.8822224060277,481.56733092472496L409.77498016122263,486.9815550347121L407.96678707777755,492.6079005263455L406.9031440874969,503.32923683615445L413.0722734310111,506.08906438766644L413.17863773005956,508.74269824425573L428.2823681918089,510.54714324019733L432.3242115548055,513.2007005526284L436.366054917773,519.675189225567L438.59970519733906,519.7813261251467L436.15332631973433,523.8144743208613L431.3669328635442,541.5378525786255L429.0269182849588,542.811310548328L427.64418239762017,549.8151420613322L420.51777436287375,564.0340675920706L418.92230987746734,569.0209933681217L411.7959018427209,571.9918515487188L407.1158726855647,567.0050214340154L402.010386332302,565.9439730333906L400.4149218469247,562.2302463788183L391.69304932677187,562.9729988349682L387.3321130666736,566.7928123354577L383.0775411056384,564.2462804710267L377.8656904533418,566.89891692108L371.6965611098276,575.3870482715902L370.1010966244212,576.129737635536L368.824725036131,580.7979892588264L364.99561027117306,579.1004594882688L358.5073880305572,580.2675132033655L351.2746156967769,568.3843734870134L351.8064371919172,562.760784211041L354.3591803685413,560.3202951311941L349.0409654172254,553.8475073416812L347.87095812796906,546.4193845500486L349.67915121138503,544.1908781886486L347.7645938289206,538.248037643807L346.16912934352877,525.4064775449151L352.1255300889752,518.6138162222996L350.5300656035979,515.3235136033582L356.5928306480928,510.97171547166727L363.0810528886941,513.0945591348063L365.5274317662843,516.172630661029L370.31382522248896,516.4910483552158L369.35654653125675,496.2171463265222L372.5474755020259,491.7586539636759L362.5492313935538,489.635517126957L356.4864663490589,485.70763702921977L356.27373775102024,480.5056960908878L352.0191657899559,476.8960830471515L352.0191657899559,473.0740478237203L356.9119235451799,468.6148871057085L365.8465246633714,470.10128832727787L377.1211403601628,466.703778783507L383.1839054046577,468.08402605694937L384.88573418908345,463.9432471981454Z"/>

    <path name="永康區" class="town" d="M272.99049161348375,408.93466110447844L282.35054992776713,419.0245787595886L278.415070863819,423.59137684714005L278.0959779667173,430.3882210246775L284.69056450635253,436.016630703034L278.5214351628383,443.2376855352268L279.5850781530753,451.20169205798084L288.30695067322813,455.3428129207605L287.3496719820105,458.7405726451361L280.8614497413946,458.9529301430339L277.35142787353834,461.182666222594L269.9059269417048,460.86413446997904L268.3104624562984,480.61185990277954L262.8858832059632,480.93035090043486L261.7158759166632,477.42691378806194L241.2939305036416,484.1152247428763L232.9975151795952,481.142677867203L233.1038794786291,475.09124487371446L225.7647428458149,475.1974124092558L222.57381387501664,468.1901984127944L221.72289948281832,461.5011973175642L218.00014901687973,460.2270689917459L214.06466995293158,451.3078760331591L211.08646958018653,452.68826105785047L200.87549687367573,447.16664682471674L206.7255333200883,445.1490846136294L212.15011257045262,439.62720039941996L217.57469182078785,425.29061599898705L221.61653518378444,421.14868773277703L234.59297966498707,413.6079683006101L238.20936583186267,407.44766998225896L240.3366518124094,398.41920129954815L245.22940956761886,397.038329993291L246.29305255785584,403.19904478966055L251.07944601406052,405.11094063422934L258.6313112449134,402.56174089877095L265.3322620835679,405.5358031533942L271.3950271280628,405.11094063422934Z"/>

    <path name="北區" class="town" d="M225.7647428458149,475.1974124092558L218.95742770814104,473.1802167467504L204.81097593762388,471.5876752329423L203.85369724639168,476.36525048080875L196.40819631455815,475.4097472612739L186.19722360804735,471.4815052144113L178.2199011810735,464.8988214127894L172.79532193073828,467.3408175206787L163.64799221447902,466.4914319533673L162.6907135232468,464.7926467922771L167.05164978331595,462.7753151211291L175.3480651073478,455.97989856996355L184.2826662255684,450.4584021846895L195.0254604272195,447.2728335782631L200.87549687367573,447.16664682471674L211.08646958018653,452.68826105785047L214.06466995293158,451.3078760331591L218.00014901687973,460.2270689917459L221.72289948281832,461.5011973175642L222.57381387501664,468.1901984127944Z"/>

    <path name="七股區" class="town" d="M139.7160249335575,259.63271769297717L141.63058231603645,268.13779705126217L135.3550886735029,267.71255429702796L135.46145297252224,275.1541321204131L133.1214383939514,282.5953486257022L141.84331091407512,285.89062910320354L142.16240381117677,292.79985823885727L147.69334736053133,293.5439105008736L146.94879726735235,299.28362090779046L142.2687681101961,309.16817430654555L143.5451396985154,318.73326490998807L137.16328175694798,319.6897411849277L137.16328175694798,327.87268350241357L140.2478464286978,333.1860488798484L145.8851542770717,331.3795252791533L151.30973352740693,334.56749376541484L149.9269976400683,340.41193079882214L157.69159146900347,339.3493224240083L160.77615614076785,334.35496459182104L165.34982099887566,338.81801548006115L167.90256417551427,346.3624018724986L162.26525632714038,355.18142620357685L165.6689138959773,360.17510713945376L163.96708511156612,376.00506610289085L162.26525632714038,377.81106524497227L160.45706324368075,379.29834273462984L153.11792661089567,376.53624452238L151.73519072352792,369.94950245213477L146.84243296833301,371.43685596539217L137.3760103550012,368.88709827774073L113.44404307407967,372.0742887817105L97.80849111723364,372.81795706146295L86.74660401849542,376.21753769081624L77.17381710612972,385.8846844977634L75.89744551781041,389.60265615126264L59.94280066387728,404.36742840467923L46.434534687548876,423.0603607689045L41.43541263329098,424.12239109520306L32.92626871122047,413.7141781797218L26.75713936770626,402.88039317398216L21.438924416390364,395.55122396330626L10.483401616671472,397.3569937019274L8.78157283226028,395.76366856153254L9.845215822511818,387.4781119209729L13.993423484527739,373.0304330523177L17.609809651432442,356.1376755375277L26.75713936770626,337.1178209094942L35.26628328980587,329.3604443404838L36.223561981038074,322.9842249593639L39.52085525082657,315.01357829113476L41.86086982941197,296.0949194224595L44.200884407997364,286.31582142495245L53.560942722309846,263.4600618374461L68.55830888501077,257.18741997695906L78.23746009641036,258.0379627409093L89.08661859708081,263.8853163951717L99.51031990164483,260.37693098839736L107.38127802958479,264.9484476250691L111.31675709356205,265.4800104734277L114.61405036337965,261.6527167969434L114.50768606436031,254.95472274814165L118.5495294273569,252.08406419542007L127.69685914361617,249.31967546715168L131.41960960952565,259.63271769297717L134.71690287934325,257.7190097579369Z"/>

    <path name="將軍區" class="town" d="M123.12319428547926,211.35744139376038L131.84506680560298,206.03984966650023L147.48061876249267,201.1475019161917L152.37337651768757,202.31742540523192L157.7979557680228,207.10338280773067L159.92524174854043,213.4844263047562L164.49890660667734,218.0573436887862L166.94528548428207,229.32953290737714L168.11529277358204,234.75264880293253L163.86072081251768,248.5754084361579L161.0952490378695,252.29670741513473L160.24433464564208,258.99481770465354L157.69159146900347,262.60954918047355L152.37337651768757,263.4600618374461L144.50241838976217,258.6758667142676L139.7160249335575,259.63271769297717L134.71690287934325,257.7190097579369L131.41960960952565,259.63271769297717L127.69685914361617,249.31967546715168L118.5495294273569,252.08406419542007L114.50768606436031,254.95472274814165L114.61405036337965,261.6527167969434L111.31675709356205,265.4800104734277L107.38127802958479,264.9484476250691L99.51031990164483,260.37693098839736L89.08661859708081,263.8853163951717L78.23746009641036,258.0379627409093L68.55830888501077,257.18741997695906L53.560942722309846,263.4600618374461L55.79459300186136,256.3368724896427L62.070086644394905,244.00340301244069L64.72919412008196,234.22097927137293L66.64375150253181,219.014448628197L65.3673799142125,211.25109137157415L65.26101561519317,201.57292967550893L68.02648738987045,197.4249585116122L74.19561673341377,201.4665728466789L72.81288084604603,210.4002885312293L81.2156604691263,215.29234021861703L88.98025429803238,215.930422379457L101.7439701812109,213.4844263047562L115.89042195166985,214.01616790987828Z"/>

    <path name="北門區" class="town" d="M174.17805781807692,141.04392380266654L173.22077912683017,150.9387062834503L168.85984286676103,149.9811747352942L159.60614885148243,152.10901445981654L155.7770340865245,155.40710739422502L144.2896897916944,142.63989987170498L140.14148212967848,144.9806345679608L136.0996387666819,138.91592973329898L133.44053129102394,145.5126147171395L138.54601764428662,150.40674505412608L138.12056044818019,158.38596878105454L140.88603222285747,167.2158234586641L136.0996387666819,175.40691876659912L131.41960960952565,173.17302725883565L127.16503764847585,174.55591633114454L121.63409409912128,180.3000907483729L121.20863690301485,183.06572731066262L127.59049484456773,187.00135455412965L127.37776624652906,190.8305161852404L130.99415241340466,197.4249585116122L126.42048755526775,199.55213727294904L123.12319428547926,211.35744139376038L115.89042195166985,214.01616790987828L101.7439701812109,213.4844263047562L88.98025429803238,215.930422379457L81.2156604691263,215.29234021861703L72.81288084604603,210.4002885312293L74.19561673341377,201.4665728466789L68.02648738987045,197.4249585116122L74.51470963047177,187.74592127621145L78.76928159152158,169.6625602893655L80.36474607692799,152.5345788439481L79.72656028276833,135.72388295730343L81.85384626328596,131.04209348770019L92.91573336200963,123.91272884405407L97.06394102405466,118.06001611961983L100.0421413967706,104.54471154712519L97.27666962209332,93.47616748060318L104.72217055392684,84.00340914300978L119.71953671664232,95.92408785291263L124.29320157475013,97.733395011619L136.73782456084155,107.31172189242716L136.84418885986088,113.48410234534094L155.35157689040352,120.2947147734958L160.35069894466142,124.76401379246818L165.34982099887566,136.3622976574261Z"/>

    <path name="安南區" class="town" d="M162.26525632714038,377.81106524497227L166.20073539110308,383.8663194055407L171.6253146414383,384.716160566295L177.6880796859332,378.3422374277761L190.4517955690826,383.33516629623773L198.53548229507578,383.54762776000643L190.55815986813104,391.1960450751649L193.2172673437599,395.97611286654137L196.94001780969847,393.3205379776882L200.55640397657407,395.020111184851L205.34279743274965,389.7088825928149L212.68193406556384,388.8590690072633L227.67930022827932,393.63920938361116L234.27388676788541,397.3569937019274L240.3366518124094,398.41920129954815L238.20936583186267,407.44766998225896L234.59297966498707,413.6079683006101L221.61653518378444,421.14868773277703L217.57469182078785,425.29061599898705L212.15011257045262,439.62720039941996L206.7255333200883,445.1490846136294L200.87549687367573,447.16664682471674L195.0254604272195,447.2728335782631L184.2826662255684,450.4584021846895L175.3480651073478,455.97989856996355L167.05164978331595,462.7753151211291L162.6907135232468,464.7926467922771L156.2024912826455,467.87168112611835L148.331533154691,466.91612532144427L144.2896897916944,467.3408175206787L129.93050942316768,473.8172287513662L127.27140194750973,476.36525048080875L122.27227989325183,474.0295655020127L96.4257552298659,451.8387948124582L72.17469505191548,436.1228251365028L46.434534687548876,423.0603607689045L59.94280066387728,404.36742840467923L75.89744551781041,389.60265615126264L77.17381710612972,385.8846844977634L86.74660401849542,376.21753769081624L97.80849111723364,372.81795706146295L113.44404307407967,372.0742887817105L137.3760103550012,368.88709827774073L146.84243296833301,371.43685596539217L151.73519072352792,369.94950245213477L153.11792661089567,376.53624452238L160.45706324368075,379.29834273462984Z"/>

    <path name="南區" class="town" d="M208.21463350648992,513.2007005526284L208.21463350648992,513.6252654950549L208.85281930062047,518.5076785212113L207.89554060938826,536.4439158822715L192.25998865254223,536.4439158822715L189.81360977492295,544.6153580650971L193.32363164279377,545.5704335298433L188.53723818660364,554.05973418344L184.4953948236216,556.2880984555668L182.58083744117175,563.5035341223593L176.83716529373487,565.3073405035393L166.62619258722407,573.2650590403391L163.64799221447902,571.2491423456413L162.58434922422748,565.7317624809184L164.60527090572577,557.1369906934597L164.81799950376444,550.0273744319602L161.52070623394684,530.9252951706258L157.7979557680228,522.4347249349667L151.6288264245086,513.4129831696082L148.54426175275876,515.1112336101505L144.07696119365573,512.8822760805124L176.83716529373487,489.1047283572261L179.9217299654847,486.34459734564734L188.4308738875843,487.7246690180327L188.53723818660364,494.6248423987672L203.640968648353,494.83715053749256L205.23643313373032,498.4463442516644Z"/>

    <path name="東區" class="town" d="M208.21463350648992,513.2007005526284L205.23643313373032,498.4463442516644L203.640968648353,494.83715053749256L202.6836899570917,492.50174496137333L203.85369724639168,476.36525048080875L204.81097593762388,471.5876752329423L218.95742770814104,473.1802167467504L225.7647428458149,475.1974124092558L233.1038794786291,475.09124487371446L232.9975151795952,481.142677867203L241.2939305036416,484.1152247428763L242.99575928806735,487.5123511019847L242.5703020919609,499.50785576738053L241.2939305036416,500.9939596363147L232.04023648834846,496.2171463265222L230.87022919904848,502.6923465548098L230.76386490002915,517.8708507844276L219.80834210033936,519.7813261251467L213.63921275682515,516.8094653934968L208.85281930062047,518.5076785212113L208.21463350648992,513.6252654950549Z"/>

    <path name="安平區" class="town" d="M176.83716529373487,489.1047283572261L144.07696119365573,512.8822760805124L148.6506260517781,506.30135677309954L147.48061876249267,502.1616026482443L135.6741815705609,487.40619203448296L128.22868063872738,481.03651442032424L127.27140194750973,476.36525048080875L129.93050942316768,473.8172287513662L144.2896897916944,467.3408175206787L148.331533154691,466.91612532144427L151.9479193215957,469.4642609853472L164.49890660667734,474.24190196055497L177.04989389177354,474.6665740013159Z"/>

    <path name="中西區" class="town" d="M203.85369724639168,476.36525048080875L202.6836899570917,492.50174496137333L203.640968648353,494.83715053749256L188.53723818660364,494.6248423987672L188.4308738875843,487.7246690180327L179.9217299654847,486.34459734564734L176.83716529373487,489.1047283572261L177.04989389177354,474.6665740013159L164.49890660667734,474.24190196055497L151.9479193215957,469.4642609853472L148.331533154691,466.91612532144427L156.2024912826455,467.87168112611835L162.6907135232468,464.7926467922771L163.64799221447902,466.4914319533673L172.79532193073828,467.3408175206787L178.2199011810735,464.8988214127894L186.19722360804735,471.4815052144113L196.40819631455815,475.4097472612739Z"/>
</svg>