<?xml version="1.0" encoding="utf-8"?>
<svg version="1.1" xmlns="http://www.w3.org/2000/svg" xmlns:xlink="http://www.w3.org/1999/xlink" x="0px" y="0px"
	 viewBox="0 0 500 600" style="enable-background:new 0 0 500 600;" xml:space="preserve">
    <style type="text/css">
    .town{ fill: #9CCA97; stroke: #FFFFFF; stroke-width: 1.5; stroke-linecap: round; stroke-linejoin: round; }
    </style>

    <path name="中正區" class="town" d="M156.17532463377574,388.23820691274886L187.28928215947235,395.1870717421407L187.28928215947235,398.45087611765484L187.07470314198872,405.29421992751304L186.7528346158797,423.61254547147837L186.7528346158797,423.7178199251721L186.32367658108706,423.7178199251721L180.20817458460806,423.296721885592L169.80109223985346,419.82264018090063L168.40632862661732,419.6120884628763L165.18764336535241,425.7180274256607L164.22203778696712,428.7709496362586L163.57830073469086,432.8765539606902L164.43661680439254,439.61383244644094L164.54390631313436,439.7191012052863L171.41043487051502,449.6141972927944L172.80519848369295,450.98264197940443L173.55622504465282,451.7194941891139L177.63322637561942,455.71951702350634L179.24256900622277,457.4037209873786L180.6373326194589,458.87739159233024L181.38835918041877,459.7194857858194L184.49975493300008,462.98257815197576L185.7872290374944,464.4562209751748L187.7184401943232,466.4561530696956L189.43507233361015,468.2455545406119L190.29338840331184,469.1928803510673L193.72665268200217,472.87689634539856L195.97973236488178,476.9818887252404L195.44328482134733,477.82393140746717L194.58496875170385,478.0344417037413L193.72665268200217,478.24495185028354L192.43917857750785,478.98173618433793L191.68815201654797,479.50800958587934L190.07880938588642,480.66580777576746L189.43507233361015,481.0868241766002L188.46946675528307,481.7183476550272L186.43096608977066,482.9813905702031L185.6799395288108,483.4024036777191L185.14349198527634,483.82341618648206L184.9289129677927,483.9286692200985L171.62501388788223,476.24509941323777L161.53980006923666,461.1931448582982L142.44226751901442,452.45634456389234L124.52491956454469,432.7712827668074L136.43405503127724,390.76508575056505L138.68713471415685,388.3434939622457Z"/>

     <path name="大同區" class="town"  d="M164.54390631313436,318.9511932397727L160.03774694731692,328.5344082419906L156.8190616859938,348.9635208590262L160.14503645600053,360.1252226557335L159.50129940378247,381.6050471852577L156.17532463377574,388.23820691274886L138.68713471415685,388.3434939622457L125.49052514292998,384.86900152671296L128.9237894216203,375.49819709122676L127.63631531712599,358.33516679636523L130.7477110697073,336.32712305048335L125.59781465161359,316.52901273663883L150.81084919831483,311.3686488819294Z"/>

    <path name="中山區" class="town" d="M229.3467695733998,282.0897747056806L232.13629679993028,288.3038792840671L248.87346015847288,301.57424085248203L257.3493313465733,315.5811975656761L269.15117730456404,319.0565049848301L271.40425698744366,325.6910692059173L266.36165007809177,321.16273199845455L253.48690903303213,329.90341356975114L230.4196646605269,322.53177150100964L221.9437934725429,333.4838590395739L199.94944418716477,332.95732566336665L212.18044818000635,343.3825118129171L211.10755309287924,396.55576828659105L209.28363144485047,396.8716204353841L207.35242028802168,397.0821883470926L204.99205109645845,397.1874722467037L203.91915600938955,397.1874722467037L198.66197008267045,397.0821883470926L195.2287058039219,396.9769044099812L192.22459956008242,396.4504841619273L191.15170447295532,396.2399158002663L187.9330192116904,395.3976408537201L187.28928215947235,395.1870717421407L156.17532463377574,388.23820691274886L159.50129940378247,381.6050471852577L160.14503645600053,360.1252226557335L156.8190616859938,348.9635208590262L160.03774694731692,328.5344082419906L164.54390631313436,318.9511932397727L168.40632862661732,309.89424264278205L199.0911281174631,283.88029283387004L213.6825013019261,286.93468103948544Z"/>

    <path name="松山區" class="town" d="M271.40425698744366,325.6910692059173L273.0135996181052,332.5360982865823L267.32725565653527,352.4384354924623L274.8375212661922,380.13099147428875L289.96534199413145,377.2881489844076L290.2872105202987,385.60601848649094L266.683518604259,386.13245804693724L241.36319454887416,395.8187786269191L240.7194574965979,396.02934728861146L236.6424561656313,396.9769044099812L234.92582402634434,397.5033237206517L233.74563943053363,397.7138911824368L231.17069122154498,397.608607470298L229.77592760825064,397.3980399335196L227.0936898905784,397.0821883470926L224.94789971638238,396.8716204353841L218.61781870253617,396.02934728861146L213.46792228444247,396.2399158002663L211.6440006364719,396.55576828659105L211.10755309287924,396.55576828659105L212.18044818000635,343.3825118129171L199.94944418716477,332.95732566336665L221.9437934725429,333.4838590395739L230.4196646605269,322.53177150100964L253.48690903303213,329.90341356975114L266.36165007809177,321.16273199845455Z"/>


    <path name="大安區" class="town" d="M211.6440006364719,396.55576828659105L213.46792228444247,396.2399158002663L218.61781870253617,396.02934728861146L224.94789971638238,396.8716204353841L227.0936898905784,397.0821883470926L229.77592760825064,397.3980399335196L231.17069122154498,397.608607470298L233.74563943053363,397.7138911824368L234.92582402634434,397.5033237206517L236.6424561656313,396.9769044099812L240.7194574965979,396.02934728861146L241.36319454887416,395.8187786269191L241.36319454887416,396.4504841619273L241.36319454887416,399.3984254777315L241.25590504019056,402.2410553364607L241.14861553144874,406.97871103366924L241.14861553144874,409.8212680144061L241.04132602276513,414.34824679274607L240.93403651408153,417.40128637353337L240.93403651408153,417.92766932248924L240.93403651408153,420.3490188199503L240.8267470053397,422.24397416338616L240.8267470053397,423.61254547147837L240.8267470053397,425.0863844132182L240.7194574965979,429.2973123497577L240.7194574965979,431.8238403357682L240.7194574965979,434.0345346208269L240.39758897048887,434.5608879677966L239.86114142701263,435.61359185197944L239.00282535731094,437.0873709960506L238.5736673224601,437.7189883815372L237.6080617440748,438.7716810271304L237.17890370922396,439.087488090292L235.03311353502795,441.29812809288705L232.67274434340652,443.61401894934534L231.06340171280317,445.29829182192043L233.10190237825736,448.8773398400008L238.5736673224601,454.56162123771355L239.32469388341997,455.29846453476785L241.14861553144874,457.19319601608004L242.54337914468488,458.66686766952625L243.07982668827754,459.1931771957461L244.26001128408825,460.456316239397L245.01103784498991,461.1931448582982L246.29851194954244,462.77205714964657L247.04953851050232,463.9299208092634L247.58598605403677,465.50881849913276L249.73177622817457,468.03503728199576L250.91196082398528,469.29813858726266L251.34111885883613,469.92968721841316L252.62859296333045,472.0348395894325L253.91606706788298,473.0874101600639L253.91606706788298,475.50830826727906L253.91606706788298,476.3503551415706L254.02335657656658,476.9818887252404L254.237935593992,477.5081656823095L257.4566208552569,480.35004508213024L257.99306839879137,480.7710619320933L258.85138446849305,483.5076568610384L259.3878320120857,485.29695525182615L253.1650405069231,485.50746023383545L243.18711619696114,476.1398436475356L232.24358630861389,482.5603768639703L213.57521179318428,485.50746023383545L198.01823303033598,484.24442809641187L196.30160089104902,477.71867620318517L195.97973236488178,476.9818887252404L193.72665268200217,472.87689634539856L190.29338840331184,469.1928803510673L189.43507233361015,468.2455545406119L187.7184401943232,466.4561530696956L185.7872290374944,464.4562209751748L184.49975493300008,462.98257815197576L181.38835918041877,459.7194857858194L180.6373326194589,458.87739159233024L179.24256900622277,457.4037209873786L177.63322637561942,455.71951702350634L173.55622504465282,451.7194941891139L172.80519848369295,450.98264197940443L171.41043487051502,449.6141972927944L164.54390631313436,439.7191012052863L164.43661680439254,439.61383244644094L163.57830073469086,432.8765539606902L164.22203778696712,428.7709496362586L165.18764336535241,425.7180274256607L168.40632862661732,419.6120884628763L169.80109223985346,419.82264018090063L180.20817458460806,423.296721885592L186.32367658108706,423.7178199251721L186.7528346158797,423.7178199251721L186.7528346158797,423.61254547147837L187.07470314198872,405.29421992751304L187.28928215947235,398.45087611765484L187.9330192116904,395.3976408537201L191.15170447295532,396.2399158002663L192.22459956008242,396.4504841619273L195.2287058039219,396.9769044099812L198.66197008267045,397.0821883470926L203.91915600938955,397.1874722467037L204.99205109645845,397.1874722467037L207.35242028802168,397.0821883470926L209.28363144485047,396.8716204353841Z"/>

    <path name="萬華區" class="town"  d="M138.68713471415685,388.3434939622457L136.43405503127724,390.76508575056505L124.52491956454469,432.7712827668074L142.44226751901442,452.45634456389234L128.8164999129367,459.5089624621178L115.94175886781886,476.03458784439135L99.31188501790166,481.8236014371869L90.83601382991765,467.9297785965755L90.94330333854305,448.5615432270424L79.67790492408676,419.7173643406568L90.94330333854305,402.2410553364607L105.85654504917329,401.29351508700347L118.30212805938208,394.0289389472746L125.49052514292998,384.86900152671296Z"/>

    <path name="信義區" class="town"  d="M290.2872105202987,385.60601848649094L291.78926364221843,395.71349423986976L304.7712941960199,404.76781448879046L316.4658506452688,429.40258478005126L301.55260893475497,446.2456910990368L298.01205514738103,459.4037007441002L285.78105115453945,471.40329545032L284.1717085238779,471.19278043782106L283.3133924541762,470.8770076383007L282.1332078583655,470.56123450193263L281.70404982357286,470.56123450193263L280.8457337538712,471.5085529004573L279.9874176841695,472.56112534264685L278.1634960361407,473.0874101600639L275.37396880966844,472.9821532714486L274.9448107748176,472.87689634539856L273.44275765295606,472.14009681491734L272.6917310919962,474.03472047317337L272.5844415832544,474.56100267040165L272.5844415832544,475.0872839318763L272.36986256588716,476.1398436475356L271.7261255135527,476.9818887252404L270.9750989525928,477.613420961432L270.43865140905837,478.0344417037413L268.29286123492057,479.0869909395551L268.07828221743694,479.29750033756864L266.8980976216262,481.29733215245506L266.14707106072456,481.7183476550272L265.07417597365566,482.5603768639703L264.537728430063,482.9813905702031L263.3575438343105,483.5076568610384L263.03567530814325,483.6129100069302L262.07006972975796,484.34968098034005L260.99717464268906,484.77069214190124L259.4951215207111,485.19170270470204L259.3878320120857,485.29695525182615L258.85138446849305,483.5076568610384L257.99306839879137,480.7710619320933L257.4566208552569,480.35004508213024L254.237935593992,477.5081656823095L254.02335657656658,476.9818887252404L253.91606706788298,476.3503551415706L253.91606706788298,475.50830826727906L253.91606706788298,473.0874101600639L252.62859296333045,472.0348395894325L251.34111885883613,469.92968721841316L250.91196082398528,469.29813858726266L249.73177622817457,468.03503728199576L247.58598605403677,465.50881849913276L247.04953851050232,463.9299208092634L246.29851194954244,462.77205714964657L245.01103784498991,461.1931448582982L244.26001128408825,460.456316239397L243.07982668827754,459.1931771957461L242.54337914468488,458.66686766952625L241.14861553144874,457.19319601608004L239.32469388341997,455.29846453476785L238.5736673224601,454.56162123771355L233.10190237825736,448.8773398400008L231.06340171280317,445.29829182192043L232.67274434340652,443.61401894934534L235.03311353502795,441.29812809288705L237.17890370922396,439.087488090292L237.6080617440748,438.7716810271304L238.5736673224601,437.7189883815372L239.00282535731094,437.0873709960506L239.86114142701263,435.61359185197944L240.39758897048887,434.5608879677966L240.7194574965979,434.0345346208269L240.7194574965979,431.8238403357682L240.7194574965979,429.2973123497577L240.8267470053397,425.0863844132182L240.8267470053397,423.61254547147837L240.8267470053397,422.24397416338616L240.93403651408153,420.3490188199503L240.93403651408153,417.92766932248924L240.93403651408153,417.40128637353337L241.04132602276513,414.34824679274607L241.14861553144874,409.8212680144061L241.14861553144874,406.97871103366924L241.25590504019056,402.2410553364607L241.36319454887416,399.3984254777315L241.36319454887416,396.4504841619273L241.36319454887416,395.8187786269191L266.683518604259,386.13245804693724Z"/>

    <path name="士林區" class="town" d="M324.40527428977657,229.5279600510621L307.56082142243395,230.47605168439623L301.6598984434968,242.4849485415034L289.6434734680224,248.17320269758056L269.04388779588044,250.59594430321886L261.3190431687981,265.9746226287971L243.8308532491792,266.8172667674662L234.3893764828099,281.2471741803238L229.3467695733998,282.0897747056806L213.6825013019261,286.93468103948544L199.0911281174631,283.88029283387004L168.40632862661732,309.89424264278205L164.54390631313436,318.9511932397727L150.81084919831483,311.3686488819294L125.59781465161359,316.52901273663883L114.86886378074996,294.5178530262856L91.58704039087752,271.3464377814089L73.99156096251681,261.65603364349954L41.91199785849312,259.76004777795606L22.17072825593641,246.5931431029312L30.002862391760573,224.68211076018633L43.09218245430384,235.53248891334806L57.576266129966825,237.63931216985657L91.4797508821357,226.6836668603355L106.39299259264953,235.74317191637238L109.50438834528904,267.9758985285662L133.32265927869594,273.76898908720614L152.7420603550854,264.92131407103443L161.53980006923666,242.16893120494933L171.62501388788223,232.26688311904581L166.79698599595577,221.52173135827616L173.3416460272856,206.8781979717678L183.96330738946563,195.39463049895858L181.7102277065278,181.17124311539374L188.46946675528307,173.05833689289284L205.20663011388388,164.2076389328504L215.29184393252945,163.36470144868508L222.1583724899101,155.67278546848684L223.44584659446264,143.8710991682383L238.6809568311437,117.63172670473432L247.9078545801458,113.31096320383949L253.1650405069231,94.86796675550431L248.33701261499664,83.80161402672093L257.4566208552569,74.52663587433199L263.6794123604195,61.87846707911376L261.74820120364893,49.651386844256194L281.59676031483104,33.734339646332955L296.8318705515703,34.47223505470902L298.8703712170245,49.44057065773086L292.11113216832746,65.67297482689901L297.26102858642116,76.63461113221274L293.8277643076726,85.69873262676265L284.1717085238779,94.9733585902286L283.74255048902705,102.03452553245006L304.02026763506,110.46554772401578L311.63782275340054,110.04400235043431L315.82211359310895,124.79773122862389L311.2086647185497,137.86470221293712L320.11369394144276,143.0281034776708L324.5125637985184,158.6231331531817L342.64449077035533,176.4299614129195L343.71738585742423,200.97843937591824Z"/>

    <path name="北投區" class="town"  d="M281.59676031483104,33.734339646332955L261.74820120364893,49.651386844256194L263.6794123604195,61.87846707911376L257.4566208552569,74.52663587433199L248.33701261499664,83.80161402672093L253.1650405069231,94.86796675550431L247.9078545801458,113.31096320383949L238.6809568311437,117.63172670473432L223.44584659446264,143.8710991682383L222.1583724899101,155.67278546848684L215.29184393252945,163.36470144868508L205.20663011388388,164.2076389328504L188.46946675528307,173.05833689289284L181.7102277065278,181.17124311539374L183.96330738946563,195.39463049895858L173.3416460272856,206.8781979717678L166.79698599595577,221.52173135827616L171.62501388788223,232.26688311904581L161.53980006923666,242.16893120494933L152.7420603550854,264.92131407103443L133.32265927869594,273.76898908720614L109.50438834528904,267.9758985285662L106.39299259264953,235.74317191637238L91.4797508821357,226.6836668603355L57.576266129966825,237.63931216985657L43.09218245430384,235.53248891334806L30.002862391760573,224.68211076018633L26.569598113012034,210.88153833964316L37.942286036210135,204.1390390239103L40.302655227831565,187.59819206461543L54.1430018513347,172.7422451158418L77.9612727847416,142.60660472738527L85.79340692056576,141.2367296223165L99.52646403532708,117.10480772230949L109.71896736271447,109.93861591271707L121.30623430327978,88.12281081411493L138.1506871706224,96.23805766266742L143.83703113219235,92.54933684125717L159.17943087767344,96.23805766266742L164.65119582175976,83.48542640402593L162.82727417373098,73.15644385622L171.51772437919863,63.986532982795325L188.25488773779944,62.08927434940415L193.61936317331856,54.605523718040786L208.96176291868323,49.12434609466436L209.82007898838492,37.95085989107611L216.57931803708198,29.72858939600701L230.20508564310148,25.301117716669978L227.84471645153826,17.28933277085889L235.5695610785624,2.1085096791939577L252.41401394596323,0L257.1347523291479,20.135649802126864L275.26667930104304,34.57764853334811Z"/>

    <path name="內湖區" class="town"  d="M324.40527428977657,229.5279600510621L328.26769660331775,240.79951883374451L351.22765146713937,247.43584260677017L367.53565679094754,254.49335643566155L384.7019781843992,271.13578020615387L396.2892451249645,296.30829575884127L386.9550578672788,310.94739070783544L380.7322663621744,337.1695663898281L369.0377099128091,350.75363350201224L361.52744430321036,349.80592815989803L351.334940975823,360.335816749699L325.5854588855873,363.81059763007215L317.4314562237123,361.07289489667164L307.56082142243395,371.0759165227937L289.96534199413145,377.2881489844076L274.8375212661922,380.13099147428875L267.32725565653527,352.4384354924623L273.0135996181052,332.5360982865823L271.40425698744366,325.6910692059173L269.15117730456404,319.0565049848301L257.3493313465733,315.5811975656761L248.87346015847288,301.57424085248203L232.13629679993028,288.3038792840671L229.3467695733998,282.0897747056806L234.3893764828099,281.2471741803238L243.8308532491792,266.8172667674662L261.3190431687981,265.9746226287971L269.04388779588044,250.59594430321886L289.6434734680224,248.17320269758056L301.6598984434968,242.4849485415034L307.56082142243395,230.47605168439623Z"/>

    <path name="南港區" class="town"  d="M369.0377099128091,350.75363350201224L381.05413488828344,359.3881421446931L379.7666607837891,375.39290546579286L369.78873647376895,388.76464178530296L381.6978719405015,408.24207306549215L389.1008480414748,414.03241331291065L405.6234323826502,418.4540513345055L429.97815085970797,432.7712827668074L443.49662895698566,438.2453351725853L457.87342312402325,437.508449402907L466.5638733295491,431.40275383679545L477.8292717439472,432.7712827668074L473.7522704130388,448.98260530273546L442.8528919047676,447.0878212429816L436.5228108909796,452.1405517708263L427.72507117677014,445.61409191808343L411.738934379071,448.8773398400008L401.3318520343164,445.1930250483201L397.147561194608,456.6668829327318L382.8780565363122,462.98257815197576L352.8369940977427,455.4037277131283L342.85906978783896,458.7721296496529L339.74767403519945,468.35081311373506L327.8385385684669,470.14020312935463L325.3708798682201,468.77184703182866L324.8344323246856,468.45607164940884L324.619853307202,468.1402959299885L323.8688267462421,467.50874348051L323.4396687113913,467.40348460785026L320.86472050246084,468.35081311373506L320.00640443275915,469.4033967860305L318.93350934563205,469.82442920681206L316.78771917149425,469.29813858726266L315.2856660495163,469.4033967860305L315.0710870321491,469.92968721841316L314.74921850604005,470.4559767149258L311.74511226214236,471.40329545032L311.2086647185497,471.5085529004573L309.0628745444119,471.8243250261439L307.45353191375034,472.4558682668794L307.2389528963249,472.56112534264685L304.44942566991085,472.56112534264685L302.30363549571484,472.6663823809795L301.23074040864594,473.1926670112225L298.7630817083409,473.2979238249827L294.6860803773743,474.77151528726245L293.93505381641444,474.77151528726245L292.5402902031783,474.77151528726245L292.11113216832746,474.8767715395443L291.78926364221843,475.19254007187556L291.14552658994216,475.40305223956966L290.93094757251674,475.29779617444L290.71636855514953,475.0872839318763L290.07263150281506,474.77151528726245L288.4632888722117,473.40318060129357L287.4976832938846,472.6663823809795L287.1758147676592,472.35061115367716L285.78105115453945,471.40329545032L298.01205514738103,459.4037007441002L301.55260893475497,446.2456910990368L316.4658506452688,429.40258478005126L304.7712941960199,404.76781448879046L291.78926364221843,395.71349423986976L290.2872105202987,385.60601848649094L289.96534199413145,377.2881489844076L307.56082142243395,371.0759165227937L317.4314562237123,361.07289489667164L325.5854588855873,363.81059763007215L351.334940975823,360.335816749699L361.52744430321036,349.80592815989803Z"/>

    <path name="文山區" class="town"  d="M327.8385385684669,470.14020312935463L324.29798478109296,487.61250182143704L335.026935652073,503.084098231011L329.7697497252957,518.1339231925522L337.9237523871707,527.8159238175213L333.52488253009506,537.3923740109749L334.1686195823713,560.4377272371639L345.00485996197676,566.4355389701086L358.41604855062906,566.0146438608062L375.6896594528225,575.6950801763451L376.6552650312078,584.0073764952249L363.67323447734816,585.6908511679576L352.30054655420827,593.4767972005284L327.40938053367427,600L319.3626673804247,591.0568628976762L302.6255040218239,593.4767972005284L287.1758147676592,585.3752003948757L274.7302317574504,591.2672927514504L249.0880391759565,589.8994960324198L231.2779807302286,551.1777093649071L233.10190237825736,542.5487959045349L213.36063277581707,543.9168111408144L211.21484260162106,533.077747954485L195.87244285619818,532.0253906037251L194.58496875170385,519.0810893931412L184.49975493300008,517.5024773760815L182.03209623269504,509.6092910782245L189.32778282492654,496.1377671943774L184.9289129677927,483.9286692200985L185.14349198527634,483.82341618648206L185.6799395288108,483.4024036777191L186.43096608977066,482.9813905702031L188.46946675528307,481.7183476550272L189.43507233361015,481.0868241766002L190.07880938588642,480.66580777576746L191.68815201654797,479.50800958587934L192.43917857750785,478.98173618433793L193.72665268200217,478.24495185028354L194.58496875170385,478.0344417037413L195.44328482134733,477.82393140746717L196.30160089104902,477.71867620318517L198.01823303033598,484.24442809641187L213.57521179318428,485.50746023383545L232.24358630861389,482.5603768639703L243.18711619696114,476.1398436475356L253.1650405069231,485.50746023383545L259.3878320120857,485.29695525182615L259.4951215207111,485.19170270470204L260.99717464268906,484.77069214190124L262.07006972975796,484.34968098034005L263.03567530814325,483.6129100069302L263.3575438343105,483.5076568610384L264.537728430063,482.9813905702031L265.07417597365566,482.5603768639703L266.14707106072456,481.7183476550272L266.8980976216262,481.29733215245506L268.07828221743694,479.29750033756864L268.29286123492057,479.0869909395551L270.43865140905837,478.0344417037413L270.9750989525928,477.613420961432L271.7261255135527,476.9818887252404L272.36986256588716,476.1398436475356L272.5844415832544,475.0872839318763L272.5844415832544,474.56100267040165L272.6917310919962,474.03472047317337L273.44275765295606,472.14009681491734L274.9448107748176,472.87689634539856L275.37396880966844,472.9821532714486L278.1634960361407,473.0874101600639L279.9874176841695,472.56112534264685L280.8457337538712,471.5085529004573L281.70404982357286,470.56123450193263L282.1332078583655,470.56123450193263L283.3133924541762,470.8770076383007L284.1717085238779,471.19278043782106L285.78105115453945,471.40329545032L287.1758147676592,472.35061115367716L287.4976832938846,472.6663823809795L288.4632888722117,473.40318060129357L290.07263150281506,474.77151528726245L290.71636855514953,475.0872839318763L290.93094757251674,475.29779617444L291.14552658994216,475.40305223956966L291.78926364221843,475.19254007187556L292.11113216832746,474.8767715395443L292.5402902031783,474.77151528726245L293.93505381641444,474.77151528726245L294.6860803773743,474.77151528726245L298.7630817083409,473.2979238249827L301.23074040864594,473.1926670112225L302.30363549571484,472.6663823809795L304.44942566991085,472.56112534264685L307.2389528963249,472.56112534264685L307.45353191375034,472.4558682668794L309.0628745444119,471.8243250261439L311.2086647185497,471.5085529004573L311.74511226214236,471.40329545032L314.74921850604005,470.4559767149258L315.0710870321491,469.92968721841316L315.2856660495163,469.4033967860305L316.78771917149425,469.29813858726266L318.93350934563205,469.82442920681206L320.00640443275915,469.4033967860305L320.86472050246084,468.35081311373506L323.4396687113913,467.40348460785026L323.8688267462421,467.50874348051L324.619853307202,468.1402959299885L324.8344323246856,468.45607164940884L325.3708798682201,468.77184703182866Z"/>

</svg>