<?xml version="1.0" encoding="utf-8"?>
<svg version="1.1" xmlns="http://www.w3.org/2000/svg" xmlns:xlink="http://www.w3.org/1999/xlink" x="0px" y="0px" viewBox="0 0 390 650" xml:space="preserve" data-w="390" data-h="650">
    <style type="text/css">.town{fill:#9CCA97;stroke:#FFFFFF;stroke-width:1.5;stroke-linecap:round;stroke-linejoin:round;}</style>

    <path name="成功鎮" class="town" d="M337.73757135187043,137.06637777961078L334.35248155310546,137.72898429421548L332.0957550206149,139.93762683628302L331.1636288441441,143.4713082493381L331.31080666148046,146.17666111927065L332.6354070175148,152.8015685905939L334.69589646023087,155.06493337239408L334.40154082556546,158.65304304864367L336.216733906047,159.4258423477022L336.60920808561787,163.56569183860665L335.3827262744744,167.8156800807974L332.68446628996026,170.74084529342872L333.51847392153286,171.95502857695283L332.8807033797493,177.63933127780547L334.99025209490355,181.72291178306477L338.2772233487631,183.37834894848493L336.3148524509452,187.5719464359172L333.42035537664924,188.84101154404743L330.6730361196969,188.84101154404743L327.1407685035956,193.14462490624464L324.88404197109776,198.11000138278723L321.10647799278377,197.61347970103452L316.8873805624535,197.7789873224374L313.7475871259303,201.53038769975683L312.86452022191224,205.0609325493133L311.63803841077606,206.32967831842325L312.3739274974505,209.36354174439475L308.8907191538019,213.00400320383415L307.5170595253294,217.0303523852308L307.4189409804312,220.11890074157054L306.1924591693023,222.54552118774518L303.837614091899,229.88001896762944L304.0338511816808,234.1259542583066L302.07148028385564,235.72500568860232L302.7092508256537,237.54457131803974L299.0788646646688,239.63976988367176L298.8826275748943,242.72731618310718L295.8409526832547,246.58655686173734L295.6937748659184,248.95712743224612L296.72401958728005,250.66609346773657L293.24081124363875,257.2259293503248L290.68972907645366,260.75365346265244L285.5875647421126,258.60396779134135L284.8516756554236,256.3990932315719L287.0102836430451,254.80051563638153L289.41418799287203,251.60325062333868L284.36108293096913,252.43014354600564L284.90073492787633,249.94943538683947L288.72735817863577,246.91733898587154L287.64805418482865,242.72731618310718L286.6668687359197,241.56950234002215L286.7649872808106,237.4342959651476L290.83690689379,231.86516377279622L291.7690330702753,228.39112324554117L290.15007707955374,224.91690946901144L293.4370483334278,221.05646866679308L294.22199669255497,216.64427420484571L293.8295225129914,214.71385117717546L291.7690330702753,213.61072826159398L292.84833706408244,209.41870167272828L292.1124479773862,205.6125639888378L293.8295225129914,201.14422347937943L292.3577443396207,195.5170157104949L292.1124479773862,192.7032409348394L292.8973963365206,190.77215308425548L295.8409526832547,186.85463850695123L296.3315454077165,183.48871002248234L295.9390712281529,179.18449810704442L295.105063596573,176.25968896021368L295.89001195570745,175.3215165133024L297.01837522195274,170.46489158248005L298.34297557799437,168.80914625532387L295.89001195570745,167.09816787934142L295.54659704858204,165.16636734861095L293.7314039680932,162.51695335703516L295.8409526832547,159.86743807718085L296.72401958728005,155.23054252556176L298.93168684733246,154.73371387812222L302.02242101141746,155.45135411383671L303.4941991847736,151.31101967758332L303.2979620949991,149.98606037345598L305.9471628070751,144.79639225650317L306.1924591693023,141.98055841120367L307.71329661511845,139.27504147799482L307.5661187977821,135.18895818088095L309.1850747884746,134.80242428964812L312.177690407676,132.0966265501993L310.41155659961805,127.84444470364724L312.47204604234867,124.80701178497475L313.9438242157048,128.4519152681787L316.4949063828826,128.89370868899277L319.5856405469676,130.32951780573967L324.442508519096,129.72206374219968L326.50299796181207,130.55040886902316L326.89547214137565,132.20706934703048L334.7449557326763,133.090605370684Z"/>

    <path name="鹿野鄉" class="town" d="M235.05651412307634,280.20805713238406L233.33943958747113,279.1059692807121L231.27895014475507,279.98764095112347L229.56187560914987,282.74279330366153L228.1391567082319,282.5223851081864L225.6861930859377,280.3182649625742L219.94625820979127,282.0815666342205L217.19893895283894,285.1672376329625L214.2063233336521,287.26100832566954L212.4892487980469,289.4098131223127L210.6249964451199,293.9826909816584L212.7345451602814,302.08091073790274L212.53830807049962,303.5131515128651L209.69287026864913,305.11061630977747L205.2284764760916,303.2377228678306L200.12631214175053,303.45806587045627L196.98651870522735,302.57668970326995L191.98247291576263,302.35634392946304L186.24253803962347,302.74194857896146L183.69145587244566,300.8139041124796L183.44615951021842,299.3265192745621L187.07654567119607,297.6738324188136L189.971042745492,294.6438052410431L194.63167362782406,293.3215704810773L196.59404452566378,291.06269500730014L197.8695856092454,285.99373354709314L197.3299336123382,281.4203337155286L199.78289723462512,279.71211974787366L200.1753714141887,275.9098163063136L203.31516485071188,272.32774713101026L203.46234266804822,270.39886463035145L201.59809031510667,268.3597023933962L200.02819359685236,263.3442123891582L200.42066777642322,261.80091225722026L203.60952048538456,261.13948747694303L203.60952048538456,259.2654165839722L200.8131419559868,257.2259293503248L204.394468844519,253.03652546341982L204.98318011386436,250.16994634943512L210.6249964451199,249.508411371291L217.44423531506618,249.232769946173L220.04437675468944,250.72122070758996L221.17274002094928,252.7057723433245L225.53901526860136,255.13125883158318L228.67880870513181,254.52489511008025L233.3884988599093,250.39045661525597L234.2715657639419,248.79174140125178L237.31324065556691,246.64168732467442L242.07199008279713,246.53142635524455L245.40802060909482,242.6721826264311L246.43826533046376,249.5635395256595L245.8495540611184,251.71350357904157L247.0269765998164,257.391295399153L246.53638387535466,259.2102960905322L243.34753116637876,263.564681053349L243.1022348041588,267.42277006588483L242.1701086276953,267.8636809611962L237.55853701779415,275.9098163063136L236.38111447909614,279.05086443231994Z"/>

    <path name="池上鄉" class="town" d="M243.59282752861327,172.94843545313051L249.774295856776,175.1559553527277L252.5706743861665,175.54226411278432L256.10294200226053,180.9503609273488L257.9671943551948,181.28145520417456L261.3522841539525,179.57078443845785L265.3260852220483,182.3850913869137L266.1600928536209,184.92338801912956L269.7414197421531,188.39960022380183L269.8885975594894,190.93767700361786L268.46587865857146,193.8066956053517L266.01291503628454,198.7168563987634L263.80524777623214,201.7510520054384L263.3146550517704,205.99870339288827L260.66545433970896,210.35641376241256L259.5861503459091,214.43807208767612L255.36705291557882,224.36543102801625L252.9140892932919,229.05285860582808L250.95171839545947,230.54174018676167L250.0195922189887,233.90539256132615L246.2420282406747,233.90539256132615L235.44898830263992,232.085731926858L232.60355050077487,232.9128562869846L230.19964615094796,232.6922907508324L228.04103816333372,229.43886799674692L229.07128288470267,227.3433627364684L235.3999290301872,220.44980850980755L238.09818901470135,215.37571653307168L238.04912974224862,209.58418119529597L235.7433439373126,203.9024922818644L235.3999290301872,200.97872387109965L233.83003231193288,194.79978982439388L231.62236505186593,189.6134746036023L226.07866726550128,184.15087278204737L231.7204835967641,176.70117748663688L228.48257161534275,176.25968896021368L227.10891198686295,173.22437928258478L225.0484225441469,171.29274942115444L227.40326762155019,167.70529407158392L231.03365378252056,167.48452152590835L232.94696540790028,169.69221534975804L235.4980475750781,166.0494828422943L239.76620427784655,171.56869983798242L241.87575299302262,173.22437928258478Z"/>

    <path name="延平鄉" class="town" d="M200.8131419559868,257.2259293503248L203.60952048538456,259.2654165839722L203.60952048538456,261.13948747694303L200.42066777642322,261.80091225722026L200.02819359685236,263.3442123891582L201.59809031510667,268.3597023933962L203.46234266804822,270.39886463035145L203.31516485071188,272.32774713101026L200.1753714141887,275.9098163063136L199.78289723462512,279.71211974787366L197.3299336123382,281.4203337155286L197.8695856092454,285.99373354709314L196.59404452566378,291.06269500730014L194.63167362782406,293.3215704810773L189.971042745492,294.6438052410431L187.07654567119607,297.6738324188136L183.44615951021842,299.3265192745621L183.69145587244566,300.8139041124796L186.24253803962347,302.74194857896146L191.98247291576263,302.35634392946304L196.98651870522735,302.57668970326995L200.12631214175053,303.45806587045627L205.2284764760916,303.2377228678306L209.69287026864913,305.11061630977747L212.53830807049962,303.5131515128651L212.7345451602814,302.08091073790274L210.6249964451199,293.9826909816584L212.4892487980469,289.4098131223127L214.2063233336521,287.26100832566954L217.19893895283894,285.1672376329625L219.94625820979127,282.0815666342205L225.6861930859377,280.3182649625742L228.1391567082319,282.5223851081864L229.56187560914987,282.74279330366153L231.27895014475507,279.98764095112347L233.33943958747113,279.1059692807121L235.05651412307634,280.20805713238406L230.24870542338613,290.6770260578378L232.11295777632768,293.48685119135916L232.16201704876585,296.3516548604148L233.3884988599093,298.0594628391682L232.35825413854764,301.640215379608L229.02222361224995,304.8351939423319L228.3353937980064,307.69953366866866L225.73525235839043,310.17819474736825L223.8219407330107,314.14387024877396L221.3689771107238,315.79616886775875L219.50472475778224,314.3641789799876L215.77622005192097,313.48293990335515L214.64785678567569,308.6359270415305L212.7345451602814,307.2588736361522L209.98722590332181,306.70804470036273L193.6504881789151,306.54279517564464L189.8729242006084,305.71654170875263L185.01605622848,302.4665169029704L183.838633689782,303.40298018475187L182.17061842662224,308.6910086151747L180.4535438910316,312.27121809427445L177.75528390651743,313.48293990335515L177.36280972696113,317.17305465639765L176.18538718826312,319.87167242509713L171.72099339569831,321.46876466977847L168.63025923162058,321.5238361679203L163.42997635238135,327.19596907935556L159.45617528428556,327.74663719064847L154.79554440193897,329.78407165685167L153.42188477345917,329.4536808940247L149.05560952579253,333.4733296073773L142.43260774562077,331.7113201315624L139.24375503665942,331.93157373307076L135.1227761512273,338.53886071738634L131.59050853514054,342.22765905253254L129.82437472709717,346.1915251000901L127.61670746704476,348.2284249089389L122.71078022246365,350.37536355566954L120.35593514507491,353.45803267312476L117.01990461877722,350.81575312785753L115.84248208007193,351.03594688014164L115.10659299339022,354.7791352381046L109.56289520703285,355.3295873204297L110.15160647637094,357.31117917028496L106.3249832256115,360.0082562174084L104.75508650734264,359.45784072239985L103.03801197175198,361.16411475043424L101.0756410739341,360.44858551512516L96.7093658262529,362.4300332773255L97.05278073337831,359.45784072239985L95.8753581946803,357.25613570555834L96.66030655381473,354.06354109415224L96.66030655381473,350.9258500901469L95.48288401511672,348.61377769646424L90.87131240522285,344.81520804652246L86.11256297799991,343.32875537032123L84.19925135260564,344.04445872970064L80.17639101207169,342.1175484722571L78.45931647646648,337.9882771976372L76.84036048575945,336.8870972174027L78.21402011423925,334.1891333332842L77.96872375201929,330.4448485198409L79.19520556314819,323.2861012939229L80.5198059191971,320.91804731159937L76.84036048575945,319.1006493671248L75.9572935817414,317.72380140591486L78.0668422969029,316.40200194393765L78.41025720402831,313.5380176700146L75.90823430930323,310.3434357039059L72.2778481483183,310.5086762710562L67.47003944864264,308.8562530764666L65.99826127525739,307.0936254098615L65.70390564058471,304.3945159032919L64.23212746722857,302.9072070649436L63.30000129075779,300.0977597986657L61.09233403070539,296.4618372768309L61.77916384494165,294.2581560148574L63.34906056320324,292.82572600959065L62.51505293162336,289.07923206232044L61.38668966537807,288.4180652588966L60.16020785422734,284.39583263969143L57.952540594174934,281.08971491257216L57.854422049291315,275.85470893960337L59.27714095020929,272.0521957465844L57.46194786972046,267.6983397014483L58.05065913906583,265.76932943139764L61.8282231173871,262.8481553507754L64.67366091923759,263.28909511439997L68.45122489755886,265.4386366094823L70.65889215761126,265.76932943139764L76.39882703375042,270.6193110385666L83.85583644549479,269.4619596389475L86.21068152288353,270.72953398196114L89.59577132163395,268.69038139238L92.09779421635903,270.1784175268913L93.71675020708062,273.3197231223676L97.44525491294917,275.0832012457631L101.22281889127044,273.7054877624614L107.06087231230777,274.20146774370914L110.0044286590346,272.2175267075727L110.98561410795082,270.1784175268913L114.12540754448128,267.42277006588483L118.09920861256978,267.4778840799263L121.48429841133475,263.1788604344165L124.08443985094345,261.96626747367554L124.42785475806886,259.0449343492037L125.70339584165777,257.391295399153L126.19398856611224,254.19414904211953L129.77531545463717,249.94943538683947L135.07371687877458,252.04426140119176L136.30019868991803,251.7686299915822L139.97964412335568,254.80051563638153L142.82508192519163,252.87114909928096L147.09323862797464,252.87114909928096L148.8103131635653,252.1545136602599L150.8217433338359,253.3672770162757L155.6786113059643,254.91076354221514L159.7014716465128,253.09165083106018L164.9508137981975,253.58777718085548L169.31708904585685,251.10711016734422L175.15514246689418,250.72122070758996L178.29493590341735,249.6737957037476L183.98581150711834,250.16994634943512L192.71836200244434,252.3750176559297L194.19014017581503,252.04426140119176L196.4959259807656,255.682494008317Z"/>

    <path name="金峰鄉" class="town" d="M102.89083415441564,501.04844541464627L101.02658180148137,503.1358233904648L94.0111058417533,506.2118478591947L91.80343858168635,506.3766311360432L89.39953423185943,509.397590340177L83.7577179006039,510.44116466594824L78.704612838701,509.6722166443651L76.54600485108676,513.6816401809047L74.97610813283245,515.2194414259684L72.37596669320192,515.7137276389421L69.28523252913146,517.4711619790196L66.19449836504646,517.5810001871105L59.865852219554654,515.1645205241002L52.50696135270118,514.1210153500833L48.82751591928536,511.4847237109261L45.29524830318405,510.1665413249684L43.82347012982791,508.7934087455269L39.457194882154,507.6948836306201L37.004231259881635,509.4525156856853L33.52102291623305,504.2893481322644L28.86039203389373,503.7400529659899L27.290495315632143,501.1033771978455L25.573420780026936,499.94980085203497L23.70916842709994,487.9734753135108L18.705122637635213,478.9624334742148L18.75418191008066,473.2475223893525L19.686308086551435,470.11511650284956L22.727982978190994,468.85112413751085L23.267634975090914,464.9490927495972L21.69773825682205,460.0025475576658L26.014954232043237,453.1317739072547L25.08282805557974,447.7446219426456L29.105688396128244,438.453571613858L32.09830401530053,435.31962901024235L35.04186036204919,430.1510698694383L37.887298163899686,426.906781510168L41.02709160041559,421.51763489778205L40.978032327962865,416.7330485241964L43.52911449515523,418.3279466066688L48.1406861050491,419.15287977995104L48.729397374394466,420.41775862876966L52.70319844249025,421.46264149041417L57.51100714216591,421.0776864419895L58.492192591074854,423.6623444475299L61.582926755152585,425.0371240735276L64.42836455700308,425.5320382014015L65.45860927837202,424.43222432833136L68.54934344244975,424.92714268622694L72.7684408727655,423.8273194127869L72.52314451053826,421.6276215842863L74.5836339532616,420.63773525047145L78.50837574890465,422.287538112947L81.50099136810604,426.0819387290576L85.32761461886548,426.24690805425416L87.87869678604329,428.776389564131L92.8336833030553,426.46686655641315L96.4150101915875,427.4566713576951L100.78128543924686,426.4118769949564L102.4002414299539,427.51166010750603L105.73627195626614,426.46686655641315L106.42310177050967,424.76217028482097L108.67982830300025,424.707179398898L113.48763700268319,423.33239336320366L116.52931189431547,421.2976610118476L117.21614170855173,419.7028298844034L119.66910533083137,418.2179547900232L121.28806132154568,418.6029254000223L123.00513585714361,416.4030651203466L124.42785475806886,416.62305422731333L133.79817579519295,413.3781455019198L134.09253142986563,411.78313577941844L136.93796923171612,412.33314319666533L139.29281430911215,409.03303450413114L139.0475179468849,406.28282622355437L141.99107429361902,410.24309224641L140.56835539269377,412.27814264749213L143.5609710118806,415.5231018494851L140.9117702998119,419.977803333406L138.06633249797596,420.692729299024L133.70005725029478,420.5277470251185L131.5414492626951,424.15726818951043L129.13754491285363,426.3018977438751L127.91106310171017,429.2162901659067L130.903678720897,429.16130274016905L132.2773383493768,431.52572348511785L136.44737650725438,431.1408231628102L139.3418735815576,431.6356946215037L140.8136517549283,430.4809891711484L142.97225974252797,432.68041189947326L143.1194375598643,434.5498675118688L145.13086773014948,437.8487864684321L141.3533037518282,440.65274680906987L140.02870339579385,438.72847224608086L138.40974740508682,439.1683110391441L134.7793612441019,437.7388249782325L131.34521217290603,438.453571613858L131.63956780757871,445.49069203224644L132.2773383493768,447.1399160730998L131.00179726578062,450.82304460097475L130.85461944844428,453.3516489696558L129.57907836486265,461.8712829188662L130.85461944844428,463.9048507981588L127.96012237415562,466.9276143329116L125.70339584165777,468.3015552234574L124.47691403050703,470.93944723229833L121.58241695621837,469.62051347341L120.01252023795678,470.44484994253435L114.91035590360116,468.24659809816876L112.16303664664883,472.42321844096296L110.74031774571631,471.5989049287L105.00038286957715,474.896101597933L103.97013814822276,476.54464256134816L104.1173159655591,480.5559325231079L105.4909755940389,483.02853275368216L104.9513235971317,485.39115931221204L106.8646352225187,486.2702561357364L110.49502138349635,490.00629643507637L110.74031774571631,492.6983215076634L106.3249832256115,493.6872031013536L104.31355305533361,495.99454005626467L99.84915926279064,495.1155633690978L99.11327017610165,496.5988302327696Z"/>

    <path name="臺東市" class="town" d="M234.76215848840366,341.01643318374045L236.62641084133065,342.8883189126009L238.29442610447586,352.85251904155484L235.54710684752354,355.71490121634815L232.06389850387495,355.65985650323273L228.9731643398045,359.6229658227476L228.43351234290458,365.6222485149465L226.8636156246357,371.4008908753676L225.34277817881957,373.437061454566L221.66333274539647,376.02346358797695L217.24799822529167,378.00447338393315L211.70430043892702,384.6624595545418L207.82861791571486,387.4135100167423L203.60952048538456,392.42014663461305L190.75599110462645,399.7368999302653L186.63501221917977,400.6720693948919L181.38567006749508,403.31248105511077L177.46092827184475,406.6678618257574L173.78148283841438,410.9031150115461L171.3775784885729,407.60293955452653L166.52071051645908,402.59737930856136L161.61478327188524,401.497208640576L159.40711601183284,401.552217580911L155.58049276106613,396.1061246431418L159.21087892205105,395.2259085797032L160.58453855053085,393.9605787625387L160.87889418520354,391.0447323983972L163.03750217281777,389.0640888080834L162.84126508302143,385.87293497417704L167.45283669292257,383.45196336348636L169.41520759075502,381.1409584004268L169.7095632254277,378.11452785159963L168.04154796227522,374.48263970262997L166.27541415423184,372.77668825319597L165.58858433999558,369.41969546012297L170.8869857641257,366.7780149081791L174.41925338021247,366.72297884327963L179.76671407678805,363.8060058640549L184.72170059380733,363.530813497533L189.92198347304657,363.8610442083136L193.40519181668787,363.1455423777552L194.87696999005857,361.27419552584615L190.6088132872901,357.09100505312745L193.40519181668787,354.1736329745563L196.0053332563184,353.07270641956893L195.80909616652934,350.98089850668475L197.42805215723638,349.2193278114646L197.28087433990004,345.47584359401117L198.9979488754907,344.4298344441704L205.96436556278786,346.5218371848223L208.0739142779421,352.6873780558635L209.84004808598547,355.2194972483976L211.90053752870153,354.6690443049738L215.28562732745922,355.4396772202381L217.7876502221916,356.98091773627857L219.75002112001675,355.93507963830416L219.45566548534407,354.33877047221176L223.2822887361035,351.2010917420848L228.09009743577917,349.1642780164275L229.75811269893893,347.6779172643637L229.6109348816026,344.87026124587646L230.3468239682843,342.17260378394894Z"/>

    <path name="卑南鄉" class="town" d="M221.3689771107238,315.79616886775875L221.12368074849655,318.384691798994L219.65190257511858,321.0832629727993L227.40326762155019,324.1121478418354L231.7204835967641,323.0107502844621L234.0262694017074,324.8280469875881L232.11295777632768,332.4822047154448L231.86766141410044,335.67577930833613L234.22250649149646,337.71298382021814L234.76215848840366,341.01643318374045L230.3468239682843,342.17260378394894L229.6109348816026,344.87026124587646L229.75811269893893,347.6779172643637L228.09009743577917,349.1642780164275L223.2822887361035,351.2010917420848L219.45566548534407,354.33877047221176L219.75002112001675,355.93507963830416L217.7876502221916,356.98091773627857L215.28562732745922,355.4396772202381L211.90053752870153,354.6690443049738L209.84004808598547,355.2194972483976L208.0739142779421,352.6873780558635L205.96436556278786,346.5218371848223L198.9979488754907,344.4298344441704L197.28087433990004,345.47584359401117L197.42805215723638,349.2193278114646L195.80909616652934,350.98089850668475L196.0053332563184,353.07270641956893L193.40519181668787,354.1736329745563L190.6088132872901,357.09100505312745L194.87696999005857,361.27419552584615L193.40519181668787,363.1455423777552L189.92198347304657,363.8610442083136L184.72170059380733,363.530813497533L179.76671407678805,363.8060058640549L174.41925338021247,366.72297884327963L170.8869857641257,366.7780149081791L165.58858433999558,369.41969546012297L166.27541415423184,372.77668825319597L168.04154796227522,374.48263970262997L169.7095632254277,378.11452785159963L169.41520759075502,381.1409584004268L167.45283669292257,383.45196336348636L162.84126508302143,385.87293497417704L163.03750217281777,389.0640888080834L160.87889418520354,391.0447323983972L160.58453855053085,393.9605787625387L159.21087892205105,395.2259085797032L155.58049276106613,396.1061246431418L159.40711601183284,401.552217580911L161.61478327188524,401.497208640576L158.13157492824394,402.707395433019L155.53143348862795,404.357616741785L151.41045460319583,405.84278296642333L149.34996516046522,404.7976692479242L147.09323862797464,405.5677545391718L145.03274918525858,404.5226367527557L143.7572081016624,406.11781032325416L139.0475179468849,406.28282622355437L139.29281430911215,409.03303450413114L136.93796923171612,412.33314319666533L134.09253142986563,411.78313577941844L133.79817579519295,413.3781455019198L124.42785475806886,416.62305422731333L123.00513585714361,416.4030651203466L121.28806132154568,418.6029254000223L119.66910533083137,418.2179547900232L117.21614170855173,419.7028298844034L116.52931189431547,421.2976610118476L113.48763700268319,423.33239336320366L108.67982830300025,424.707179398898L106.42310177050967,424.76217028482097L105.73627195626614,426.46686655641315L102.4002414299539,427.51166010750603L100.78128543924686,426.4118769949564L96.4150101915875,427.4566713576951L92.8336833030553,426.46686655641315L87.87869678604329,428.776389564131L85.32761461886548,426.24690805425416L81.50099136810604,426.0819387290576L78.50837574890465,422.287538112947L74.5836339532616,420.63773525047145L72.52314451053826,421.6276215842863L72.7684408727655,423.8273194127869L68.54934344244975,424.92714268622694L65.45860927837202,424.43222432833136L64.42836455700308,425.5320382014015L61.582926755152585,425.0371240735276L58.492192591074854,423.6623444475299L57.51100714216591,421.0776864419895L52.70319844249025,421.46264149041417L48.729397374394466,420.41775862876966L48.1406861050491,419.15287977995104L43.52911449515523,418.3279466066688L40.978032327962865,416.7330485241964L43.480055222702504,413.1581463001203L41.17426941775193,406.17281566616657L42.30263268401177,405.84278296642333L46.37455229699117,408.04297185181895L51.32953881401045,407.9879679644764L52.94849480472476,406.50284682455094L56.480762420811516,407.1078999452002L56.97135514525871,404.68765637832803L61.14139330314356,403.5875182610671L65.01707582634845,403.9175614949072L66.63603181705548,398.96675107371266L70.65889215761126,393.63048899347814L73.70056704923627,393.41042828996615L75.36858231239603,395.3909499274723L76.6931826684231,393.7955340709341L80.37262810186076,394.18063775111114L83.41430299348576,393.5204587274693L87.2409262442452,393.63048899347814L89.00706005229586,390.8796808889092L89.49765277674305,388.6239382388194L91.0184902225592,387.24845001401263L91.41096440212277,384.27730392879675L92.58838694082078,383.01177777990597L92.2940313061481,376.0784923895535L92.98086112039164,373.65718448000916L91.99967567147542,367.9337623384472L95.23758765289676,366.6129065844834L96.7093658262529,362.4300332773255L101.0756410739341,360.44858551512516L103.03801197175198,361.16411475043424L104.75508650734264,359.45784072239985L106.3249832256115,360.0082562174084L110.15160647637094,357.31117917028496L109.56289520703285,355.3295873204297L115.10659299339022,354.7791352381046L115.84248208007193,351.03594688014164L117.01990461877722,350.81575312785753L120.35593514507491,353.45803267312476L122.71078022246365,350.37536355566954L127.61670746704476,348.2284249089389L129.82437472709717,346.1915251000901L131.59050853514054,342.22765905253254L135.1227761512273,338.53886071738634L139.24375503665942,331.93157373307076L142.43260774562077,331.7113201315624L149.05560952579253,333.4733296073773L153.42188477345917,329.4536808940247L154.79554440193897,329.78407165685167L159.45617528428556,327.74663719064847L163.42997635238135,327.19596907935556L168.63025923162058,321.5238361679203L171.72099339569831,321.46876466977847L176.18538718826312,319.87167242509713L177.36280972696113,317.17305465639765L177.75528390651743,313.48293990335515L180.4535438910316,312.27121809427445L182.17061842662224,308.6910086151747L183.838633689782,303.40298018475187L185.01605622848,302.4665169029704L189.8729242006084,305.71654170875263L193.6504881789151,306.54279517564464L209.98722590332181,306.70804470036273L212.7345451602814,307.2588736361522L214.64785678567569,308.6359270415305L215.77622005192097,313.48293990335515L219.50472475778224,314.3641789799876Z"/>

    <path name="東河鄉" class="town" d="M292.8973963365206,190.77215308425548L292.1124479773862,192.7032409348394L292.3577443396207,195.5170157104949L293.8295225129914,201.14422347937943L292.1124479773862,205.6125639888378L292.84833706408244,209.41870167272828L291.7690330702753,213.61072826159398L293.8295225129914,214.71385117717546L294.22199669255497,216.64427420484571L293.4370483334278,221.05646866679308L290.15007707955374,224.91690946901144L291.7690330702753,228.39112324554117L290.83690689379,231.86516377279622L286.7649872808106,237.4342959651476L286.6668687359197,241.56950234002215L287.64805418482865,242.72731618310718L288.72735817863577,246.91733898587154L284.90073492787633,249.94943538683947L284.36108293096913,252.43014354600564L289.41418799287203,251.60325062333868L287.0102836430451,254.80051563638153L284.8516756554236,256.3990932315719L285.5875647421126,258.60396779134135L290.68972907645366,260.75365346265244L283.13460111983295,270.949979347346L281.3194080393441,270.50908792136397L277.9343182405937,273.54016032019354L276.70783642945025,275.79960152947206L275.3832360734159,282.85299714103166L273.42086517559073,286.2692300161307L272.48873899911996,289.96077808661175L270.5263681012875,293.4317576646099L268.17152302389877,295.02945234364233L265.96385576384637,300.0977597986657L264.2958405006866,301.69530245096394L262.0881732406342,306.3775452613809L260.2239208877072,308.8562530764666L256.8388310889495,309.6824695413925L255.07269728090614,312.7118466288448L255.02363800845342,315.74109287413194L253.1103263830737,317.72380140591486L250.0195922189887,316.18169961247077L247.46851005182543,317.2281295258981L242.12104935524985,318.2194697842988L234.0262694017074,324.8280469875881L231.7204835967641,323.0107502844621L227.40326762155019,324.1121478418354L219.65190257511858,321.0832629727993L221.12368074849655,318.384691798994L221.3689771107238,315.79616886775875L223.8219407330107,314.14387024877396L225.73525235839043,310.17819474736825L228.3353937980064,307.69953366866866L229.02222361224995,304.8351939423319L232.35825413854764,301.640215379608L233.3884988599093,298.0594628391682L232.16201704876585,296.3516548604148L232.11295777632768,293.48685119135916L230.24870542338613,290.6770260578378L235.05651412307634,280.20805713238406L236.38111447909614,279.05086443231994L237.55853701779415,275.9098163063136L242.1701086276953,267.8636809611962L243.1022348041588,267.42277006588483L243.34753116637876,263.564681053349L246.53638387535466,259.2102960905322L247.0269765998164,257.391295399153L245.8495540611184,251.71350357904157L246.43826533046376,249.5635395256595L245.40802060909482,242.6721826264311L247.76286568649812,241.18356012077857L248.44969550073438,238.09594546608605L247.860984231389,236.88291658417984L250.0195922189887,233.90539256132615L250.95171839545947,230.54174018676167L252.9140892932919,229.05285860582808L255.36705291557882,224.36543102801625L259.5861503459091,214.43807208767612L260.66545433970896,210.35641376241256L263.3146550517704,205.99870339288827L263.80524777623214,201.7510520054384L266.01291503628454,198.7168563987634L268.46587865857146,193.8066956053517L271.60567209509463,195.29633161099082L272.2434426368927,196.89627545341136L275.23605825607956,195.2411604766039L277.9833775130319,192.42737452859728L281.3194080393441,190.93767700361786L287.0593429154833,189.99970291155842L291.32749961825175,190.11005346219463Z"/>

    <path name="長濱鄉" class="town" d="M337.73757135187043,137.06637777961078L334.7449557326763,133.090605370684L326.89547214137565,132.20706934703048L326.50299796181207,130.55040886902316L324.442508519096,129.72206374219968L319.5856405469676,130.32951780573967L316.4949063828826,128.89370868899277L313.9438242157048,128.4519152681787L312.47204604234867,124.80701178497475L314.67971330240107,119.78114770896536L313.6985278534921,116.6881265093034L315.36654311663733,114.64444720934625L318.89881073273136,111.93785989325625L319.48752200206945,109.45212499475383L322.4801376212563,108.01588180145518L322.8235525283817,105.47476292011197L321.98954489679454,101.55241744039449L321.69518926212186,94.4805830726873L322.4310783488181,91.88371179975002L325.42369396800495,87.90533624272393L327.18982777604833,86.74493343526046L328.36725031473907,81.60577173589809L331.8995179308404,81.05315086940573L334.4996593704418,73.48179832084315L337.63945280697953,68.4521913361732L339.6508829772429,67.67837301111285L343.52656550045504,63.75387462022627L343.8209211351277,61.15584403447792L341.5641946026226,60.87945202484116L339.25840879768657,59.16579676393667L335.9223782713743,58.336593398860714L334.2543630082291,51.315603956161794L332.97882192463294,48.10892917744786L337.9828677140904,40.97630529670096L342.49632077909337,31.686195509308163L342.3000836893116,30.35893427751762L346.71541820942366,25.215554381589754L348.8740261970306,23.390391354158055L352.5534716304537,22.72668366015023L354.90831670784246,17.85929752042466L362.5125039369377,19.905854263492074L367.8599646335133,19.35273684630556L370.9997580700365,24.330632921240976L372.4715362434072,24.773095079141058L378.11335257465544,23.943476190632282L375.6603889523685,27.870250239684538L373.79613659943425,33.89824049750132L373.01118824031437,34.893637474207935L372.03000279139087,41.86101207631509L370.21480971090205,42.74570745501842L368.5958537202023,47.39017118978518L367.36937190905155,55.185529379528816L368.0562017232878,58.99995689109528L366.6825420948153,62.86944969629985L367.3203126366134,65.0804906797639L365.16170464899915,68.61800841625154L365.2107639214373,75.6924982791752L364.2295784725284,80.94262616393462L362.9049781165086,83.04256523563527L362.5125039369377,85.75028690074942L358.6858806861637,85.25295824798377L355.34985015986604,87.6843086433546L351.1798120019812,95.30935118320485L348.6287298348034,98.4033307730806L347.15695166143996,101.88389188320434L346.0285883951801,106.41388297382764L346.0285883951801,109.89403996405235L344.40963240448764,110.77786141422803L342.8887949586715,114.20256265042372L342.8887949586715,118.124189293354L340.0924164292592,125.96677465520406L340.1905349741428,128.39669089202107L342.69255786888243,130.4399634256133Z"/>

    <path name="太麻里鄉" class="town" d="M173.78148283841438,410.9031150115461L169.02273341118416,414.75312500544896L161.36948690966528,417.72298949848846L156.56167820998235,422.5625015167443L153.27470695612283,428.6114261337607L150.8217433338359,435.59454180379L148.66313534622896,443.8964056546647L146.99512008307647,459.67276562181905L141.69671865894634,465.22389071060024L135.80960596546356,469.7304255553663L133.6509979778566,473.2475223893525L131.7867456249296,477.58869872672767L127.61670746704476,491.6544871399292L123.34855076426174,503.02596291693044L121.28806132154568,510.6059381625946L117.2652009809899,527.3559233672204L112.60457009865786,526.7518939025995L107.06087231230777,524.610293692449L109.02324321012566,521.9743898020388L110.78937701816903,521.5350630180401L112.40833300887607,519.0088814973406L114.61600026892847,517.9105137962961L115.25377081072656,516.0981701021974L114.02728899959038,514.1759370558229L114.81223735872481,511.59457114261386L111.86868101197615,508.8483345567183L109.31759884479834,507.5301034026397L104.46073087266996,501.26817229321387L102.89083415441564,501.04844541464627L99.11327017610165,496.5988302327696L99.84915926279064,495.1155633690978L104.31355305533361,495.99454005626467L106.3249832256115,493.6872031013536L110.74031774571631,492.6983215076634L110.49502138349635,490.00629643507637L106.8646352225187,486.2702561357364L104.9513235971317,485.39115931221204L105.4909755940389,483.02853275368216L104.1173159655591,480.5559325231079L103.97013814822276,476.54464256134816L105.00038286957715,474.896101597933L110.74031774571631,471.5989049287L112.16303664664883,472.42321844096296L114.91035590360116,468.24659809816876L120.01252023795678,470.44484994253435L121.58241695621837,469.62051347341L124.47691403050703,470.93944723229833L125.70339584165777,468.3015552234574L127.96012237415562,466.9276143329116L130.85461944844428,463.9048507981588L129.57907836486265,461.8712829188662L130.85461944844428,453.3516489696558L131.00179726578062,450.82304460097475L132.2773383493768,447.1399160730998L131.63956780757871,445.49069203224644L131.34521217290603,438.453571613858L134.7793612441019,437.7388249782325L138.40974740508682,439.1683110391441L140.02870339579385,438.72847224608086L141.3533037518282,440.65274680906987L145.13086773014948,437.8487864684321L143.1194375598643,434.5498675118688L142.97225974252797,432.68041189947326L140.8136517549283,430.4809891711484L139.3418735815576,431.6356946215037L136.44737650725438,431.1408231628102L132.2773383493768,431.52572348511785L130.903678720897,429.16130274016905L127.91106310171017,429.2162901659067L129.13754491285363,426.3018977438751L131.5414492626951,424.15726818951043L133.70005725029478,420.5277470251185L138.06633249797596,420.692729299024L140.9117702998119,419.977803333406L143.5609710118806,415.5231018494851L140.56835539269377,412.27814264749213L141.99107429361902,410.24309224641L139.0475179468849,406.28282622355437L143.7572081016624,406.11781032325416L145.03274918525858,404.5226367527557L147.09323862797464,405.5677545391718L149.34996516046522,404.7976692479242L151.41045460319583,405.84278296642333L155.53143348862795,404.357616741785L158.13157492824394,402.707395433019L161.61478327188524,401.497208640576L166.52071051645908,402.59737930856136L171.3775784885729,407.60293955452653Z"/>

    <path name="達仁鄉" class="town" d="M91.21472731234826,612.7472882012898L91.21472731234826,619.9866093866658L91.75437930924818,625.5252948455854L93.1770982101807,632.7633301860478L93.32427602751704,635.9434489066771L87.48622260647971,638.9589489985865L85.9653851606563,641.8098511654425L83.90489571793296,641.9194989956868L79.24426483560092,644.4961749710001L77.72342738978477,641.535730859734L75.41764158484148,638.8492966619015L71.68913687895838,637.3689737770474L66.2435576374919,637.3689737770474L63.00564565608511,635.5596489276832L59.81679294710921,630.6797279575694L54.81274715765903,627.3348719302394L47.35573774590739,630.4055652794996L46.816085749000194,627.1703668030859L45.68772248275491,624.9220923700614L46.61984865922568,620.535013109733L50.740827544657805,620.1511309426951L50.103057002874266,616.5864129498841L44.36312212672783,615.7637606214194L42.05733632178453,611.4858167393068L38.72130579547229,611.2115808826893L36.906112714983465,609.456446617045L36.46457926297444,607.0979174315125L37.102349804765254,604.0262284431537L41.370506507540995,603.6971111170697L44.166885036938766,602.0515018616206L45.98207811742759,598.9795970084815L44.46124067161145,596.3464310801028L43.92158867471153,590.0922747648601L42.40075122889539,588.6658118846426L40.3893210586175,584.9897960148974L35.97398653851269,583.3437576792985L32.24548183263687,584.0570455976049L30.184992389920808,581.5330718607565L29.988755300146295,578.0761810130352L24.886590965783398,577.253087187235L20.618434263014933,573.7959898688423L22.53174588840193,571.6557984019764L23.07139788530185,567.0459380199391L23.954464789327176,565.1799577749753L26.799902591170394,562.9297404358058L24.837531693345227,561.063652886929L25.52436150758149,558.8133061224999L27.339554588070314,557.9351028207184L25.720598597363278,554.3672910460082L27.58485095029755,554.4221818057449L30.8227629317189,552.3911956382926L33.52102291623305,553.4341416851566L38.13259452612692,552.1167336242997L42.54792904623173,547.8898855681018L41.2723879626501,543.9921808157706L38.0835352536742,537.843256586284L35.630571631401835,534.1646292309943L36.3174014456381,531.7487111579212L34.15879345801659,530.2661755006484L31.068059293946135,529.7170804066154L27.53579167785938,526.861717821892L24.494116786234372,526.9166297181655L24.543176058672543,523.7316698830855L25.818717142254172,519.6678939982994L24.44505751378165,515.9334093003399L27.241436043186695,514.8349942244749L27.78108804007934,511.4297999316004L30.283110934811702,510.05669169226894L30.528407297046215,507.85966347752037L28.86039203389373,503.7400529659899L33.52102291623305,504.2893481322644L37.004231259881635,509.4525156856853L39.457194882154,507.6948836306201L43.82347012982791,508.7934087455269L45.29524830318405,510.1665413249684L48.82751591928536,511.4847237109261L52.50696135270118,514.1210153500833L59.865852219554654,515.1645205241002L66.19449836504646,517.5810001871105L69.28523252913146,517.4711619790196L72.37596669320192,515.7137276389421L74.97610813283245,515.2194414259684L76.54600485108676,513.6816401809047L78.704612838701,509.6722166443651L83.7577179006039,510.44116466594824L89.39953423185943,509.397590340177L91.80343858168635,506.3766311360432L94.0111058417533,506.2118478591947L101.02658180148137,503.1358233904648L102.89083415441564,501.04844541464627L104.46073087266996,501.26817229321387L109.31759884479834,507.5301034026397L111.86868101197615,508.8483345567183L114.81223735872481,511.59457114261386L114.02728899959038,514.1759370558229L115.25377081072656,516.0981701021974L114.61600026892847,517.9105137962961L112.40833300887607,519.0088814973406L110.78937701816903,521.5350630180401L109.02324321012566,521.9743898020388L107.06087231230777,524.610293692449L103.6757825135428,524.7201209078612L101.51717452594312,529.77199010609L99.16232944855437,533.3959368929081L101.17375961881771,535.5372735392411L99.65292217300157,536.7451787065602L97.00372146092559,540.7530813338471L92.98086112039164,541.9059979798094L89.30141568696126,545.0901473207723L86.79939279224345,544.8156572759017L85.08231825663825,546.1331998772439L89.54671204919578,549.536739198973L88.76176369006134,552.0069485237527L85.22949607397459,552.8303326697169L82.58029536191316,554.3672910460082L87.33904478914337,557.4411087263488L88.32023023805232,558.8681934709621L89.69388986653212,566.6617695921359L86.79939279224345,567.7045076721188L84.5917255321765,569.8448172122826L85.27855534641276,571.4911656405111L83.70865862815845,572.8630937574944L85.03325898418552,574.3447466125108L84.39548844239471,576.0458658075295L80.86322082630795,576.1007399478403L76.6931826684231,577.0335939036795L75.22140449505969,579.6125975288833L78.704612838701,584.0021775481309L76.20258994397591,587.5685134419709L78.94990920092823,590.6409067812674L77.62530884489388,597.2241637889783L75.41764158484148,600.1864324470807L80.12733173962624,603.861669968639L79.48956119782815,605.1232753044678L81.69722845788056,607.0430669942834L83.5614808108221,606.1654543025925L88.12399314826325,608.3046164553489Z"/>

    <path name="大武鄉" class="town" d="M117.2652009809899,527.3559233672204L114.95941517606116,532.9566804127571L110.10254720393277,546.4625817327578L108.82700612033659,548.109468244129L107.06087231230777,552.3363033197584L105.5890941389298,557.7704385015786L102.15494506772666,564.7408965314971L101.4681152534904,566.9910569421736L99.26044799343072,577.9664357158144L96.31689164668933,581.3684617912695L92.6374462132735,590.586043768435L91.75437930924818,596.5110067806163L91.21472731234826,604.3004917294529L91.21472731234826,612.7472882012898L88.12399314826325,608.3046164553489L83.5614808108221,606.1654543025925L81.69722845788056,607.0430669942834L79.48956119782815,605.1232753044678L80.12733173962624,603.861669968639L75.41764158484148,600.1864324470807L77.62530884489388,597.2241637889783L78.94990920092823,590.6409067812674L76.20258994397591,587.5685134419709L78.704612838701,584.0021775481309L75.22140449505969,579.6125975288833L76.6931826684231,577.0335939036795L80.86322082630795,576.1007399478403L84.39548844239471,576.0458658075295L85.03325898418552,574.3447466125108L83.70865862815845,572.8630937574944L85.27855534641276,571.4911656405111L84.5917255321765,569.8448172122826L86.79939279224345,567.7045076721188L89.69388986653212,566.6617695921359L88.32023023805232,558.8681934709621L87.33904478914337,557.4411087263488L82.58029536191316,554.3672910460082L85.22949607397459,552.8303326697169L88.76176369006134,552.0069485237527L89.54671204919578,549.536739198973L85.08231825663825,546.1331998772439L86.79939279224345,544.8156572759017L89.30141568696126,545.0901473207723L92.98086112039164,541.9059979798094L97.00372146092559,540.7530813338471L99.65292217300157,536.7451787065602L101.17375961881771,535.5372735392411L99.16232944855437,533.3959368929081L101.51717452594312,529.77199010609L103.6757825135428,524.7201209078612L107.06087231230777,524.610293692449L112.60457009865786,526.7518939025995Z"/>

    <path name="關山鎮" class="town" d="M226.07866726550128,184.15087278204737L231.62236505186593,189.6134746036023L233.83003231193288,194.79978982439388L235.3999290301872,200.97872387109965L235.7433439373126,203.9024922818644L238.04912974224862,209.58418119529597L238.09818901470135,215.37571653307168L235.3999290301872,220.44980850980755L229.07128288470267,227.3433627364684L228.04103816333372,229.43886799674692L230.19964615094796,232.6922907508324L232.60355050077487,232.9128562869846L235.44898830263992,232.085731926858L246.2420282406747,233.90539256132615L250.0195922189887,233.90539256132615L247.860984231389,236.88291658417984L248.44969550073438,238.09594546608605L247.76286568649812,241.18356012077857L245.40802060909482,242.6721826264311L242.07199008279713,246.53142635524455L237.31324065556691,246.64168732467442L234.2715657639419,248.79174140125178L233.3884988599093,250.39045661525597L228.67880870513181,254.52489511008025L225.53901526860136,255.13125883158318L221.17274002094928,252.7057723433245L220.04437675468944,250.72122070758996L217.44423531506618,249.232769946173L210.6249964451199,249.508411371291L204.98318011386436,250.16994634943512L206.50401755967323,244.3261703692442L208.9569811819747,244.2710380763674L210.18346299311088,240.5219399184407L212.34207098071056,237.54457131803974L209.34945536153828,236.82777840623203L206.4058990147969,233.51940791204652L209.84004808598547,230.59688333801932L213.42137497451768,231.2034551216675L213.127019339845,227.06763366744963L213.76478988164308,223.92424513102742L216.36493132126634,222.76611885305283L217.44423531506618,216.92004455221286L220.48591020669846,212.50758785786093L221.31991783828562,208.26033399183325L220.3877916618003,205.5022380510054L224.21441491257428,203.5715058033511L224.1162963676834,201.80621797241292L226.47114144507213,198.49618246059072L226.76549707973754,194.35841636838995L225.83337090328132,190.2204038375039Z"/>

    <path name="海端鄉" class="town" d="M204.98318011386436,250.16994634943512L204.394468844519,253.03652546341982L200.8131419559868,257.2259293503248L196.4959259807656,255.682494008317L194.19014017581503,252.04426140119176L192.71836200244434,252.3750176559297L183.98581150711834,250.16994634943512L178.29493590341735,249.6737957037476L175.15514246689418,250.72122070758996L169.31708904585685,251.10711016734422L164.9508137981975,253.58777718085548L159.7014716465128,253.09165083106018L155.6786113059643,254.91076354221514L150.8217433338359,253.3672770162757L148.8103131635653,252.1545136602599L147.09323862797464,252.87114909928096L142.82508192519163,252.87114909928096L139.97964412335568,254.80051563638153L136.30019868991803,251.7686299915822L135.07371687877458,252.04426140119176L129.77531545463717,249.94943538683947L126.19398856611224,254.19414904211953L125.70339584165777,257.391295399153L124.42785475806886,259.0449343492037L124.08443985094345,261.96626747367554L121.48429841133475,263.1788604344165L118.09920861256978,267.4778840799263L114.12540754448128,267.42277006588483L110.98561410795082,270.1784175268913L110.0044286590346,272.2175267075727L107.06087231230777,274.20146774370914L101.22281889127044,273.7054877624614L97.44525491294917,275.0832012457631L93.71675020708062,273.3197231223676L92.09779421635903,270.1784175268913L89.59577132163395,268.69038139238L86.21068152288353,270.72953398196114L83.85583644549479,269.4619596389475L76.39882703375042,270.6193110385666L70.65889215761126,265.76932943139764L68.45122489755886,265.4386366094823L64.67366091923759,263.28909511439997L61.8282231173871,262.8481553507754L61.2885711204799,261.19460644785977L62.80940856629604,257.8322696147643L67.07756526907906,255.79274052139044L67.56815799352626,252.04426140119176L69.87394379847683,251.21736390680962L72.2778481483183,247.57889852935295L71.78725542385655,244.9326227149777L75.22140449505969,244.87749090141187L76.34976776131225,243.3337824301525L76.98753830309579,236.11097812419575L76.49694557864132,232.3062993827807L77.67436811733205,230.8174555066562L82.04064336500596,229.65944383134592L85.32761461886548,229.60429993815887L86.16162225044536,224.641170794368L84.9351404393019,222.15947359184247L82.92371026902401,221.05646866679308L80.47074664674437,216.53396575995066L83.36524372103304,212.06632679922404L84.64078480462922,207.04678525345662L86.79939279224345,204.39896904543093L88.32023023805232,201.14422347937943L88.22211169316142,199.59954514512538L89.93918622875935,195.5170157104949L89.4485935042976,193.64117852207892L90.03730477364297,190.38592907175007L88.81082296249951,188.730658977016L87.97681533092691,185.42000041811843L89.25235641452309,184.5371314751028L88.36928951049777,180.50889943457878L89.30141568696126,176.97710638905846L88.22211169316142,172.72767959913836L86.06350370554719,171.73426956105686L83.95395499039296,169.41625746581667L87.14280769935431,168.1468370539551L89.05611932473403,165.66312119814575L92.68650548571895,164.39363206231246L93.12803893772798,158.8186436240885L94.35452074886416,156.33459342786227L97.88678836495819,154.12647402469338L99.40762581076706,154.51290000196605L101.02658180148137,150.9245758329289L100.24163344235421,148.1089912867792L98.13208472718543,145.73497807805143L98.23020327206905,141.26277851555278L100.63410762191052,138.77809829450234L100.68316689436324,129.33549928604043L102.44930070240662,124.64132978593989L104.31355305533361,122.81880157497471L108.04205776121671,120.94099494941474L110.20066574881639,121.99036376745426L113.09516282311961,120.7753036788472L114.71411881382664,117.12999516200398L116.92178607387905,116.74336024551485L119.37474969616596,113.26354857196384L122.75983949491638,110.22547433415275L123.49572858159809,107.35299024568121L125.21280311719602,106.69009232174176L128.49977437105554,102.32585532899793L132.66981252894766,101.4419256054498L136.05490232769807,102.43634574796852L138.06633249797596,100.61323120117413L143.31567464965337,98.79006846023185L147.7800684422109,96.02760881988252L150.87080260628863,95.97235849811295L158.86746401492564,92.49149895255505L161.17324981987622,91.93896539875641L163.13562071770866,94.14907303860309L169.4642668631932,97.29835400053344L170.93604503656388,99.39779472936607L172.21158612016006,102.93355044315467L171.5247563059238,104.42514302668496L172.3587639374964,109.94927913626816L174.1248977455325,114.36826969144204L175.5966759189032,115.4729731348707L175.98915009848133,118.78697742980876L180.01201043902256,124.69655716308807L179.76671407678805,126.24290580305387L182.4649740613022,126.96084162388615L186.63501221917977,126.51903584755564L189.67668711081933,129.50117003196465L194.48449581048772,131.87574042725464L197.6242892470109,131.10263343934457L201.84338667735574,131.10263343934457L204.24729102718265,131.98618357693158L205.67000992810063,136.0172378156676L208.36826991262933,139.88241163214298L209.20227754420193,143.25045844798842L214.05914551631577,144.79639225650317L216.26681277636817,144.4651236333284L219.21036912311683,140.9867073421301L223.38040728100168,140.37934688293353L226.22584508283762,138.77809829450234L230.39588324072247,141.48363466116461L232.84884686300938,142.1461988681458L235.15463266795268,147.94336510031098L236.96982574845606,150.04126751734475L237.7057148351305,155.45135411383671L237.41135920046509,156.9418139234931L240.551152636981,161.3026047619569L241.23798245122452,163.67608443985955L242.70976062459522,164.83519613788303L243.78906461840234,167.48452152590835L242.90599771436973,170.961607471585L243.59282752861327,172.94843545313051L241.87575299302262,173.22437928258478L239.76620427784655,171.56869983798242L235.4980475750781,166.0494828422943L232.94696540790028,169.69221534975804L231.03365378252056,167.48452152590835L227.40326762155019,167.70529407158392L225.0484225441469,171.29274942115444L227.10891198686295,173.22437928258478L228.48257161534275,176.25968896021368L231.7204835967641,176.70117748663688L226.07866726550128,184.15087278204737L225.83337090328132,190.2204038375039L226.76549707973754,194.35841636838995L226.47114144507213,198.49618246059072L224.1162963676834,201.80621797241292L224.21441491257428,203.5715058033511L220.3877916618003,205.5022380510054L221.31991783828562,208.26033399183325L220.48591020669846,212.50758785786093L217.44423531506618,216.92004455221286L216.36493132126634,222.76611885305283L213.76478988164308,223.92424513102742L213.127019339845,227.06763366744963L213.42137497451768,231.2034551216675L209.84004808598547,230.59688333801932L206.4058990147969,233.51940791204652L209.34945536153828,236.82777840623203L212.34207098071056,237.54457131803974L210.18346299311088,240.5219399184407L208.9569811819747,244.2710380763674L206.50401755967323,244.3261703692442Z"/>
</svg>
