<?xml version="1.0" encoding="utf-8"?>
<svg version="1.1" xmlns="http://www.w3.org/2000/svg" xmlns:xlink="http://www.w3.org/1999/xlink" x="0px" y="0px"
	 viewBox="0 0 720 773" style="enable-background:new 0 0 720 773;" xml:space="preserve">
    <style type="text/css">.county{ fill: #9CCA97; stroke: #FFFFFF; stroke-width: 1.5; stroke-linecap: round; stroke-linejoin: round; }</style>


	<path name="基隆市" id="keelung_city" class="county" data-x="615" data-y="65" d="M637.4,52.8 633.4,50.8 631.4,49.2 628.8,50.1 627.8,50.7 622.4,48.8 620,48.7 619.4,46.4 617.8,47
		617.1,48.4 615.5,48.6 612.5,50.9 608.3,51.6 606.5,53.1 604.3,53 601.6,54.3 601.6,54.3 602,55.4 605.1,56.9 605.8,59.9
		607.1,61.9 606.3,62.5 607.8,64.2 611.7,66.5 614.8,68.9 617.2,69.9 620,69.7 623.4,72.6 623.8,72.9 627.2,73 630.1,71.6
		630.7,72.1 633.6,69.3 630,66.2 630.1,62.7 629.4,61.1 628.1,60.8 628.5,60.5 631.7,60.2 633,58.5 636.7,60.2 638.3,59.8
		637.7,57.2 639.9,57.3 639.6,55.1 640.3,52.3z"/>

    <path name="臺北市" id="taipei_city" class="county" data-x="585" data-y="78" d="M606.6,78.4 600.5,75.8 599.4,74 600.5,71.4 599.3,70.6 600.4,69.4 601.1,67.1 602,65.8 600.8,63.5
		599.2,62 595.3,60.8 594.9,59.8 597.5,56.4 594.9,53.5 593.6,49.1 590.9,48.4 592.2,46.2 591.7,45.2 592.2,42.4 590.7,42.3
		588.3,41.1 587.1,39.1 586.2,39.5 584.3,42 583.5,43.7 579,45.8 578.6,47.9 576.6,47.9 574.9,47.2 571.4,51.9 570.6,52 566.9,56.1
		566.7,57.5 565.5,57.9 565.9,59.4 565.5,60.1 565.2,61.3 566.3,62.2 569.7,62.6 572.4,64 574.2,65.5 575.3,67.6 575.3,67.6
		575.3,67.6 575.8,69.3 575.3,73.7 573.4,75.1 571.2,76 570.8,76.8 571.9,79.4 571.9,81 571.9,81 573,82.4 574.4,81.8 577,79.7
		578.9,80.5 581.2,82.5 581.6,83.6 581.1,85.4 581.1,86.4 583.8,86.9 584,87.9 585.7,88.5 587.5,92 590,92.1 591.2,91.6 595.2,92.9
		597.8,92.1 600.1,91 598.2,89.9 595.9,89.4 595.4,85.6 595.9,84.2 594.9,82.9 595.2,81.3 597.7,80 600.7,80.7 602.5,79.1
		604.5,79.3 604.5,79.3 609.6,79.4 610,77.9z"/>

	<path name="新北市" id="xinbei_city" class="county" data-x="578" data-y="120" d="M681.6,80.2l-5.5-1.5l-1.4,0.6l-4.3,0.6l-2.7-2.4l-1.2-1.9l0.6-4.8l-1.3-1.9l-2.2-1.3l-0.2-2.5l1.1-1.1
		l-0.2-1.2l1.7-1.7l-0.9-3.1l-3.9-0.4l-1.6,1l-4.2-1.2l-2.7,0.4l-5-1.2l-2.9,0.3l-1.9,0.7l0.4-2.5l-2.5,0.6l-1.5-0.7l0.3,2.2
		l-2.2-0.1l0.7,2.6l-1.6,0.4l-3.7-1.7l-1.3,1.6l-3.2,0.3l-0.4,0.3l1.3,0.3l0.8,1.6l-0.1,3.5l3.6,3.1l-2.9,2.8l-0.7-0.5l-2.9,1.4
		l-3.4-0.1l-0.4-0.3l-3.4-2.8l-2.8,0.1l-2.4-0.9l-3.1-2.4l-3.9-2.3l-1.5-1.8l0.7-0.6l-1.3-1.9l-0.7-3.1l-3.1-1.5l-0.4-1.1l0,0l0,0
		l2.7-1.3l2.2,0.1l1.8-1.5l4.2-0.8l2.9-2.3l1.6-0.2l0.7-1.4l1.6-0.7l-1.5-0.9l-2.2,0.1l-1.5-2.6l1.8-2.1l-0.3-1.5l-3.1,0.6l-1.2,0.8
		l-3.6-2.4l-1.2-2l0.2-2.3l-1.8,0.5l-1.9-2.1l0.4-2l-0.4-2.1l-2.9-3.4l-2.8-1.2l-2.3-2.2l-2.2-0.4L591,20l-1.8,0.1l-1.9,1.4
		l-2.1,0.1l-3.6-1.2l-0.1,1.5L578,23l-1.1-1.5l-0.9,1.9l-5.7,2.6l-2,3.2l-1.9,0.8l-2.1-0.2l-1.5,2.4l-0.5,2l-1.6,3.3l-1.1,0.3
		l-2.6,3.6l0,1.7l-3,0.4l-0.1,1.5l2.6,0.5l0.2,1.1l-2.6,3.3l-0.7,0.4l-2.3-2l-0.8,3.4l0.4,0.9l-2.2,1l-2.9,0.7l-2.7,1.7l-3.2,1
		l-4,0.8l-4.2-0.4l-2,1.4l-1.7,0.2l-0.2,1.7l3.4,1.2l1,1.7l4.7,0.9l3,1.9l2.2,0.5l1.3,3.4l5.4,0l1.8,0.8l0.1,1l3.1,2.5l-1.3,0.4
		l0.3,2.9l3,2.3l-4.5,1.6l1.8,1.1l0.8,1.6l-1.9,1.3l-2.2-0.5l-0.4,2.5l-2.8,1.5l0,0h0l-1.1-0.6l-2.1,0.4l-2.9-0.5l-2.2,0.2l-1.2,1.7
		l0,0l1.1,2.3l-0.2,2.5l-0.7,1.1l-2,1.1l1.6,1.5l3.6,0.6l-0.9,0.7l-2.3,0.4l-1.5,1.5l1.9,1.5l-1.1,2l2.4,1.4l2.1,0.2l0.8,2.7
		l1.9,1.5l-1.8,1.1l0.3,1.3l1.4,0.8l-0.3,2l-3.3,0.2l-0.2,0.7l2.3-0.2l1.7,0.4l0.6,1l4.3,1.1l1.5-1.4l1.9-0.7l1.9,0.1l2.8,1.7
		l0.4,2.2l1.3,0l1.4,2.3l1.4,0.6l0.4,3.6l2.6,1l-0.2,1.1l-3.9,3l-1.7,1.9l2.6,6.5l3.2,5.9l5.1,2l-0.3,1.4l1.5,3.4l2.7,0.1l4.2-2.4
		l2.5,0.3l1.1-0.9l1.7-0.2l0.2-2.4l1.2-1.3l1.5,0l1.7-1.1l4.1-0.9l0.1-1.5l2,0.4l1.5-2l0.3-2.1l-1.2-2.7l0.1-1.9l1.5-2.5l-1.2-3.2
		l2.9-0.3l0.9-1l3-0.1l0.3-1.6l1.1-1.6l3.7-1.1l2.7,0.6l1.8-1.3l1.7,0.6l2.7-0.7l-0.1-1.9l4-2.7l1.4-0.6l1.6-1.7l2.3-1.3l2,0.7
		l1.2-0.3l2.9-0.6l1.8-2l1.3-0.2l2.1-1.9l-0.7-3l1.8-0.9l0.7-1.4l3.7-0.8l1.7,0.2l2.9-0.5l4.4-4.1l-1.2-3l-1.5-0.9l0.3-2.6l1.2-1.3
		l3-0.7l2.2,0.6l5.5-1.4l1.2-1.6l1.6-0.1l1.3-1l3.7-0.3l2.2-1.5l4.1,0l0.7,1l3.8-1.6l2.8-2.2l1.5-0.3l0.7-1.9L681.6,80.2z M602,65.8
		l-0.9,1.3l-0.6,2.3l-1.1,1.2l1.2,0.8l-1.1,2.6l1.2,1.7l6.1,2.7l3.4-0.5l-0.4,1.5l-5.1-0.1l0,0l0,0l-2-0.3l-1.8,1.6l-3-0.7l-2.5,1.3
		l-0.3,1.6l1.1,1.4l-0.5,1.3l0.4,3.8l2.4,0.5l1.9,1.1l-2.3,1.1l-2.6,0.8l-4-1.3l-1.2,0.5l-2.5-0.1l-1.8-3.5l-1.8-0.7l-0.2-1
		l-2.6-0.5l-0.1-1.1l0.5-1.8l-0.4-1.1l-2.3-2l-1.9-0.8l-2.6,2.1l-1.3,0.6l-1.1-1.4l0,0v0l0-1.6l-1.1-2.6l0.3-0.8l2.2-0.8l1.9-1.5
		l0.5-4.3l-0.5-1.8l0,0l-1.2-2.1l-1.7-1.5l-2.8-1.4l-3.4-0.4l-1.1-0.8l0.4-1.2l0.4-0.7l-0.5-1.5l1.2-0.4l0.2-1.5l3.7-4l0.8-0.1
		l3.5-4.7l1.7,0.7l2.1,0l0.4-2.1l4.5-2.1l0.8-1.7l1.9-2.5l0.9-0.4l1.2,2l2.4,1.2l1.5,0.1l-0.5,2.8l0.5,1l-1.3,2.3l2.7,0.7l1.3,4.3
		l2.6,2.9l-2.6,3.5l0.4,1l3.9,1.2l1.7,1.5L602,65.8z"/>

    <path name="桃園市" id="taoyuan_city" class="county" data-x="517" data-y="118" d="M568.5,151.2 568.8,149.8 563.7,147.8 560.4,141.9 557.9,135.4 559.6,133.5 563.5,130.5 563.7,129.4
		561.1,128.5 560.7,124.8 559.3,124.3 557.9,122 556.6,122 556.2,119.8 553.4,118.1 551.5,118 549.6,118.7 548.1,120 543.8,119
		543.1,118 541.4,117.6 539,117.8 539.3,117.1 542.6,116.9 542.9,114.9 541.5,114.1 541.2,112.8 543,111.7 541.1,110.2 540.4,107.5
		538.3,107.4 535.9,105.9 537,104 535.1,102.4 536.6,100.9 539,100.5 539.9,99.8 536.3,99.2 534.7,97.6 536.7,96.5 537.4,95.4
		537.6,92.9 536.5,90.6 536.5,90.6 536.5,90.6 537.7,88.9 540,88.7 542.9,89.2 545,88.8 546.1,89.4 546.2,89.4 549,87.9 549.4,85.3
		551.6,85.8 553.5,84.5 552.7,82.9 551,81.8 555.4,80.2 552.5,77.9 552.2,75 553.5,74.6 550.4,72.1 550.3,71.2 548.6,70.4
		543.1,70.3 541.9,66.9 539.6,66.4 536.6,64.5 531.9,63.6 531,61.9 527.6,60.7 527.8,59 524.7,58.6 522.7,57.8 520.2,58.7
		518.4,59.5 516.2,59.6 512.4,60.7 506.5,63.8 504.4,64.2 500.2,66.4 493.7,67.9 486.2,70.8 485.5,72.2 482.3,73.7 479.5,74.2
		478,75 473,80 471.1,82.8 470.3,85.4 469.1,86.8 469.2,89.1 466.5,93.3 463.9,95.5 463,97.3 464.7,98.2 468.3,96 471,97.2
		475.2,96 476.8,96.8 479.4,98 479.9,101.6 479.4,102.9 480,105.1 483.4,106.2 484.8,106.2 486.5,107.4 490.3,106.4 490.2,109
		493.1,110.2 495.7,110.6 496.7,109.7 500.3,110.1 500.8,111.2 501.5,114.7 499.1,117.9 501.1,119.2 504.7,120.6 506.2,122.1
		509.1,123.6 511.5,126 513.5,124.8 514.5,127.6 518.1,126.5 519.1,125.6 519.1,125.6 520.1,128.2 523,129.6 522.4,130.7
		525.1,132.2 526.5,133.7 528,133.9 529.8,134.9 531.4,135.3 533,137.2 532.5,139 530.9,141.9 533,144.7 531.2,150 532.2,150.5
		535.2,149.4 537.7,150.9 539.7,153.5 539.9,155.4 542.8,156.3 542.6,161.2 543.8,163.3 545.4,163.7 544,166.8 545,169.9 547,171.9
		551,173.5 553.5,172.3 555.6,169.8 556.8,170.3 558.8,169.2 560.3,165.3 562.5,161.3 563.9,159.5 563.1,158.7 565.6,154.8
		567.8,155 570,154.6z"/>

    <path name="新竹市" id="hsinchu_city" class="county" data-x="455" data-y="135" d="M473.2,132.5 472.2,131.8 471.4,127 468.6,124 466.9,122.7 464.9,122.3 462.9,120.7 461.4,121
		457.2,120.1 455,118.6 454,116.7 450.8,115.7 448.9,117 448.7,118.6 446.6,121.3 444.7,125.5 443.7,129.2 443.9,135.8 441.6,139
		439.9,140.8 441.3,141.8 444.8,141.8 446.6,140.2 447.9,142 448.8,144.4 448.6,145.4 452.7,146.2 453,146.3 453.6,145.4
		453.5,143.1 455.3,139.3 456.9,139.7 458.4,138 459.8,136.8 460.4,135 462.4,135.4 464.3,134.3 463.8,132.4 466,131.8 469.8,133.7
		471.2,136.8 472.5,136.6 473.8,135.7z"/>

    <path name="新竹縣" id="hsinchu_county" class="county" data-x="500" data-y="165" d="M553.7,177.2 555.4,176.3 553.5,172.3 551,173.5 547,171.9 545,169.9 544,166.8 545.4,163.7
		543.8,163.3 542.6,161.2 542.8,156.3 539.9,155.4 539.7,153.5 537.7,150.9 535.2,149.4 532.2,150.5 531.2,150 533,144.7
		530.9,141.9 532.5,139 533,137.2 531.4,135.3 529.8,134.9 528,133.9 526.5,133.7 525.1,132.2 522.4,130.7 523,129.6 520.1,128.2
		519.1,125.6 519.1,125.6 518.1,126.5 514.5,127.6 513.5,124.8 511.5,126 509.1,123.6 506.2,122.1 504.7,120.6 501.1,119.2
		499.1,117.9 501.5,114.7 500.8,111.2 500.3,110.1 496.7,109.7 495.7,110.6 493.1,110.2 490.2,109 490.3,106.4 486.5,107.4
		484.8,106.2 483.4,106.2 480,105.1 479.4,102.9 479.9,101.6 479.4,98 476.8,96.8 475.2,96 471,97.2 468.3,96 464.7,98.2 463,97.3
		460.3,99.8 458,105.3 456.7,106.9 455.4,110.2 454.6,111.9 450.8,115.7 454,116.7 455,118.6 457.2,120.1 461.4,121 462.9,120.7
		464.9,122.3 466.9,122.7 468.6,124 471.4,127 472.2,131.8 473.2,132.5 473.8,135.7 472.5,136.6 471.2,136.8 469.8,133.7 466,131.8
		463.8,132.4 464.3,134.3 462.4,135.4 460.4,135 459.8,136.8 458.4,138 456.9,139.7 455.3,139.3 453.5,143.1 453.6,145.4 453,146.3
		454.4,147.4 455.7,146.6 457.1,148.1 458.8,146.6 461.2,146.4 461.8,147.6 461.3,149.1 459.4,151.6 459.8,152.4 461.8,152.6
		461.9,154.7 466.2,158.8 469.1,158.4 468.6,160.9 468.6,160.9 468.6,160.9 468.6,161 468.6,161 468.6,161 469.9,161.7 472.3,161.7
		472.4,162.8 476.1,164.7 478.3,167.2 480.1,165.9 482.2,167.5 483.3,169.9 484.3,170.4 484.7,172.7 483.1,174.6 482,178.4
		480.2,180 482.6,181.4 484.1,183.2 483.5,186 481.3,187.1 482.3,192.4 485.2,191.8 487.9,192.9 490.3,191.8 491.2,190.7
		493.4,189.9 496.3,190.6 498,189.5 499.2,190.8 503.2,191.5 505.1,190.4 507,190.9 508.8,190.6 510.5,189.4 512.8,188.9
		514.6,190.5 513.9,192.5 516,193.7 517.3,195.6 518.9,196.7 519.4,198.5 522.3,200 523.1,204.1 522.5,205.4 522.7,207.3
		524.9,207.7 526.4,207.3 532.6,206.6 535.1,204.7 536.5,201.4 539.1,199.1 540.5,196 543.8,195 545.3,193 546.5,192.5 547.1,189.9
		549.3,189.8 551.1,186.9 553.2,185.8 552.1,183.5 552.6,181.7 551.7,180.1 553.1,178.8z"/>

    <path name="苗栗縣" id="miaoli_county" class="county" data-x="435" data-y="204" d="M522.3,200 519.4,198.5 518.9,196.7 517.3,195.6 516,193.7 513.9,192.5 514.6,190.5 512.8,188.9
		510.5,189.4 508.8,190.6 507,190.9 505.1,190.4 503.2,191.5 499.2,190.8 498,189.5 496.3,190.6 493.4,189.9 491.2,190.7
		490.3,191.8 487.9,192.9 485.2,191.8 482.3,192.4 481.3,187.1 483.5,186 484.1,183.2 482.6,181.4 480.2,180 482,178.4 483.1,174.6
		484.7,172.7 484.3,170.4 483.3,169.9 482.2,167.5 480.1,165.9 478.3,167.2 476.1,164.7 472.4,162.8 472.3,161.7 469.9,161.7
		468.6,161 468.6,161 468.6,161 468.6,161 468.6,160.9 468.6,160.9 468.6,160.9 469.1,158.4 466.2,158.8 461.9,154.7 461.8,152.6
		459.8,152.4 459.4,151.6 461.3,149.1 461.8,147.6 461.2,146.4 458.8,146.6 457.1,148.1 455.7,146.6 454.4,147.4 453,146.3
		452.7,146.2 448.6,145.4 448.8,144.4 447.9,142 446.6,140.2 444.8,141.8 441.3,141.8 439.9,140.8 437,144.3 435.9,148.5
		430.9,152.8 429.1,154.7 421.4,156.1 418.8,157.4 416,160 414.8,161.6 414.4,163.8 412.2,165.9 410.6,166.1 408.8,168.2
		405.8,170.3 404.5,172.5 403.3,176.4 402.6,178.8 400.9,181.6 399.1,187.5 397.5,189 395.4,193.5 393.4,197 390.6,199.8
		387.6,203.4 385.6,204.9 387,205.4 389.4,207.6 390.1,210 391.3,211.6 394.5,213.1 397.5,217 399.3,218.2 400.6,220.4 403.9,222.7
		406.3,223.1 407.6,223.5 408.9,224 412.8,227.4 416.2,229.6 419.1,230.7 420.4,231.2 425,231.7 427.6,233.6 429.3,235.8
		431.1,237.2 436.2,237.5 440,236.3 446.6,236.7 447.5,236.5 450.2,234.4 449,227.5 453,225.9 454.5,226.7 457.6,226.7 458.3,227.6
		460.9,227.9 463,227.4 464.9,228.7 467.9,228.3 470,230.8 470.7,232.7 473.2,234.1 474.4,235.8 476.6,236.2 478,235.4 478.7,232.9
		481,231.8 482.6,230.3 484.4,230 485.5,231.4 488.8,229.9 490.2,228.5 493,228.5 493.1,227.3 494.4,226.1 495,224.5 497.1,222.3
		498.9,222.7 503,222.1 504.4,219.2 506.2,217.7 507.7,217.6 509.2,215.3 509.2,214.4 512.1,214.5 512.7,217.5 516.6,217.1
		517.3,214.2 519.2,212.4 519.3,209.3 520.6,208.3 522.2,208.2 522.5,205.4 523.1,204.1z"/>

    <path name="臺中市" id="taichung_city" class="county" data-x="405" data-y="265" d="M563.2,219.5 562.1,219.4 560.8,217.3 559.1,217.3 557.1,218.1 554.5,218.5 553,218 550.5,219.2
		548.8,220.8 547.2,220.5 545.8,218.1 545.3,216 543.2,215.1 540.5,215.2 539.6,215.8 538.3,214.1 537.4,214 536.7,212.1
		537.2,210.8 537.4,206.3 535.1,204.7 532.6,206.6 526.4,207.3 524.9,207.7 522.7,207.3 522.5,205.4 522.2,208.2 520.6,208.3
		519.3,209.3 519.2,212.4 517.3,214.2 516.6,217.1 512.7,217.5 512.1,214.5 509.2,214.4 509.2,215.3 507.7,217.6 506.2,217.7
		504.4,219.2 503,222.1 498.9,222.7 497.1,222.3 495,224.5 494.4,226.1 493.1,227.3 493,228.5 490.2,228.5 488.8,229.9 485.5,231.4
		484.4,230 482.6,230.3 481,231.8 478.7,232.9 478,235.4 476.6,236.2 474.4,235.8 473.2,234.1 470.7,232.7 470,230.8 467.9,228.3
		464.9,228.7 463,227.4 460.9,227.9 458.3,227.6 457.6,226.7 454.5,226.7 453,225.9 449,227.5 450.2,234.4 447.5,236.5 446.6,236.7
		440,236.3 436.2,237.5 431.1,237.2 429.3,235.8 427.6,233.6 425,231.7 420.4,231.2 419.1,230.7 416.2,229.6 412.8,227.4 408.9,224
		407.6,223.5 406.3,223.1 403.9,222.7 400.6,220.4 399.3,218.2 397.5,217 394.5,213.1 391.3,211.6 390.1,210 389.4,207.6 387,205.4
		385.6,204.9 382.5,209.4 380.2,212.2 378.7,213.8 374.7,219.2 374.5,220.3 372.6,222.3 372.1,224.4 369.2,227.6 367.9,227.6
		366.3,230.7 364.5,231.8 363,235.5 361.4,237.7 359,242.9 357.9,242.4 356.6,246.4 354.3,251.4 352.7,253.6 350,255.1 360.3,258.6
		362.1,261.7 363.6,265 364.9,267.8 364.4,269.7 366.3,272.4 368,273.1 370,275.2 375,276.4 376.9,276.2 378.5,276.9 383.5,277.7
		384.1,281.6 385.1,284 386.3,284.9 386.4,289.7 387,293.4 390.5,294.2 392.8,293.2 397.8,296.7 401.3,298.2 403.7,298.6
		406.5,297.7 409.2,297.8 412.2,300.1 414.8,298.5 417.5,297.8 417.6,296.9 419.4,295.4 423.1,291.1 424.6,288.5 425.3,285.9
		427.1,284.7 430.1,284.4 430,279.4 432,274.4 433.5,272.9 435.4,272.9 436.1,274.5 439.4,274.6 441.4,278.1 440.4,280.1
		441.5,280.7 443.5,278.5 444.5,274.7 446.9,275.9 449.6,276.6 452.2,275.6 456.1,272.2 457.6,273 458.5,273.9 460.6,273.9
		461.5,274.6 464.6,274.1 465.2,272.8 466.5,272.4 467.6,270.9 468.4,268.6 470.2,266.2 472.9,265.5 473.6,266.9 475,265.8
		477.1,265.3 478.2,266.4 479.6,264.7 480.7,264.7 486.5,260.4 487.6,258.4 489.6,257.3 495.9,257.5 497.2,256.8 498.6,253.9
		501.5,253.4 502.9,251.2 505.7,254 507.4,253.5 509.1,251.7 511.6,252 514.1,250.4 518,252.4 519.3,251.8 521.7,247.4 523.9,246.9
		524.7,248.5 526.6,249.8 529.9,250.4 531.1,249 532.1,249.4 536.6,249.6 540.6,251.6 542.5,249.4 542.6,247.2 544.4,247.2
		545.7,245.5 549.6,244.8 549.8,242.9 548.6,239.6 553.4,236 554,233.4 557.8,233.4 560.3,230.3 559.8,228.8 560.5,225 561.8,222.5
		564,221.2z"/>

    <path name="彰化縣" id="changhua_county" class="county" data-x="350" data-y="315" d="M397.8,341.6 397.8,339.3 396.9,338.5 395.4,339.3 391.8,340.1 389.5,338.5 389.1,336.6 387.3,334.8
		385.4,333.8 384.2,334.1 384.9,333.9 386.7,330.6 385.2,328.7 386.2,326.2 387.2,323.6 388.2,323 388.3,321.1 387.7,319 388.9,316
		387,314.5 388.4,313 387.1,310.6 387.2,309.2 388.8,309.9 390.9,307.6 390.9,305.1 391.6,303 388.9,301.1 388.6,300.1 389.8,298
		395.1,298.1 396.5,298.5 397.8,296.7 392.8,293.2 390.5,294.2 387,293.4 386.4,289.7 386.3,284.9 385.1,284 384.1,281.6
		383.5,277.7 378.5,276.9 376.9,276.2 375,276.4 370,275.2 368,273.1 366.3,272.4 364.4,269.7 364.9,267.8 363.6,265 362.1,261.7
		360.3,258.6 350,255.1 347.3,259.1 343.2,260.3 343.2,261.5 341.3,263.3 341.1,265.8 339.4,269.7 337.9,270.6 337.5,273.1
		337.2,274.5 334,278.9 334.5,280.9 333,281.7 330,282.3 329.1,283.8 326.1,285.4 325.5,288.2 325.4,289.4 323.7,296.8 319.9,299.9
		318.2,302.5 317.8,305.7 312.9,309.3 312.1,310.9 312,313.8 309.7,314.7 307.9,317.3 307,319.6 307.3,321.4 305,323.8 302.5,324.5
		300.6,326.1 299.2,328.6 302.6,332.5 306.7,335.5 316.8,338.1 319.9,338.5 323.5,338 327.2,338 329.3,337.8 332.5,336.7
		340.1,337.2 343.2,336.3 345,336.3 348,338.4 349.8,339.2 355.7,341.4 362.2,342.8 365.6,343 366.9,342.6 370.3,342.6 377.3,344.3
		379.5,344.8 384.1,344.7 388,345.2 389.5,345.8 395.2,344.2 397,342.9 398.9,342.5z"/>

    <path name="南投縣" id="nantou_county" class="county" data-x="455" data-y="347" d="M528.7,265.9 528.8,261.5 532.6,261 534.8,259.8 536.9,257.5 539,256.9 542,256.6 541.6,254
		540.6,251.6 536.6,249.6 532.1,249.4 531.1,249 529.9,250.4 526.6,249.8 524.7,248.5 523.9,246.9 521.7,247.4 519.3,251.8
		518,252.4 514.1,250.4 511.6,252 509.1,251.7 507.4,253.5 505.7,254 502.9,251.2 501.5,253.4 498.6,253.9 497.2,256.8 495.9,257.5
		489.6,257.3 487.6,258.4 486.5,260.4 480.7,264.7 479.6,264.7 478.2,266.4 477.1,265.3 475,265.8 473.6,266.9 472.9,265.5
		470.2,266.2 468.4,268.6 467.6,270.9 466.5,272.4 465.2,272.8 464.6,274.1 461.5,274.6 460.6,273.9 458.5,273.9 457.6,273
		456.1,272.2 452.2,275.6 449.6,276.6 446.9,275.9 444.5,274.7 443.5,278.5 441.5,280.7 440.4,280.1 441.4,278.1 439.4,274.6
		436.1,274.5 435.4,272.9 433.5,272.9 432,274.4 430,279.4 430.1,284.4 427.1,284.7 425.3,285.9 424.6,288.5 423.1,291.1
		419.4,295.4 417.6,296.9 417.5,297.8 414.8,298.5 412.2,300.1 409.2,297.8 406.5,297.7 403.7,298.6 401.3,298.2 397.8,296.7
		396.5,298.5 395.1,298.1 389.8,298 388.6,300.1 388.9,301.1 391.6,303 390.9,305.1 390.9,307.6 388.8,309.9 387.2,309.2
		387.1,310.6 388.4,313 387,314.5 388.9,316 387.7,319 388.3,321.1 388.2,323 387.2,323.6 386.2,326.2 385.2,328.7 386.7,330.6
		384.9,333.9 384.2,334.1 385.4,333.8 387.3,334.8 389.1,336.6 389.5,338.5 391.8,340.1 395.4,339.3 396.9,338.5 397.8,339.3
		397.8,341.6 398.9,342.5 397,342.9 395.2,344.2 389.5,345.8 391.3,348.6 392.9,352.8 392.6,355.8 390.4,356.5 389.4,358.6
		389.4,361.3 390.9,366.2 390.9,370.3 390.4,371.2 388.4,374.8 388.4,376.6 387.1,378.3 387.5,381.2 388.5,381.6 390.6,379.2
		392.4,379.7 391.9,382.4 394,383.7 395.7,383.9 398.8,383.6 399.4,382 400.5,381.5 403.4,382.2 405.4,381.4 405.2,379.9
		406.4,379.5 407.5,381.2 409,382 409,383.6 410.1,383.9 413.7,382.7 416.2,383.3 419.5,385.6 421.9,385.7 422.8,386.5 424.6,386.6
		426.8,385.7 428.9,388.7 428.1,391.3 428.3,394 426.9,395.4 425.7,397.6 425.7,399.7 427.7,402.4 428.8,405.1 428.8,407.7
		429.7,411 430.9,412.9 432.2,413.6 437.5,413.2 439.6,414.2 441.2,414.4 442.6,412.7 449.1,412.7 452,413.8 453.5,413.3
		455.6,414.5 457.7,414 459.7,413.5 462.3,414 466.8,415.6 468.7,415.6 470.3,417.9 469.1,419 470.1,421.4 472.5,420.5 474.1,419.2
		478,418 479.5,415.7 475.2,412.9 477.3,411.2 478.2,408.8 480.2,407.6 481,406.1 481.6,403.5 484.6,404.3 486.6,404.2 487.8,402.8
		489.1,403.4 492.7,402.9 496,404.2 496.6,403 498.4,401.6 498.4,400.1 499.3,397.6 498.6,396 499.3,394.6 500.6,394.6 501.3,392.8
		499.5,391.5 499.8,388.8 503.3,388.8 505.3,389.5 505.5,388 507.6,387 508.7,385.8 511.2,386.8 512.7,385.8 513.6,382.7
		515.2,380.1 515.1,377.5 516.3,375.6 516.7,373.4 517.5,372.7 517.6,370.7 516.9,369.5 518.3,367.2 518.7,362.4 517,358.1
		516.2,357.9 516,354.8 516.8,353.5 514.5,353 512.7,352 511,349.1 515.9,346 515.3,343.2 515.8,341 517.3,340.2 517.3,338.9
		518.4,334 520.4,331.6 521.2,328.3 524.6,324.8 523.9,323.2 524.1,319.7 526.2,319.1 525.9,315.6 525.3,313.1 526,308.3
		526.6,307.1 525.6,305.1 523.8,305.1 523.1,303.8 522.8,301.4 524.8,298.4 526.3,294.5 528.3,291.2 527.7,288.1 530.4,286
		531.1,286.5 533.1,284 536.3,281.5 535.4,279.2 536.8,277.8 537.5,275.1 534.8,274.7 532.1,272.9 530.4,271.2 527.3,270.5 528,267z"/>

	<path name="雲林縣" id="yunlin_county" class="county" data-x="323" data-y="371" d="M409.3,390.9 409.6,389.2 408.8,387.3 409.4,386.5 407.6,385.1 409,383.6 409,382 407.5,381.2
		406.4,379.5 405.2,379.9 405.4,381.4 403.4,382.2 400.5,381.5 399.4,382 398.8,383.6 395.7,383.9 394,383.7 391.9,382.4
		392.4,379.7 390.6,379.2 388.5,381.6 387.5,381.2 387.1,378.3 388.4,376.6 388.4,374.8 390.4,371.2 390.9,370.3 390.9,366.2
		389.4,361.3 389.4,358.6 390.4,356.5 392.6,355.8 392.9,352.8 391.3,348.6 389.5,345.8 388,345.2 384.1,344.7 379.5,344.8
		377.3,344.3 370.3,342.6 366.9,342.6 365.6,343 362.2,342.8 355.7,341.4 349.8,339.2 348,338.4 345,336.3 343.2,336.3
		340.1,337.2 332.5,336.7 329.3,337.8 327.2,338 323.5,338 319.9,338.5 316.8,338.1 306.7,335.5 302.6,332.5 299.2,328.6
		299,330.2 297.9,331.9 296,332.4 296.5,334.8 293.1,338.9 291,339.5 290.9,340.6 287.4,344 285.6,346.2 286.9,347.2 286.9,348.7
		287.9,352.1 287.5,355.3 285.4,360.2 285.4,361 283.5,362.9 283.1,366.1 282.2,367.1 280.9,371.4 278.5,376.6 276.5,378.8
		278.4,381.2 280.1,380.7 281.4,381.5 282,384 282.3,387.6 282.1,391.7 282.7,391.9 281.9,396.7 284.2,400.6 283.1,401.7
		283.2,403 285.9,404 287.7,403.7 291.1,405.3 294.5,404.6 295.3,405 295.9,404.9 299.8,406.5 303.3,405.8 304.9,404.5
		303.9,399.1 304.4,397.9 306.9,397.5 308.5,400.2 310.3,400.8 311.4,398 314.4,396.4 314.1,394.3 315.9,393.5 317.6,393.9
		317.8,392 318.9,391.3 320.7,391.9 323.5,390.4 323.9,387.4 325.7,387.6 329.3,386.7 330.7,384.2 333.5,383.8 335,381.4
		338.4,380.1 340.8,381.1 342.6,381.8 346.7,380.3 347.4,379.4 349.8,380.2 352.6,379.4 354.8,378.8 356.3,379.3 359.2,378.4
		360.6,378.6 360.7,380.3 363.1,383.5 366.5,386.6 367.3,387 371.5,387.4 371.8,388.2 374.6,388.5 375.8,389.4 378.5,389
		383,389.7 384.9,389.3 386.3,387.9 387.4,388.1 390.7,387.3 391.4,389.6 390.2,390.6 391.8,391.8 396.1,390.5 397.2,392.2
		401.1,391 403.3,391.3 406.2,392.6 407.6,392 410.1,392.3z"/>

	<path name="嘉義市" id="chiayi_city" class="county" data-x="347" data-y="413" d="M360.4,412 359.6,409.6 356.7,409.2 356,408.5 355.7,406.3 353.7,406 352.9,407.4 351.3,407.3
		349.3,404 348.2,403.5 345.1,405.3 341.4,406.3 339.8,406 338.1,407 335.6,407.7 336.7,409.4 336.4,411.2 337.6,412.2 337.7,413.7
		336.6,415.5 340.3,415 341.1,416 344.2,415.8 344.3,417.7 345.4,418.4 346.4,420.5 348.5,419.6 350.2,417.6 352.6,415.7
		354.4,415.6 357.1,417.7 358.3,417.6 361.3,412.9z"/>

    <path name="嘉義縣" id="chiayi_county" class="county" data-x="392" data-y="430" d="M455.6,414.5l-2.1-1.2l-1.5,0.5l-2.9-1.1l-6.5,0l-1.4,1.7l-1.7-0.2l-2-1.1l-5.3,0.5l-1.4-0.8l-1.2-1.9
		l-0.9-3.3l0.1-2.6l-1.1-2.7l-2-2.7l0-2.1l1.1-2.2l1.4-1.4l-0.2-2.6l0.9-2.6l-2.1-3l-2.2,0.9l-1.9-0.1l-0.9-0.8l-2.4-0.1l-3.3-2.3
		l-2.4-0.6l-3.7,1.1l-1.1-0.3l-1.3,1.5l1.7,1.4l-0.6,0.8l0.9,1.9l-0.4,1.7l0.8,1.4l-2.6-0.3l-1.4,0.6l-2.9-1.3l-2.2-0.3l-3.8,1.2
		l-1.2-1.7l-4.3,1.3l-1.6-1.2l1.2-1l-0.7-2.3l-3.2,0.8l-1.2-0.2l-1.3,1.4l-2,0.3l-4.5-0.6l-2.6,0.4l-1.2-0.9l-2.8-0.3l-0.3-0.8
		l-4.2-0.4l-0.8-0.5l-3.4-3.1l-2.4-3.2l-0.1-1.7l-1.4-0.3l-2.9,1l-1.5-0.5l-2.2,0.5l-2.8,0.8l-2.4-0.8l-0.7,0.9l-4.1,1.4l-1.8-0.7
		l-2.4-1l-3.4,1.3l-1.5,2.4l-2.9,0.5l-1.3,2.5l-3.6,0.9l-1.7-0.2l-0.5,3l-2.7,1.5l-1.8-0.6l-1.1,0.7l-0.2,1.8l-1.7-0.3l-1.8,0.7
		l0.4,2.2l-3,1.5l-1.1,2.9l-1.8-0.6l-1.6-2.7l-2.5,0.4l-0.5,1.2l1,5.4l-1.6,1.3l-3.5,0.7l-3.9-1.6l-0.7,0.1l-0.7-0.4l-3.4,0.7
		l-3.4-1.6l-1.8,0.3l-2.6-1.1l-0.7,0.7l-3.3-0.6l-1.8,1.1l0.1,4.2l1.1,1.5l1.9,0.1l5.2-1.5l-0.4,2.4l-2.3,2.6l-0.1,2.7l-2.2,1.2
		l1.2,0.7l2.1-0.8l0,2.7l-0.9,2.9l0.9,1.2l0,3.6l2.3,0.2l0.4,2.3l-0.8,1.9l-5.6,0.2l0.1,1.8l-0.8,2.7l-1.7,3.3l-0.4,1.8l3.1,2.2
		l3.5,2.2l0,1.1l3,1l1.8,1.2l1,2.2l1.8,0.9l0.4-1.4l1.3-0.7l2.7,1.8l1.7,0l1.8-0.9l1.1-1.6l1.2-2.8l1.5-2.3l1.5,0.1l2.2-0.8l2.6-2.2
		l-1.4-0.8l1.1-1.7l1.8,0l0.5,0.9l2.1-0.4l-0.3-2.8l1.8-2.6l3.9,0l0-2.2l1.5-0.6l0.8,1l2.5-0.5l2.1-2.3l2.8-1.1l6.7-0.7l4.8-1.7
		l3,1.3l1.8-0.3l1.5-1.2l3.7,1.4l4,2l1.2,2.1l2.5-1.7l0.9,0.5l0.9,1.2l-3,1.6l-0.5,1.9l4.7,0.6l1.6,2l0,0.9l-1.9,1l0.9,1.7l1.7-0.2
		l3.9,1.6l1.3,1.9l-1.8,2.1l-1.9,1.3l0.7,4.2l-0.9,1l-0.3,3.4l1.2,1.1l1.3,2.4l-0.5,1.5l-2.3,1.8l1.4,1.7l3.4,0.8l2.9,2.2l2.2-0.7
		l2.8,1.3l1.8-2l1.6-3.3l0.7,2.1l2.8,1.5l4-1.4l4,0.5l1.4,0.6l-0.9-0.9l0.3-2l-0.5-2.4l-1.4-1.6l-0.8-2.6l1-1.5l-0.2-2.6l0.3-1.7
		l1.8,1.1l1.2-0.9l2.1,0.3l0.9,0.9l4.8,1.2l2.2-1.1l0.2-2.7l1.7-1.4l4,0.7l0.4-1.8l3.3-1.7l2.3-2.9l-0.1-1.9l5.4,0.4l1.1-2.3
		l3.5-3.1l0-0.8l0.8,0.5l2.7-0.5l1.6-1l0.5-2.5l0.8-0.2l2.1-4.4l1-1l-0.1-1.4l1.2-0.8l2.1-0.2l1.6-1.2l3.3-1.2l2.1-3.4l1.9-0.5
		l1.5-1.1l3.4,0.4l2.6-1.4l2.1-0.4l1.6-1L455.6,414.5z M345.4,418.4l-1.1-0.8l-0.2-1.8l-3,0.2l-0.8-1l-3.7,0.5l1.1-1.8l-0.1-1.5
		l-1.2-0.9l0.3-1.8l-1.2-1.7l2.5-0.7l1.7-1l1.7,0.3l3.7-1l3.1-1.8l1.1,0.5l2,3.3l1.6,0.1l0.7-1.4l2.1,0.3l0.3,2.2l0.7,0.7l2.9,0.5
		l0.8,2.4l0.9,0.9l-3,4.7l-1.2,0.1l-2.7-2.1l-1.8,0.1l-2.4,1.9l-1.7,2l-2.2,0.8L345.4,418.4z"/>

	<path name="臺南市" id="tainan_city" class="county" data-x="320" data-y="495" d="M392.3,466.8 390.9,466.2 386.9,465.7 382.9,467.2 380.2,465.6 379.5,463.6 378,466.9 376.2,468.9
		373.4,467.5 371.2,468.3 368.3,466.1 364.9,465.3 363.5,463.5 365.8,461.7 366.3,460.2 365,457.7 363.7,456.6 364.1,453.2
		364.9,452.2 364.2,448 366.1,446.7 368,444.5 366.6,442.7 362.7,441.1 361,441.2 360.1,439.5 362,438.5 362,437.6 360.4,435.7
		355.7,435.1 356.2,433.2 359.2,431.6 358.3,430.4 357.4,429.9 354.9,431.7 353.8,429.6 349.8,427.5 346.1,426.1 344.7,427.3
		342.9,427.6 339.9,426.3 335,428 328.4,428.6 325.6,429.7 323.5,432 321,432.5 320.2,431.5 318.7,432.1 318.7,434.3 314.8,434.3
		313.1,436.8 313.4,439.7 311.3,440.1 310.7,439.2 309,439.3 307.9,440.9 309.3,441.8 306.7,443.9 304.6,444.7 303.1,444.7
		301.6,447 300.4,449.8 299.4,451.4 297.5,452.3 295.8,452.3 293.1,450.5 291.8,451.2 291.4,452.6 289.6,451.7 288.6,449.5
		286.8,448.4 283.8,447.4 283.8,446.3 280.3,444.1 277.3,441.9 275.7,443.7 276.3,445.7 275.7,448.3 274.8,449.4 272.6,450.7
		272.1,451.6 272.3,454.7 271.9,458 271.1,461.4 269.7,463.2 269.2,464 269.5,467.3 268.5,472 266.8,475.6 264.9,479.9 263.9,485.3
		263.1,488 261.3,489.5 259.4,493 257.9,498.9 258,500.8 260.2,500.5 262.6,503.9 264.3,505.8 265.3,505.6 270.6,508.1 275.6,511.1
		280.8,515.2 281.8,515.7 286,520.5 285.3,522.6 286.8,522.7 288.8,526 289.5,529.6 289.1,532.5 289.4,534.1 292.2,532.3
		293.2,532.1 295.3,533.3 296.6,533.4 299.2,534.6 300.8,533.1 301.7,533.3 302,535.5 304.1,535.9 306.2,537.8 307.5,537.7
		307.9,536.3 309.9,537.4 311.7,537.5 311.6,535.7 313,535.6 319.9,537 322.2,537 323.3,539 327.3,539.2 329.5,537.1 329.1,536.4
		330.5,536.2 330.5,535.7 331.2,535.4 331.9,534.9 331.8,534.3 334.1,532.2 337.6,531.9 339.7,534 341.4,533.1 344,527.9
		345.4,523.9 347.6,519.5 349.3,519.7 349.7,517 351.1,515.5 350.8,514.4 354.7,514.4 355.6,511.8 359.8,509.2 364.4,504.9
		365.9,503.1 368.3,501.7 371.1,500.3 372,498.9 374.2,497 375.3,494.7 378.3,490.5 378.4,488.6 381.1,484.1 383.4,482.5 384.4,480
		388.6,477.4 389.5,475.6 388.7,474.2 390.2,471.3 391.9,470.2 392.9,468.3z"/>

    <path name="高雄市" id="kaohsiung_city" class="county" data-x="390" data-y="525" d="M475.3,444.2 474.7,443.3 472.2,441.9 471.2,439.7 469.1,440.6 468.5,439.3 466.9,438.3 464.1,437.9
		464.3,435.3 466.9,432.8 468.5,432.3 467.1,430.8 468.6,429.7 470,429.7 472.4,428.3 473.1,424.1 471.7,423.6 470.1,421.4
		469.1,419 470.3,417.9 468.7,415.6 466.8,415.6 462.3,414 459.7,413.5 457.7,414 456.2,415 454,415.4 451.4,416.8 448.1,416.4
		446.6,417.5 444.7,418 442.6,421.4 439.3,422.6 437.7,423.8 435.6,424 434.4,424.8 434.5,426.2 433.5,427.2 431.4,431.6
		430.5,431.9 430,434.4 428.4,435.3 425.7,435.8 424.8,435.3 424.9,436 421.4,439.1 420.2,441.4 414.8,441 414.9,442.9 412.6,445.8
		409.3,447.5 408.9,449.3 405,448.6 403.3,450.1 403.1,452.8 401,453.8 396.2,452.7 395.3,451.8 393.2,451.5 392,452.4 390.3,451.4
		389.9,453.1 390.1,455.7 389.1,457.2 389.9,459.8 391.3,461.4 391.8,463.9 391.5,465.9 392.3,466.8 392.9,468.3 391.9,470.2
		390.2,471.3 388.7,474.2 389.5,475.6 388.6,477.4 384.4,480 383.4,482.5 381.1,484.1 378.4,488.6 378.3,490.5 375.3,494.7
		374.2,497 372,498.9 371.1,500.3 368.3,501.7 365.9,503.1 364.4,504.9 359.8,509.2 355.6,511.8 354.7,514.4 350.8,514.4
		351.1,515.5 349.7,517 349.3,519.7 347.6,519.5 345.4,523.9 344,527.9 341.4,533.1 339.7,534 337.6,531.9 334.1,532.2 331.8,534.3
		331.9,534.9 331.2,535.4 330.5,535.7 330.5,536.2 329.1,536.4 329.5,537.1 327.3,539.2 323.3,539 322.2,537 319.9,537 313,535.6
		311.6,535.7 311.7,537.5 309.9,537.4 307.9,536.3 307.5,537.7 306.2,537.8 304.1,535.9 302,535.5 301.7,533.3 300.8,533.1
		299.2,534.6 296.6,533.4 295.3,533.3 293.2,532.1 292.2,532.3 289.4,534.1 293.3,544.2 292.7,545.1 293.9,547.4 294.7,548.8
		296.2,553.9 292.8,554.9 293.4,556.6 294.4,557.1 297.5,556.6 298.2,557.5 299.8,561.3 301.8,565.4 301.8,566.3 304.1,570.3
		305.6,573.6 307,575.7 308.2,580.1 307.3,581.1 308.4,582.1 308.7,585.1 307.2,586.4 305.9,587.9 305.6,590.3 306.9,593.5
		308.5,596.1 307,597.1 309,599 308.6,600.9 311.7,604.6 313.3,606 317,610.4 316.1,612.6 317.1,613 318,613.1 321.1,616.8
		320,617.6 318,615.2 317.2,615.8 315.7,614 314.9,614.5 319,619.6 323.5,616.6 323.6,618.2 327.3,620.8 329,622.7 338.3,628.4
		343.1,629.5 343,627.1 343.4,623.2 342.8,618.8 343.8,615.4 344.6,613.2 345.7,612.6 346.6,610.4 347,609.4 348,604.2 347.7,601.5
		345.9,599.7 345.1,597.5 345.4,595.1 345.6,590.1 345.7,587.3 347,583.1 348.2,582 349.8,575.8 349.9,573.1 349.4,566.5
		349.5,564.3 350.2,561.3 351.6,558.1 352.3,554.9 352.6,551.6 354.3,550 360.5,551.4 361.5,552.1 364.4,551.1 367.2,551.9 371,552
		373.7,549.9 375.4,547.8 379.8,544.5 382.1,542.4 385.3,541.9 390.5,539.9 391.1,541.1 391.4,541.6 393.3,541 393.9,545.3
		397.3,545.9 397.9,544.6 400.3,544.2 403.3,540.8 407.7,540.8 409,541.8 411.5,542.4 412.9,544.1 414.2,544.3 415.7,546
		416.1,547.6 418.3,550 419.5,550.6 422.3,549.1 422.4,547 424.1,547.2 426.8,545.8 428.8,544 431,543.9 432.7,545.2 434,547
		435.3,545.8 437.7,548.9 438.8,545.7 437.1,545 437.8,542.6 436.7,541.3 432.9,540.7 432.1,538.8 430,535.5 431,534 429.6,530.5
		428.6,529.1 428.5,526.9 429.2,525.4 428.3,523.5 430.3,521.5 430.2,520.5 430.8,519.4 432.7,518.6 432.9,517 435,515.1 434.8,514
		436.9,513.4 437.5,508.2 440.9,507.7 441.3,505.6 438.8,502.2 440,500.4 440.6,498.3 441.6,497.2 443,493.5 443.1,491.3
		442.1,489.3 442.7,485.8 442.3,484 440.3,482.6 442.6,481 444.3,480.5 445,477.2 448,474.9 446.7,472.8 446.8,470.9 447.9,469.9
		447.9,465.9 448.7,464 451.2,462.4 453.5,462.4 457.9,458 460.5,454.7 462.3,454.3 463.9,454.8 469.2,452.1 472,451.9 472.9,451.1
		473.7,449.7 476.8,448.6 477.2,444.9z"/>

    <path name="屏東縣" id="pingtung_county" class="county" data-x="380" data-y="625" d="M445,710.2 445.8,707.8 443.7,706.7 442.7,704.1 442.7,701.8 444.7,699.5 443.7,698.1 443.6,695.5
		444.1,693.3 443.3,688.4 444.6,686.7 444.1,683.9 445.1,681 444.6,677.4 441.9,678.7 438.1,681 436.5,678.6 434.8,678 432.3,678
		430.8,677.2 429.4,675.2 427.2,673.8 423.8,675.1 423,672.8 423.5,670.9 425.3,670.8 425,669.3 422.4,669 421.4,667.2
		419.1,666.3 419.2,664 421.1,663.9 423.2,661.9 422.5,660.8 422.2,658.2 420.6,656.1 418.6,655.4 417,655.7 415.9,653.2
		413.6,652.8 411.7,651.4 412.6,650.5 413.6,646.1 414.7,644.8 414.8,643.3 416.3,642.4 417.5,642.9 419.6,642.3 421.6,640.5
		421,638.9 418.5,634.8 418.8,633.8 416.4,633 414.8,631.7 413.4,631.7 414.1,628.7 413.4,627.2 414.7,626.7 414.9,625.3
		416.2,623.8 415.4,622.1 413.9,620.5 413.1,615.5 410.8,611.7 410.9,610.2 411.3,608 412.7,607.5 412.9,605.9 412.2,603.8
		414.1,600.9 413.7,598.7 415.5,594.9 416.9,593.5 420.9,587.7 420.9,585.7 422,584.2 421,581.3 423.4,582.1 427.9,581.7
		428.1,580.7 431.8,580.4 432.5,578.3 434.3,576.1 438.7,576.3 441.8,576.1 444.2,571.6 444.4,567.7 444,565.4 445.4,564.8
		446.1,563 445.7,560.9 446.1,558.2 443.5,555.7 440.4,555.4 438.6,554.6 437.8,552.9 437.7,548.9 435.3,545.8 434,547
		432.7,545.2 431,543.9 428.8,544 426.8,545.8 424.1,547.2 422.4,547 422.3,549.1 419.5,550.6 418.3,550 416.1,547.6 415.7,546
		414.2,544.3 412.9,544.1 411.5,542.4 409,541.8 407.7,540.8 403.3,540.8 400.3,544.2 397.9,544.6 397.3,545.9 393.9,545.3
		393.3,541 391.4,541.6 391.1,541.1 390.5,539.9 385.3,541.9 382.1,542.4 379.8,544.5 375.4,547.8 373.7,549.9 371,552
		367.2,551.9 364.4,551.1 361.5,552.1 360.5,551.4 354.3,550 352.6,551.6 352.3,554.9 351.6,558.1 350.2,561.3 349.5,564.3
		349.4,566.5 349.9,573.1 349.8,575.8 348.2,582 347,583.1 345.7,587.3 345.6,590.1 345.4,595.1 345.1,597.5 345.9,599.7
		347.7,601.5 348,604.2 347,609.4 346.6,610.4 345.7,612.6 344.6,613.2 343.8,615.4 342.8,618.8 343.4,623.2 343,627.1
		343.1,629.5 345.4,630.4 345.6,631.5 350.4,635.9 355.2,638.6 361.6,641.8 368,644.9 370,646 377.8,650.9 380.6,653.9 382,657.1
		385.2,659.7 388.6,663.1 390,665.5 390,667.8 392.1,672.7 391.5,675.4 393.3,677.3 393.3,678.2 396.3,680.3 396.4,681.6
		399.1,685.2 398.9,687.8 400.4,691.4 401.5,696.1 402.2,698.2 401.9,699.8 402.9,702.5 404.3,704.1 405.6,707.6 406,710.4
		402.2,712.7 403.6,715.3 403.3,718.4 401.8,718.6 401.2,720.1 401.6,721.2 399.6,723.4 399.2,725.3 400.7,728.4 401,729.9
		403.6,731.9 403.8,733.2 405.3,734.7 405.6,736.7 404.8,738.3 404.5,743.1 404.6,744.7 406.5,744.9 406.4,746.2 408.5,748.1
		410.9,747.8 410.9,746.4 412.4,744.7 412.8,741.4 413.8,740.1 416.3,739.3 417.4,740.7 420.2,742.6 423.1,742.9 426.7,744.8
		428.6,744.6 430.9,747 431.9,748.6 433.8,749.1 433.7,750.7 434.8,752.8 436.4,753 438.3,751.4 437.2,749.9 437.3,748.2
		434.4,744.7 433,741.3 432.8,739.1 433.4,737.3 433.3,734.9 433.8,733.5 437.1,732.5 440.1,730.7 440.7,728.2 442.6,726.9
		443,724.9 445.6,723.1 444,719.8 443.8,715.8 444.1,711.4z"/>

	<path name="宜蘭縣" id="yilan_county" class="county" data-x="605" data-y="195" d="M673.8,87 669.8,87 667.5,88.5 663.8,88.8 662.5,89.8 660.9,89.9 659.7,91.5 654.2,92.9 652,92.2
		649,92.9 647.7,94.3 647.4,96.8 648.8,97.8 650,100.8 645.7,104.9 642.8,105.3 641.1,105.1 637.4,106 636.7,107.3 634.9,108.2
		635.6,111.2 633.5,113.1 632.2,113.3 630.4,115.3 627.5,115.9 626.4,116.2 624.3,115.4 622,116.7 620.4,118.5 618.9,119.1
		614.9,121.8 615,123.7 612.3,124.4 610.6,123.8 608.8,125.1 606,124.5 602.3,125.5 601.2,127.1 600.9,128.7 597.9,128.8
		597,129.8 594.1,130.2 595.3,133.4 593.8,135.9 593.7,137.8 594.8,140.6 594.6,142.7 593,144.7 591.1,144.3 590.9,145.8
		586.9,146.7 585.1,147.8 583.7,147.8 582.5,149.1 582.3,151.5 580.6,151.7 579.4,152.6 577,152.4 572.8,154.8 570,154.6
		567.8,155 565.6,154.8 563.1,158.7 563.9,159.5 562.5,161.3 560.3,165.3 558.8,169.2 556.8,170.3 555.6,169.8 553.5,172.3
		555.4,176.3 553.7,177.2 553.1,178.8 551.7,180.1 552.6,181.7 552.1,183.5 553.2,185.8 551.1,186.9 549.3,189.8 547.1,189.9
		546.5,192.5 545.3,193 543.8,195 540.5,196 539.1,199.1 536.5,201.4 535.1,204.7 537.4,206.3 537.2,210.8 536.7,212.1 537.4,214
		538.3,214.1 539.6,215.8 540.5,215.2 543.2,215.1 545.3,216 545.8,218.1 547.2,220.5 548.8,220.8 550.5,219.2 553,218
		554.5,218.5 557.1,218.1 559.1,217.3 560.8,217.3 562.1,219.4 563.2,219.5 564,221.2 566.8,223.2 571.2,224.7 573.9,226.7
		575.3,225.9 576.5,226.3 579.1,225.9 580.3,226.7 583,227.4 583.9,227 586.4,228.4 587.2,230.3 589.3,231.3 590.6,230.9
		597.3,232.4 595.1,229.1 595.7,228 597.5,227.6 599.2,228 600.2,225.4 601.6,227.5 602.9,227.6 603.4,224.7 601.7,224.5
		600.5,222.8 600.5,220.8 602.5,220 606.3,224.5 606.2,222.6 611.7,225.8 612.2,227.1 613.9,226.4 615.1,227.9 616.7,227.8
		620.4,229.4 623.3,229.6 626.9,230.2 630,232.1 633.2,231.9 632.6,228.1 633.1,225.7 636,219.5 636.5,214.2 636.9,211.8
		638.9,206.9 641.2,204.7 643.5,201.6 643.2,200.4 646,199 647.7,197.3 650.7,196.3 649.7,195.3 649.7,193.2 647.5,192.5
		647,190.7 647.8,187.7 653.6,186.1 654.7,184.6 654.8,182.3 654.1,180.7 653.8,175.7 655.9,172.5 654.6,171.3 657.1,170.6
		656.2,169.3 653,168.4 651.5,166.9 650,164.5 648.5,160.9 647,154.8 646.7,146.7 647.1,145.2 645.9,144.7 644.4,141.9
		643.3,138.7 642.8,135 642.7,132.2 643.2,125.9 644,121.3 645.4,116.6 648,111.1 649.9,108.1 651.8,107.1 653,105.5 654.3,104.9
		657.2,101.9 657.7,98.4 659.2,97.2 661.2,97 661.5,95.9 663.8,94.8 665.8,91.2 668.1,90 674.5,88z"/>

    <path name="花蓮縣" id="hualien_county" class="county" data-x="555" data-y="375" d="M630,232.1 626.9,230.2 623.3,229.6 620.4,229.4 616.7,227.8 615.1,227.9 613.9,226.4 612.2,227.1
		611.7,225.8 606.2,222.6 606.3,224.5 602.5,220 600.5,220.8 600.5,222.8 601.7,224.5 603.4,224.7 602.9,227.6 601.6,227.5
		600.2,225.4 599.2,228 597.5,227.6 595.7,228 595.1,229.1 597.3,232.4 590.6,230.9 589.3,231.3 587.2,230.3 586.4,228.4 583.9,227
		583,227.4 580.3,226.7 579.1,225.9 576.5,226.3 575.3,225.9 573.9,226.7 571.2,224.7 566.8,223.2 564,221.2 561.8,222.5 560.5,225
		559.8,228.8 560.3,230.3 557.8,233.4 554,233.4 553.4,236 548.6,239.6 549.8,242.9 549.6,244.8 545.7,245.5 544.4,247.2
		542.6,247.2 542.5,249.4 540.6,251.6 541.6,254 542,256.6 539,256.9 536.9,257.5 534.8,259.8 532.6,261 528.8,261.5 528.7,265.9
		528,267 527.3,270.5 530.4,271.2 532.1,272.9 534.8,274.7 537.5,275.1 536.8,277.8 535.4,279.2 536.3,281.5 533.1,284 531.1,286.5
		530.4,286 527.7,288.1 528.3,291.2 526.3,294.5 524.8,298.4 522.8,301.4 523.1,303.8 523.8,305.1 525.6,305.1 526.6,307.1
		526,308.3 525.3,313.1 525.9,315.6 526.2,319.1 524.1,319.7 523.9,323.2 524.6,324.8 521.2,328.3 520.4,331.6 518.4,334
		517.3,338.9 517.3,340.2 515.8,341 515.3,343.2 515.9,346 511,349.1 512.7,352 514.5,353 516.8,353.5 516,354.8 516.2,357.9
		517,358.1 518.7,362.4 518.3,367.2 516.9,369.5 517.6,370.7 517.5,372.7 516.7,373.4 516.3,375.6 515.1,377.5 515.2,380.1
		513.6,382.7 512.7,385.8 511.2,386.8 508.7,385.8 507.6,387 505.5,388 505.3,389.5 503.3,388.8 499.8,388.8 499.5,391.5
		501.3,392.8 500.6,394.6 499.3,394.6 498.6,396 499.3,397.6 498.4,400.1 498.4,401.6 496.6,403 496,404.2 492.7,402.9 489.1,403.4
		487.8,402.8 486.6,404.2 484.6,404.3 481.6,403.5 481,406.1 480.2,407.6 478.2,408.8 477.3,411.2 475.2,412.9 479.5,415.7 478,418
		474.1,419.2 472.5,420.5 470.1,421.4 471.7,423.6 473.1,424.1 472.4,428.3 470,429.7 468.6,429.7 467.1,430.8 468.5,432.3
		466.9,432.8 464.3,435.3 464.1,437.9 466.9,438.3 468.5,439.3 469.1,440.6 471.2,439.7 472.2,441.9 474.7,443.3 475.3,444.2
		477.2,444.9 476.8,448.6 473.7,449.7 472.9,451.1 475.2,450.4 476.1,451.3 479,452.6 480.2,455 480.3,457.9 481.9,461.6 484.8,465
		486.7,464.8 488.1,466 490.3,467 493.6,466.7 494.7,467 496.5,470.3 496.9,471.7 500.1,472.2 501.4,470.8 504.6,469.9 507.6,471.3
		509.5,474.5 509.7,477.4 512.5,481.8 512.4,484.1 516.5,485.2 518.1,487.4 520.5,486.8 522.3,488 524.3,490.5 523.7,492.7
		526.7,493.4 528,492.2 532.1,491.2 534.7,491.5 536.1,489.9 536.3,488.5 535.7,485.5 536.6,483 535.1,479.7 536,478.6 536.5,476.7
		538.8,476.8 539.4,474.5 541.4,470.1 541.3,468.4 543.4,467.1 542.6,465.3 543.6,464 544.6,462 544.1,460.7 548.1,457.1
		547.9,454.1 548.1,450.4 550.2,448.2 550.7,446.1 552.3,445.8 553.5,442.7 554.9,440.6 557.6,438.7 557.7,437.6 554.2,436.4
		552.8,432.2 555.1,429.2 557.1,425.3 557,424.8 560,421.9 561.7,421.6 563,419.5 566.2,420.5 568.6,420.2 570,422.3 573.2,422.1
		574.3,416.9 575.2,414.2 576.1,413.5 577.3,410.2 575.8,408.5 575.1,403.7 575.5,401.1 576.8,396.4 579.1,393 580.8,386.7
		581,380.2 582,376.1 583.7,373.8 584.3,369.7 585.8,364.7 585,363.7 584.9,361.8 585.6,359.5 586.7,358.7 588.9,354.4 589.9,352.2
		589.6,346.6 589.9,343.3 590.8,340.5 592.3,338.6 592.8,336.5 594.5,333.2 595.5,330.6 597.1,321.4 596.9,319 598.4,314.1
		597.9,311.8 597.3,309.9 597.9,307.7 599.2,305.5 600.6,304.5 601.9,306.3 603.4,304.1 603.3,303.1 604.7,300 606.1,297.8
		605.2,295.6 603,293.9 601.3,291.5 599.4,286.5 599.3,282.8 599.9,280.5 603.1,276.6 606.8,274.4 608,273 609.5,270.8 609.6,266.3
		608.4,262.7 608.7,260.1 609.4,258 611.3,255.4 614.3,253.9 618.6,251.2 621,247.5 623.4,246.8 626.8,243.5 627.7,239.5
		628.8,237.7 632.3,234.6 633.2,231.9z"/>

    <path name="臺東縣" id="taitung_county" class="county" data-x="480" data-y="540" d="M567.4,440.7 568.4,439.2 568.7,436.7 568.4,435.1 568.9,431.9 570.5,429.6 570.9,426.7 572.1,423.8
		573.2,422.1 570,422.3 568.6,420.2 566.2,420.5 563,419.5 561.7,421.6 560,421.9 557,424.8 557.1,425.3 555.1,429.2 552.8,432.2
		554.2,436.4 557.7,437.6 557.6,438.7 554.9,440.6 553.5,442.7 552.3,445.8 550.7,446.1 550.2,448.2 548.1,450.4 547.9,454.1
		548.1,457.1 544.1,460.7 544.6,462 543.6,464 542.6,465.3 543.4,467.1 541.3,468.4 541.4,470.1 539.4,474.5 538.8,476.8
		536.5,476.7 536,478.6 535.1,479.7 536.6,483 535.7,485.5 536.3,488.5 536.1,489.9 534.7,491.5 532.1,491.2 528,492.2
		526.7,493.4 523.7,492.7 524.3,490.5 522.3,488 520.5,486.8 518.1,487.4 516.5,485.2 512.4,484.1 512.5,481.8 509.7,477.4
		509.5,474.5 507.6,471.3 504.6,469.9 501.4,470.8 500.1,472.2 496.9,471.7 496.5,470.3 494.7,467 493.6,466.7 490.3,467
		488.1,466 486.7,464.8 484.8,465 481.9,461.6 480.3,457.9 480.2,455 479,452.6 476.1,451.3 475.2,450.4 472.9,451.1 472,451.9
		469.2,452.1 463.9,454.8 462.3,454.3 460.5,454.7 457.9,458 453.5,462.4 451.2,462.4 448.7,464 447.9,465.9 447.9,469.9
		446.8,470.9 446.7,472.8 448,474.9 445,477.2 444.3,480.5 442.6,481 440.3,482.6 442.3,484 442.7,485.8 442.1,489.3 443.1,491.3
		443,493.5 441.6,497.2 440.6,498.3 440,500.4 438.8,502.2 441.3,505.6 440.9,507.7 437.5,508.2 436.9,513.4 434.8,514 435,515.1
		432.9,517 432.7,518.6 430.8,519.4 430.2,520.5 430.3,521.5 428.3,523.5 429.2,525.4 428.5,526.9 428.6,529.1 429.6,530.5
		431,534 430,535.5 432.1,538.8 432.9,540.7 436.7,541.3 437.8,542.6 437.1,545 438.8,545.7 437.7,548.9 437.8,552.9 438.6,554.6
		440.4,555.4 443.5,555.7 446.1,558.2 445.7,560.9 446.1,563 445.4,564.8 444,565.4 444.4,567.7 444.2,571.6 441.8,576.1
		438.7,576.3 434.3,576.1 432.5,578.3 431.8,580.4 428.1,580.7 427.9,581.7 423.4,582.1 421,581.3 422,584.2 420.9,585.7
		420.9,587.7 416.9,593.5 415.5,594.9 413.7,598.7 414.1,600.9 412.2,603.8 412.9,605.9 412.7,607.5 411.3,608 410.9,610.2
		410.8,611.7 413.1,615.5 413.9,620.5 415.4,622.1 416.2,623.8 414.9,625.3 414.7,626.7 413.4,627.2 414.1,628.7 413.4,631.7
		414.8,631.7 416.4,633 418.8,633.8 418.5,634.8 421,638.9 421.6,640.5 419.6,642.3 417.5,642.9 416.3,642.4 414.8,643.3
		414.7,644.8 413.6,646.1 412.6,650.5 411.7,651.4 413.6,652.8 415.9,653.2 417,655.7 418.6,655.4 420.6,656.1 422.2,658.2
		422.5,660.8 423.2,661.9 421.1,663.9 419.2,664 419.1,666.3 421.4,667.2 422.4,669 425,669.3 425.3,670.8 423.5,670.9 423,672.8
		423.8,675.1 427.2,673.8 429.4,675.2 430.8,677.2 432.3,678 434.8,678 436.5,678.6 438.1,681 441.9,678.7 444.6,677.4
		443.6,670.7 443.6,667.7 443.6,664.2 444.3,658.4 445.9,654.6 447.2,653.1 448.5,647.6 450.1,644.7 450.8,642.4 452.1,639.9
		455.4,632 458.1,621.8 460,617 461.9,611.2 463.8,607.8 466.4,606 468.8,603.6 469.6,597.1 471.6,590.7 473.1,588.2 475.3,586.1
		478.7,584.9 480.9,583.3 484.3,580.1 488.6,578.6 494.4,575.6 496.3,573.5 498,572.3 500.6,569.5 502.5,568.7 504.9,566.8
		505.8,561.9 507.2,560.2 508.8,560.2 510.1,559 509.3,554.9 508.5,554.1 507.2,551.9 508.1,547.4 511.8,544.6 515.3,543.7
		516.7,544.4 517.6,543.6 518.4,541.1 520,540.7 523.5,534.9 524.6,534.3 526.8,529.9 527.4,526.9 529.5,524.7 530.3,524.9
		533.7,520.6 536.4,516.4 536,514.7 537.4,513.1 537.5,511.9 539.2,511 539.7,507.8 541.3,503.7 541.9,500.8 543.5,499.2
		543.2,498 544.1,496 545.6,494.4 549.2,494.6 550.2,492.5 551.8,490.7 554.3,490.2 555.2,488.4 553.7,487.7 552.8,486
		553.1,483.7 554.5,480.2 553.6,476.6 552.7,475.7 552.1,472.9 552.4,470.3 555,469.1 557.2,466.4 556,464.5 557.3,461.3
		557.3,459.6 558.7,457.8 558.7,456.4 559.9,453.1 561.1,451.8 562.9,448.6 564.5,447.6 566.2,447.8 567.4,443.6z"/>


    <path name="金門縣" id="kinmen_county" class="county" data-x="48" data-y="210" d="M70.9,208.7 70.4,205.1 69.1,203.6 69.1,202.6 67.8,200.7 68,199.6 64.8,198.6 63.4,195.9 59.5,195.2
		56.4,197.5 55.4,199.3 53.7,200 54.1,203.1 51.1,206.3 49.8,207.4 46.5,207.9 42.4,206.3 39.5,203.2 37.2,202.7 34.1,203.9
		32.7,207.2 34.6,209.9 34.7,211.2 36.3,214.3 36.1,215.5 33.7,219.2 31.5,219.6 30.9,220.5 33.5,222.2 35,224.2 36.7,224.2
		37.9,225.5 40.7,226.3 43,225.2 43.7,222.9 45.2,220.9 46,219.3 48.6,217.6 51.3,216.4 54.1,215.7 57.7,215.8 59.4,217.1
		63,218.1 64.8,221.5 67.5,219.9 69.2,219.5 71.4,216.5 70.2,215.2 71.4,214.2 72.7,214.4 73.5,211.8 71.9,210.9z"/>

<!--
    <path name="澎湖縣" id="penghu_county" class="county" data-x="185" data-y="388" d="M207.1,396.4 210.5,395.5 208.9,394 207.6,391.7 207.6,389.1 205.7,386.1 204.9,387.8 201.1,385.1
		197.7,387.9 196.5,390.2 195.5,388.7 196.3,386.8 195,385.2 193,384.6 193.1,381.5 191.6,381.4 190.1,378.1 191.1,375.2
		193,374.6 190.9,372 191.1,371.1 189.4,370 187.6,370.2 186.5,369.2 183.9,370.6 180.7,371.1 179.8,372.4 180.4,373.5
		178.5,375.9 177.5,377.2 175.5,377.5 173,376.3 174,374.9 172.7,374.2 171.3,375.6 170.4,378.1 169.3,379.2 169.7,380.4
		168.6,381.6 170.7,383 169.3,385.5 167.2,385.9 166.6,386.9 168.8,387.6 169.8,388.9 169.4,390.6 167.4,392.3 165.2,391.2
		164.1,392.6 161.9,393.8 163.8,394.6 164.4,393.6 166.6,393.9 168.3,392.8 172.1,393.6 171.4,390.3 172.3,389.1 171.5,387.5
		173,387.1 173.8,385.5 173.2,383.9 173.3,381.4 172.6,380.1 173.5,379.2 175.2,379.4 177.4,378.6 178.5,375.9 180.4,373.6
		182.3,374.7 183.3,373 185.5,372.4 186.5,374.6 189,377 189.4,378.5 188.3,379.6 191.5,381.6 189.8,382.6 192.9,384.6
		190.9,385.8 192,387.3 191.6,389.1 190,389.6 190.3,390.9 187.2,391.6 186.6,389.5 185.3,388.9 182.6,389 183,391.6 181.9,392.1
		181.6,394.1 183.1,394 184.8,392.8 185.9,393.8 185.1,395.6 182.3,396.4 184.5,397.5 187.9,396.4 190.3,396.7 190.4,398.8
		184.7,403.2 184.3,400.6 182.7,401 179.7,398.7 179.1,396.3 177.7,398.2 179.1,398.9 181.1,402.4 183.3,401.9 184.7,403.6
		184.2,405.6 186.9,405.5 188,404.7 192,405.5 191.3,402 193.1,399.5 197.8,396.4 200.3,394.4 206.7,394.6z"/>
-->

</svg>
