<?xml version="1.0" encoding="utf-8"?>
<!-- Generator: Adobe Illustrator 23.0.3, SVG Export Plug-In . SVG Version: 6.00 Build 0)  -->
<svg version="1.1" xmlns="http://www.w3.org/2000/svg" xmlns:xlink="http://www.w3.org/1999/xlink" x="0px" y="0px"
	 viewBox="0 0 530 600" style="enable-background:new 0 0 530 600;" xml:space="preserve">
<style type="text/css">
	.town{fill:#9CCA97;stroke:#FFFFFF;stroke-width:1.5;stroke-linecap:round;stroke-linejoin:round;}
</style>


    <path name="蘆竹區" class="town"  d="M390.51320133732224,65.13307046549744L379.324828446639,65.03195616286393L364.57651872710267,70.28980100147601L359.0840447625669,73.82862148977802L357.2532201077411,77.87287592534267L350.7436213349865,81.20929604538833L343.31861023479723,81.10819359795278L337.62271130862064,85.35443222170943L330.7062626125844,82.82692506801322L332.84222470989334,90.51040240684597L337.52099882779294,101.22611274575684L331.2148250166938,102.1358986691157L322.4675516658026,108.70639572864093L318.90761483693495,102.33807249969686L311.9911661408696,104.35979442568714L313.1100034299452,107.89773614035221L306.1935547338944,113.35609591994944L306.60040465719067,118.20778910441004L314.12712823817856,135.69267797868451L305.990129772239,148.72909497040746L298.9719685953314,149.84067021213195L294.1914819966041,152.7711436732934L288.3938705896144,135.08630290162546L281.78255933603214,126.39463267171232L280.35858460447344,122.65502393716815L269.57706163708644,106.28040267182223L268.35651186721225,97.78908926909207L271.61131125358224,94.5541650009618L270.7976114070043,90.61149792433935L282.5962591826101,82.52362107958834L279.74830971953634,76.2551884648783L285.3424961648707,74.23305230118422L296.73429401719477,64.02080903412207L299.98909340359387,56.33584705806061L304.9730049639911,56.032484454281075L307.10896706130006,48.65045407088837L299.78566844193847,44.200818963763595L296.53086905553937,36.81815093933983L292.4623698225769,33.68292494641355L288.2921581087867,23.36651330416862L286.8681833772571,11.734332308453304L282.5962591826101,4.5522311695349345L294.1914819966041,-3.637978807091713e-12L303.5490302324615,4.147594533525989L318.0939149903279,6.47423884584714L317.38192762457766,15.173514855378016L325.1120761672355,18.91605647810502L326.4343384179374,23.467658368477714L333.24907463317504,21.44474288161655L337.82613627027604,30.0419272502877L345.4545723321062,30.244207440238824L353.3881458364194,34.289748482828145L359.99945709000167,34.69429601314914L365.49193105452287,39.548773159513075L374.13749192458636,44.70646659604972L381.66421550560335,44.70646659604972L384.51216496866255,47.43693155731671L378.2059911575634,56.84144990523055L386.7498395468283,55.62799993788212L386.9532645084837,61.998492398230155Z">
    </path>

    <path name="龜山區" class="town"  d="M365.0850811312266,161.76427568667714L360.8131569365796,159.23817441523352L356.5412327419617,152.67009390419844L359.0840447625669,143.373197345245L364.27138128461957,140.54358226022669L367.01761826688016,133.46928961219237L367.7296056326595,126.39463267171232L365.39021857369517,119.72390806872863L360.10116957082937,117.60133683155073L361.62685678318667,110.93018503369603L359.99945709000167,108.90855988133262L351.7607461432344,108.09990148405268L344.74258496632683,102.94459220454155L338.63983611686854,104.05653803530367L337.52099882779294,101.22611274575684L332.84222470989334,90.51040240684597L330.7062626125844,82.82692506801322L337.62271130862064,85.35443222170943L343.31861023479723,81.10819359795278L350.7436213349865,81.20929604538833L357.2532201077411,77.87287592534267L359.0840447625669,73.82862148977802L364.57651872710267,70.28980100147601L379.324828446639,65.03195616286393L390.51320133732224,65.13307046549744L403.1255489595642,65.43641292581378L412.6865221570479,64.42526878074568L422.2474953545461,67.5597913523925L424.79030737513676,74.53637462686675L433.63929320688476,80.70378306294151L432.2153184753406,84.0401343145204L436.38553018914536,88.0840876367547L428.85880660812836,89.80273169848078L430.58791878214106,93.44214216880209L435.0632679384289,95.0596269452326L434.55470553430496,104.5619649803375L440.9625918262318,111.73882675878122L448.5910278880765,117.19703382830266L433.7410056876979,120.12820363219726L427.43483187656966,124.575376276116L435.7752553041937,130.53840451370343L439.5386170947022,139.02769306834307L433.02901832191856,141.35204965835874L430.48620630131336,145.59642546971372L424.1800324902142,142.36262721747335L420.11153325723717,143.1710839141706L418.1789961215836,156.30783879957016L408.3128854816023,160.75384074674366L404.65123617190693,164.18928925143337L399.46389964986884,161.1580156136697L389.5977890099166,163.07783000908967L387.9703893167025,159.74339838201195L382.88476527547755,161.96636178370318L378.2059911575634,158.1266751539697L375.76489161777135,160.55175286778467Z">
    </path>

    <path name="龍潭區" class="town"  d="M283.5116715100303,265.69840789457885L285.240783684043,268.62641739254104L283.10482158673403,277.8139060102112L283.00310910590633,284.77983597176353L279.95173468116263,294.7738173912767L286.8681833772571,294.67287169936026L293.1743571883562,289.52454358321484L298.768543633676,295.9851599402755L302.1250555009028,307.2905115802496L290.5298326869233,325.25604276740705L287.7835957046773,334.5406831984801L283.20653406756173,338.5772889879918L278.1209100263368,346.0446992076286L277.20549769890204,352.0990603099999L272.3232986193616,356.63965733050645L262.050338056084,358.75855163400774L255.43902680250176,362.3908664149276L250.86196516540076,347.96194221574115L243.33524158439832,351.1909230301644L241.30099196790252,354.0162194433615L230.01090659640613,341.90740009408546L216.483146646744,333.83426507391414L206.92217344924575,330.90763726358637L209.56669795067864,326.0634275514203L192.58071365300566,318.6958666171995L187.90193953507696,314.65868040658097L185.76597743776802,310.2176393763948L188.4105019392009,306.0792681491512L189.73276418991736,299.11441236139945L194.4115383078315,295.3794899935965L191.1567389214615,277.7129479197174L208.8547105849284,281.24643715976345L208.04101073832135,270.8476245392012L212.82149733707774,261.76064199038956L218.00883385911584,261.3567622103037L220.04308347561164,262.4674287608832L227.26466961414553,258.0247089128716L228.89206930731598,263.67905480166155L237.84276761986257,261.65967215622004L241.30099196790252,257.4188723945372L246.59004097078287,259.94317366976975L253.3030647051928,257.115953137647L259.60923851629195,259.2363739682878L268.45822434803995,264.8906702035274L280.46029708530114,263.5780863712789Z">
    </path>

    <path name="復興區" class="town"  d="M277.30721017972974,351.99815646206844L286.563045934774,349.8791586608895L290.7332576485642,354.7225345352308L294.4966194390581,356.034253000591L299.98909340359387,354.2180241231108L299.0736810761591,346.4483315221696L314.22884071900626,343.11832971365584L320.9418644534162,343.62288059379716L330.09598772763275,350.8882092792737L334.8764743263746,352.7044818526774L339.7586734059296,350.5854948662818L351.557321181579,357.951357628539L357.15150762691337,352.60357844613463L354.812120567949,340.19189832301345L367.9330305943149,332.1186631788987L365.69535601614916,324.95327225798974L368.44159299840976,315.667988013327L371.28954246149806,311.6307133648588L375.66317913697276,313.2456373754285L382.2744903905259,310.5204421616181L390.51320133732224,312.64004308268704L393.46286328123824,317.6865811183052L408.719735404884,322.732934930802L413.9070719269657,323.2375601814929L420.62009566134657,319.30143437962397L421.1286580654705,316.17263905307846L429.8759314163908,312.64004308268704L434.2495680918364,315.1633351311939L439.03005469057825,313.14470517756126L445.13280354003655,316.37449895311875L452.15096471691504,322.1273821987925L450.3201400620892,326.0634275514203L454.0835018525977,333.6324306613751L460.0845382212283,333.32967849031047L461.9153628760687,339.38459601108116L466.69584947481053,345.13652219493815L473.2054482475651,348.16375572398465L474.7311354599515,357.1441589161186L475.03627290242,367.03201884771624L482.868133925891,372.883684983939L486.42807075475866,377.5244857755242L482.9698464067187,382.0642491495055L477.3756599613844,385.0906754202806L472.4934608818148,391.95033024742224L468.1198242063401,393.1608223223775L462.01707535688183,398.7087757300578L459.9828257404006,402.94524517373065L465.17016226245323,413.73757048389234L465.37358722410863,419.99068309280847L468.7300990912918,426.2435138360779L472.0866109585186,436.7315004307893L470.9677736694284,439.8575738752588L478.3927847696468,447.6220323725138L482.05443407931307,456.8984784576969L485.817795869807,460.1249231666552L487.3434830821643,467.18250971698217L500.76953055099875,472.223423483294L504.12604241819645,475.9535819473349L511.5510535183712,477.7682174330912L510.330503748497,484.9257152863538L513.1784532115853,496.41726503849713L517.3486649253755,502.56586221947873L506.87227940045705,504.6825295104318L496.59931883720856,503.372215461226L490.90341991103196,513.0480898443711L486.52978323558636,515.5677383781767L484.80067106154456,523.4287486373069L488.3606078904122,527.9637449363217L481.85100911765767,537.0332944327783L481.85100911765767,543.2808627320082L477.3756599613844,545.7999642254726L471.5780485543801,557.6895084721655L472.3917484009871,560.9136168200457L467.3061243597622,568.7720685118074L464.4581748966739,578.1411820610992L461.2033755103039,581.4655549272393L454.79548921834794,583.7824952214651L449.20130277299904,580.8611293905342L439.33519213306135,594.1578862867973L427.53654435739736,599.9999999999964L423.6714700860757,599.9999999999964L419.09440844898927,596.6760687382157L408.719735404884,591.8411182956697L407.90603555830603,588.4162603653422L403.1255489595642,586.3008649369258L399.05704972658714,581.4655549272393L400.0741745348205,578.342661460123L397.0228001101059,573.7085616374352L394.58170057031384,565.5481419207172L399.05704972658714,559.3015719687464L401.3964367855224,549.5281508431035L393.56457576206594,547.3114032569283L391.63203862639784,539.1494376603514L388.0721017975302,536.3279062117253L387.86867683588935,526.0489867401739L389.4960765290889,519.0951696896518L388.88580164413725,510.93154981884436L375.2563292136765,506.39599849166916L374.44262936706946,496.7196614189743L364.6782312079158,483.11117323772487L353.3881458364194,475.6511403962104L348.3025217951945,475.9535819473349L338.84326107852394,481.29660750384573L334.36791192225064,478.37309066351736L337.21586138530984,471.2152553597007L338.2329861935723,464.05705133368974L341.3860730991437,458.8141890425213L342.6066228690179,451.15118815237656L340.67408573336434,446.5128506014116L333.04564967151964,436.32813098691986L336.5038740195596,425.84011390519663L340.26723581005353,421.7051969853819L340.06381084839813,417.3684443848033L342.7083353498456,412.02295809942007L338.74154859769624,408.7953949233124L335.1816117688286,402.44091036206373L328.67201299607405,401.93657371569134L327.45146322619985,398.00268490177405L319.0093273177481,394.87566799704655L311.9911661408696,394.2704307699496L305.68499232977047,386.50298505679893L299.0736810761591,382.5686581190057L294.4966194390581,381.9633671352203L292.8692197458731,378.43245035251675L295.6154567281483,372.5810186613526L292.1572323801229,369.75610108627734L286.3596209731186,368.54540448495754L282.0876967785007,365.51861666986224L281.68084685520444,357.85045804689435Z">
    </path>

    <path name="觀音區" class="town"  d="M195.32695063526626,108.70639572864093L194.2081133461761,122.25073581264587L198.07318761752686,131.7511921382502L198.17490009835456,136.19798849860308L201.6331244463945,148.0217242272047L201.5314119655668,151.65959212808957L196.95435032845126,158.1266751539697L194.00468838453526,167.32153515399477L191.7670138063986,168.1298450977556L184.34200270623842,177.42506807761674L180.37521595408907,177.62713116763553L178.23925385675102,172.97960501282432L169.49198050585983,169.84748795638006L162.67724429063674,158.83399390528575L160.94813211662404,147.31434984362204L163.69436909888464,145.29326011587182L160.64299467414094,140.34146466748643L155.8625080753991,144.2827041067212L149.14948434096004,145.69748043902655L142.6398855682346,152.87219336810085L139.38508618185006,149.53751421950074L137.0456991228857,141.95839708560015L131.75665012000536,142.36262721747335L127.78986336784146,137.20860396329954L122.50081436499022,134.58098829310984L119.14430249777797,137.30966510094004L110.60045410852763,130.33627220199196L106.02339247144118,131.0437339917953L103.88743037413224,134.58098829310984L99.00523129454814,134.9852401286189L93.1059074067307,125.78821655061984L83.23979676674935,120.83571800410209L79.4764349762554,122.04859130406476L76.01821062821546,118.71316395245594L65.94867502659326,119.21853694056335L58.42195144560537,128.92133769181964L50.69180290294753,129.9320066862674L56.591126790779526,121.94751893819193L59.84592617713497,115.27657830518365L69.91546177875716,103.75328097489182L75.20451078163751,99.50761176785818L83.54493420923245,89.60053939699719L90.56309538611094,85.25333282982683L103.88743037413224,82.52362107958834L118.63574009366857,75.14301726522899L122.09396444169397,67.86312844264467L126.06075119382876,67.96424065687461L132.4686374857556,62.70630661500036L157.5916202494118,52.392080821606214L178.74781626088952,47.639186056072504L188.00365201590466,44.605337218919885L188.20707697756006,51.88646155623792L184.95227759119007,54.21229472779305L189.73276418991736,59.57167304570248L188.3087894583732,64.22303905661465L188.3087894583732,72.9186478024858L194.81838823112776,80.50157734824461L195.42866311609396,86.16322467437203L200.71771211895975,89.09505733954938L191.3601638831169,104.8652202539597Z">
    </path>

    <path name="大溪區" class="town"  d="M350.9470462966274,207.125159368803L358.4737698776444,215.1047042668324L357.2532201077411,218.74079927182902L369.6621427683276,216.9227637650729L369.6621427683276,222.47779692320546L359.89774460917397,223.99276709911283L352.7778709514678,231.7693518404485L361.52514430235897,239.8484557171796L357.04979514608567,246.21041683050134L356.4395202611631,250.1486266309039L367.6278931518318,257.51984533232826L377.59571627264086,258.3276261743631L376.8837289068615,264.0829277843586L380.24024077404465,266.00130830979106L381.1556531014794,272.3620634621402L386.13956466187665,273.9774466650888L390.106351414026,280.0349653223566L384.91901489197335,284.9817417443446L381.46079054394795,285.68840962346803L382.88476527547755,292.4520478124505L389.29265156744805,296.5908272313318L390.41148885649454,302.2435939037423L388.0721017975302,306.98770171780416L382.2744903905259,305.67551797943815L372.4083797505882,307.99706534554934L371.28954246149806,311.6307133648588L368.44159299840976,315.667988013327L365.69535601614916,324.95327225798974L367.9330305943149,332.1186631788987L354.812120567949,340.19189832301345L357.15150762691337,352.60357844613463L351.557321181579,357.951357628539L339.7586734059296,350.5854948662818L334.8764743263746,352.7044818526774L330.09598772763275,350.8882092792737L320.9418644534162,343.62288059379716L314.22884071900626,343.11832971365584L299.0736810761591,346.4483315221696L299.98909340359387,354.2180241231108L294.4966194390581,356.034253000591L290.7332576485642,354.7225345352308L286.563045934774,349.8791586608895L277.30721017972974,351.99815646206844L277.20549769890204,352.0990603099999L278.1209100263368,346.0446992076286L283.20653406756173,338.5772889879918L287.7835957046773,334.5406831984801L290.5298326869233,325.25604276740705L302.1250555009028,307.2905115802496L298.768543633676,295.9851599402755L293.1743571883562,289.52454358321484L286.8681833772571,294.67287169936026L279.95173468116263,294.7738173912767L283.00310910590633,284.77983597176353L283.10482158673403,277.8139060102112L285.240783684043,268.62641739254104L283.5116715100303,265.69840789457885L283.7150964716857,258.7315148217822L286.563045934774,252.37013126921374L287.37674578138103,240.15141290262181L290.9366826102196,232.17331827997987L296.73429401719477,230.860423022772L302.53190542419907,225.70971316440045L307.10896706130006,218.84180054099852L309.85520404356066,218.63979792859755L312.60144102582126,227.62862757089533L318.29733995196875,227.42663783893295L327.55317570702755,222.78079229085415L333.24907463317504,223.0837869922434L336.9107239428704,220.45781077866195Z">
    </path>

    <path name="八德區" class="town"  d="M292.5640823034046,216.114740283454L297.7514188254572,208.0342447785115L301.20964317349717,194.49835256367805L298.768543633676,182.57758418293452L300.090805884407,178.9405340197045L298.05655626792577,168.33192184146174L298.05655626792577,168.23088350670878L298.66683115286287,168.0288066145622L299.48053099945537,167.725690719657L299.78566844193847,166.81633902684916L304.36273007903947,163.07783000908967L309.2449291586381,159.74339838201195L314.22884071900626,154.3879298772663L316.6699402587983,156.30783879957016L315.75452793139266,165.80594120551905L319.0093273177481,171.76718106376939L321.9589892616641,171.16096508199553L323.17953903155285,177.32403642130885L326.12920097546885,180.86010025204087L330.29941268928815,181.26421604664574L328.46858803441864,174.4951199228417L331.41824997833464,164.49241294037347L335.4867492113117,161.86531877229936L340.16552332922583,168.53399828830516L349.9299214883795,170.35267295048834L349.9299214883795,170.2516361001144L352.4727335089847,170.95889249441097L352.5744459898124,170.95889249441097L359.2874697242223,170.35267295048834L363.15254399554397,168.73607443824585L364.47480624627497,182.37552836246323L363.4576814380125,195.50853972217374L365.79706849697686,200.3573349086837L360.3045945324702,201.36747908022153L350.9470462966274,207.125159368803L336.9107239428704,220.45781077866195L333.24907463317504,223.0837869922434L327.55317570702755,222.78079229085415L318.29733995196875,227.42663783893295L312.60144102582126,227.62862757089533L309.85520404356066,218.63979792859755L307.10896706130006,218.84180054099852L302.53190542419907,225.70971316440045L296.73429401719477,230.860423022772L290.9366826102196,232.17331827997987L287.37674578138103,240.15141290262181L290.02127028281393,231.5673681767039L286.05448353065003,225.81070932561124L289.81784532115853,222.27579964129473Z">
    </path>

    <path name="中壢區" class="town"  d="M281.78255933603214,126.39463267171232L288.3938705896144,135.08630290162546L294.1914819966041,152.7711436732934L295.9205941706168,158.02562932106957L296.83600649802247,163.4819980456341L298.15826874875347,165.70490101512405L298.4634061912366,167.62465193957178L298.05655626792577,168.0288066145622L298.05655626792577,168.23088350670878L298.05655626792577,168.23088350670878L298.05655626792577,168.33192184146174L300.090805884407,178.9405340197045L298.768543633676,182.57758418293452L301.20964317349717,194.49835256367805L297.7514188254572,208.0342447785115L292.5640823034046,216.114740283454L277.51063514138514,221.87180418913704L262.86403790269105,214.70068778669156L259.60923851629195,208.74130705981952L257.3715639381553,196.92278929134773L255.23560184084636,192.27591472147833L249.13285299140261,190.8616174126837L246.99689089407912,187.42683487633622L241.91126685285417,186.01248774093256L228.28179442236433,186.11351301831746L223.39959534279478,182.1734722453366L224.62014511269808,172.07028805284426L217.5002714549919,174.39408611490944L212.1095099712984,172.47442966598828L210.278685316458,183.99196661922542L198.7851749833062,185.6083858897473L194.4115383078315,180.96112931193056L184.34200270623842,177.42506807761674L191.7670138063986,168.1298450977556L194.00468838453526,167.32153515399477L196.95435032845126,158.1266751539697L201.5314119655668,151.65959212808957L201.6331244463945,148.0217242272047L198.17490009835456,136.19798849860308L198.07318761752686,131.7511921382502L194.2081133461761,122.25073581264587L195.32695063526626,108.70639572864093L198.7851749833062,106.78582142784217L209.36327298902324,107.69557049894502L213.3300597411726,113.15393831666006L218.51739626322524,109.00964184605255L220.75507084136188,116.79272963454787L227.26466961414553,118.0056386444121L227.26466961414553,112.34530492683552L234.99481815677427,108.90855988133262L239.77530475553067,114.26580145103435L242.62325421861897,120.0271298529151L243.03010414191522,133.16609750163116L247.30202833656222,133.16609750163116L245.47120368170727,122.45288002366578L248.8277155489195,116.28734771829477L252.48936485858576,116.3884242503409L256.65957657237595,123.26145389242083L257.5749888998107,132.45864664150577L260.6263633245544,134.78311435952855L266.627399693185,130.13413959282843L272.42501110017474,127.80959320916372Z">
    </path>

    <path name="桃園區" class="town"  d="M337.52099882779294,101.22611274575684L338.63983611686854,104.05653803530367L344.74258496632683,102.94459220454155L351.7607461432344,108.09990148405268L359.99945709000167,108.90855988133262L361.62685678318667,110.93018503369603L360.10116957082937,117.60133683155073L365.39021857369517,119.72390806872863L367.7296056326595,126.39463267171232L367.01761826688016,133.46928961219237L364.27138128461957,140.54358226022669L359.0840447625669,143.373197345245L356.5412327419617,152.67009390419844L360.8131569365796,159.23817441523352L365.0850811312266,161.76427568667714L359.2874697242223,170.35267295048834L352.5744459898124,170.95889249441097L352.4727335089847,170.95889249441097L349.9299214883795,170.2516361001144L349.9299214883795,170.35267295048834L340.16552332922583,168.53399828830516L335.4867492113117,161.86531877229936L331.41824997833464,164.49241294037347L328.46858803441864,174.4951199228417L330.29941268928815,181.26421604664574L326.12920097546885,180.86010025204087L323.17953903155285,177.32403642130885L321.9589892616641,171.16096508199553L319.0093273177481,171.76718106376939L315.75452793139266,165.80594120551905L316.6699402587983,156.30783879957016L314.22884071900626,154.3879298772663L309.2449291586381,159.74339838201195L304.36273007903947,163.07783000908967L299.78566844193847,166.81633902684916L299.48053099945537,167.725690719657L298.66683115286287,168.0288066145622L298.05655626792577,168.23088350670878L298.05655626792577,168.23088350670878L298.05655626792577,168.0288066145622L298.4634061912366,167.62465193957178L298.15826874875347,165.70490101512405L296.83600649802247,163.4819980456341L295.9205941706168,158.02562932106957L294.1914819966041,152.7711436732934L298.9719685953314,149.84067021213195L305.990129772239,148.72909497040746L314.12712823817856,135.69267797868451L306.60040465719067,118.20778910441004L306.1935547338944,113.35609591994944L313.1100034299452,107.89773614035221L311.9911661408696,104.35979442568714L318.90761483693495,102.33807249969686L322.4675516658026,108.70639572864093L331.2148250166938,102.1358986691157Z">
    </path>

    <path name="大園區" class="town"  d="M282.5962591826101,4.5522311695349345L286.8681833772571,11.734332308453304L288.2921581087867,23.36651330416862L292.4623698225769,33.68292494641355L296.53086905553937,36.81815093933983L299.78566844193847,44.200818963763595L307.10896706130006,48.65045407088837L304.9730049639911,56.032484454281075L299.98909340359387,56.33584705806061L296.73429401719477,64.02080903412207L285.3424961648707,74.23305230118422L279.74830971953634,76.2551884648783L282.5962591826101,82.52362107958834L270.7976114070043,90.61149792433935L271.61131125358224,94.5541650009618L268.35651186721225,97.78908926909207L269.57706163708644,106.28040267182223L280.35858460447344,122.65502393716815L281.78255933603214,126.39463267171232L272.42501110017474,127.80959320916372L266.627399693185,130.13413959282843L260.6263633245544,134.78311435952855L257.5749888998107,132.45864664150577L256.65957657237595,123.26145389242083L252.48936485858576,116.3884242503409L248.8277155489195,116.28734771829477L245.47120368170727,122.45288002366578L247.30202833656222,133.16609750163116L243.03010414191522,133.16609750163116L242.62325421861897,120.0271298529151L239.77530475553067,114.26580145103435L234.99481815677427,108.90855988133262L227.26466961414553,112.34530492683552L227.26466961414553,118.0056386444121L220.75507084136188,116.79272963454787L218.51739626322524,109.00964184605255L213.3300597411726,113.15393831666006L209.36327298902324,107.69557049894502L198.7851749833062,106.78582142784217L195.32695063526626,108.70639572864093L191.3601638831169,104.8652202539597L200.71771211895975,89.09505733954938L195.42866311609396,86.16322467437203L194.81838823112776,80.50157734824461L188.3087894583732,72.9186478024858L188.3087894583732,64.22303905661465L189.73276418991736,59.57167304570248L184.95227759119007,54.21229472779305L188.20707697756006,51.88646155623792L188.00365201590466,44.605337218919885L197.6663376942306,40.56010090617565L207.93929825749365,33.48064983664153L217.7036964166473,31.053325211461924L226.45096976753848,24.47910490092181L230.82460644298408,23.771093112944072L245.77634112417581,15.274665974713571L263.372600306815,9.407777450058347L273.7472733508912,8.901999419675121Z">
    </path>

    <path name="新屋區" class="town"  d="M89.9528205011593,208.9433241877923L87.104871038071,209.54937379385228L76.01821062821546,201.4684930898111L70.01717425958486,198.6400728093322L61.47332587031997,200.66037893824614L57.20140167570207,204.80191383646888L50.48837794129213,204.90292532676176L37.57089287661074,198.74108881983193L34.01095604774309,205.10494808507428L29.942456814766047,204.39786713440844L20.6866210597218,209.85239759687465L18.042096558318008,206.41808879040764L12.65133507460996,205.40798166685272L17.126684230883257,196.11464845932278L24.34827036941715,188.03297919943725L29.230469448986696,184.59812607055574L34.41780597103934,174.4951199228417L40.927404743793886,166.2101012247913L42.046242032854934,162.471575727046L41.43596714793239,150.75013417857917L47.33529103573528,143.4742539493236L50.69180290294753,129.9320066862674L58.42195144560537,128.92133769181964L65.94867502659326,119.21853694056335L76.01821062821546,118.71316395245594L79.4764349762554,122.04859130406476L83.23979676674935,120.83571800410209L93.1059074067307,125.78821655061984L99.00523129454814,134.9852401286189L103.88743037413224,134.58098829310984L106.02339247144118,131.0437339917953L110.60045410852763,130.33627220199196L119.14430249777797,137.30966510094004L122.50081436499022,134.58098829310984L127.78986336784146,137.20860396329954L131.75665012000536,142.36262721747335L137.0456991228857,141.95839708560015L139.38508618185006,149.53751421950074L142.6398855682346,152.87219336810085L149.14948434096004,145.69748043902655L155.8625080753991,144.2827041067212L160.64299467414094,140.34146466748643L163.69436909888464,145.29326011587182L160.94813211662404,147.31434984362204L162.67724429063674,158.83399390528575L169.49198050585983,169.84748795638006L178.23925385675102,172.97960501282432L180.37521595408907,177.62713116763553L184.34200270623842,177.42506807761674L194.4115383078315,180.96112931193056L198.7851749833062,185.6083858897473L191.2584514022892,187.02273717789285L184.54542766787927,192.17489396701785L180.57864091571537,198.03397518996644L172.33992996894813,193.79121714211942L160.0327197891893,190.35650770934444L159.1173074617691,194.90242831658907L149.45462178344314,193.8922367104533L144.77584766551445,199.65022957927067L139.9953610668017,199.1451521206909L131.85836260083306,189.54832832857937L126.26417615548417,189.44730557236107L121.78882699921087,187.12376171374126L117.72032776624837,190.15446330902705L117.00834040046902,194.59937161307244L108.56620449201728,195.10446574828165L103.48058045082144,200.0542902121524L102.36174316174584,206.41808879040764L95.34358198485279,206.21606795837943Z">
    </path>

    <path name="楊梅區" class="town"  d="M198.7851749833062,185.6083858897473L210.278685316458,183.99196661922542L212.31293493293924,196.01363052177112L218.11054633991444,203.89280708977458L222.1790455729206,217.93278645280589L220.6533583605633,223.58877668075365L222.07733309209289,227.12365268593203L222.2807580537483,239.04056663479423L220.3482209180802,244.29176105800434L218.00883385911584,261.3567622103037L212.82149733707774,261.76064199038956L208.04101073832135,270.8476245392012L208.8547105849284,281.24643715976345L191.1567389214615,277.7129479197174L188.6139269008563,271.6553273659956L178.44267881840642,271.55436477112016L171.62794260316878,269.8379893586498L167.05088096608233,274.2803289110416L160.74470715496864,271.35243935985636L156.47278296032164,272.46302546620063L145.8946849546046,269.53509736424894L141.01248587503505,265.7993747735309L143.35187293398485,260.14511577654775L141.4193357983313,252.57208446218283L133.58747477484576,255.5003725339484L123.41622669239587,257.51984533232826L115.48265318811173,251.36036086915192L108.97305441532808,251.56231554053738L99.81893114115519,246.51336003858887L93.1059074067307,245.80649151784382L90.76652034776635,242.07012628549637L89.8511080203316,234.59709205615582L92.49563252176449,227.32564286193156L89.34254561620764,213.18561543304168L89.9528205011593,208.9433241877923L95.34358198485279,206.21606795837943L102.36174316174584,206.41808879040764L103.48058045082144,200.0542902121524L108.56620449201728,195.10446574828165L117.00834040046902,194.59937161307244L117.72032776624837,190.15446330902705L121.78882699921087,187.12376171374126L126.26417615548417,189.44730557236107L131.85836260083306,189.54832832857937L139.9953610668017,199.1451521206909L144.77584766551445,199.65022957927067L149.45462178344314,193.8922367104533L159.1173074617691,194.90242831658907L160.0327197891893,190.35650770934444L172.33992996894813,193.79121714211942L180.57864091571537,198.03397518996644L184.54542766787927,192.17489396701785L191.2584514022892,187.02273717789285Z">
    </path>

    <path name="平鎮區" class="town"  d="M292.5640823034046,216.114740283454L289.81784532115853,222.27579964129473L286.05448353065003,225.81070932561124L290.02127028281393,231.5673681767039L287.37674578138103,240.15141290262181L286.563045934774,252.37013126921374L283.7150964716857,258.7315148217822L283.5116715100303,265.69840789457885L280.46029708530114,263.5780863712789L268.45822434803995,264.8906702035274L259.60923851629195,259.2363739682878L253.3030647051928,257.115953137647L246.59004097078287,259.94317366976975L241.30099196790252,257.4188723945372L237.84276761986257,261.65967215622004L228.89206930731598,263.67905480166155L227.26466961414553,258.0247089128716L220.04308347561164,262.4674287608832L218.00883385911584,261.3567622103037L220.3482209180802,244.29176105800434L222.2807580537483,239.04056663479423L222.07733309209289,227.12365268593203L220.6533583605633,223.58877668075365L222.1790455729206,217.93278645280589L218.11054633991444,203.89280708977458L212.31293493293924,196.01363052177112L210.278685316458,183.99196661922542L212.1095099712984,172.47442966598828L217.5002714549919,174.39408611490944L224.62014511269808,172.07028805284426L223.39959534279478,182.1734722453366L228.28179442236433,186.11351301831746L241.91126685285417,186.01248774093256L246.99689089407912,187.42683487633622L249.13285299140261,190.8616174126837L255.23560184084636,192.27591472147833L257.3715639381553,196.92278929134773L259.60923851629195,208.74130705981952L262.86403790269105,214.70068778669156L277.51063514138514,221.87180418913704Z">
    </path>
</svg>
