<?xml version="1.0" encoding="utf-8"?>
<!-- Generator: Adobe Illustrator 23.0.3, SVG Export Plug-In . SVG Version: 6.00 Build 0)  -->
<svg version="1.1" xmlns="http://www.w3.org/2000/svg" xmlns:xlink="http://www.w3.org/1999/xlink" x="0px" y="0px"
	 viewBox="0 0 650 600" style="enable-background:new 0 0 650 600;" xml:space="preserve" data-w="650" data-h="600">
<style type="text/css">
.town{fill:#9CCA97;stroke:#FFFFFF;stroke-width:1.5;stroke-linecap:round;stroke-linejoin:round;}
</style>

    <path name="永和區" class="town"  d="M226.57288370656897,291.91369897056575L221.8668510826974,289.90125395059295L215.3849570913444,291.410590942869L212.36599276658671,289.31428433506517L211.92202742472,283.7798553884786L207.1272017324809,283.69599840169394L197.71513648476684,278.91605131584583L194.16341374977492,278.74833034602125L199.57979092064488,276.0647622930737L207.3047878692305,267.09113675085246L216.0953016383428,268.8523696247066L221.6892649459478,276.14862472183086L227.2832282535528,279.754652576652L228.70391734754958,284.11528273765L226.8392629116861,286.37939232425197Z"/>

    <path name="新店區" class="town"  d="M294.1444087397831,322.0124160271007L295.29871862866275,326.37148093380165L292.81251271415385,329.3053761149531L292.19096123553754,337.855168293092L287.1297563381813,338.190441622075L284.28837815017323,340.6211447365895L285.97544644930167,345.8176522421454L284.1995850818057,347.32627281014356L281.09182768869505,356.96422645645725L283.3116543980577,366.51759458421293L283.5780336031894,371.8805499659138L277.80648415882024,369.28289888854124L267.3289020906086,374.8133131124596L262.8004556034721,374.64572861004126L257.91683684286545,379.92452614859576L265.464247654716,384.4490218943429L267.7728674324753,387.63282238360625L265.64183379148017,396.59727322271647L266.88493674872734,402.29395388253397L265.1090753812168,407.06890108269L261.29097344112233,405.30973245589485L255.34183786000358,405.1421912209262L254.9866655865044,395.84328019836903L250.63580523614655,392.2408026539815L242.99960135589936,391.90568287813585L239.80305089442118,394.4190580218019L233.9427083816845,389.1409084455663L229.7694341680617,391.4030014315358L227.54960745869903,395.08928236153224L222.39960949294618,398.8592234227035L217.33840459558996,399.1943234729006L215.0297848178452,401.45622395251485L207.03840866411338,404.72333709432496L198.69186023688235,411.5923573209766L194.78496522839123,413.5189620408528L189.2797949891683,419.3823484379973L182.35393565593404,419.801150625608L179.95652280979266,416.1156404623616L181.37721190380398,411.8436553695501L174.89531791243644,405.2259618681128L178.0030753055471,396.4297196331863L182.2651425875374,392.2408026539815L187.68151975840738,382.773302945232L192.83151772414567,379.8407375551469L190.16772567290172,375.3998569972282L192.47634545064648,366.9365842504303L186.79358907467395,360.0649658242146L186.083244527661,356.54520137118743L171.96514665606082,353.86340557327276L164.41773584421026,349.3377368748261L162.4642883399647,339.1124383592869L166.19359721170622,337.77134981183553L174.45135257056972,330.4789137314583L174.9841109808185,326.79061328999524L181.8211772456707,322.09624571960376L184.12979702341545,322.5992226217859L197.27117114290013,315.8926873121054L201.08927308299462,316.3956907077991L205.61771957013116,310.52718405987616L211.3004759461037,305.32911959962075L212.36599276658671,300.80158610386934L218.4039214161021,298.7054467992202L219.8246105100843,302.9815313785257L226.8392629116861,296.60927015778725L231.36770939882263,298.37006104574175L237.4056380483089,298.7892930882663L238.29356873204233,303.0653746212338L246.10735874901002,302.47847066803297L245.39701420202618,305.99985049186944L252.5004596720246,321.34177633922445L262.71166253510455,321.9285862749166L267.5952812957112,319.4974975083569L273.7220030135941,322.76688111191106L280.38148314169666,321.76092659161077L283.5780336031894,325.36555719492753Z"/>

    <path name="土城區" class="town"  d="M170.81083676719572,294.2615079876632L175.96083473294857,293.17145962753057L181.4660049721715,297.69928667124987L176.93755848506407,303.65227564797897L183.59703861316666,313.2099662474102L180.8444534935552,319.4974975083569L181.8211772456707,322.09624571960376L174.9841109808185,326.79061328999524L174.45135257056972,330.4789137314583L166.19359721170622,337.77134981183553L162.4642883399647,339.1124383592869L157.40308344260848,340.7887775865165L149.32291422049457,347.15864925585265L144.4392954598734,349.1701161799974L142.21946875052527,344.7280809375261L127.74619860542589,347.32627281014356L124.81602734905027,343.88994231253673L120.55396006705996,343.3870562773518L119.13327097304864,333.3288849987184L121.70826995593961,329.4730250614921L121.2643046140729,323.437512686065L123.7505105285527,320.0004855080442L132.541024297665,317.3178580198801L137.6022291950212,314.29982905119687L141.95308954537904,310.94637280613097L142.75222716074495,306.0836915846776L147.369466716249,298.87313931754034L155.1832567332458,294.5969054514244L162.10911606648006,295.7707890459169L167.34790710057132,298.034674336428Z"/>

    <path name="蘆洲區" class="town"  d="M191.67720783528057,196.7879912126773L185.99445145927893,202.1586911796294L185.4616930490447,206.60611586119558L178.0030753055471,217.4302748886039L174.1849733654526,217.17856160460724L173.03066347657295,214.8292115742188L167.61428630571754,213.06716817127744L162.02032299809798,209.6269118982018L159.97808242547035,203.33349900042595L163.085839818581,193.85078558253736L166.99273482708668,188.73147981662623L170.1892852885794,190.15819406515948L180.48928122004145,190.40996536470266L187.23755441654066,192.92764861064643Z"/>

    <path name="五股區" class="town"  d="M163.79618436559394,179.58331093037123L162.37549527159717,184.95479942183738L166.99273482708668,188.73147981662623L163.085839818581,193.85078558253736L159.97808242547035,203.33349900042595L162.02032299809798,209.6269118982018L167.61428630571754,213.06716817127744L173.03066347657295,214.8292115742188L174.1849733654526,217.17856160460724L173.11945654494048,221.87712052210918L169.47894074156648,224.8136242976143L165.83842493822158,221.7093180865886L154.29532604948326,227.58226055188425L149.32291422049457,222.96783050332306L140.2660212462506,224.22632942161363L138.75653908390086,221.37371249560965L129.3444738361577,221.45761398334798L119.75482245169405,214.91311774267524L115.67034130645334,213.6545189134158L118.68930563121103,208.70389914272528L119.66602938332653,202.74609656152097L123.21775211831846,197.7110977810844L114.1608591440745,184.53516075221341L112.91775618684187,177.82073759874766L116.73585812693636,170.1826132966271L121.0867184773233,171.609553479655L125.52637189606321,169.76292169817316L126.14792337467952,163.63525303310234L135.20481634890893,163.29948109787074L143.81774398125708,165.64986442043664L148.5237766051141,169.51110601704568L152.07549934010603,169.5950446376046L158.55739333147358,173.20434840171947Z"/>

    <path name="坪林區" class="town"  d="M439.7650408744521,302.0592517668265L443.7607289512962,304.7422269337476L453.17279419903934,303.4007469948665L454.5046902246686,309.1857700421533L452.6400357888051,315.9765213606079L451.2193466947938,325.9523470864333L453.8831387460523,331.48479381435754L448.9995199854311,340.4535116482657L450.5090021477954,344.39282620256563L447.7564170281694,347.8291420432688L446.4245210025547,354.28244018638L444.0271081564424,356.12617479731125L440.6529715582001,364.4226239354066L446.4245210025547,369.8694702587527L447.2236586179206,376.070189296639L452.0184843101597,380.00831468258184L453.97193181440525,383.443593378699L450.95296748967667,389.47603606629855L443.7607289512962,393.4137143819644L444.204694293192,403.1316778733344L446.6021071393043,406.5662841470803L439.9426270112017,412.17871860325977L438.16676564370573,415.19424497030195L432.9279746095999,415.8643514948744L425.8245291396015,424.65914760845044L414.3702233192598,426.33427271147593L409.30901842188905,428.6794079986721L406.1124679603963,425.9992495889237L401.22884919977514,425.49671312569626L391.9055770204286,431.19200135490973L385.246096892326,438.89695491281236L379.38575437958934,441.7443107817671L374.76851482409984,437.97573687468685L368.0202416276152,437.22200769075425L362.3374852516281,431.19200135490973L357.3650734226394,430.85699199094597L346.7986982860457,432.9507849510119L337.9193914485659,430.2707233210858L335.6995647391741,431.35950568112094L332.23663507256424,426.25051701981283L324.8668103974487,420.8062698239373L328.063360858956,413.9377849989396L332.3254281409463,411.5085911860697L333.1245657563122,405.30973245589485L329.30646381621773,402.2101811568027L332.05904893581464,392.65970103674044L328.5073262008227,387.800388452637L332.23663507256424,384.61659248126307L338.3633567904326,381.93543455217514L339.7840458844439,378.16495319747264L343.4245616877888,375.2322733275796L340.938355773309,368.9477139393639L349.6400764740247,364.17122495784497L352.3038685252832,361.15439544218316L346.9762844227953,354.4500536147534L346.532319080914,345.9852777029773L344.31249237155134,345.2309612524441L343.06938941430417,335.59204837569996L346.0883537390473,333.2450632982218L355.9443843286426,331.06567815667586L359.94007240550127,327.4612219584196L362.248692183246,323.1021973762472L371.7495504993567,321.34177633922445L380.0073058582202,313.6291454426355L386.48919984955864,315.47351617448294L388.6202334905538,311.53323454360725L390.7512671315635,312.3716033801611L402.29436602028727,310.10799382111145L406.6452263706451,306.92209922859183L409.9305699005199,307.1736203573819L411.1736728577671,311.3655600599668L414.63660252437694,312.28776676513735L418.1883252593834,309.4372863346616L423.69349549860635,309.6888020898514L428.13314891734626,306.16753261779377L434.97021518222755,306.92209922859183Z"/>

    <path name="平溪區" class="town"  d="M474.3055444722413,247.21253548721506L470.13227025863307,248.80630265375657L467.0245128655224,252.24541075196248L465.42623763477604,257.36194622991025L459.2995159169077,258.6200765590256L453.52796647253854,264.74278519827567L450.2426229426783,265.4976176001546L446.15814179743757,270.6135761095611L446.15814179743757,274.2197737272545L442.42883292569604,277.4904154470278L437.72280030182446,285.12155904561223L428.577114259213,291.1590361222152L432.4840092677332,296.9446609296283L437.3676280283398,298.53775404197586L439.7650408744521,302.0592517668265L434.97021518222755,306.92209922859183L428.13314891734626,306.16753261779377L423.69349549860635,309.6888020898514L418.1883252593834,309.4372863346616L414.63660252437694,312.28776676513735L411.1736728577671,311.3655600599668L409.9305699005199,307.1736203573819L406.6452263706451,306.92209922859183L402.29436602028727,310.10799382111145L390.7512671315635,312.3716033801611L388.6202334905538,311.53323454360725L387.9098889435845,307.50898102650535L394.21419679817336,303.1492178042354L396.1676443024189,297.95082750975416L390.9288532683131,288.14033631767234L392.1719562255457,280.2578104626009L384.71333848207723,281.7672712037165L383.20385631971294,278.2451660012521L378.14265142234217,273.0456750197227L373.79179107198433,265.3298774853538L376.8107553967129,261.3040429042121L375.65644550783327,256.9425664596929L380.0960989265732,254.92952272422917L383.20385631971294,255.6005411352089L386.57799291795527,252.83256548636564L388.35385428545123,246.37370197565906L391.1064394050627,242.34721771426484L395.9900581656693,240.25003581247074L399.009022490427,236.4750139886346L405.7572956869117,235.21664640550807L412.68315502014593,236.8105763994463L417.03401537050377,232.95155076248193L424.31504697725177,230.60251651929502L426.97883902848116,232.95155076248193L433.6383191565983,226.7432867666539L438.5219379172049,220.45079217048988L446.2469348658051,218.10150767208324L449.6210714640474,215.24874181636187L455.1262417032849,213.4027975269346L457.79003375452885,214.8292115742188L462.9400317202817,222.80002962770595L465.51503070314357,231.94482755758509L468.35640889112256,230.35083149057755L471.99692469449656,231.94482755758509L471.2865801475127,236.3911232360806Z"/>

    <path name="烏來區" class="town"  d="M265.1090753812168,407.06890108269L273.27803767169826,409.41441852009666L279.8487247314624,415.6130619932701L287.21854940654885,418.3772171354649L294.1444087397831,418.54473961259646L299.73837204740266,420.8062698239373L304.35561160289217,418.3772171354649L311.81422934636066,420.1361913076944L316.69784810698184,423.98909092379836L319.45043322660786,420.638750550861L324.8668103974487,420.8062698239373L332.23663507256424,426.25051701981283L335.6995647391741,431.35950568112094L337.9193914485659,430.2707233210858L346.7986982860457,432.9507849510119L357.3650734226394,430.85699199094597L362.3374852516281,431.19200135490973L368.0202416276152,437.22200769075425L374.76851482409984,437.97573687468685L379.38575437958934,441.7443107817671L374.41334255060065,446.01521614172816L370.0624822002428,446.6014068104232L369.79610299511114,449.78353407476243L363.22541593539063,453.80294099468665L363.66938127725734,462.2599974906443L356.21076353375975,462.09253688631725L352.7478338671499,465.3579759659078L345.8219745339302,462.67864796557114L338.3633567904326,468.2046955647602L333.30215189307637,468.2046955647602L327.3530163119576,465.60915985876636L325.8435341495933,469.62802971239216L319.80560550010705,468.62332503032303L312.1694016198744,470.2978281003561L307.640955132767,477.33048258727285L308.0849204746337,483.6930008707459L303.8228531926434,485.9532869950017L294.4995810132823,484.78129216204616L291.03665134667244,489.21806865321196L279.1383801844495,490.8085707409846L281.35820689381217,499.09557858431435L284.0219989450561,505.1221297348093L282.5125167826918,510.89728734222444L277.89527722718776,516.3373961281468L276.56338120157307,521.6935673324115L277.45131188532105,524.8736796503326L282.7788959877944,528.3047579442027L278.8720009793178,531.4846932117543L282.06855144081055,537.007536330646L281.0030346203275,546.4627171120774L284.0219989450561,547.9687826369773L277.80648415882024,551.9848640669225L275.4090713126934,554.9968360915991L266.88493674872734,553.57452547922L266.4409714068461,560.1839423662896L264.3099377658509,564.7015602360334L260.4918358257273,561.1042117785801L257.91683684286545,563.3630246857065L254.27632103949145,562.1917937196522L249.92546068913362,563.948635842833L242.99960135589936,568.968041761982L237.05046577479516,568.8843867324904L232.16684701417398,574.6564457508139L233.05477769792196,579.5917523782337L231.36770939882263,585.3632919928823L224.61943620233797,586.1997237884862L220.0021966468339,590.3817946034069L212.18840662983712,590.3817946034069L209.96857992047444,589.2108295855578L204.19703047611983,593.560070165473L198.60306716851483,595.4000856592065L193.00910386090982,599.9999999999964L187.94789896353905,598.0764210739762L181.2884188354219,597.825517184152L178.44704064744292,594.0618953929625L175.96083473294857,584.2759218706524L177.0263515534316,578.0860873107704L170.7220436988282,576.5804031901534L167.79187244246714,573.401674136283L156.24877355372882,569.0516967326184L155.0056705964962,563.0283884439741L151.80912013498892,560.2676035162876L148.61256967348163,552.3195313941287L142.30826181887824,545.7096771920005L143.2849855710083,542.948489989576L140.35481431464723,534.0787878703632L137.51343612666824,528.6394919821687L137.3358499899041,523.3673212755311L132.89619657116418,514.1613825369604L134.67205793866015,510.39511088215295L139.822055904413,505.7080281012786L143.64015784450748,504.7036291301665L147.81343205813027,498.76076120953076L152.60825775035482,496.1658945079762L155.53842900673044,492.31534251331686L156.3375666221109,487.5438328794262L161.39877151945257,485.28357708062686L160.59963390408666,479.92576155251663L166.6375625535875,473.4793187352734L172.49790506632417,471.9723075043221L176.04962780130154,466.19525353744757L185.55048611741222,460.50164933608175L182.35393565593404,456.39873544680813L187.85910589515697,446.0989578435765L194.51858602325956,444.0053975232877L196.91599886938639,432.69953175247065L193.0978969292628,427.5068461672636L193.0978969292628,424.7429044270939L189.2797949891683,419.3823484379973L194.78496522839123,413.5189620408528L198.69186023688235,411.5923573209766L207.03840866411338,404.72333709432496L215.0297848178452,401.45622395251485L217.33840459558996,399.1943234729006L222.39960949294618,398.8592234227035L227.54960745869903,395.08928236153224L229.7694341680617,391.4030014315358L233.9427083816845,389.1409084455663L239.80305089442118,394.4190580218019L242.99960135589936,391.90568287813585L250.63580523614655,392.2408026539815L254.9866655865044,395.84328019836903L255.34183786000358,405.1421912209262L261.29097344112233,405.30973245589485Z"/>

    <path name="淡水區" class="town"  d="M218.22633527933795,115.9459881919247L218.93667982632178,120.22874172750744L216.80564618532662,125.26707437355799L210.67892446748738,123.75559738415905L208.37030468974262,125.18310394246146L201.71082456161093,121.99218285922689L197.09358500615053,130.72502301819623L193.0978969292628,133.5798485060077L187.59272669003985,143.15140186113422L184.4849692969292,143.65514612938568L175.07290404918604,155.57646073541036L169.47894074156648,161.53666263660125L168.5910100578185,168.08414026104947L163.61859822884435,169.76292169817316L161.9315299297159,166.23745287807105L158.29101412635646,147.01338581489472L156.3375666221109,141.2203620684486L148.16860433164402,131.8165821707953L141.42033113513025,126.94647032850116L133.5177480497805,123.2517673775692L127.74619860542589,119.38899850292364L126.76947485329583,114.43439064316408L116.29189278506965,112.1669576518434L116.82465119533299,105.70033295255416L123.21775211831846,105.53236390457096L128.900508494291,104.02063160265607L128.98930156267306,96.62965864328362L139.37809056251717,80.67028021578517L143.728950912875,79.49423968541305L150.38843104099215,64.70871874461227L152.43067161360523,55.802898201010976L156.24877355372882,53.36628160355758L162.02032299809798,54.54258563010444L163.61859822884435,57.23123597682934L174.09618029705598,58.65955625334391L190.7004840831505,65.46484199213955L196.29444739077007,66.72503651053557L197.27117114290013,71.6816695120142L200.73410080950998,73.10981281514614L196.7384127326368,78.57019952471092L198.07030875823693,80.67028021578517L193.1866899976303,84.45033021912968L187.85910589515697,85.03832699316627L186.79358907467395,91.33810654258195L195.49530977537506,104.44055920478422L200.0237562625116,102.67685312956019L204.72978888636862,105.28040987969507L211.7444412879704,111.41113687572579L216.1840947067103,112.75481487498473Z"/>

    <path name="瑞芳區" class="town"  d="M566.0287841034005,170.35048951479257L563.3649920521566,172.1131752751062L544.3632754199643,178.57612941712068L541.87706950547,183.44409317682948L544.1856892832147,188.47970491073283L542.6762071208359,190.66173612332568L535.48396858247,191.41704515373567L525.1839726509934,196.95582931128956L519.1460440015071,197.7110977810844L509.37880648029386,194.35431177528517L506.004669882037,196.45231429449268L504.3176015829231,202.1586911796294L501.03225805306283,201.99086052994608L494.63915713007736,212.73153785517206L487.89088393357815,218.77273661497748L485.4934710874659,225.31701756612165L486.0262294977001,233.03544397313817L489.8443314378237,242.2633311573627L489.1339868908399,245.03155589483504L478.3012325491145,243.68939447475714L474.3055444722413,247.21253548721506L471.2865801475127,236.3911232360806L471.99692469449656,231.94482755758509L468.35640889112256,230.35083149057755L465.51503070314357,231.94482755758509L462.9400317202817,222.80002962770595L457.79003375452885,214.8292115742188L455.1262417032849,213.4027975269346L449.6210714640474,215.24874181636187L446.2469348658051,218.10150767208324L438.5219379172049,220.45079217048988L434.79262904547795,214.6613990572332L431.0633201737219,212.14418249095615L426.4460806182178,212.47981448784049L424.22625390885514,206.60611586119558L424.7590123191185,201.15170367770406L423.51590936185676,196.7879912126773L424.5814261823689,190.99742962672462L421.5624618576112,183.69587890378898L424.4038400456193,179.66724233224522L430.97452710535435,179.75117367396888L436.21331813946017,172.53285845011487L445.3590041820571,175.8902697069061L447.49003782305226,174.37944655239698L451.13055362642626,180.00296733830692L457.7012406861468,178.07253541283353L457.07968920753046,171.35774176969426L461.69692876301997,170.93805438311756L464.0055485407647,167.07685984484124L465.6038237715111,157.6751579978154L468.71158116462175,160.02565425413195L478.6564048226137,157.25542155609946L482.030541420856,158.51462636530778L476.79175038673566,163.63525303310234L476.8805434551032,168.58777721954903L479.18916323284793,171.18986699557354L484.3391611986008,169.76292169817316L484.3391611986008,165.64986442043664L495.97105315569206,164.13890913018622L508.31328965978173,168.0002005573624L516.1270796767785,169.5950446376046L526.7822478817543,167.74838108517724L536.2831061978504,170.1826132966271L537.171036881613,172.44892193544365L543.9193100780831,172.8686039072236L550.3124110010685,168.5038378769168L555.3736158984248,169.4271673363255L559.4580970436655,168.4198984740833L560.7012000009272,165.64986442043664L567.2718870606477,162.87976482445083L569.6692999067745,164.13890913018622Z"/>

    <path name="林口區" class="town"  d="M114.1608591440745,184.53516075221341L123.21775211831846,197.7110977810844L119.66602938332653,202.74609656152097L118.68930563121103,208.70389914272528L115.67034130645334,213.6545189134158L119.75482245169405,214.91311774267524L114.69361755433783,215.75217612630513L112.11861857144686,219.5278645851613L117.97896108419809,221.62541677884656L113.09534232356236,227.16277440899285L108.92206810996868,221.62541677884656L103.8608632125979,222.3805263887225L101.28586422973603,217.68198763249165L97.46776228961244,219.10834964623064L95.33672864861728,225.14922004988694L92.31776432387414,224.22632942161363L84.23759510177479,225.14922004988694L73.49363382841693,225.14922004988694L70.38587643532082,222.2127246731543L70.20829029854212,216.7590382643575L62.83846562344115,217.8497958283442L68.25484279429656,209.7947316187092L65.85742994818429,207.445233677161L59.37553595681675,207.445233677161L52.005711281715776,202.99784082427504L47.29967865785875,198.8020325352336L41.616922281871666,198.46636138453687L34.868649085387005,195.10959700839885L28.29796202565194,194.85783580481439L24.39106701716082,187.4725998772883L18.530724504424143,189.23502800547067L17.465207683941117,185.29050927534627L10.805727555809426,182.1012268270715L11.42727903444029,174.71518671548984L18.353138367674546,173.95976999501L26.34451452140638,167.580501136159L34.069511470006546,166.99291941896809L34.69106294863741,169.0074730301385L43.30399058100011,169.3432285954368L59.37553595681675,165.9016884062512L62.039328008075245,164.22285160235333L72.16173780278768,161.45271823817893L77.84449417878932,158.4306797995123L82.90569907616009,153.7295760110901L84.06000896502519,159.27014274811154L92.58414352900581,172.8686039072236L99.95396820412134,179.499379468376L105.37034537497675,191.16527601782946L107.94534435783862,190.66173612332568L109.8099987937021,197.03974827047205L109.54361958858499,203.50132772815778L106.25827605871018,204.84394890171097L107.6789651527215,209.45909193757325L112.02982550307934,205.43134083072437L113.27292846032651,199.64120620677204L116.02551357995253,196.11663641499035L114.1608591440745,193.7668643401048Z"/>

    <path name="三芝區" class="town"  d="M256.5849408172362,81.51030190937308L253.56597649250762,82.35031755597811L250.72459830451407,86.21431165411923L247.08408250114007,87.81027188483131L244.0651181764115,93.85792316875813L244.95304886014492,97.04961282365912L239.53667168930406,98.81340388793251L236.87287963804556,102.00495809486165L236.51770736454637,106.54017456920337L230.39098564669257,108.72373451307794L228.34874507406494,111.66307767774197L221.60047187758028,112.4188968239323L218.22633527933795,115.9459881919247L216.1840947067103,112.75481487498473L211.7444412879704,111.41113687572579L204.72978888636862,105.28040987969507L200.0237562625116,102.67685312956019L195.49530977537506,104.44055920478422L186.79358907467395,91.33810654258195L187.85910589515697,85.03832699316627L193.1866899976303,84.45033021912968L198.07030875823693,80.67028021578517L196.7384127326368,78.57019952471092L200.73410080950998,73.10981281514614L197.27117114290013,71.6816695120142L196.29444739077007,66.72503651053557L190.7004840831505,65.46484199213955L174.09618029705598,58.65955625334391L163.61859822884435,57.23123597682934L162.02032299809798,54.54258563010444L156.24877355372882,53.36628160355758L152.43067161360523,55.802898201010976L153.94015377598407,51.181685488794756L158.29101412635646,45.29987702971994L166.81514869033708,45.97209873560496L174.71773177568684,42.19080119523278L179.42376439954387,32.35885320045418L182.79790099780075,27.90479165818033L191.49962169853097,24.290993905990035L195.4065167070221,21.181357223318628L205.97289184360125,16.558770809679118L206.5056502538646,20.845175309728802L212.72116504010046,24.206950763316854L222.57719562969578,37.40098147072786L228.08236586894782,32.19077849905807L234.65305292866833,32.779038892793324L235.80736281753343,30.594056738729705L241.2237399884034,32.52692765928805L243.08839442428143,36.64467614357636L239.62546475765703,44.54362297532134L240.77977464653668,48.156792500092706L239.18149941577576,54.20649997661894L243.44356669778062,55.04671229354426L246.19615181740664,57.73535101372909L248.3271854584018,63.44850243729525L247.61684091138886,69.49741652120429L253.7435626292572,74.78995902301904Z"/>

    <path name="八里區" class="town"  d="M163.61859822884435,169.76292169817316L165.4832526647224,176.22600553896336L163.79618436559394,179.58331093037123L158.55739333147358,173.20434840171947L152.07549934010603,169.5950446376046L148.5237766051141,169.51110601704568L143.81774398125708,165.64986442043664L135.20481634890893,163.29948109787074L126.14792337467952,163.63525303310234L125.52637189606321,169.76292169817316L121.0867184773233,171.609553479655L116.73585812693636,170.1826132966271L112.91775618684187,177.82073759874766L114.1608591440745,184.53516075221341L114.1608591440745,193.7668643401048L116.02551357995253,196.11663641499035L113.27292846032651,199.64120620677204L112.02982550307934,205.43134083072437L107.6789651527215,209.45909193757325L106.25827605871018,204.84394890171097L109.54361958858499,203.50132772815778L109.8099987937021,197.03974827047205L107.94534435783862,190.66173612332568L105.37034537497675,191.16527601782946L99.95396820412134,179.499379468376L92.58414352900581,172.8686039072236L84.06000896502519,159.27014274811154L82.90569907616009,153.7295760110901L94.80397023836849,150.5394337370526L103.68327707584831,146.00592403180417L102.17379491346946,141.89203169918983L105.37034537497675,126.61059306767856L114.60482448594121,135.42705138587917L117.35740960558178,133.83174152611537L123.48413132343558,126.10677536698859L127.74619860542589,119.38899850292364L133.5177480497805,123.2517673775692L141.42033113513025,126.94647032850116L148.16860433164402,131.8165821707953L156.3375666221109,141.2203620684486L158.29101412635646,147.01338581489472L161.9315299297159,166.23745287807105Z"/>

    <path name="三峽區" class="town"  d="M162.4642883399647,339.1124383592869L164.41773584421026,349.3377368748261L171.96514665606082,353.86340557327276L186.083244527661,356.54520137118743L186.79358907467395,360.0649658242146L192.47634545064648,366.9365842504303L190.16772567290172,375.3998569972282L192.83151772414567,379.8407375551469L187.68151975840738,382.773302945232L182.2651425875374,392.2408026539815L178.0030753055471,396.4297196331863L174.89531791243644,405.2259618681128L181.37721190380398,411.8436553695501L179.95652280979266,416.1156404623616L182.35393565593404,419.801150625608L189.2797949891683,419.3823484379973L193.0978969292628,424.7429044270939L193.0978969292628,427.5068461672636L196.91599886938639,432.69953175247065L194.51858602325956,444.0053975232877L187.85910589515697,446.0989578435765L182.35393565593404,456.39873544680813L185.55048611741222,460.50164933608175L176.04962780130154,466.19525353744757L172.49790506632417,471.9723075043221L166.6375625535875,473.4793187352734L160.59963390408666,479.92576155251663L161.39877151945257,485.28357708062686L156.3375666221109,487.5438328794262L152.5194646819873,488.38095372156386L145.77119148550264,483.2744246367729L145.50481228038552,474.81886818383646L144.17291625475627,467.1999788117355L138.57895294715127,464.60442109152063L134.58326487027807,459.7480635640313L132.9849896395317,454.47282888185873L127.83499167380796,454.72403586244764L124.63844121230068,448.27622129674273L126.14792337467952,444.9265686264116L120.19878779356077,439.985657893616L114.95999675945495,437.22200769075425L110.87551561421424,438.89695491281236L107.05741367409064,436.8032671805995L99.5987959306076,439.81816577930294L99.15483058872633,442.4980111620753L93.38328114437172,445.93147438066444L89.03242079402844,445.4290225699988L75.97983974291128,441.0743508584346L73.40484076004941,436.8032671805995L66.39018835841853,434.96079133027524L60.707431982445996,437.3057556149506L57.066916179071995,436.8870154012002L57.86605379446701,432.7832828779392L66.39018835841853,430.85699199094597L71.36260018742178,431.9457689550618L73.40484076004941,427.8418650195017L72.33932393953728,422.98399877844713L66.92294676869642,419.54986949103477L65.6798438114347,413.6864914021535L68.69880813616328,413.10013759892536L73.04966848655022,408.82804352455787L69.67553188830789,403.7180811332073L65.41346460631758,402.29395388253397L64.61432699095167,396.84860316142294L61.6841557345615,395.256837852281L62.39450028157444,390.3138509577366L53.78157264922629,389.5598178228829L44.28071433311561,383.2760211270579L44.724679674982326,379.92452614859576L48.54278161510592,374.4781438696664L41.08416387162288,367.606964621893L47.21088558949123,360.902989500235L56.62295083720528,359.2269361948529L60.352259708946804,355.958563750919L68.07725665757607,348.2481980992452L77.13414963179093,342.8841680969563L79.08759713603649,339.6991598006789L82.46173373429338,337.9389867147438L87.1677663581504,338.44189599294623L91.87379898200743,335.6758684068518L94.53759103325137,341.7107539998906L99.77638206737174,341.37549068392764L108.12293049458822,338.86098541893807L110.25396413558337,342.54890811822406L119.13327097304864,333.3288849987184L120.55396006705996,343.3870562773518L124.81602734905027,343.88994231253673L127.74619860542589,347.32627281014356L142.21946875052527,344.7280809375261L144.4392954598734,349.1701161799974L149.32291422049457,347.15864925585265L157.40308344260848,340.7887775865165Z"/>

    <path name="鶯歌區" class="town"  d="M85.65828419577156,309.7726405555004L87.3453524949,314.0483231456492L90.27552375126106,315.5573505213688L93.73845341788547,320.6711328329402L94.09362569138466,325.03024737321175L88.58845545213262,328.97007750620105L83.26087134965928,330.8142080465077L82.81690600776346,334.1670987245052L79.08759713603649,339.6991598006789L77.13414963179093,342.8841680969563L68.07725665757607,348.2481980992452L60.352259708946804,355.958563750919L55.557434016722254,354.7852797568594L44.991058880099445,356.377590920285L45.9677826322295,353.2767546136638L39.48588864087651,346.40434031236873L47.56605786297587,341.5431224610875L52.18329741846537,340.6211447365895L50.22984991421981,336.5140654397219L51.117780597982346,325.28172982898104L49.430712298853905,309.01809221527947L62.927258691823226,304.4907006097674L66.92294676869642,307.84434074026285L71.27380711905425,305.91600933935115L72.69449621305102,308.7665750272099L81.12983770866413,307.0897800408384Z"/>

    <path name="中和區" class="town"  d="M194.16341374977492,278.74833034602125L197.71513648476684,278.91605131584583L207.1272017324809,283.69599840169394L211.92202742472,283.7798553884786L212.36599276658671,289.31428433506517L215.3849570913444,291.410590942869L221.8668510826974,289.90125395059295L226.57288370656897,291.91369897056575L226.8392629116861,296.60927015778725L219.8246105100843,302.9815313785257L218.4039214161021,298.7054467992202L212.36599276658671,300.80158610386934L211.3004759461037,305.32911959962075L205.61771957013116,310.52718405987616L201.08927308299462,316.3956907077991L197.27117114290013,315.8926873121054L184.12979702341545,322.5992226217859L181.8211772456707,322.09624571960376L180.8444534935552,319.4974975083569L183.59703861316666,313.2099662474102L176.93755848506407,303.65227564797897L181.4660049721715,297.69928667124987L175.96083473294857,293.17145962753057L170.81083676719572,294.2615079876632L168.32463085270138,291.91369897056575L171.5211813141941,283.2767125710452L178.80221292092756,276.7356600481871L182.88669406615372,276.4002116491574L183.77462474991626,272.5424862699256L189.5461741942854,272.45862126888096Z"/>

    <path name="樹林區" class="town"  d="M138.66774601553334,292.0814011683833L133.87292032329424,299.96313486215513L135.64878169077565,302.8138447139245L135.73757475914317,313.4614739436074L137.6022291950212,314.29982905119687L132.541024297665,317.3178580198801L123.7505105285527,320.0004855080442L121.2643046140729,323.437512686065L121.70826995593961,329.4730250614921L119.13327097304864,333.3288849987184L110.25396413558337,342.54890811822406L108.12293049458822,338.86098541893807L99.77638206737174,341.37549068392764L94.53759103325137,341.7107539998906L91.87379898200743,335.6758684068518L87.1677663581504,338.44189599294623L82.46173373429338,337.9389867147438L79.08759713603649,339.6991598006789L82.81690600776346,334.1670987245052L83.26087134965928,330.8142080465077L88.58845545213262,328.97007750620105L94.09362569138466,325.03024737321175L93.73845341788547,320.6711328329402L90.27552375126106,315.5573505213688L87.3453524949,314.0483231456492L85.65828419577156,309.7726405555004L88.67724852050014,306.75441817751926L97.11259001611324,302.9815313785257L98.79965831524169,291.7459965337257L102.17379491346946,290.99133260961025L107.59017208433943,293.75840999938737L109.8099987937021,290.15281146071356L115.40396210132167,288.22419013600665L112.20741163982893,280.84482527527507L105.01517310147756,275.81317464800304L110.43155027234752,272.0392953663468L113.9832730073249,272.45862126888096L123.12895904992183,268.9362371985371L128.27895701567468,268.9362371985371L133.25136884464882,271.78769910687697L133.5177480497805,274.55522834723524L140.35481431464723,284.11528273765Z"/>

    <path name="深坑區" class="town"  d="M321.0487084573542,264.9943965375678L320.1607777735917,267.9298223630467L321.7590530043526,274.1359099226902L320.1607777735917,282.2704204787224L324.95560346584534,285.5408382997157L324.0676727820828,292.2491031271529L319.09526095310866,292.2491031271529L318.29612333774276,299.5439070012544L319.89439856847457,306.251373591178L309.8607818421151,313.71298110260614L303.46768091912963,316.9825252873379L295.92027010727907,311.86858279458465L290.5926860048057,312.0362565618743L286.2418256544188,309.604963564474L285.97544644930167,300.46620632398844L287.75130781679763,296.6931179403582L284.4659642869228,292.8360581003799L286.596997927918,286.88252186951286L282.33493064592767,280.67710705635545L283.93320587667404,273.38113298977623L288.4616523638106,273.0456750197227L289.7047553210432,269.27170689552804L293.7004433979164,267.9298223630467L305.5987145601248,270.8651748819175L311.2814709361264,268.43303085791194L312.9685392352403,263.9040768435152Z"/>

    <path name="板橋區" class="town"  d="M186.52720986952772,249.98064356957912L185.19531384391303,253.75523128252462L189.63496726265294,265.1621371311776L189.5461741942854,272.45862126888096L183.77462474991626,272.5424862699256L182.88669406615372,276.4002116491574L178.80221292092756,276.7356600481871L171.5211813141941,283.2767125710452L168.32463085270138,291.91369897056575L170.81083676719572,294.2615079876632L167.34790710057132,298.034674336428L162.10911606648006,295.7707890459169L155.1832567332458,294.5969054514244L147.369466716249,298.87313931754034L142.75222716074495,306.0836915846776L141.95308954537904,310.94637280613097L137.6022291950212,314.29982905119687L135.73757475914317,313.4614739436074L135.64878169077565,302.8138447139245L133.87292032329424,299.96313486215513L138.66774601553334,292.0814011683833L139.2892974941351,289.3981373165843L144.0841231863742,287.4695036190569L145.23843307525385,277.3226924437331L152.60825775035482,264.74278519827567L160.33325469896954,255.93604890350616L170.1004922202119,250.65169025001524L180.57807428840897,249.39347457931945Z"/>

    <path name="石碇區" class="town"  d="M375.65644550783327,256.9425664596929L376.8107553967129,261.3040429042121L373.79179107198433,265.3298774853538L378.14265142234217,273.0456750197227L383.20385631971294,278.2451660012521L384.71333848207723,281.7672712037165L392.1719562255457,280.2578104626009L390.9288532683131,288.14033631767234L396.1676443024189,297.95082750975416L394.21419679817336,303.1492178042354L387.9098889435845,307.50898102650535L388.6202334905538,311.53323454360725L386.48919984955864,315.47351617448294L380.0073058582202,313.6291454426355L371.7495504993567,321.34177633922445L362.248692183246,323.1021973762472L359.94007240550127,327.4612219584196L355.9443843286426,331.06567815667586L346.0883537390473,333.2450632982218L343.06938941430417,335.59204837569996L344.31249237155134,345.2309612524441L346.532319080914,345.9852777029773L346.9762844227953,354.4500536147534L352.3038685252832,361.15439544218316L349.6400764740247,364.17122495784497L340.938355773309,368.9477139393639L343.4245616877888,375.2322733275796L339.7840458844439,378.16495319747264L338.3633567904326,381.93543455217514L332.23663507256424,384.61659248126307L328.5073262008227,387.800388452637L332.05904893581464,392.65970103674044L329.30646381621773,402.2101811568027L333.1245657563122,405.30973245589485L332.3254281409463,411.5085911860697L328.063360858956,413.9377849989396L324.8668103974487,420.8062698239373L319.45043322660786,420.638750550861L316.69784810698184,423.98909092379836L311.81422934636066,420.1361913076944L304.35561160289217,418.3772171354649L299.73837204740266,420.8062698239373L294.1444087397831,418.54473961259646L287.21854940654885,418.3772171354649L279.8487247314624,415.6130619932701L273.27803767169826,409.41441852009666L265.1090753812168,407.06890108269L266.88493674872734,402.29395388253397L265.64183379148017,396.59727322271647L267.7728674324753,387.63282238360625L265.464247654716,384.4490218943429L257.91683684286545,379.92452614859576L262.8004556034721,374.64572861004126L267.3289020906086,374.8133131124596L277.80648415882024,369.28289888854124L283.5780336031894,371.8805499659138L283.3116543980577,366.51759458421293L281.09182768869505,356.96422645645725L284.1995850818057,347.32627281014356L285.97544644930167,345.8176522421454L284.28837815017323,340.6211447365895L287.1297563381813,338.190441622075L292.19096123553754,337.855168293092L292.81251271415385,329.3053761149531L295.29871862866275,326.37148093380165L294.1444087397831,322.0124160271007L303.46768091912963,316.9825252873379L309.8607818421151,313.71298110260614L319.89439856847457,306.251373591178L318.29612333774276,299.5439070012544L319.09526095310866,292.2491031271529L324.0676727820828,292.2491031271529L324.95560346584534,285.5408382997157L320.1607777735917,282.2704204787224L321.7590530043526,274.1359099226902L320.1607777735917,267.9298223630467L321.0487084573542,264.9943965375678L326.9090509700909,266.5879225109893L329.39525688458525,264.57504400614926L341.7374933886895,265.3298774853538L343.2469755510683,258.87170100824005L343.2469755510683,255.26503240879538L347.8642151065287,255.85217205124354L353.1030061406491,254.17462243059708L359.14093479013536,249.14182982779312L366.2443802601192,247.46418437239845L369.0857584481273,248.47077452119265L370.2400683369924,253.92298792140355Z"/>

    <path name="新莊區" class="town"  d="M169.47894074156648,224.8136242976143L172.23152586117794,236.8105763994463L169.56773380994855,245.70263085256374L170.1004922202119,250.65169025001524L160.33325469896954,255.93604890350616L152.60825775035482,264.74278519827567L145.23843307525385,277.3226924437331L144.0841231863742,287.4695036190569L139.2892974941351,289.3981373165843L138.66774601553334,292.0814011683833L140.35481431464723,284.11528273765L133.5177480497805,274.55522834723524L133.25136884464882,271.78769910687697L128.27895701567468,268.9362371985371L123.12895904992183,268.9362371985371L120.10999472519325,267.59434883627546L111.05310175096383,258.6200765590256L111.4970670928451,250.48392893932032L109.9875849304517,245.954282973089L115.22637596458662,244.0249362678842L120.46516699867789,245.2832094533769L123.57292439181765,253.8391096319101L127.21344019516255,254.258500480566L128.3677500840422,258.536201622861L131.03154213528614,260.04594131317936L140.9763657932781,248.13524543013773L144.97205387013673,246.12205075386737L148.96774194700993,247.54806721429122L149.05653501537745,241.84389747388923L146.12636375900183,234.1260502555706L154.20653298111574,229.6796687753922L154.29532604948326,227.58226055188425L165.83842493822158,221.7093180865886Z"/>

    <path name="泰山區" class="town"  d="M119.75482245169405,214.91311774267524L129.3444738361577,221.45761398334798L138.75653908390086,221.37371249560965L140.2660212462506,224.22632942161363L149.32291422049457,222.96783050332306L154.29532604948326,227.58226055188425L154.20653298111574,229.6796687753922L146.12636375900183,234.1260502555706L149.05653501537745,241.84389747388923L148.96774194700993,247.54806721429122L144.97205387013673,246.12205075386737L140.9763657932781,248.13524543013773L131.03154213528614,260.04594131317936L128.3677500840422,258.536201622861L127.21344019516255,254.258500480566L123.57292439181765,253.8391096319101L120.46516699867789,245.2832094533769L115.22637596458662,244.0249362678842L112.65137698169565,244.5282471599312L109.18844731510035,241.0050256122122L110.34275720398,238.23670594503346L102.7065533237328,232.95155076248193L102.44017411861569,228.67291750607183L95.33672864861728,225.14922004988694L97.46776228961244,219.10834964623064L101.28586422973603,217.68198763249165L103.8608632125979,222.3805263887225L108.92206810996868,221.62541677884656L113.09534232356236,227.16277440899285L117.97896108419809,221.62541677884656L112.11861857144686,219.5278645851613L114.69361755433783,215.75217612630513Z"/>

    <path name="三重區" class="town"  d="M186.52720986952772,249.98064356957912L180.57807428840897,249.39347457931945L170.1004922202119,250.65169025001524L169.56773380994855,245.70263085256374L172.23152586117794,236.8105763994463L169.47894074156648,224.8136242976143L173.11945654494048,221.87712052210918L174.1849733654526,217.17856160460724L178.0030753055471,217.4302748886039L185.4616930490447,206.60611586119558L185.99445145927893,202.1586911796294L191.67720783528057,196.7879912126773L198.69186023688235,203.41741339433065L201.6220314932434,208.11652360668086L205.440133433367,220.61859640595503L204.2858235445019,229.34408597848233L204.72978888636862,236.2233415511182L200.55651467274583,243.52162321863943L195.5841028437717,246.37370197565906L189.63496726265294,246.79311948033865Z"/>

    <path name="雙溪區" class="town" d="M525.1839726509934,196.95582931128956L525.6279379928746,203.75307036930462L527.6701785654877,208.11652360668086L526.6046617450047,214.15796006573873L531.1331082321121,218.2693152678621L535.2175893773529,226.65938905825533L537.9701744969643,237.2300280641175L535.6615547192196,243.94105090949233L543.652930872966,249.89676246497766L539.1244843858294,264.49117332031165L536.1943131294684,269.1039721667112L538.6805190439627,271.87156458652316L529.5348330013658,274.7229552982899L525.0063865142438,288.14033631767234L521.2770776425023,294.0099592624247L516.9262172921444,297.531592480198L513.8184598990338,305.1614362793807L512.4865638734045,312.8746218168126L512.8417361469037,322.3477344391613L506.62622136066784,324.61110875391387L500.5882927111961,325.4493845012221L495.5270878138108,331.40097080206033L493.6624333779473,338.9448031253378L494.19519178821065,342.8841680969563L500.1443273693003,347.0748373893366L502.27536101029546,354.1986333828754L506.35984215553617,356.54520137118743L504.8503599931573,360.56778074421163L499.25639668556687,364.6740223773013L497.2141561129538,368.52873141404416L487.26933245496184,378.58390151702406L479.1003701644804,378.9190591021834L475.54864742947393,380.67862081376006L469.7770979851339,376.99188999268154L468.8003742330184,379.7569489022062L463.561583198898,382.10300870646097L453.97193181440525,383.443593378699L452.0184843101597,380.00831468258184L447.2236586179206,376.070189296639L446.4245210025547,369.8694702587527L440.6529715582001,364.4226239354066L444.0271081564424,356.12617479731125L446.4245210025547,354.28244018638L447.7564170281694,347.8291420432688L450.5090021477954,344.39282620256563L448.9995199854311,340.4535116482657L453.8831387460523,331.48479381435754L451.2193466947938,325.9523470864333L452.6400357888051,315.9765213606079L454.5046902246686,309.1857700421533L453.17279419903934,303.4007469948665L443.7607289512962,304.7422269337476L439.7650408744521,302.0592517668265L437.3676280283398,298.53775404197586L432.4840092677332,296.9446609296283L428.577114259213,291.1590361222152L437.72280030182446,285.12155904561223L442.42883292569604,277.4904154470278L446.15814179743757,274.2197737272545L446.15814179743757,270.6135761095611L450.2426229426783,265.4976176001546L453.52796647253854,264.74278519827567L459.2995159169077,258.6200765590256L465.42623763477604,257.36194622991025L467.0245128655224,252.24541075196248L470.13227025863307,248.80630265375657L474.3055444722413,247.21253548721506L478.3012325491145,243.68939447475714L489.1339868908399,245.03155589483504L489.8443314378237,242.2633311573627L486.0262294977001,233.03544397313817L485.4934710874659,225.31701756612165L487.89088393357815,218.77273661497748L494.63915713007736,212.73153785517206L501.03225805306283,201.99086052994608L504.3176015829231,202.1586911796294L506.004669882037,196.45231429449268L509.37880648029386,194.35431177528517L519.1460440015071,197.7110977810844Z"/>

    <path name="貢寮區" class="town"  d="M512.8417361469037,322.3477344391613L512.4865638734045,312.8746218168126L513.8184598990338,305.1614362793807L516.9262172921444,297.531592480198L521.2770776425023,294.0099592624247L525.0063865142438,288.14033631767234L529.5348330013658,274.7229552982899L538.6805190439627,271.87156458652316L536.1943131294684,269.1039721667112L539.1244843858294,264.49117332031165L543.652930872966,249.89676246497766L535.6615547192196,243.94105090949233L537.9701744969643,237.2300280641175L535.2175893773529,226.65938905825533L531.1331082321121,218.2693152678621L526.6046617450047,214.15796006573873L527.6701785654877,208.11652360668086L525.6279379928746,203.75307036930462L525.1839726509934,196.95582931128956L535.48396858247,191.41704515373567L542.6762071208359,190.66173612332568L544.1856892832147,188.47970491073283L541.87706950547,183.44409317682948L544.3632754199643,178.57612941712068L563.3649920521566,172.1131752751062L566.0287841034005,170.35048951479257L562.5658544367907,179.75117367396888L566.5615425136639,179.07972125626839L569.491713770025,183.94766408961732L562.5658544367907,191.58489094382094L563.4537851205387,196.70407207325843L558.9253386334167,201.57128285465296L558.9253386334167,205.68307932808966L561.0563722744264,209.6269118982018L559.7244762488117,212.73153785517206L568.5149900179094,218.5210262114524L573.9313671887649,227.0788770004874L573.8425741203973,235.71999505742133L572.2442988896364,238.40448475263838L571.5339543426526,248.30301009549657L576.4175731032592,256.5231851925346L583.0770532313618,263.9879479483279L587.25032744497,267.342743062869L604.4761827096809,264.658914632153L610.3365252224321,262.14276981514195L618.416694444546,263.6524631699067L624.6322092307673,267.342743062869L627.2960012820113,273.8843181501361L632.4459992477641,268.76850199103865L634.7546190255089,273.38113298977623L638.0399625553546,273.63272583916114L639.1942724442342,277.15496920119404L636.2641011878586,285.6246939711855L630.314965606769,286.7986670947612L623.9218646837835,293.50686019855857L619.2158320598974,296.60927015778725L612.4675588634273,298.2862144580322L611.3132489745622,301.640031372408L605.1865272566938,302.0592517668265L600.9244599747035,299.2923695679019L584.4977423253586,299.12467764696703L581.6563641373796,302.39462700724835L576.3287800348771,303.65227564797897L575.4408493511146,305.83216812708633L565.7624048982834,308.01202023889346L560.5236138641776,307.1736203573819L555.1072366933076,311.70090878848714L548.8917219070718,312.0362565618743L544.0081031464651,319.07833920105986L537.2598299499805,321.34177633922445L531.0443151637446,321.8447564631024L521.7210429843981,325.11407491811406Z"/>

    <path name="汐止區" class="town"  d="M309.4168165002484,153.7295760110901L311.01509173099475,158.51462636530778L316.1650896967476,162.54399072222077L319.0064678847266,162.20821565685765L323.4461213034665,165.0622730136929L326.28749949146004,171.609553479655L326.19870642307797,178.74399360406824L329.66163608970237,182.52087421491524L331.4374974572129,187.3047481968133L328.5961192692048,189.90642222468523L334.45646178194147,197.87893455793164L345.0228369185352,205.43134083072437L350.3504210210376,208.11652360668086L354.3461090978817,204.00481246993513L356.83231501237606,206.69002791300227L354.8788675081596,212.31199860945344L362.87024366186233,218.85663996279618L369.8848960634932,220.45079217048988L372.37110197798756,222.96783050332306L378.85299596934055,223.80683128194505L383.64782166157966,222.3805263887225L392.61592156744155,231.5253570071436L395.63488589217013,231.86093356741185L399.009022490427,236.4750139886346L395.9900581656693,240.25003581247074L391.1064394050627,242.34721771426484L388.35385428545123,246.37370197565906L386.57799291795527,252.83256548636564L383.20385631971294,255.6005411352089L380.0960989265732,254.92952272422917L375.65644550783327,256.9425664596929L370.2400683369924,253.92298792140355L369.0857584481273,248.47077452119265L366.2443802601192,247.46418437239845L359.14093479013536,249.14182982779312L353.1030061406491,254.17462243059708L347.8642151065287,255.85217205124354L343.2469755510683,255.26503240879538L343.2469755510683,258.87170100824005L338.8961152006814,258.3684515709574L335.4331855340715,260.8008038842054L329.7504291580699,261.05242366360835L324.3340519872145,258.87170100824005L314.65560753436876,253.25195992844237L308.0849204746337,251.49049320957783L305.1547492182581,249.22571147153576L300.4487165943865,241.42446229220513L304.35561160289217,236.13945061869526L304.8883700131264,229.76356432467946L300.09354432090186,226.32379762478377L304.71078387639136,220.95420415692934L307.19698979087116,210.54991738912213L310.9262986626127,204.76003552876864L306.3090591071377,194.68999470200652L299.56078591065307,188.06007886539373L293.0788919193001,185.29050927534627L283.93320587667404,182.68873274912767L282.33493064592767,179.07972125626839L287.57372168004804,166.8250383867271L292.9013057825505,162.79582138919432L300.27113045765145,155.74435790141433Z"/>

    <path name="萬里區" class="town"  d="M309.4168165002484,153.7295760110901L300.27113045765145,155.74435790141433L292.9013057825505,162.79582138919432L290.14872066292446,162.29215951348306L289.6159622526757,157.0875265579307L282.4237237143243,150.0357191113544L280.64786234682833,143.82306040336698L277.09613961182185,141.80807320629174L278.9607940476999,136.60252893496L277.27372574857145,130.72502301819623L283.2228613296902,128.87774585047373L292.10216816715547,117.54154216819006L292.45734044068377,113.67858453534791L295.65389090216195,108.13585700503972L296.45302851752786,102.25691918586017L300.62630273115064,94.94982681678084L305.3323353550077,92.68201551155653L311.9030224147573,84.95432763539793L319.45043322660786,80.75428265727896L322.3806044829835,80.67028021578517L324.0676727820828,76.72209724894492L329.66163608970237,74.11790344359906L334.545254850309,83.19032715599315L340.49439043142775,88.81823552390779L349.01852499540837,93.85792316875813L353.902143756015,90.24616911312842L366.51075946523633,87.72627452198503L367.665069354116,94.19389460965249L366.2443802601192,97.97350670390733L360.65041695249965,103.6007024906794L362.248692183246,109.7315176438824L366.51075946523633,114.93825866557381L369.529723789994,113.426648079585L375.3012732343632,114.51836879778057L378.05385835397465,120.98450547067114L374.85730789249646,121.32039889887164L372.01592970445927,127.3663155473696L365.35644957637123,128.20600146157085L362.1598991148785,132.48830581489892L358.4305902431515,133.6638129063249L353.5469714825158,138.28176208028162L348.13059431167494,138.53364497243456L346.1771468074003,140.63264797747252L336.5874954229366,141.80807320629174L331.2599113204633,145.33427802297592L329.39525688458525,148.52456222257388L320.4271569787088,148.02083892219161L311.54785014124354,151.71475943061887Z"/>

    <path name="金山區" class="town"  d="M329.66163608970237,74.11790344359906L324.0676727820828,76.72209724894492L322.3806044829835,80.67028021578517L319.45043322660786,80.75428265727896L311.9030224147573,84.95432763539793L305.3323353550077,92.68201551155653L300.62630273115064,94.94982681678084L296.45302851752786,102.25691918586017L295.65389090216195,108.13585700503972L292.45734044068377,113.67858453534791L292.10216816715547,117.54154216819006L283.2228613296902,128.87774585047373L277.27372574857145,130.72502301819623L274.3435544922104,130.89295585882428L266.2633852700965,127.5342532127288L266.4409714068461,124.76325088210433L270.25907334696967,121.06847891821599L271.5909693725989,117.45756618628002L269.54872879995673,113.09073196018653L272.21252085121523,106.62415839874302L271.4133832358348,100.74514448571063L262.88924867185415,100.74514448571063L255.69701013350277,95.03381898210137L253.8323556976393,86.97029553629909L250.72459830451407,86.21431165411923L253.56597649250762,82.35031755597811L256.5849408172362,81.51030190937308L261.2021803727257,76.3860755081987L266.88493674872734,75.9660469713017L269.9039010734705,73.2778285248387L272.21252085121523,63.9525905944829L281.0030346203275,55.71887778683595L284.28837815017323,54.374542924470006L286.3306187228154,48.99704842760184L289.7047553210432,45.047792890251L299.82716511578474,44.71167985601642L302.31337103026453,40.25809061877953L300.0047512525198,31.686552939634566L301.6918195516482,25.551633766826853L304.17802546614257,23.282472190068802L311.9030224147573,31.854628368662816L315.7211243548518,38.32534798041888L317.2306065172306,47.90471454053841L315.5435382181022,56.97917764094018L317.67457185909734,61.01204562402927L323.1797420983494,66.22096033725757L330.6383598418179,63.9525905944829L332.5030142776959,68.15324050359777Z"/>

    <path name="石門區" class="town"  d="M304.17802546614257,23.282472190068802L301.6918195516482,25.551633766826853L300.0047512525198,31.686552939634566L302.31337103026453,40.25809061877953L299.82716511578474,44.71167985601642L289.7047553210432,45.047792890251L286.3306187228154,48.99704842760184L284.28837815017323,54.374542924470006L281.0030346203275,55.71887778683595L272.21252085121523,63.9525905944829L269.9039010734705,73.2778285248387L266.88493674872734,75.9660469713017L261.2021803727257,76.3860755081987L256.5849408172362,81.51030190937308L253.7435626292572,74.78995902301904L247.61684091138886,69.49741652120429L248.3271854584018,63.44850243729525L246.19615181740664,57.73535101372909L243.44356669778062,55.04671229354426L239.18149941577576,54.20649997661894L240.77977464653668,48.156792500092706L239.62546475765703,44.54362297532134L243.08839442428143,36.64467614357636L241.2237399884034,32.52692765928805L235.80736281753343,30.594056738729705L234.65305292866833,32.779038892793324L228.08236586894782,32.19077849905807L222.57719562969578,37.40098147072786L212.72116504010046,24.206950763316854L206.5056502538646,20.845175309728802L205.97289184360125,16.558770809679118L206.59444332224666,10.759266404704249L209.61340764697525,7.817378324889432L211.47806208285328,12.776518105838477L214.05306106571516,14.45753448135656L218.13754221095587,12.608415132908704L221.8668510826974,13.364876599061972L228.25995200568286,9.66657379984099L228.61512427918206,2.7739685631859174L231.1013301936764,-3.637978807091713e-12L234.65305292866833,2.0174382421355403L235.0970182705496,5.211643911363353L243.08839442428143,7.985488218757382L246.0185656806425,6.724658094692131L251.70132205662958,7.6492681881500175L257.3840784326312,4.707301477988949L259.51511207362637,1.429022368920414L266.79614368034527,1.0087234944185184L274.52114062896,6.304378350640036L283.5780336031894,8.069543074598187L288.19527315869345,11.767896626002766L292.99009885090345,17.81949439982418L299.73837204740266,19.920670041654375Z"/>
</svg>