<?xml version="1.0" encoding="utf-8"?>
<svg version="1.1" xmlns="http://www.w3.org/2000/svg" xmlns:xlink="http://www.w3.org/1999/xlink" x="0px" y="0px" viewBox="0 0 370 420" style="enable-background:new 0 0 370 420;" xml:space="preserve" data-w="370" data-h="420">
    <style type="text/css">.town{fill:#9CCA97;stroke:#FFFFFF;stroke-width:1.5;stroke-linecap:round;stroke-linejoin:round;}</style>

    <path name="羅東鎮" class="town" d="M273.4569193517964,209.82507229936164L272.14475772047444,213.39676517017506L269.18024440528825,213.7584454904827L267.43069556352566,212.35692390655277L262.2792461961435,212.58297766074975L259.21753572306625,210.4128316759634L257.71097977599857,211.40749021779266L254.84366361866705,211.13622109925745L249.0118341461639,211.76918075089088L248.47724977784674,209.05645648331665L246.38751088352728,208.37825909179264L245.85292651521013,204.2637215786017L246.82489809396793,202.00288433266724L247.16508814653207,196.53135770186782L248.47724977784674,196.48613670126906L249.30342561978614,191.05940562916476L250.37259435641317,189.2051765668275L254.11468493460416,194.0441595138418L253.28850909267203,197.1644486592122L256.9334025129938,198.56627265550196L257.3221911444998,201.09852910504014L259.99511298607104,202.0481017890852L264.6605765640852,205.03238970498205L271.8045676679103,206.4340570400127Z"/>

    <path name="員山鄉" class="town" d="M238.22294962200976,154.3275132315066L236.86218941176048,159.1236534769614L234.82104909637565,161.97403440549715L235.3070348857509,164.00994993607856L238.6117382535158,166.90537257838878L242.5482231474598,167.85540712325928L240.40988567420573,169.80067586063524L238.22294962200976,173.37440129786592L238.75753399031964,179.30005178742613L240.36128709526383,178.07877538530192L244.9295535154015,180.29515020454164L249.88660856703063,179.7071392061589L251.3445659351637,180.476075676057L252.1221431981685,183.68742531648059L245.17254641008185,182.60191508870048L242.83981462108204,184.36586069873738L241.8192444633969,187.66748612319498L239.53511125332443,188.34588310999789L234.28646472806577,191.24030340872923L227.43406509784836,193.0040323831454L222.03962283578585,191.96388987544015L218.7349194680137,192.41612763787998L209.93857668030978,192.73269234192776L206.43947899680643,190.4714846328916L201.8712125766615,190.8332827505401L196.08798168308567,194.1346046246381L194.9216157885894,196.6670205293267L192.24869394700363,198.29495406110073L188.65239910563105,202.59070900082224L185.63928721149568,204.12807339109168L181.31401368604566,203.44982853346482L183.30655542249588,200.3298180267666L178.93268331809668,196.30525240827956L176.7943458448426,195.26515870056573L175.28778989777493,192.14478532926296L173.29524816133198,191.8282179798407L166.977432899439,187.93884570312912L163.67272953168867,184.18494523685513L162.94375084762578,181.69731042961575L168.33819310970284,177.4455126002831L166.54004568899836,176.540841580887L167.22042579413392,170.9768587320832L165.32508121556748,167.6744491530535L167.6092144256254,165.81960307680492L164.45030679469346,163.73849794264788L163.96432100530365,161.88354790062658L164.7418982683157,158.7616920617511L167.46341868882155,155.50395532674156L168.33819310970284,152.06506915119826L166.78303858369327,148.53551070375215L165.47087695237133,143.6028815059126L172.51767089833447,142.69777425802567L174.5588112137193,140.07289716699233L181.70280231753713,139.7108374421241L185.34769573785888,138.9867123828135L197.1571504197127,140.16341180604104L200.80204384003446,142.60726289068407L203.96095147097367,143.64813656163642L207.46004915449157,145.8203448933491L213.34047720595117,145.0057746535258L216.83957488945452,146.00135921740184L221.6994327832217,146.45389298362352L225.05273472990666,147.99248594977325L227.871452308289,147.67571956861502L234.43226046488417,150.888569398654Z"/>

    <path name="冬山鄉" class="town" d="M247.16508814653207,196.53135770186782L246.82489809396793,202.00288433266724L245.85292651521013,204.2637215786017L246.38751088352728,208.37825909179264L248.47724977784674,209.05645648331665L249.0118341461639,211.76918075089088L254.84366361866705,211.13622109925745L257.71097977599857,211.40749021779266L259.21753572306625,210.4128316759634L262.2792461961435,212.58297766074975L267.43069556352566,212.35692390655277L269.18024440528825,213.7584454904827L272.14475772047444,213.39676517017506L273.4569193517964,209.82507229936164L278.0251857719268,208.69475202052308L278.8999601928008,210.5484677587101L278.2195800876725,213.93928495436376L279.33734740324144,216.56140502507878L279.38594598218333,220.4039909410967L281.6214806133139,224.4271799462149L284.78038824426767,226.82290254056898L285.3635711915049,230.98132209919095L283.8570152444445,231.11691860928113L284.0028109812556,234.3711566609636L281.5242834554374,234.59713984051268L280.21212182412273,236.90212693048852L278.55977014023665,236.72134635046314L278.3653758244909,240.65321946755284L276.5186298248591,244.67525384800865L272.97093356241385,244.76563401059866L272.09615914153255,248.19999446648944L270.1036174050969,248.78743413148914L268.6942586159057,249.91711206140644L265.2437595113297,247.74811447590582L259.5577257756304,243.13877338120983L254.6978678818632,240.4272556808064L250.17820004066743,238.70990725934098L247.26228530440858,240.0657121173099L245.46413788371865,242.0993705734345L242.93701177896583,238.80029506018218L240.31268851632922,240.33686996355573L238.5631396745739,237.44446589173458L235.50142920149665,237.76082836095702L233.46028888612636,239.2522323279827L232.68271162312158,239.88493964106056L227.23967078210262,239.29742589559282L224.51815036160406,236.04341505044067L222.67140436195768,236.49536997413998L219.12370809951244,234.41635335478168L212.417104206128,231.43330945245725L210.57035820649617,228.31453775739647L213.63206867957342,227.68172667019644L217.17976494201866,225.64765257101317L221.6022356253452,226.09967410814716L223.9835659932869,221.353303425798L219.998482520401,218.86698171502394L218.63772231014445,216.47098871589697L224.32375604584377,216.92306910172192L226.36489636123588,220.81084071432815L229.32940967642207,219.13822107281158L233.07150025462033,220.13275645431168L235.45283062256203,214.30096248967675L237.5911680958161,210.2319831593868L232.53691588630318,209.96070951387992L233.65468320187938,206.11755395145337L233.16869741249684,203.3593953921336L234.6266547806299,200.28459946662224L237.9799567273294,198.24973419367052L241.9164416212734,197.30011026627108L243.95758193665097,198.1592943716696Z"/>

    <path name="三星鄉" class="town" d="M250.37259435641317,189.2051765668275L249.30342561978614,191.05940562916476L248.47724977784674,196.48613670126906L247.16508814653207,196.53135770186782L243.95758193665097,198.1592943716696L241.9164416212734,197.30011026627108L237.9799567273294,198.24973419367052L234.6266547806299,200.28459946662224L233.16869741249684,203.3593953921336L233.65468320187938,206.11755395145337L232.53691588630318,209.96070951387992L237.5911680958161,210.2319831593868L235.45283062256203,214.30096248967675L233.07150025462033,220.13275645431168L229.32940967642207,219.13822107281158L226.36489636123588,220.81084071432815L224.32375604584377,216.92306910172192L218.63772231014445,216.47098871589697L219.998482520401,218.86698171502394L223.9835659932869,221.353303425798L221.6022356253452,226.09967410814716L217.17976494201866,225.64765257101317L213.63206867957342,227.68172667019644L210.57035820649617,228.31453775739647L206.8282676282979,229.35414364551434L200.89924099791097,228.5857407708354L193.7552498940713,229.03774347571016L193.12346836788493,227.68172667019644L189.38137778968667,227.36531899719193L188.31220905305963,228.31453775739647L184.2785270012464,227.63652566097335L182.28598526479618,230.71012829703977L181.7514008964863,235.22988889264525L176.06536716077972,230.0321392298738L173.53824105601961,228.9021429684126L170.1849391093201,231.74969887652878L167.6092144256254,231.4785080284928L163.9157224263763,227.1845139752204L158.42408300642273,228.5405403410241L156.23714695422677,227.27491654414916L154.1960066388492,227.59132462277375L151.42588763940148,225.87366370179006L152.39785921815928,223.02587050829425L157.2091185329773,221.98617131313586L160.31942758498917,218.2792928587478L162.70075795293087,217.19431594113485L163.47833521593566,215.0695210879221L166.58864426794753,212.58297766074975L170.52512916188425,211.0005861482441L172.8578609508986,208.78517831036334L174.99619842415268,208.19740535110031L181.31401368604566,203.44982853346482L185.63928721149568,204.12807339109168L188.65239910563105,202.59070900082224L192.24869394700363,198.29495406110073L194.9216157885894,196.6670205293267L196.08798168308567,194.1346046246381L201.8712125766615,190.8332827505401L206.43947899680643,190.4714846328916L209.93857668030978,192.73269234192776L218.7349194680137,192.41612763787998L222.03962283578585,191.96388987544015L227.43406509784836,193.0040323831454L234.28646472806577,191.24030340872923L239.53511125332443,188.34588310999789L241.8192444633969,187.66748612319498L245.31834214690025,186.22021734716873L246.82489809396793,187.35089862333552L249.93520714597253,187.4865791549255Z"/>

    <path name="大同鄉" class="town" d="M162.94375084762578,181.69731042961575L163.67272953168867,184.18494523685513L166.977432899439,187.93884570312912L173.29524816133198,191.8282179798407L175.28778989777493,192.14478532926296L176.7943458448426,195.26515870056573L178.93268331809668,196.30525240827956L183.30655542249588,200.3298180267666L181.31401368604566,203.44982853346482L174.99619842415268,208.19740535110031L172.8578609508986,208.78517831036334L170.52512916188425,211.0005861482441L166.58864426794753,212.58297766074975L163.47833521593566,215.0695210879221L162.70075795293087,217.19431594113485L160.31942758498917,218.2792928587478L157.2091185329773,221.98617131313586L152.39785921815928,223.02587050829425L151.42588763940148,225.87366370179006L154.1960066388492,227.59132462277375L156.23714695422677,227.27491654414916L158.42408300642273,228.5405403410241L163.9157224263763,227.1845139752204L167.6092144256254,231.4785080284928L170.1849391093201,231.74969887652878L173.53824105601961,228.9021429684126L176.06536716077972,230.0321392298738L181.7514008964863,235.22988889264525L182.28598526479618,230.71012829703977L184.2785270012464,227.63652566097335L188.31220905305963,228.31453775739647L189.38137778968667,227.36531899719193L193.12346836788493,227.68172667019644L193.7552498940713,229.03774347571016L200.89924099791097,228.5857407708354L206.8282676282979,229.35414364551434L210.57035820649617,228.31453775739647L212.417104206128,231.43330945245725L219.12370809951244,234.41635335478168L222.67140436195768,236.49536997413998L224.51815036160406,236.04341505044067L227.23967078210262,239.29742589559282L232.68271162312158,239.88493964106056L233.46028888612636,239.2522323279827L234.04347183337086,242.86762629809527L233.12009883354767,244.81082404850895L234.91824625425215,247.8384907053387L237.25097804325196,249.7815516638966L238.41734393777006,253.93861884454236L243.37439898939192,256.06224354313235L247.79686967271846,259.58641602529497L251.24736877729447,259.90267932105235L252.55953040860913,260.98699987680084L251.78195314560435,264.1043288209585L247.6510739359146,265.14340792167786L245.51273646266054,268.98335036729077L243.32580041046458,267.7184511817868L239.58370983226632,268.6671276920333L234.578056201688,264.87234528077715L234.14066899124737,263.1104127814215L230.73876846560597,265.14340792167786L228.7462267291703,264.7819908361944L223.59477736178087,260.26412135468854L220.19287683615403,261.21289789876937L215.86760331069672,264.4205719030906L212.90308999551053,269.79648789660314L210.52175962756155,271.4679079032194L204.2039443656613,271.1516963368613L204.73852873397846,273.6813492874153L203.08617705010693,278.1080243052056L203.08617705010693,282.5795883212231L201.3366282083516,291.8379896637798L199.19829073509754,294.999117803618L198.517910629962,299.87601026468656L194.38703142027225,303.84952635703667L189.86736357907648,304.12043979728696L184.9589071063674,307.7325200764353L184.71591421168705,309.80938291511666L181.94579521223204,313.6469042223598L182.3831824226727,316.0847510926433L180.58503500198276,318.5225141949886L178.78688758129283,326.783199789179L177.23173305528326,327.4602625396692L165.66527126812434,324.61655559499013L163.72132811063057,322.5401261855841L162.11757500567182,324.16516306433186L163.13814516337152,327.7762229469881L162.55496221611247,329.8073634230077L160.12503326923616,332.1543867310211L157.8409000591637,331.296829515255L156.28574553316867,328.72409573284494L153.61282369159017,329.2205954755482L148.16978285057849,328.85950509787835L146.51743116669968,327.55053708523883L141.60897469399788,326.5123728810686L136.36032816873922,327.9567711198724L133.881800642921,327.86649709081576L129.5079285385218,329.0851867991023L122.1695431189437,329.98790643140273L121.10037438232393,329.31086778306053L116.4835093832371,329.3560038937758L110.0684969634749,332.4703262529765L105.93761775378516,338.2923887486777L103.50768880690157,338.4729101918583L102.09833001770312,341.72221774894206L97.2870707028851,345.6482661839982L96.80108491350256,354.1314005883778L91.21224833567248,357.28975596163946L88.49072791517392,362.1172568075981L88.97671370454918,364.6436687665191L86.88697481022245,366.76398102178246L85.91500323148648,371.9066037476041L82.02711691646982,371.86149463658694L77.0700618648334,374.02669973747106L73.52236560238816,373.7109447599669L71.04383807656268,374.9288491030529L67.30174749835714,373.80116061066474L61.421319446912094,376.86843154953567L60.78953792072571,379.2139025721244L57.290440237222356,380.97295517106977L53.4025539222057,380.2512978196264L51.21561787000974,377.815650296041L50.09785055444081,374.02669973747106L51.458610764704645,371.9968218839331L48.98008323887916,368.4331185848823L44.071626766170084,366.17751799289726L37.413621451720246,366.4481938373483L35.42107971528458,367.8917809602117L32.262172084330814,363.47070293818797L30.026637453207513,363.245130370442L28.471482927190664,358.41770604303383L29.735045979585266,354.9435625063088L29.735045979585266,350.1606977053452L30.415426084698993,346.91177587916354L30.075236032149405,343.1663067542704L26.235948296067363,339.1498615190794L24.72939234899968,338.9242117932772L27.888299979953445,330.3489910711396L30.99860903195804,326.060992405015L34.15751666289725,324.34572042104446L34.108918083962635,321.5018887009064L36.247255557216704,320.1025011023539L37.413621451720246,316.2201845735417L39.11457171453367,314.7755474474707L41.35010634567152,314.7755474474707L45.28659123961552,313.46631963984146L49.028681817813776,308.27431624670317L51.94459655407263,307.1455695534205L52.86796955388127,304.6622635716976L53.305356764321914,300.32755740368157L58.60260186852247,300.1017841938283L62.83067823610327,292.3347477140396L65.84379013023863,291.8831496304938L67.83633186668158,289.44447022035274L66.57276881429425,287.7734747324048L65.30920576192148,283.48290028779047L66.32977591960662,278.74038384355845L64.24003702529444,274.5847748469605L67.54474039305205,271.01617666136553L69.00269776118512,267.0408173106862L73.23077412875136,264.69163627612943L71.72421818168368,260.1285808086959L69.29428923480737,256.42370522009696L68.66250770862098,253.8934346467886L73.52236560238816,247.4769850935918L76.34108318077051,248.9229964371698L79.59718796957895,247.74811447590582L81.24953965346504,246.07613336721988L82.70749702159083,241.33110648749425L85.28322170528554,237.35407635431693L84.8458344948449,235.72704488141608L87.7617492311183,229.7157421015636L90.09448102011811,228.45013939448472L90.04588244117622,225.28603325495533L93.35058580892655,220.67522438416927L91.55243838823662,218.414913799008L92.42721280911792,214.39138158342575L94.61414886131388,213.1707140271228L97.53006359756546,208.19740535110031L102.73011154389678,208.92081752745435L104.13947033308796,208.24261882981227L111.52645433160069,207.0670589496258L114.5395662257506,208.19740535110031L117.84426959350094,205.4845435066727L121.14897296125855,204.39936950477386L124.5508734868854,201.82201421654645L125.91163369714923,202.54549189291538L130.4799001172796,202.50027475595925L133.25001911673462,200.05850623017068L137.18650401067862,199.56109855369868L138.20707416837104,196.12436765035636L137.7210883789885,193.23014828478335L140.53980595737085,189.83833344938103L144.08750221982336,189.83833344938103L148.16978285057849,186.8986282942551L150.7455075342732,185.81316763754148L152.93244358646916,186.5368099368825L154.43899953353684,185.17997451715564L156.67453416466742,187.35089862333552L157.9380972170402,184.63723301882237L158.229688690677,180.74746301024425Z"/>

    <path name="頭城鎮" class="town" d="M354.1791589671848,111.14748121209959L356.9492779666398,114.49782819872053L355.10253196700796,116.62566800497734L352.8183987569355,115.72021216419671L348.1529351789286,116.58039549111527L344.1678517060427,114.76947092490809L342.02951423278864,109.97029418867533L345.7716048109869,111.3285851501987L347.90994228424097,107.5705823773933L352.38101154649485,107.93280830276308ZM282.6420507710136,132.46925019122318L280.7467061924326,132.19767611273892L280.6495090345634,129.11976298898844L279.58034029793635,125.86064875199372L282.69064934994094,120.29264439787585L281.08689624499675,119.20615289809393L276.4700312459245,122.01288812590246L272.7279406677335,121.83181182893895L270.2980117208426,119.47777735374257L267.4792941424603,117.98382980592942L266.7989140373393,115.72021216419671L264.2717879325792,112.91322461525306L261.3072746173857,111.1927572405657L259.21753572306625,107.79697380054859L258.19696556536655,104.62742719956987L250.90717872472305,107.93280830276308L245.22114498902374,106.21221845229957L248.67164409359975,104.76326785680067L252.219340356045,104.49158627851102L256.3988181446766,99.28415203951408L259.5091271966885,98.87659734461522L260.57829593331553,97.15578466201259L264.5147808272668,93.80460681460318L263.10542203807563,91.76664982747934L262.8138305644534,86.01476173078845L267.0905055109615,83.70481512210972L268.64566003695654,82.11951344076442L268.40266714228346,79.99062314381808L274.57468666735076,79.35647306260944L277.636397140428,77.95226310068938L278.2195800876725,76.32153221800581L281.6214806133139,78.4505343842593L283.7112195076261,77.40869037206176L288.57107740140054,77.2274985220356L294.45150545285287,71.29320549896329L295.61787134734914,69.02807510927414L298.97117329404864,66.58165169439235L299.8459477149154,64.22575547148881L297.4646173469737,62.866548379497544L296.1524557156663,58.60752795231565L292.6533580321484,56.115427280034055L292.36176655852614,53.80449069075803L293.47953387409507,49.36365236628626L296.44404718928854,45.82890531035082L300.0403420306611,45.33040091257135L303.63663687205553,43.97082533337198L308.9338819762561,45.647631396599536L314.4741199751443,43.69890703341298L318.1190133954733,43.381667675215795L322.1040968683592,42.067374942320384L324.97141302567616,37.897730397186024L328.7135036038744,37.71643584049343L331.8724112348209,35.04228629678255L334.9827202868328,35.54086434022793L340.7173526014594,34.22642361474391L341.20333839084196,32.957284881740634L344.3622460217957,32.18672507611882L346.06319628460915,30.237623960349083L355.78291207213624,30.328281036529006L357.43526375600777,33.002611663490825L353.4501802831219,33.22924512953614L351.5062371256281,34.72500750099607L346.2575906003549,36.53800971609962L344.8968303901056,38.30564142397998L342.1267113906506,38.21499473562835L336.6836705496462,41.20627315322963L333.81635439232923,46.91653888840847L334.1079458659515,48.45732406155912L331.8724112348209,50.677807470936386L329.3452851300608,51.312218307488365L326.2835746569981,53.62323752220982L325.74899028868094,56.56854311876123L324.09663860479486,57.384144207524514L320.9377309738629,57.0216560126355L317.3414361324685,60.1480547287083L316.02927450115385,69.29989463832499L309.176874870951,77.18220048605872L306.0665658189464,78.85820824412258L303.2478482405568,83.11599298390138L298.5823846625426,85.60712964465347L294.11131540028873,93.48759518637235L287.9392958751996,108.02336449104769L284.6831910863766,120.24737425534295Z"/>

    <path name="南澳鄉" class="town" d="M270.1036174050969,248.78743413148914L272.24195487835095,251.95048680317814L275.6438554039778,253.44159107977612L279.8719317715586,260.62556153991864L278.80276303493156,263.83326219602895L279.6289388768637,264.7819908361944L279.7747346136821,272.6875678458073L281.67007919224125,275.7140405730206L284.0028109812556,276.8884578081379L288.37668308564025,276.3012516273084L289.98043619058444,277.0691356525913L292.50756229534454,281.4504321518398L294.5001040317802,281.8117640859L297.0758287154749,284.56685943230696L296.2496528735428,288.08961203826584L293.09074524258904,288.857368190791L287.16171861220937,297.6633876916221L287.3075143490132,301.7273352514476L284.0514095601902,310.0802735836114L282.1074664026819,310.5317557316248L282.54485361312254,317.12306783923304L279.43454456111795,321.86301650517635L276.9074184563651,322.67554734650366L274.13729945692467,325.3387776737909L267.4792941424603,327.4602625396692L265.8755410375161,328.9949142046844L262.47364051188924,329.76222759919074L261.55026751206606,331.2065597322762L264.7091751430198,335.9455682471744L265.9727381953926,339.05960171474544L269.7148287735836,343.7078325668572L272.4849477730386,344.61036641970895L269.1316458263391,353.09362464232436L267.673688458206,357.65070193328756L266.60451972159353,363.6962747910202L265.58394956389384,377.7705449270161L260.91848598587967,389.1361951128638L258.6829513547491,394.0066333974446L257.2735925655579,400.27457842492186L258.87734567049483,407.5789707249987L258.925944249444,410.01360206740173L256.88480393405916,411.2308866075382L251.24736877729447,410.5997046216162L243.86038477877446,405.73039888180574L238.95192830606538,405.6402234209945L235.16123914893979,403.9719568464079L228.26024093979504,403.5661563781214L224.22655888796726,402.2585613952706L219.56109530996764,399.32765801469577L215.52741325813258,399.68839108135035L214.16665304787603,396.5770084038868L212.70869567975024,395.6751329847648L208.5778164700605,397.5239653225708L207.5572463123608,394.18701361289277L204.83572589186224,394.1419186017956L203.7179585762933,391.8420352266112L194.33843284133036,385.7537505570399L195.65059447264503,389.9479579284216L194.6786228938945,390.8048086522449L190.4505465263137,386.5204520554962L190.25615221056796,385.07724238653645L185.49349147467728,378.898170585775L180.73083073880116,381.1082651108336L180.7794293177285,386.4302523072183L183.40375258035783,388.1440280092138L183.64674547504546,390.7597115024255L187.63182894793135,391.39106900456136L186.51406163236243,396.17116587634337L186.51406163236243,398.9218311346467L183.30655542249588,398.5610941922587L181.36261226498755,396.39663423225466L180.0018520547237,393.10472547711106L178.10650747616455,395.72022702652794L177.6691202657239,399.9138483218667L175.38498705565144,398.3356326770372L173.48964247707772,398.7865549949929L172.90645952983323,401.6723903496677L171.15691068807791,402.123291581338L169.31016468845337,399.8236655111468L167.46341868882155,400.77057933891774L167.8522073203203,402.7545485194005L171.9830865300246,408.34543769459924L173.19805100345548,411.50139146502806L166.39424995217996,409.38240932085864L163.1867437423134,409.56275067496426L157.2091185329773,407.533884176406L154.0016123230962,408.52578166803505L150.79410611320782,406.0910995858976L149.1417544293363,405.86566185943593L147.05201553500956,401.08621448908343L141.2201860625064,397.2985005296905L139.08184858925233,398.38072503707735L132.52104043265717,396.5770084038868L129.6537242753402,394.41248824070317L127.75837969678105,395.44966234829735L123.48170475027291,395.49475653260197L120.51719143507216,394.45758308072436L117.30968522519106,396.53191490373683L114.2965733310557,394.90852991292377L110.84607422647969,391.39106900456136L107.44417370083829,389.40678374493655L105.59742770120647,389.7675669903074L100.30018259702047,387.3322446542952L93.64217728256335,382.1907353797742L91.74683270400419,377.7705449270161L88.97671370454918,377.4097009468078L85.91500323148648,371.9066037476041L86.88697481022245,366.76398102178246L88.97671370454918,364.6436687665191L88.49072791517392,362.1172568075981L91.21224833567248,357.28975596163946L96.80108491350256,354.1314005883778L97.2870707028851,345.6482661839982L102.09833001770312,341.72221774894206L103.50768880690157,338.4729101918583L105.93761775378516,338.2923887486777L110.0684969634749,332.4703262529765L116.4835093832371,329.3560038937758L121.10037438232393,329.31086778306053L122.1695431189437,329.98790643140273L129.5079285385218,329.0851867991023L133.881800642921,327.86649709081576L136.36032816873922,327.9567711198724L141.60897469399788,326.5123728810686L146.51743116669968,327.55053708523883L148.16978285057849,328.85950509787835L153.61282369159017,329.2205954755482L156.28574553316867,328.72409573284494L157.8409000591637,331.296829515255L160.12503326923616,332.1543867310211L162.55496221611247,329.8073634230077L163.13814516337152,327.7762229469881L162.11757500567182,324.16516306433186L163.72132811063057,322.5401261855841L165.66527126812434,324.61655559499013L177.23173305528326,327.4602625396692L178.78688758129283,326.783199789179L180.58503500198276,318.5225141949886L182.3831824226727,316.0847510926433L181.94579521223204,313.6469042223598L184.71591421168705,309.80938291511666L184.9589071063674,307.7325200764353L189.86736357907648,304.12043979728696L194.38703142027225,303.84952635703667L198.517910629962,299.87601026468656L199.19829073509754,294.999117803618L201.3366282083516,291.8379896637798L203.08617705010693,282.5795883212231L203.08617705010693,278.1080243052056L204.73852873397846,273.6813492874153L204.2039443656613,271.1516963368613L210.52175962756155,271.4679079032194L212.90308999551053,269.79648789660314L215.86760331069672,264.4205719030906L220.19287683615403,261.21289789876937L223.59477736178087,260.26412135468854L228.7462267291703,264.7819908361944L230.73876846560597,265.14340792167786L234.14066899124737,263.1104127814215L234.578056201688,264.87234528077715L239.58370983226632,268.6671276920333L243.32580041046458,267.7184511817868L245.51273646266054,268.98335036729077L247.6510739359146,265.14340792167786L251.78195314560435,264.1043288209585L252.55953040860913,260.98699987680084L251.24736877729447,259.90267932105235L247.79686967271846,259.58641602529497L243.37439898939192,256.06224354313235L238.41734393777006,253.93861884454236L237.25097804325196,249.7815516638966L234.91824625425215,247.8384907053387L233.12009883354767,244.81082404850895L234.04347183337086,242.86762629809527L233.46028888612636,239.2522323279827L235.50142920149665,237.76082836095702L238.5631396745739,237.44446589173458L240.31268851632922,240.33686996355573L242.93701177896583,238.80029506018218L245.46413788371865,242.0993705734345L247.26228530440858,240.0657121173099L250.17820004066743,238.70990725934098L254.6978678818632,240.4272556808064L259.5577257756304,243.13877338120983L265.2437595113297,247.74811447590582L268.6942586159057,249.91711206140644Z"/>

    <path name="蘇澳鎮" class="town" d="M295.4234770316034,224.2915705727046L298.97117329404864,233.69320277923725L302.37307381968276,240.0657121173099L306.16376297681563,243.90701779452684L309.9058535550139,244.5848735697091L310.7806279758879,246.30207907380827L313.69654271214677,246.39245715399375L315.83488018540083,249.73636480688947L312.8703668702001,250.0074855151979L309.9058535550139,251.4082592622617L312.8703668702001,254.57119457876252L310.0516492918323,258.2309858698409L310.8292265548371,262.161661707285L308.05910755538207,263.0200560848807L307.7675160817598,265.7307067451675L308.73948766051035,270.24822692868656L308.78808623944497,276.03023174630835L310.24604360757803,280.32125796823493L309.32267060775484,282.4440905319789L310.0516492918323,286.373421125254L307.4273260291957,290.3476946078754L303.4908411352517,290.6186596778334L301.1095107673027,292.4250669852245L293.7225267687754,294.5023784378536L292.7019566110903,296.6247859219384L291.82718219021626,302.22402397148835L292.8477523479087,307.0101187426899L298.14499745210196,308.9064065464536L298.24219460998575,314.4595291545502L303.15065108268755,315.136709486962L300.67212355686206,316.85220406598455L297.17302587335143,317.7550792888087L293.3823367162113,319.6962221147205L289.3486546643908,323.98460524834627L284.87758540212235,325.8804394110175L282.69064934994094,327.6859486883677L283.41962803400384,330.80034428894214L277.78219287723186,338.9242117932772L273.99150372010627,341.90273047926894L272.4849477730386,344.61036641970895L269.7148287735836,343.7078325668572L265.9727381953926,339.05960171474544L264.7091751430198,335.9455682471744L261.55026751206606,331.2065597322762L262.47364051188924,329.76222759919074L265.8755410375161,328.9949142046844L267.4792941424603,327.4602625396692L274.13729945692467,325.3387776737909L276.9074184563651,322.67554734650366L279.43454456111795,321.86301650517635L282.54485361312254,317.12306783923304L282.1074664026819,310.5317557316248L284.0514095601902,310.0802735836114L287.3075143490132,301.7273352514476L287.16171861220937,297.6633876916221L293.09074524258904,288.857368190791L296.2496528735428,288.08961203826584L297.0758287154749,284.56685943230696L294.5001040317802,281.8117640859L292.50756229534454,281.4504321518398L289.98043619058444,277.0691356525913L288.37668308564025,276.3012516273084L284.0028109812556,276.8884578081379L281.67007919224125,275.7140405730206L279.7747346136821,272.6875678458073L279.6289388768637,264.7819908361944L278.80276303493156,263.83326219602895L279.8719317715586,260.62556153991864L275.6438554039778,253.44159107977612L272.24195487835095,251.95048680317814L270.1036174050969,248.78743413148914L272.09615914153255,248.19999446648944L272.97093356241385,244.76563401059866L276.5186298248591,244.67525384800865L278.3653758244909,240.65321946755284L278.55977014023665,236.72134635046314L280.21212182412273,236.90212693048852L281.5242834554374,234.59713984051268L284.0028109812556,234.3711566609636L283.8570152444445,231.11691860928113L285.3635711915049,230.98132209919095L284.78038824426767,226.82290254056898L281.6214806133139,224.4271799462149L279.38594598218333,220.4039909410967L280.16352324518084,218.77656836379902L283.9056138233864,219.0930145856728L285.12057829681726,222.66423774478244L287.8420987173304,222.07658054751118L290.80661203251657,225.19562813615994Z"/>

    <path name="五結鄉" class="town" d="M252.1221431981685,183.68742531648059L255.91283235530864,185.58702789191193L259.9465144071364,184.77291878613687L262.1334504593251,184.4110894914793L266.55592114265164,185.58702789191193L278.6569672981277,186.2654449472393L283.9542124023137,184.23017414596507L287.9392958751996,183.9588002548826L291.9729779270201,182.96375369340785L291.00100634827686,187.03430969837245L291.9729779270201,203.4046119773193L291.82718219021626,208.37825909179264L293.5281324530297,217.78201384495696L295.4234770316034,224.2915705727046L290.80661203251657,225.19562813615994L287.8420987173304,222.07658054751118L285.12057829681726,222.66423774478244L283.9056138233864,219.0930145856728L280.16352324518084,218.77656836379902L279.38594598218333,220.4039909410967L279.33734740324144,216.56140502507878L278.2195800876725,213.93928495436376L278.8999601928008,210.5484677587101L278.0251857719268,208.69475202052308L273.4569193517964,209.82507229936164L271.8045676679103,206.4340570400127L264.6605765640852,205.03238970498205L259.99511298607104,202.0481017890852L257.3221911444998,201.09852910504014L256.9334025129938,198.56627265550196L253.28850909267203,197.1644486592122L254.11468493460416,194.0441595138418L250.37259435641317,189.2051765668275L249.93520714597253,187.4865791549255L246.82489809396793,187.35089862333552L245.31834214690025,186.22021734716873L241.8192444633969,187.66748612319498L242.83981462108204,184.36586069873738L245.17254641008185,182.60191508870048Z"/>

    <path name="宜蘭市" class="town" d="M257.85677551281697,152.65331162969778L258.0511698285627,155.36821301454438L260.481098775439,154.96098450263344L263.0082248801991,157.58530457176857L264.90356945876556,156.95185698759633L266.2643296690294,159.8475707083071L266.41012540583324,163.28607562162324L263.6400064063928,165.54815807854538L264.7091751430198,171.1578081952448L261.5016689331387,171.02209614156527L259.7521200913761,173.05774942170865L259.7035215124488,176.6765429761781L258.58575419687986,182.19484443246984L259.9465144071364,184.77291878613687L255.91283235530864,185.58702789191193L252.1221431981685,183.68742531648059L251.3445659351637,180.476075676057L249.88660856703063,179.7071392061589L244.9295535154015,180.29515020454164L240.36128709526383,178.07877538530192L238.75753399031964,179.30005178742613L238.22294962200976,173.37440129786592L240.40988567420573,169.80067586063524L242.5482231474598,167.85540712325928L238.6117382535158,166.90537257838878L235.3070348857509,164.00994993607856L234.82104909637565,161.97403440549715L236.86218941176048,159.1236534769614L238.22294962200976,154.3275132315066L238.7089354113923,152.01981952550705L236.61919651706557,148.08299036735662L236.47340078024718,145.45831484367045L240.45848425313307,146.6349056725794L243.13140609471156,149.3952913006542L246.43610946246918,147.268446405129L250.51839009323157,147.53996211019876L252.17074177711766,146.1823730742617L253.43430482949043,148.89752487104124L256.2530224078582,152.60806238336045Z"/>

    <path name="壯圍鄉" class="town" d="M280.7467061924326,132.19767611273892L282.6420507710136,132.46925019122318L281.96167066587805,138.08154553998065L281.4756848764955,148.89752487104124L281.67007919224125,156.36365054039925L282.9822408235632,166.09104702588775L285.5093669283233,174.41481884381028L289.0570631907758,181.83300187050008L291.9729779270201,182.96375369340785L287.9392958751996,183.9588002548826L283.9542124023137,184.23017414596507L278.6569672981277,186.2654449472393L266.55592114265164,185.58702789191193L262.1334504593251,184.4110894914793L259.9465144071364,184.77291878613687L258.58575419687986,182.19484443246984L259.7035215124488,176.6765429761781L259.7521200913761,173.05774942170865L261.5016689331387,171.02209614156527L264.7091751430198,171.1578081952448L263.6400064063928,165.54815807854538L266.41012540583324,163.28607562162324L266.2643296690294,159.8475707083071L264.90356945876556,156.95185698759633L263.0082248801991,157.58530457176857L260.481098775439,154.96098450263344L258.0511698285627,155.36821301454438L257.85677551281697,152.65331162969778L257.9053740917443,149.9835561639302L261.45307035418955,148.76176977724572L262.5222390908166,145.23204511360927L264.07739361682616,143.78390155358284L266.31292824795673,145.36780703923978L269.27744156314293,138.9867123828135L274.13729945692467,140.20866908174503L277.24760850892926,137.04058922094373L276.4700312459245,135.27545404320517L278.07378435086866,132.0166261423401Z"/>

    <path name="礁溪鄉" class="town" d="M280.7467061924326,132.19767611273892L278.07378435086866,132.0166261423401L276.4700312459245,135.27545404320517L277.24760850892926,137.04058922094373L274.13729945692467,140.20866908174503L269.27744156314293,138.9867123828135L266.31292824795673,145.36780703923978L264.07739361682616,143.78390155358284L262.5222390908166,145.23204511360927L261.45307035418955,148.76176977724572L257.9053740917443,149.9835561639302L257.85677551281697,152.65331162969778L256.2530224078582,152.60806238336045L253.43430482949043,148.89752487104124L252.17074177711766,146.1823730742617L250.51839009323157,147.53996211019876L246.43610946246918,147.268446405129L243.13140609471156,149.3952913006542L240.45848425313307,146.6349056725794L236.47340078024718,145.45831484367045L236.61919651706557,148.08299036735662L238.7089354113923,152.01981952550705L238.22294962200976,154.3275132315066L234.43226046488417,150.888569398654L227.871452308289,147.67571956861502L225.05273472990666,147.99248594977325L221.6994327832217,146.45389298362352L216.83957488945452,146.00135921740184L213.34047720595117,145.0057746535258L207.46004915449157,145.8203448933491L203.96095147097367,143.64813656163642L200.80204384003446,142.60726289068407L197.1571504197127,140.16341180604104L185.34769573785888,138.9867123828135L181.70280231753713,139.7108374421241L182.96636536991718,138.53413042238026L182.33458384373807,135.63753667813216L185.0075056853093,131.51873631159106L189.52717352650507,130.47768250549962L193.07486978895759,131.0661061226201L193.9496442098316,128.71238200154403L197.49734047227685,130.251364413798L200.5104523664122,130.29662809063848L204.88432447079686,126.99230282472854L208.96660510155198,128.57658781260943L211.0563439958787,126.67544152731534L215.43021610026335,126.76597347284951L215.23582178451034,121.7412735048456L219.07510952057783,119.3419652576431L220.43586973084166,116.4445777738456L222.57420720409573,116.67094048955914L225.5387205192892,113.59234483008368L228.21164236085315,112.91322461525306L232.14812725479715,108.38558807204572L237.63976667476527,104.98966836592444L240.55568141102412,105.30662784755805L242.4510259895833,106.89140371197391L245.22114498902374,106.21221845229957L250.90717872472305,107.93280830276308L258.19696556536655,104.62742719956987L259.21753572306625,107.79697380054859L261.3072746173857,111.1927572405657L264.2717879325792,112.91322461525306L266.7989140373393,115.72021216419671L267.4792941424603,117.98382980592942L270.2980117208426,119.47777735374257L272.7279406677335,121.83181182893895L276.4700312459245,122.01288812590246L281.08689624499675,119.20615289809393L282.69064934994094,120.29264439787585L279.58034029793635,125.86064875199372L280.6495090345634,129.11976298898844Z"/>
</svg>
