<?xml version="1.0" encoding="utf-8"?>
<svg version="1.1" xmlns="http://www.w3.org/2000/svg" xmlns:xlink="http://www.w3.org/1999/xlink" x="0px" y="0px"
	 viewBox="0 0 687 438" style="enable-background:new 0 0 687 438;" xml:space="preserve" data-w="687" data-h="438">
    <style type="text/css">.town{fill:#9CCA97;stroke:#FFFFFF;stroke-width:1.5;stroke-linecap:round;stroke-linejoin:round;}</style>

	<path name="麥寮鄉" class="town" d="M206.7,153.8l-10.3-0.7l-6.2,0.3l-5.1,6.1l-6.2,2.2l-9.4,0.7l-5.2-2.1l-9.3-0.6l-4.2-2.7
			l-4.9-7.4l-4-8.2l-6.1-6.1l-7.7-2.9l-2.6-3.5l-8.2-1.3l-8.3,1.3l-8,6.1l-36.2-0.2l1.5-2.3l-6.7-16.1l-0.1-8.5l-6.4-5.6l3.5-2.6
			l5.3-9.2L73,80.2L72.5,77l6.9-5.4l0.7-6.2l10.5-3l9.1-10l8.2-12.5l0.8-5.6l-4.2-3.5l0.7-4.1l9.9-2.8l5.3-9.2l1.2-9.2l7.7,10.6
			l9.1,10.8l8.4,8l12.3,8.4L210,58l-0.2,18.4l-5.2,1.7l-4.1,14.3l3.1,6.4l-1.7,8.4l2.9,3.4l6.3-1.5l3,2.5l1,15.8l-13.3-0.7l-1.3,3.7
			l8,7.9l-1.8,3.2V153.8z"/>

	<path name="斗六市" class="town" d="M500.9,131.5l4.3,6l-3.5,4.7l3.6,8.4l10.9,7.7l3.9-6.3l5.9,12.8l7.9,1.8l-0.2,5.9l6.7-1.6
			l4.1,5.5l7.9,2.9l3.8,3.4l4.5-0.2l9.9,3.8l4.8-1.1l1.9,10.6l4.5,2.8l-2.4,3.9l3.4,9.6l-0.4,8.1l2.2,2.4l-2.3,6.5l0.6,5.7l-2.6,4.9
			l-6.2-1.3l-6.2-7.5l-5.1-10.1l-4.2-2.6l-2-4.7l-6.7-7.9l-7.3,0.1l-14.5,3.8l-2.6-2l-17.6,1l1.4,7.4l-7.3,3.3l-3.6-7.2l-5.1,0.7
			l-6.6,3.4l1,4.7l5.4,2l-0.5,4.7l-6.4,9.3l-7.2-2.4l-6.9,0.2l-6.2-2l-2.5,3.3l1.2,5.9l3.4,3.6l-4.5,15.3l-10.1-5.1l-10.9-4.1
			l-3.5-6.2l-4.4-0.5l-2.5-13.4l-6.3-5.6l-2.5-7.4l4.3-4.1l-1.7-6l-4.3-2l-2.7-9.7l2.2-8.1l2.5-3.1l-4.4-7l2.8-5.5l5.6-5.2l8.5-1.8
			l20.5-7.9l4-8.8l14.1-5.7l7.8-1.5l5.6-7.4L500.9,131.5z"/>

	<path name="斗南鎮" class="town" d="M422.3,172.8l-2.8,5.5l4.4,7l-2.5,3.1l-2.2,8.1l2.7,9.7l4.3,2l1.7,6l-4.3,4.1l2.5,7.4l6.3,5.6
			l2.5,13.4l4.4,0.5l3.5,6.2l10.9,4.1l10.1,5.1l-0.8,3.4l3.2,5.3l-9.6,0.1l-3.9,5.6l-7.8-0.1l-2.9,5.3l-7.5,1.9l-3.6-1.6l-7-1.5
			l-7.2,2.1l-4.1-3.1l-3.5,6.2l-7.7-2.5l-11,2.9l-0.4-3l6.8-34.9l-4.2-4.3l-11.5,1.3l-1.1-4.1l-8-6.6l-5.3,1.2l-4.1,3.7l-2.9-2.4
			l-11.4,1.1l-1.2-3.8l-7.1,0.6l-5.6-7L341,214l4.1,1.6l17.8,0.8l4.7,1.8l5.9-1.2l5.1-6.8l4.8-3l4.1-5.5l7.6-5.2l7.8-0.8l2.8-3.7
			l-4-9.4l4.2-5.6l8.7-0.7L422.3,172.8z"/>

	<path name="虎尾鎮" class="town" d="M302.4,147.7l8.4-0.9l4.1,2l9.9-0.3l9.9,1.6l5.8,1.1l3.6,3.8l14,2L378,157l-0.8-5.8l13.2,0.5
			l5.1-3.4l7.8,1.2l6.8-1.1l9,0.6l-2.4,7.4l9.4,7.8l1.8,3.4l-5.6,5.2l-7.8,3.6l-8.7,0.7l-4.2,5.6l4,9.4l-2.8,3.7l-7.8,0.8l-7.6,5.2
			l-4.1,5.5l-4.8,3l-5.1,6.8l-5.9,1.2l-4.7-1.8l-17.8-0.8L341,214l-6.7,12.3l-5.2,9.3l-5,3.6l-3.7-14.3l-7.6,1.4l-3.6-6.1l6.6-13.7
			l-16.8-1l0.4,3.8l-7.1-0.4l-3.2-2.9l0.7-6.7l2.9-4.3l0.4-8.6l-9.6-0.7l0.9-19.6l2.4-4.4l5.3,3.9l4.8-4l-5.8-8.2l-1.9-6.1
			L302.4,147.7z"/>

	<path name="西螺鎮" class="town" d="M438.8,83.9l-12.4,19.4l-3.8-0.8l-14.3,0.4l-8.6,4l4.2,10.6l-1.5,16.1l1.1,15.7l-7.8-1.2
			l-5.1,3.4l-13.2-0.5l0.8,5.8l-19.9-0.1l-14-2l-3.6-3.8l-5.8-1.1l5.4-5.2l5.7-0.7l-0.9-6.6l6.3-0.7l-7.6-6.1l6.1-3.4l2.1-4.8
			l-1.8-5.7l-9.1-4l-0.9-3.1l7.5-9.4l-0.7-5.7l2-27.5l3.8,0.9l3.4-4.8l11.1-3.9l5.1,4.1l6.7,1.4l18.6,8.4l8.5,2.9l16.5,3.4
			L438.8,83.9z"/>

	<path name="土庫鎮" class="town" d="M289.2,147.2l1.9,6.1l5.8,8.2l-4.8,4l-5.3-3.9l-2.4,4.4l-0.9,19.6l9.6,0.7l-0.4,8.6l-2.9,4.3
			l-0.7,6.7l3.2,2.9l7.1,0.4l-0.4-3.8l16.8,1l-6.6,13.7l3.6,6.1l7.6-1.4l3.7,14.3l-9.5,6.6l-11.9,13.7l-6.9-2.5l-6.6,0.1l-21.3,7.7
			l-14.5,2.3l-0.6-13.4l2.5-7.4l-3.1-10l-1.8-13.5l4.2-3.7l-9-9.6l-1.3-2.4l1.4-9.8l6.1,1.1l-3.8-8.7l6.3,0.6l1.7-12.4l4.1-0.7
			l0.7-9.3l4.4-0.3l-1-9.4l-8.3,0.1l-7.2-1.5l-8.6-8.2l2.1-3.2l8.3-0.2l7.1,2.5l5.1,4.2l4.5-1.5l9.7,1.1L289.2,147.2z"/>

	<path name="北港鎮" class="town" d="M188.1,280.3l11.2,1.9l6.5,2.6l-1.9,11.2h5.8l-0.2,9.6l12.3,2.2l-0.2,3.6l7.4,0.5l0.4,2.9
			l9.6,0.5l7.5,4.3l-0.5,9.1l-1.8,1.5l-0.5,14.9l-6.7,5.9l-7.1,2.1l-9.2-3l-5.6,4.1l4.2,8.3l-4.4,1.8l-9.7-2l-5.3,0.7l-3.7,3.3
			L198,378l-4.5,3.9l-10.5,4.4l-2.8-2l-3.3-9.6l1.8-11.6l5.1-7.6l-7.5-6.9l-5.1-1.1l-3.8-3.6l0.2-6.5l5.2-1.3l3.4-6.2l-2.8-6
			l3.9-14.8l-8.1-9.7l3.6-14.8l5.9,0.2l0.2-5.3L188.1,280.3z"/>

	<path name="古坑鄉" class="town" d="M580.6,239.5l-4.1,4.7l-6,15.1l0.3,10l-6.7,9.4l-0.4,6.4l2.4,9.5l4.8,2.2l3.6-5.7l6.9-7.4
			l9.2,2.6l-2.4,14.8l7.8,3.1l2.8,3.7l8.6,1.3l9.3-2l6.3,0.2l2.7-8.7l5.9-2.5l5.7,0.4l9,3.3l9.8-4.4l-1.2-8.1l6-2.5l5.7,9.5l7.5,4.5
			l0.2,8.6l-6.8,8.4l4.3,5.3l4.4,2.2l-2.8,4.6l4.3,10.3l-1.8,9.1l4.1,6.9l-8.4,1l-4.3-1.9l-6.8,3.4l-9.1-3.5l-0.4-4.2l-5.1,0.7
			l-11.2-1.7l-9.1,2.3l-5.1,3.6l-5,0.9l-5.9-9.2l-10.9,2.6l-2.8,4l-7.8,0.5l-3.3-4.6l-4.7-2.2l6-5.4l-2-6.1l2-5.5l-3.7-1.1
			l-16.2,4.2l-5.9-0.8l-6.7,7.7l-3.8-1.4l-6.1,3.2l-3.6-1.9l-7.4,1.1l-5.3-2.5l-6.5-0.1l-2.8,3.1l-10.4-0.8l-6.2-5.2l-5.7-1.7
			l-8.5,0.2l-1.3-4.3l-21.3-2.2l-8-6.1l-1.6-3.4l-11.3-9.8l-8-9.7l-4.2-8l1.2-5.8l-1.7-3.3l3.6,1.6l7.5-1.9l2.9-5.3l7.8,0.1l3.9-5.6
			l9.6-0.1l-3.2-5.3l0.8-3.4l4.5-15.3l-3.4-3.6l-1.2-5.9l2.5-3.3l6.2,2l6.9-0.2l7.2,2.4l6.4-9.3l0.5-4.7l-5.4-2l-1-4.7l6.6-3.4
			l5.1-0.7l3.6,7.2l7.3-3.3l-1.4-7.4l17.6-1l2.6,2l14.5-3.8l7.3-0.1l6.7,7.9l2,4.7l4.2,2.6l5.1,10.1l6.2,7.5L580.6,239.5z"/>

	<path name="大埤鄉" class="town" d="M390.3,284.5l-8.5,1.1l-5.6,3.4l-5.2-3.7l-7-0.9l-3.4,5.2l-10.1,5.3l-2,3.7l-8.5-1.1l-2.1-7
			l-4.6,4.5l-3.3-3l-6.7-1.6l-0.3-8.6l-5.9,0.5l1.9,6.1l-17.3,7l-7.4,13.1l-9.4,0.5l-5,2l2.8-8.3l2.8-1.7l12.4-25l4.8-16.5
			l11.9-13.7l9.5-6.6l5-3.6l5.2-9.3l5.6,7l7.1-0.6l1.2,3.8l11.4-1.1l2.9,2.4l4.1-3.7l5.3-1.2l8,6.6l1.1,4.1l11.5-1.3l4.2,4.3
			l-6.8,34.9L390.3,284.5z"/>

	<path name="莿桐鄉" class="town" d="M525.8,94.4l-8.4,14.2l-8,4.5l-3.2,6l-5.1,2.4l-0.2,10.1l-12.4,2.9l-5.6,7.4l-7.8,1.5L461,149
			l-4,8.8l-20.5,7.9l-8.5,1.8l-1.8-3.4l-9.4-7.8l2.4-7.4l-9-0.6l-6.8,1.1l-1.1-15.7l1.5-16.1l-4.2-10.6l8.6-4l14.3-0.4l3.8,0.8
			l12.4-19.4l17,0.9l6.3-2.4l17.1,0.1l10.3,3.5l14.1,2.1l14.5,5.2L525.8,94.4z"/>

	<path name="林內鄉" class="town" d="M575.6,185l-4.8,1.1l-9.9-3.8l-4.5,0.2l-3.8-3.4l-7.9-2.9l-4.1-5.5l-6.7,1.6l0.2-5.9l-7.9-1.8
			l-5.9-12.8l-3.9,6.3l-10.9-7.7l-3.6-8.4l3.5-4.7l-4.3-6l0.2-10.1l5.1-2.4l3.2-6l8-4.5l8.4-14.2l23-0.3l19.6,2.9l7.8,3.4l8.9,15.2
			l8.1,23l-1.5,6.5l-0.2,10.1l1.5,5.6l-12.2-1.9l-5.2,11.9l2,5.2L575.6,185z"/>

	<path name="二崙鄉" class="town" d="M367.3,59.3l-11.1,3.9l-3.4,4.8L349,67l-2,27.5l0.7,5.7l-7.5,9.4l0.9,3.1l9.1,4l1.8,5.7
			l-2.1,4.8l-6.1,3.4l7.6,6.1l-6.3,0.7l0.9,6.6l-5.7,0.7l-5.4,5.2l-9.9-1.6l-9.9,0.3l-4.1-2l-8.4,0.9l2.6-20l-7.2-3.9l-21.1-6.6
			l-6.5-1.4l2.1-10.6l5.9,3.3l2.8-5.2l-6-6.9L263,93.5l2.2-14.3l-4.4-3.9l2.6-8.3l-0.8-9.4l10.3-1.1l11-6.3h13.5l29.8,2.5l8.8-0.7
			l7-3.7h8.9l6.9,3.9L367.3,59.3z"/>

	<path name="崙背鄉" class="town" d="M262.6,57.5l0.8,9.4l-2.6,8.3l4.4,3.9L263,93.5l11.8,2.9l6,6.9l-2.8,5.2l-5.9-3.3l-2.1,10.6
			l6.5,1.4l21.1,6.6l7.2,3.9l-2.6,20l-13.1-0.5l-12.3,4.1l-9.7-1.1l-4.5,1.5l-5.1-4.2l-7.1-2.5l-8.3,0.2l-2.1,3.2l-9.1-1.5l-9.2,1.7
			l-3.5,3.5l-11.4,1.6v-12.2l1.8-3.2l-8-7.9l1.3-3.7l13.3,0.7l-1-15.8l-3-2.5l-6.3,1.5l-2.9-3.4l1.7-8.4l-3.1-6.4l4.1-14.3l5.2-1.7
			L210,58l6.6,1.9l9,0.3l18.1-2.6H262.6z"/>

	<path name="東勢鄉" class="town" d="M196.4,153l-0.5,16.8l-2.1,2.7l0.1,6.6l-4.4,1.8l-3.1,4.8l-1.7,12.6l-8.1,0.7l-2.4,9.7
			l3.6,3.8l5.8-2.9l9.9,2.8l1.2,6.7l6.4-3.8l6.1,3l5.8-1.2l1.8,4.1l-4.1,5.2l-11.1,3.9l-6.8-4l-5,2.4l-4.2,7l-7.8,0.5l-5.9,8.2
			l-5.5,3.6l-3.7,5.4l-8.7-1.4l-7.1,4.4l-5.1,0.4l-11.4-5.2l-8.9,0.2l4.4-15.7l-2.2-2.9l1.5-6.5l7.1,0.5l3.7-16.2l1.8-4.2l-9.2-7.3
			l2.8-1.7l1.8-7.6l2.6-0.6l2-8l7.2-1.9l3.2-7.5l-2-4.5l0.8-4.7l-4.6-5.7l5.7-7.6l4.9,7.4l4.2,2.7l9.3,0.6l5.2,2.1l9.4-0.7l6.2-2.2
			l5.1-6.1L196.4,153z"/>

	<path name="褒忠鄉" class="town" d="M240,148.5l8.6,8.2l7.2,1.5l8.3-0.1l1,9.4l-4.4,0.3l-0.7,9.3l-4.1,0.7l-1.7,12.4l-6.3-0.6
			l3.8,8.7l-6.1-1.1l-1.4,9.8l1.3,2.4l-6.7-2.5l-6.7,1l-8.6,4.2l-8.8,9.2l-1.8-4.1l-5.8,1.2l-6.1-3l-6.4,3.8l-1.2-6.7l-9.9-2.8
			l-5.8,2.9l-3.6-3.8l2.4-9.7l8.1-0.7l1.7-12.6l3.1-4.8l4.4-1.8l-0.1-6.6l2.1-2.7l0.5-16.8l10.3,0.7l11.4-1.6l3.5-3.5l9.2-1.7
			L240,148.5z"/>

	<path name="元長鄉" class="town" d="M245.5,209.4l9,9.6l-4.2,3.7l1.8,13.5l3.1,10l-2.5,7.4l0.6,13.4l14.5-2.3l21.3-7.7l6.6-0.1
			l6.9,2.5l-4.8,16.5l-12.4,25l-2.8,1.7l-2.8,8.3l-0.7,5.7l-6.5,8.6l-3.5,2l-14.5,2.5l-8.7-1.3l0.5-9.1l-7.5-4.3l-9.6-0.5l-0.4-2.9
			l-7.4-0.5l0.2-3.6l-12.3-2.2l0.2-9.6h-5.8l1.9-11.2l-6.5-2.6l-11.2-1.9l-1.6-7.9l0.4-8.8l-5.2-8.1l-1.3-7l2.8-5.1l0.4-7.8l4.2-7
			l5-2.4l6.8,4l11.1-3.9l4.1-5.2l8.8-9.2l8.6-4.2l6.7-1L245.5,209.4z"/>

	<path name="水林鄉" class="town" d="M172.6,284.7l-3.6,14.8l8.1,9.7l-3.9,14.8l2.8,6l-3.4,6.2l-5.2,1.3l-0.2,6.5l3.8,3.6l5.1,1.1
			l7.5,6.9l-5.1,7.6l-1.8,11.6l3.3,9.6l2.8,2l-5.5,15.7l-3.3,0.7l-5.9-3.9l-7.9-14.8l-12.7,2.1l-2.6,6.6l2.2,7.2l3.3,19.3l-0.4,2.9
			l-8.2,7.2l-17.4,4l-19.5-8.8l-10.7-1l-5.6,3l-8.1,0.2l1.1-5l2-7.7l3.6-4.1l1.9-3.8l0.6-2h1.5l2-0.1l5.3,1.6l-0.4-1.4l0.4-0.2v-0.2
			v-0.4V403l-0.2-0.3l1.7-0.5v-12.9l3-6.5l-5.9,1.6l0.9-9.5l0.6-0.9l1.6-0.4l0.1-0.1l0.2-0.1l0.1-0.1l0.1-0.2l0.1-0.1l0.5-0.7V372
			l0.2-0.3l0.2-0.7l1.9-3.2l1.4-5.2v-0.1l0.1-0.2l0.3-0.7l0.7-1.8l-0.5-1.6l-0.2-0.2l-0.1-0.1h-0.1l-0.2-0.1h-0.1l-1-0.2l-0.3-0.2
			h-0.2l-0.2-0.1l-2-0.5l-3.4-2.5l0.3-0.8l0.1-0.3l0.3-0.5l0.1-0.2l0.1-0.2l0.2-0.2l0.8-2l-1.2-1.6l-0.1-0.7l0.1-0.1v-0.2l0.2-0.2
			l0.1-0.1V347l5.9-2l4.1,0.5l6.5-9.6l4.3-15.7l9-4.3l1.5-4.8l5.2-0.8l11.5-9.8l4-1.4l4.9-8.2l1.8-9.6l5.1-0.7L172.6,284.7z"/>

	<path name="臺西鄉" class="town" d="M145.8,149.6l-5.7,7.6l4.6,5.7l-0.8,4.7l2,4.5l-3.2,7.5l-7.2,1.9l-2,8l-2.6,0.6l-1.8,7.6
			l-2.8,1.7l9.2,7.3l-1.8,4.2l-3.7,16.2l-7.1-0.5l-1.5,6.5l2.2,2.9l-4.4,15.7l-15.6-3.8L93,239.2l-2.8-0.7l-13.5-14.9l-1.2-3.2
			l8-14.5l1.1-3.8l-4.3-2.5l-12.8,0.4l-7.1,1.4l-9.4,4l-15.4,11.4l4.7-5.2l1.7-17.5l10-10.2l-0.4-4.7l10.8-26.5l1.1-16.2l1.1-1.6
			l36.2,0.2l8-6.1l8.3-1.3l8.2,1.3l2.6,3.5l7.7,2.9l6.1,6.1L145.8,149.6z"/>

	<path name="四湖鄉" class="town" d="M35.7,216.9l15.4-11.4l9.4-4l7.1-1.4l12.8-0.4l4.3,2.5l-1.1,3.8l-8,14.5l1.2,3.2l13.5,14.9
			l2.8,0.7l10.8,8.8l15.6,3.8l8.9-0.2l11.4,5.2l5.1-0.4l7.1-4.4l8.7,1.4l3.7-5.4l5.5-3.6l5.9-8.2l7.8-0.5l-0.4,7.8l-2.8,5.1l1.3,7
			l5.2,8.1l-0.4,8.8l1.6,7.9l-9.5-0.7l-0.2,5.3l-5.9-0.2l-10-4.2l-5.1,0.7l-1.8,9.6l-4.9,8.2l-4,1.4l-11.5,9.8L130,311l-1.5,4.8
			l-9,4.3l-4.3,15.7l-5.1-2.9l-7.9-3l-1.5-1.3l-1-0.6l-0.9-0.9l-0.2-0.2l-0.4-0.7l-0.3-0.4l-0.2-0.4l0.9-0.7l0.7-5.2h-0.4l-0.3-0.1
			h-0.2l-0.2-0.1h-0.1l-0.2-0.1h-0.1v-0.1l0.4-1.1l1.5-0.7l2.4-2.8l0.3-4.4l-3-4.1l1.8-6.1l-1.4-0.2h-0.4h-0.2l-0.2-0.1h-0.2l-4-2.3
			l-11.6-3.1l-8.2-0.1h-0.1v-0.1l0.2-0.6v-0.2l0.1-0.2v-0.2l0.1-0.4l0.2-0.9l0.1-0.5l0.1-0.2l0.1-0.3l0.2-0.8l0.5-1l0.1-0.3l0.1-0.2
			l0.1-0.2l0.2-0.4V288v-0.1h-0.1h-0.1h-0.4l-1.3,0.1l-1.5,0.1l-4.1,1.1l-3.3-1l-3.2-0.9l-0.8-0.2h-0.1l-0.2-0.1L62,287l0.9-3.4
			l0.1-0.2v-0.2l0.1-0.4l-0.1-1.1l0.1-1l1-2l-2.1-0.4l-0.5-0.1l-0.4-0.1l-2.1-0.5l-3.1-0.2l-4.4,4.7l-0.2,4.6v0.6l-8.4,5.6l-2.3,3.8
			h-0.2l-2.4-0.7l-3.4-0.3l-1.3,0.2l-0.8,0.1l-0.5,0.1h-0.3h-0.1l1.2-13.2l-4.2-2.9l-3.6,11.6l-2.8,2.9l-5.4,0.2l-5.7-5.6L7,281.5
			l0.5-4l9.8-8.3l3.9-10.6l8.3-17.8l4.4-20.1L35.7,216.9z"/>

	<path name="口湖鄉" class="town" d="M99.8,306.1l3,4.1l-0.3,4.4l-2.4,2.8l-1.5,0.7l-0.4,1.1v0.1h0.1l0.2,0.1h0.1l0.2,0.1H99
			l0.3,0.1h0.4l-0.7,5.2l0.1,2.3l0.5,0.5l0.4,0.4l1,0.6l1.5,1.3l7.9,3l4.1,3.2l-5.5,9.4l-4.1-0.5l-5.9,2v0.1l-0.1,0.1l-0.2,0.2v0.2
			l-0.1,0.1l0.1,0.7l1.2,1.6l-0.8,2l-0.2,0.2l-0.1,0.2l-0.1,0.2l-0.3,0.5l-0.1,0.3l-0.3,0.8l2.7,1.8l0.7,0.7l2,0.5l0.2,0.1h0.2
			l0.3,0.2l1,0.2h0.1l0.2,0.1h0.1l0.1,0.1l0.2,0.2l0.5,1.6l-0.7,1.8l-0.3,0.7l-0.1,0.2v0.1l-1.4,5.2l-1.9,3.2l-0.2,0.7l-0.2,0.3v0.2
			l-0.8,1.1l-0.2,0.1l-0.1,0.1l-1.6,0.4l-0.6,0.9l0.4,3.4l-1.2,6.1l2.9,5v12.9l-1.7,0.5l0.2,0.3v0.5v0.4v0.2l-0.4,0.2l0.4,1.4
			l-2.1-0.4l-3.2-1.2l-4.2,2l-1.9,3.8l-3.6,4.1l-2,7.7l-2.7,5l-15.5-8.7l-9.1,1.6l-13.4-6.1l-0.4-6.5l5.2-6.4l-1.8-5.8l-7.5-8.8
			l-2.3-6.5l0.5-10.6l3.6-15.7l-2.8-1.1l1.1-22.7l3.1-7l-5.5-1.7l0.9-10.7l-1.2-7.1l-6.7-1.1l0.5-4.4l1.5-1.1l2.4-0.1h0.1V296v-0.1
			l3-0.3l3.4,0.3l0.4,0.1l2,0.7h0.2l2.3-3.8l8.4-5.6v-0.6l0.2-4.6l4.4-4.7l3.1,0.2l2.1,0.5l0.4,0.1l0.5,0.1l2.1,0.4l-1,2l-0.1,1
			l0.1,1.1l-0.1,0.4v0.2l-0.1,0.2L62,287l0.2,0.1l0.2,0.1h0.1l0.8,0.2l3.2,0.9l3.3,1l4.1-1.1l1.5-0.1l1.3-0.1h0.4h0.2v0.1v0.1
			l-0.2,0.4l-0.1,0.2l-0.1,0.2l-0.1,0.3l-0.5,1l-0.2,0.8l-0.1,0.3l-0.1,0.2l-0.1,0.5l-0.2,0.9l-0.1,0.4v0.2l-0.1,0.2v0.2l-0.2,0.6
			v0.1h0.1h0.2h0.3h0.4h0.6l1.3-0.5l5.4,0.6l11.6,3.1l4,2.3h0.2l0.2,0.1h0.2h0.4l1.4,0.2L99.8,306.1z"/>
</svg>